<?xml version="1.0" encoding="utf-8"?>
<!-- Generator: Adobe Illustrator 16.0.0, SVG Export Plug-In . SVG Version: 6.00 Build 0)  -->
<!DOCTYPE svg PUBLIC "-//W3C//DTD SVG 1.1//EN" "http://www.w3.org/Graphics/SVG/1.1/DTD/svg11.dtd">
<svg version="1.1" id="Layer_1" xmlns="http://www.w3.org/2000/svg" xmlns:xlink="http://www.w3.org/1999/xlink" x="0px" y="0px"
	 width="150px" height="150px" viewBox="0 0 150 150" enable-background="new 0 0 150 150" xml:space="preserve">
<radialGradient id="SVGID_1_" cx="75.999" cy="74.8755" r="186.0256" gradientTransform="matrix(0.995 0 0 0.9983 0.0054 0.249)" gradientUnits="userSpaceOnUse">
	<stop  offset="0" style="stop-color:#FFFFFF"/>
	<stop  offset="0.5215" style="stop-color:#8DC63F"/>
	<stop  offset="1" style="stop-color:#8DC63F"/>
</radialGradient>
<path fill="url(#SVGID_1_)" d="M150.25,137.607c0,6.845-5.521,12.393-12.331,12.393H13.331C6.521,150,1,144.452,1,137.607V12.392
	C1,5.548,6.521,0,13.331,0h124.588c6.811,0,12.331,5.548,12.331,12.392V137.607z"/>
<g>
	<path fill="#0EA54A" d="M56.076,86.661l8.281-0.014c-0.104,0.361-0.175,0.733-0.174,1.128l0.015,9.906
		c0.004,2.278,1.854,4.124,4.134,4.12c2.28-0.003,4.125-1.855,4.122-4.133l-0.016-9.907c0-0.394-0.073-0.767-0.177-1.127
		l8.609-0.014c-0.104,0.361-0.175,0.734-0.174,1.129l0.016,9.906c0.003,2.277,1.854,4.123,4.133,4.12
		c2.281-0.004,4.125-1.855,4.121-4.133l-0.016-9.906c0-0.395-0.072-0.768-0.177-1.128l7.53-0.012l-0.059-37.224l-40.226,0.063
		L56.076,86.661z"/>
	<path fill="#0EA54A" d="M104.125,49.812c-2.279,0.003-4.123,2.771-4.117,6.183l0.023,14.819c0.005,3.406,1.857,6.169,4.137,6.165
		c2.279-0.003,4.123-2.771,4.118-6.179l-0.023-14.818C108.257,52.57,106.405,49.808,104.125,49.812z"/>
	<path fill="#0EA54A" d="M48.738,49.898c-2.28,0.004-4.123,2.771-4.118,6.183L44.644,70.9c0.005,3.407,1.858,6.169,4.137,6.165
		c2.279-0.003,4.123-2.771,4.118-6.179l-0.023-14.818C52.871,52.657,51.018,49.895,48.738,49.898z"/>
	<path fill="#0EA54A" d="M86.617,33.983l1.038-3.065c0.442-1.303,0.354-2.509-0.195-2.696c-0.548-0.186-1.352,0.72-1.794,2.022
		l-0.912,2.696c-2.599-1.279-5.471-2-8.502-1.996c-3.187,0.005-6.197,0.813-8.896,2.227l-0.991-2.896
		c-0.445-1.302-1.251-2.204-1.8-2.017c-0.549,0.189-0.632,1.396-0.186,2.697l1.131,3.303c-4.114,2.747-7.3,7.018-8.917,12.103
		l39.367-0.063C94.276,41.061,90.926,36.705,86.617,33.983z M70.266,42.699c-1.118,0.001-2.027-0.905-2.029-2.023
		c-0.002-1.118,0.904-2.028,2.023-2.029c1.118-0.002,2.027,0.904,2.029,2.022C72.291,41.787,71.384,42.696,70.266,42.699z
		 M84.751,42.676c-1.119,0.002-2.028-0.904-2.03-2.022c-0.001-1.119,0.905-2.028,2.023-2.03c1.119-0.001,2.028,0.904,2.029,2.023
		C86.775,41.766,85.869,42.674,84.751,42.676z"/>
</g>
<g>
	<path fill="#0E5129" d="M35.547,112.951h3.902v8.449h-1.693v-6.803l-1.512,0.006h-0.363c-0.844,0-1.313,0.035-1.406,0.105
		c-0.504,0.137-0.93,0.428-1.277,0.873c-0.375,0.535-0.563,1.068-0.563,1.6c0,0.656,0.254,1.26,0.762,1.811
		c0.34,0.324,0.633,0.52,0.879,0.586c0.246,0.125,0.67,0.188,1.271,0.188h1.178v1.635h-1.412c-1.047,0-1.932-0.275-2.654-0.826
		c-0.523-0.414-0.873-0.789-1.049-1.125c-0.438-0.695-0.656-1.406-0.656-2.133v-0.246c0-1.016,0.381-1.947,1.143-2.795
		c0.461-0.449,0.838-0.732,1.131-0.85c0.211-0.117,0.502-0.229,0.873-0.334C34.432,112.998,34.914,112.951,35.547,112.951z"/>
	<path fill="#0E5129" d="M47.975,114.639c0.168,0.227,0.289,0.42,0.363,0.58c0.109,0.191,0.213,0.449,0.311,0.773
		c0.117,0.391,0.176,0.922,0.176,1.594v3.814h-1.693v-3.996c0-1.344-0.607-2.242-1.822-2.695c-0.277-0.078-0.521-0.119-0.732-0.123
		c-0.211,0.004-0.453,0.045-0.727,0.123c-1.215,0.453-1.822,1.352-1.822,2.695v3.996h-1.699v-3.814c0-0.672,0.059-1.203,0.176-1.594
		c0.098-0.324,0.201-0.582,0.311-0.773c0.074-0.164,0.197-0.357,0.369-0.58c0.91-1.117,2.041-1.676,3.393-1.676
		S47.061,113.521,47.975,114.639z"/>
	<path fill="#0E5129" d="M52.727,112.957c1.137,0,1.789,0.025,1.957,0.076c0.461,0.055,0.98,0.248,1.559,0.58
		c0.316,0.195,0.652,0.494,1.008,0.896c0.633,0.785,0.949,1.678,0.949,2.678c0,0.586-0.113,1.139-0.34,1.658
		c-0.445,1.012-1.178,1.742-2.197,2.191c-0.473,0.242-1.199,0.363-2.18,0.363h-3.592l-0.188-0.035v-1.605h3.961
		c0.422,0,0.748-0.037,0.979-0.111c0.613-0.207,1.063-0.516,1.348-0.926c0.348-0.52,0.521-1.025,0.521-1.518
		c0-0.496-0.15-0.984-0.451-1.465c-0.188-0.277-0.395-0.488-0.621-0.633c-0.414-0.34-1.006-0.51-1.775-0.51h-3.961v-1.641H52.727z"
		/>
	<path fill="#0E5129" d="M59.078,112.957h5.426c0.957,0,1.707,0.287,2.25,0.861c0.242,0.227,0.41,0.445,0.504,0.656
		c0.211,0.422,0.316,0.834,0.316,1.236v0.24c0,0.617-0.268,1.221-0.803,1.811c-0.344,0.328-0.656,0.539-0.938,0.633
		c0.711,0.758,1.066,1.76,1.066,3.006h-1.705v-0.129c0-0.922-0.373-1.654-1.119-2.197c-0.426-0.301-0.982-0.451-1.67-0.451h-3.328
		v-1.629h5.531c0.605,0,1.016-0.299,1.23-0.896c0.023-0.121,0.039-0.223,0.047-0.305c0-0.332-0.139-0.633-0.416-0.902
		c-0.238-0.188-0.492-0.281-0.762-0.281c0-0.016-0.082-0.023-0.246-0.023h-5.385V112.957z"/>
	<path fill="#0E5129" d="M72.678,112.963h0.059c1.297,0,2.404,0.531,3.322,1.594c0.594,0.797,0.891,1.664,0.891,2.602v0.059
		c0,1.297-0.543,2.398-1.629,3.305c-0.789,0.586-1.654,0.879-2.596,0.879h-0.059c-1.289,0-2.393-0.527-3.311-1.582
		c-0.32-0.449-0.545-0.861-0.674-1.236c-0.152-0.469-0.229-0.928-0.229-1.377v-0.059c0-1.273,0.525-2.363,1.576-3.27
		c0.711-0.508,1.359-0.793,1.945-0.855C72.154,112.982,72.389,112.963,72.678,112.963z M70.141,117.17
		c0,0.734,0.287,1.379,0.861,1.934c0.512,0.438,1.049,0.656,1.611,0.656h0.164c0.453,0,0.914-0.154,1.383-0.463
		c0.484-0.355,0.813-0.809,0.984-1.359c0.055-0.145,0.094-0.393,0.117-0.744c0-0.719-0.279-1.354-0.838-1.904
		c-0.523-0.465-1.098-0.697-1.723-0.697c-0.73,0-1.379,0.305-1.945,0.914c-0.238,0.313-0.389,0.578-0.451,0.797
		C70.195,116.607,70.141,116.896,70.141,117.17z"/>
	<path fill="#0E5129" d="M77.828,112.963h1.693v8.438h-1.693V112.963z"/>
	<path fill="#0E5129" d="M83.459,112.957c1.137,0,1.789,0.025,1.957,0.076c0.461,0.055,0.98,0.248,1.559,0.58
		c0.316,0.195,0.652,0.494,1.008,0.896c0.633,0.785,0.949,1.678,0.949,2.678c0,0.586-0.113,1.139-0.34,1.658
		c-0.445,1.012-1.178,1.742-2.197,2.191c-0.473,0.242-1.199,0.363-2.18,0.363h-3.592l-0.188-0.035v-1.605h3.961
		c0.422,0,0.748-0.037,0.979-0.111c0.613-0.207,1.063-0.516,1.348-0.926c0.348-0.52,0.521-1.025,0.521-1.518
		c0-0.496-0.15-0.984-0.451-1.465c-0.188-0.277-0.395-0.488-0.621-0.633c-0.414-0.34-1.006-0.51-1.775-0.51h-3.961v-1.641H83.459z"
		/>
	<path fill="#0E5129" d="M97.381,112.951h3.902v8.449H99.59v-6.803l-1.512,0.006h-0.363c-0.844,0-1.313,0.035-1.406,0.105
		c-0.504,0.137-0.93,0.428-1.277,0.873c-0.375,0.535-0.563,1.068-0.563,1.6c0,0.656,0.254,1.26,0.762,1.811
		c0.34,0.324,0.633,0.52,0.879,0.586c0.246,0.125,0.67,0.188,1.271,0.188h1.178v1.635h-1.412c-1.047,0-1.932-0.275-2.654-0.826
		c-0.523-0.414-0.873-0.789-1.049-1.125c-0.438-0.695-0.656-1.406-0.656-2.133v-0.246c0-1.016,0.381-1.947,1.143-2.795
		c0.461-0.449,0.838-0.732,1.131-0.85c0.211-0.117,0.502-0.229,0.873-0.334C96.266,112.998,96.748,112.951,97.381,112.951z"/>
	<path fill="#0E5129" d="M102.174,112.963h4.699c1.703,0,2.885,0.744,3.545,2.232c0.16,0.414,0.24,0.859,0.24,1.336
		c0,0.992-0.387,1.859-1.16,2.602c-0.477,0.422-1.061,0.707-1.752,0.855c-0.23,0.035-0.5,0.053-0.809,0.053l-3.07,0.035v1.324
		h-1.705v-2.994h4.641c0.605,0,1.049-0.113,1.33-0.34c0.359-0.23,0.617-0.602,0.773-1.113c0.031-0.148,0.047-0.268,0.047-0.357
		v-0.176c0-0.441-0.189-0.871-0.568-1.289c-0.395-0.348-0.832-0.521-1.313-0.521h-4.898V112.963z"/>
	<path fill="#0E5129" d="M111.549,112.963h4.699c1.703,0,2.885,0.744,3.545,2.232c0.16,0.414,0.24,0.859,0.24,1.336
		c0,0.992-0.387,1.859-1.16,2.602c-0.477,0.422-1.061,0.707-1.752,0.855c-0.23,0.035-0.5,0.053-0.809,0.053l-3.07,0.035v1.324
		h-1.705v-2.994h4.641c0.605,0,1.049-0.113,1.33-0.34c0.359-0.23,0.617-0.602,0.773-1.113c0.031-0.148,0.047-0.268,0.047-0.357
		v-0.176c0-0.441-0.189-0.871-0.568-1.289c-0.395-0.348-0.832-0.521-1.313-0.521h-4.898V112.963z"/>
	<path fill="#0E5129" d="M28.023,127.357c1.137,0,1.789,0.025,1.957,0.076c0.461,0.055,0.98,0.248,1.559,0.58
		c0.316,0.195,0.652,0.494,1.008,0.896c0.633,0.785,0.949,1.678,0.949,2.678c0,0.586-0.113,1.139-0.34,1.658
		c-0.445,1.012-1.178,1.742-2.197,2.191c-0.473,0.242-1.199,0.363-2.18,0.363h-3.592L25,135.766v-1.605h3.961
		c0.422,0,0.748-0.037,0.979-0.111c0.613-0.207,1.063-0.516,1.348-0.926c0.348-0.52,0.521-1.025,0.521-1.518
		c0-0.496-0.15-0.984-0.451-1.465c-0.188-0.277-0.395-0.488-0.621-0.633c-0.414-0.34-1.006-0.51-1.775-0.51H25v-1.641H28.023z"/>
	<path fill="#0E5129" d="M39.156,127.357h3.697v1.641h-3.938c-0.711,0-1.25,0.131-1.617,0.393c-0.5,0.262-0.883,0.768-1.148,1.518
		c-0.059,0.254-0.088,0.473-0.088,0.656c0,0.637,0.238,1.234,0.715,1.793c0.313,0.301,0.605,0.5,0.879,0.598
		c0.301,0.137,0.713,0.205,1.236,0.205h3.961v1.641H39.08c-0.965,0-1.68-0.117-2.145-0.352c-1.039-0.453-1.783-1.195-2.232-2.227
		c-0.219-0.516-0.328-1.064-0.328-1.646c0-1.258,0.498-2.332,1.494-3.223c0.652-0.492,1.242-0.783,1.77-0.873
		C37.908,127.398,38.414,127.357,39.156,127.357z M38.441,130.768h4.412v1.623h-4.412V130.768z"/>
	<path fill="#0E5129" d="M43.75,127.363h1.652l2.666,5.215l2.707-5.215h1.611L48.068,136L43.75,127.363z"/>
	<path fill="#0E5129" d="M57.906,127.357h3.697v1.641h-3.938c-0.711,0-1.25,0.131-1.617,0.393c-0.5,0.262-0.883,0.768-1.148,1.518
		c-0.059,0.254-0.088,0.473-0.088,0.656c0,0.637,0.238,1.234,0.715,1.793c0.313,0.301,0.605,0.5,0.879,0.598
		c0.301,0.137,0.713,0.205,1.236,0.205h3.961v1.641H57.83c-0.965,0-1.68-0.117-2.145-0.352c-1.039-0.453-1.783-1.195-2.232-2.227
		c-0.219-0.516-0.328-1.064-0.328-1.646c0-1.258,0.498-2.332,1.494-3.223c0.652-0.492,1.242-0.783,1.77-0.873
		C56.658,127.398,57.164,127.357,57.906,127.357z M57.191,130.768h4.412v1.623h-4.412V130.768z"/>
	<path fill="#0E5129" d="M62.5,127.363h1.699v3.99c0,1.117,0.428,1.93,1.283,2.438c0.375,0.246,0.873,0.369,1.494,0.369h4.02v1.641
		h-3.961c-1.07,0-1.928-0.225-2.572-0.674c-0.18-0.09-0.449-0.309-0.809-0.656c-0.465-0.523-0.779-1.051-0.943-1.582
		c-0.141-0.402-0.211-0.979-0.211-1.729V127.363z"/>
	<path fill="#0E5129" d="M76.1,127.363h0.059c1.297,0,2.404,0.531,3.322,1.594c0.594,0.797,0.891,1.664,0.891,2.602v0.059
		c0,1.297-0.543,2.398-1.629,3.305c-0.789,0.586-1.654,0.879-2.596,0.879h-0.059c-1.289,0-2.393-0.527-3.311-1.582
		c-0.32-0.449-0.545-0.861-0.674-1.236c-0.152-0.469-0.229-0.928-0.229-1.377v-0.059c0-1.273,0.525-2.363,1.576-3.27
		c0.711-0.508,1.359-0.793,1.945-0.855C75.576,127.383,75.811,127.363,76.1,127.363z M73.563,131.57
		c0,0.734,0.287,1.379,0.861,1.934c0.512,0.438,1.049,0.656,1.611,0.656h0.164c0.453,0,0.914-0.154,1.383-0.463
		c0.484-0.355,0.813-0.809,0.984-1.359c0.055-0.145,0.094-0.393,0.117-0.744c0-0.719-0.279-1.354-0.838-1.904
		c-0.523-0.465-1.098-0.697-1.723-0.697c-0.73,0-1.379,0.305-1.945,0.914c-0.238,0.313-0.389,0.578-0.451,0.797
		C73.617,131.008,73.563,131.297,73.563,131.57z"/>
	<path fill="#0E5129" d="M81.262,127.363h4.699c1.703,0,2.885,0.744,3.545,2.232c0.16,0.414,0.24,0.859,0.24,1.336
		c0,0.992-0.387,1.859-1.16,2.602c-0.477,0.422-1.061,0.707-1.752,0.855c-0.23,0.035-0.5,0.053-0.809,0.053l-3.07,0.035v1.324H81.25
		v-2.994h4.641c0.605,0,1.049-0.113,1.33-0.34c0.359-0.23,0.617-0.602,0.773-1.113c0.031-0.148,0.047-0.268,0.047-0.357v-0.176
		c0-0.441-0.189-0.871-0.568-1.289c-0.395-0.348-0.832-0.521-1.313-0.521h-4.898V127.363z"/>
	<path fill="#0E5129" d="M94.82,129.021c-0.762,0-1.424,0.342-1.986,1.025c-0.34,0.41-0.51,1.018-0.51,1.822v3.932h-1.699v-2.941
		c0-1.383,0.027-2.074,0.082-2.074c0.004-0.148,0.105-0.473,0.305-0.973c0.203-0.434,0.48-0.83,0.832-1.189
		c0.445-0.43,0.852-0.717,1.219-0.861c0.563-0.266,1.166-0.398,1.811-0.398c0.648,0,1.254,0.133,1.816,0.398
		c0.367,0.145,0.771,0.432,1.213,0.861c0.352,0.359,0.629,0.756,0.832,1.189c0.199,0.5,0.303,0.824,0.311,0.973
		c0.055,0,0.082,0.691,0.082,2.074v2.941h-1.705v-3.932c0-0.805-0.168-1.412-0.504-1.822c-0.563-0.684-1.227-1.025-1.992-1.025
		H94.82z M94.035,131.441h1.676v4.359h-1.676V131.441z"/>
	<path fill="#0E5129" d="M104.781,127.357h3.697v1.641h-3.938c-0.711,0-1.25,0.131-1.617,0.393c-0.5,0.262-0.883,0.768-1.148,1.518
		c-0.059,0.254-0.088,0.473-0.088,0.656c0,0.637,0.238,1.234,0.715,1.793c0.313,0.301,0.605,0.5,0.879,0.598
		c0.301,0.137,0.713,0.205,1.236,0.205h3.961v1.641h-3.773c-0.965,0-1.68-0.117-2.145-0.352c-1.039-0.453-1.783-1.195-2.232-2.227
		c-0.219-0.516-0.328-1.064-0.328-1.646c0-1.258,0.498-2.332,1.494-3.223c0.652-0.492,1.242-0.783,1.77-0.873
		C103.533,127.398,104.039,127.357,104.781,127.357z M104.066,130.768h4.412v1.623h-4.412V130.768z"/>
	<path fill="#0E5129" d="M117.021,129.039c0.168,0.227,0.289,0.42,0.363,0.58c0.109,0.191,0.213,0.449,0.311,0.773
		c0.117,0.391,0.176,0.922,0.176,1.594v3.814h-1.693v-3.996c0-1.344-0.607-2.242-1.822-2.695c-0.277-0.078-0.521-0.119-0.732-0.123
		c-0.211,0.004-0.453,0.045-0.727,0.123c-1.215,0.453-1.822,1.352-1.822,2.695v3.996h-1.699v-3.814c0-0.672,0.059-1.203,0.176-1.594
		c0.098-0.324,0.201-0.582,0.311-0.773c0.074-0.164,0.197-0.357,0.369-0.58c0.91-1.117,2.041-1.676,3.393-1.676
		S116.107,127.922,117.021,129.039z"/>
	<path fill="#0E5129" d="M118.75,127.363h8.496v1.635h-3.393v6.803h-1.711v-6.803h-3.393V127.363z"/>
</g>
<text transform="matrix(1 0 0 1 193 63)"><tspan x="0" y="0" font-family="'Android'" font-size="12">  android app </tspan><tspan x="0" y="14.4" font-family="'Android'" font-size="12">development</tspan></text>
</svg>
