<?xml version="1.0" encoding="utf-8"?>
<!-- Generator: Adobe Illustrator 16.0.0, SVG Export Plug-In . SVG Version: 6.00 Build 0)  -->
<!DOCTYPE svg PUBLIC "-//W3C//DTD SVG 1.1//EN" "http://www.w3.org/Graphics/SVG/1.1/DTD/svg11.dtd">
<svg version="1.1" id="Layer_1" xmlns="http://www.w3.org/2000/svg" xmlns:xlink="http://www.w3.org/1999/xlink" x="0px" y="0px"
	 width="70px" height="70px" viewBox="0 0 70 70" enable-background="new 0 0 70 70" xml:space="preserve">
<g>
	<path fill="#5A4435" d="M33.437,46.48c0,0,0.668,1.392,1.924,1.338c0,0,1.148,0.08,1.763-1.256c0,0,0.026,1.638-1.736,1.884
		C35.387,48.446,33.757,48.446,33.437,46.48z"/>
	<path fill="#5A4435" d="M41.478,42.302c-0.159-1.284-1.176-1.667-1.176-1.667c-1.843-0.491-2.244,1.094-2.244,1.094
		c-0.267,1.364,0,1.692,0,1.692c0.669,1.995,2.567,1.23,2.567,1.23C41.692,43.939,41.478,42.302,41.478,42.302z M39.488,43.339
		c-0.332,0-0.601-0.274-0.601-0.614c0-0.339,0.269-0.616,0.601-0.616s0.601,0.277,0.601,0.616
		C40.089,43.064,39.82,43.339,39.488,43.339z"/>
	<path fill="#5A4435" d="M31.833,42.246c-0.16-1.544-1.522-1.611-1.522-1.611c-1.509-0.232-1.883,0.997-1.883,0.997
		c-0.174,0.737-0.16,1.067-0.16,1.067c0.106,1.336,0.828,1.773,0.828,1.773c0.694,0.737,1.791,0.205,1.791,0.205
		C31.974,44.248,31.833,42.246,31.833,42.246z M30.07,43.271c-0.332,0-0.601-0.282-0.601-0.63c0-0.346,0.27-0.628,0.601-0.628
		s0.599,0.282,0.599,0.628C30.669,42.989,30.402,43.271,30.07,43.271z"/>
	<path fill="#5A4435" d="M35.521,50.111c0,0-0.721,4.125,5.611,4.371c0,0,4.89,0.109,4.221-5.106c0,0-1.925,2.484-4.89,0.464
		C40.463,49.84,36.589,47.272,35.521,50.111z"/>
	<path fill="#5A4435" d="M34.41,50.142c0,0,0.72,4.124-5.612,4.368c0,0-4.889,0.109-4.221-5.106c0,0,1.923,2.483,4.889,0.464
		C29.466,49.867,33.341,47.299,34.41,50.142z"/>
	<path fill="#5A4435" d="M26.91,37.904l0.531-0.451c0,0,0.521,1.282,1.624,0.84c0,0,1.662-0.646,2.013-0.695
		c0,0,0.821-0.215,1.664,1.127l-0.502,0.337c0,0-0.4-1.137-1.644-0.677c0,0-1.573,0.636-1.853,0.656
		C28.743,39.041,27.782,39.329,26.91,37.904z"/>
	<path fill="#5A4435" d="M45.833,39.583c0,0,0.735,0.82,2.419,1.078c0,0,1.669,0.438,2.004,1.367c0,0,0.025,0.164-0.4,0.396
		c0,0-1.257,0.793-1.966,1.421c0,0-2.39,1.283-1.868,1.925c0,0,0.574,0.807,1.321,0.027c0,0,3.835-2.989,4.394-3.319
		c0,0,1.003-0.628,0.135-1.297c0,0-2.191-1.708-3.326-1.816c0,0-1.298-0.532-1.563-0.737C46.982,38.627,45.033,38.15,45.833,39.583z
		"/>
	<path fill="#5A4435" d="M21.139,39.175c0,0,1.203-1.024,1.783,0.059c0,0,0.4,0.636-1.162,1.312c0,0-2.425,1.024-2.584,1.313
		c0,0-1.223,0.674-0.521,0.921c0,0,3.367,1.782,4.287,2.129c0,0,0.922,0.268,0.742,0.881c0,0-0.241,1.067-1.303,0.86
		c0,0-0.701-0.43-1.423-0.899c0,0-3.727-2.009-4.567-2.255c0,0-0.902-0.491-0.02-1.494C17.252,40.996,20.758,39.665,21.139,39.175z"
		/>
	
		<linearGradient id="SVGID_1_" gradientUnits="userSpaceOnUse" x1="-97.749" y1="-29.6875" x2="-61.251" y2="-29.6875" gradientTransform="matrix(1 0 0 -1 115.5 -11.5)">
		<stop  offset="0" style="stop-color:#FFFFFF"/>
		<stop  offset="1" style="stop-color:#C2B59F"/>
	</linearGradient>
	<path fill="url(#SVGID_1_)" stroke="#BFBBA9" stroke-miterlimit="10" d="M25.233,32.47c0,0-1.896-1.012-3.473-7.593
		c0,0-0.481-0.684-0.454-1.421c0,0-1.658-6.829-2.779-8.222c0,0-2.004-4.371,0.428-6.882c0,0,2.11-2.841,4.167-3.194
		c0,0,2.846-0.345,4.693-1.475c0.031-0.017,0.061-0.038,0.09-0.057c1.843-1.175,4.809-1.447,7.747-1.311
		c0,0,8.497,0.709,10.526,2.021c0,0,5.372,2.676,6.841,6.119c0,0,1.067,1.364,1.229,2.076c0,0-0.536,5.571-3.18,8.028
		c0,0-3.5,4.78-4.088,6.419c0,0-0.976,7.074-2.219,7.115l-3.245-0.861l-3.486-2.826l-3.688-0.86l-3.086,1.435L25.233,32.47z"/>
	
		<linearGradient id="SVGID_2_" gradientUnits="userSpaceOnUse" x1="-90.2524" y1="-42.856" x2="-71.1113" y2="-42.856" gradientTransform="matrix(1 0 0 -1 115.5 -11.5)">
		<stop  offset="0" style="stop-color:#FFFFFF"/>
		<stop  offset="1" style="stop-color:#C2B59F"/>
	</linearGradient>
	<path fill="url(#SVGID_2_)" stroke="#BFBBA9" stroke-miterlimit="10" d="M25.248,31.265l0.08,3.36c0,0,9.178-6.31,18.956,1.312
		c0,0,0.322-3.072-0.16-5.204c0,0-2.59-4.22-10.072-3.947C34.05,26.787,27.986,26.787,25.248,31.265z"/>
	<path opacity="0.5" fill="#BE202E" enable-background="new    " d="M44.224,29.731c0,0,1.096-1.002,1.141-3.257
		c0-0.03,0.001-0.056,0.002-0.083c0.021-2.316,0.3-4.363,0.561-5.02c0,0,1.824-6.412,2.443-6.965c0,0,1.305-3.851,3.147-4.566
		c0,0-1.604,0.348-2.545,2.294c0,0-2.745,6.964-3.286,9.178c0,0-0.602,4.302-0.481,5.141C45.205,26.452,44.985,28.993,44.224,29.731
		z"/>
	<path fill="#5A4435" d="M44.169,29.759c0,0,1.097-1.001,1.143-3.259c0-0.024,0-0.055,0-0.082c0.021-2.313,0.301-4.362,0.563-5.018
		c0,0,1.822-6.412,2.444-6.964c0,0,1.303-3.851,3.146-4.569c0,0-1.604,0.35-2.544,2.294c0,0-2.746,6.966-3.287,9.178
		c0,0-0.602,4.302-0.48,5.143C45.152,26.481,44.932,29.02,44.169,29.759z"/>
	<path opacity="0.5" fill="#5A4435" enable-background="new    " d="M51.363,9.99c0,0-1.79,4.97-2.698,7.974
		c0,0-2.912,7.948-3.339,8.959v-1.694l0.106-1.391l0.241-1.886l0.507-1.693l0.534-1.995l0.91-2.403l0.934-2.295l0.854-1.638
		l0.776-1.147l0.775-0.711l0.454-0.19L51.363,9.99z"/>
	<path opacity="0.5" fill="#5A4435" enable-background="new    " d="M45.166,4.447c0,0-3.259,6.443-3.848,11.197
		c0,0-0.908,6.992-0.589,9.83c0,0,0.696-6.28,0.804-9.722c0,0,0.854-3.552,1.495-4.424C43.028,11.329,45.487,5.483,45.166,4.447z"/>
	<path opacity="0.5" fill="#5A4435" enable-background="new    " d="M36.296,26.405c-3.073-18.164,1.71-22.943,1.71-22.943
		S36.322,11,36.483,12.284c0,0-0.774,8.044-0.496,9.067L36.296,26.405z"/>
	<path opacity="0.5" fill="#584537" enable-background="new    " d="M31.166,18.593C33.893,6.787,32.71,3.535,32.525,3.127
		c0.063,0.017,0.126,0.038,0.191,0.062c0,0-0.073-0.033-0.197-0.075C32.508,3.09,32.501,3.08,32.501,3.08
		c-0.076-0.014-0.15-0.022-0.221-0.03c-0.777-0.177-2.39-0.198-3.146,2.324c0,0-0.854,4.315,0,9.614c0,0,1.603,9.941,2.833,11.962
		c0,0-0.428-2.797-0.926-6.067C31.078,19.811,31.166,18.593,31.166,18.593z"/>
	<path opacity="0.5" fill="#5A4435" enable-background="new    " d="M24.566,6.029c0,0,1.176,0.315,1.136,1.832
		c0,0,0.04,2.704,0.092,5.109c0,0,0.616,6.117,0.241,7.481c0,0,0.426,5.656,2.271,7.648c0,0-2.646-2.131-3.393-10.652
		c0,0,0-4.396-0.908-7.346c0,0-0.562-2.13-1.364-3.059c0,0-0.642-1.121,0.695-1.394C23.337,5.647,24.165,5.812,24.566,6.029z"/>
	<path fill="#5A4435" d="M24.165,5.823c0,0-2.165-0.123-0.881,1.803c0,0,2.524,4.754,2.364,7.539c0,0,0.281,8.768,1.042,10.244
		c0,0-1.283-2.582-1.764-7.867c0,0-0.242-4.466-0.842-7.128c0,0-0.441-2.047-1.402-3.277C22.683,7.136,21.761,5.209,24.165,5.823z"
		/>
	<path opacity="0.5" fill="#5A4435" enable-background="new    " d="M20.372,7.012c0,0,1.549-0.491,0.961,2.186
		c0,0,0.909,10.324,1.764,13.547l-0.428-0.818l-1.497-6.993l-1.229-4.042l-0.961-1.257C18.983,9.634,18.447,8.27,20.372,7.012z"/>
	<path fill="#5A4435" d="M20.398,7.053c0,0-2.765,1.967-0.481,2.787c0,0,1.644,0.493,2.405,8.316c0,0,1.256,10.38,3.553,11.963
		c0,0-2.511-2.567-4.113-10.925c0,0-1.122-5.464-2.084-7.813c0,0-1.883-1.583-0.44-3.332C19.236,8.05,19.864,7.313,20.398,7.053z"/>
	<path fill="#5A4435" d="M32.608,3.217c0,0-2.565-1.203-3.581,2.186c0,0-0.855,4.315,0,9.611c0,0,1.603,9.943,2.832,11.964
		c0,0-2.137-13.986-2.405-15.951C29.455,11.028,28.761,1.796,32.608,3.217z"/>
</g>
<g>
	<path fill="#5A4435" d="M15.969,64.95l-0.839,2.543h-1.08l2.747-8.084h1.259l2.758,8.084h-1.115l-0.864-2.543H15.969z
		 M18.619,64.135l-0.792-2.326c-0.18-0.528-0.3-1.008-0.419-1.476h-0.024c-0.12,0.479-0.251,0.972-0.408,1.463l-0.792,2.339H18.619z
		"/>
	<path fill="#5A4435" d="M21.934,63.26c0-0.6-0.012-1.092-0.048-1.571h0.936l0.06,0.959h0.024c0.288-0.552,0.959-1.091,1.919-1.091
		c0.803,0,2.051,0.479,2.051,2.471v3.466h-1.056v-3.346c0-0.936-0.348-1.716-1.343-1.716c-0.695,0-1.235,0.492-1.415,1.08
		c-0.048,0.132-0.072,0.312-0.072,0.491v3.49h-1.056V63.26z"/>
	<path fill="#5A4435" d="M29.816,60.021v1.667h1.512v0.804h-1.512v3.13c0,0.72,0.204,1.128,0.792,1.128
		c0.275,0,0.479-0.036,0.611-0.072l0.048,0.791c-0.203,0.084-0.527,0.145-0.936,0.145c-0.491,0-0.887-0.156-1.139-0.444
		c-0.3-0.312-0.408-0.827-0.408-1.511v-3.166h-0.899v-0.804h0.899v-1.392L29.816,60.021z"/>
	<path fill="#5A4435" d="M35.731,67.493l-0.084-0.731h-0.036c-0.324,0.456-0.947,0.863-1.775,0.863
		c-1.175,0-1.774-0.827-1.774-1.667c0-1.403,1.247-2.171,3.49-2.159V63.68c0-0.48-0.132-1.344-1.319-1.344
		c-0.54,0-1.104,0.168-1.512,0.432l-0.239-0.695c0.479-0.312,1.175-0.516,1.906-0.516c1.775,0,2.207,1.211,2.207,2.374v2.171
		c0,0.504,0.024,0.996,0.096,1.392H35.731z M35.575,64.531c-1.151-0.024-2.458,0.18-2.458,1.307c0,0.684,0.455,1.008,0.995,1.008
		c0.756,0,1.235-0.479,1.403-0.972c0.036-0.107,0.06-0.228,0.06-0.336V64.531z"/>
	<path fill="#5A4435" d="M43.303,61.688c-0.024,0.42-0.048,0.888-0.048,1.595v3.37c0,1.332-0.265,2.147-0.828,2.65
		C41.863,69.832,41.048,70,40.316,70c-0.696,0-1.464-0.168-1.932-0.479l0.265-0.804c0.384,0.239,0.983,0.455,1.703,0.455
		c1.079,0,1.87-0.563,1.87-2.026v-0.647h-0.023c-0.324,0.539-0.947,0.971-1.847,0.971c-1.439,0-2.471-1.223-2.471-2.83
		c0-1.967,1.283-3.082,2.614-3.082c1.008,0,1.56,0.527,1.811,1.007h0.024l0.048-0.875H43.303z M42.211,63.979
		c0-0.181-0.012-0.336-0.06-0.48c-0.192-0.611-0.708-1.115-1.476-1.115c-1.007,0-1.727,0.852-1.727,2.195
		c0,1.139,0.575,2.087,1.715,2.087c0.647,0,1.235-0.408,1.463-1.08c0.061-0.18,0.084-0.384,0.084-0.563V63.979z"/>
	<path fill="#5A4435" d="M50.263,64.543c0,2.146-1.487,3.082-2.891,3.082c-1.571,0-2.782-1.151-2.782-2.986
		c0-1.942,1.271-3.082,2.878-3.082C49.135,61.557,50.263,62.768,50.263,64.543z M45.657,64.603c0,1.271,0.731,2.231,1.763,2.231
		c1.008,0,1.763-0.948,1.763-2.255c0-0.983-0.491-2.231-1.738-2.231C46.196,62.348,45.657,63.499,45.657,64.603z"/>
	<path fill="#5A4435" d="M51.598,63.26c0-0.6-0.013-1.092-0.049-1.571h0.936l0.061,0.959h0.023c0.288-0.552,0.96-1.091,1.919-1.091
		c0.804,0,2.051,0.479,2.051,2.471v3.466h-1.055v-3.346c0-0.936-0.349-1.716-1.344-1.716c-0.695,0-1.235,0.492-1.415,1.08
		c-0.048,0.132-0.072,0.312-0.072,0.491v3.49h-1.055V63.26z"/>
</g>
</svg>
