<?xml version="1.0" encoding="utf-8"?>
<!-- Generator: Adobe Illustrator 16.0.0, SVG Export Plug-In . SVG Version: 6.00 Build 0)  -->
<!DOCTYPE svg PUBLIC "-//W3C//DTD SVG 1.1//EN" "http://www.w3.org/Graphics/SVG/1.1/DTD/svg11.dtd">
<svg version="1.1" id="Layer_1" xmlns="http://www.w3.org/2000/svg" xmlns:xlink="http://www.w3.org/1999/xlink" x="0px" y="0px"
	 width="952px" height="418px" viewBox="0 0 952 418" enable-background="new 0 0 952 418" xml:space="preserve">
<linearGradient id="SVGID_1_" gradientUnits="userSpaceOnUse" x1="397.25" y1="414.3945" x2="397.25" y2="-308.5692" gradientTransform="matrix(1 0 0 -1 80 322)">
	<stop  offset="0" style="stop-color:#9EA0A3"/>
	<stop  offset="0.5699" style="stop-color:#FFFFFF"/>
	<stop  offset="1" style="stop-color:#9C9EA1"/>
</linearGradient>
<rect fill="url(#SVGID_1_)" width="954.5" height="418"/>
<g>
	<path d="M387.691,34.75c-4.209,0-6.313,0.989-6.313,2.965v12.851c0,2.293,2.314,3.439,6.945,3.439h13.811
		c0.92,0,1.381,0.48,1.381,1.441c0,1.012-0.461,1.519-1.381,1.519h-14.324c-6.761,0-10.141-2.104-10.141-6.313V37.709
		c0-3.946,3.301-5.919,9.904-5.919h14.561c0.92,0,1.381,0.487,1.381,1.46c0,1-0.461,1.5-1.381,1.5H387.691z"/>
	<path d="M432.201,51.137c0,3.885-3.025,5.828-9.076,5.828h-7.063c-6.182,0-9.272-1.943-9.272-5.828v-7.442
		c0-3.964,3.13-5.946,9.391-5.946h6.945c6.05,0,9.076,1.969,9.076,5.906V51.137z M428.61,43.343c0-1.836-1.645-2.754-4.933-2.754
		h-8.01c-3.578,0-5.366,1.023-5.366,3.068v7.437c0,1.941,1.789,2.911,5.366,2.911h8.01c3.288,0,4.933-0.97,4.933-2.911V43.343z"/>
	<path d="M462.11,55.587c0,1.051-0.586,1.575-1.756,1.575c-1.171,0-1.756-0.526-1.756-1.578V42.957c0-1.579-1.588-2.368-4.764-2.368
		h-8.781c-3.203,0-4.804,0.789-4.804,2.368v12.627c0,1.052-0.586,1.578-1.756,1.578c-1.171,0-1.756-0.524-1.756-1.575V42.986
		c0-3.492,3.085-5.237,9.259-5.237h6.776c6.225,0,9.337,1.746,9.337,5.237V55.587z"/>
	<path d="M471.146,40.589v14.995c0,1.052-0.572,1.578-1.716,1.578c-1.197,0-1.796-0.526-1.796-1.578V40.589h-1.715
		c-0.962,0-1.442-0.493-1.442-1.479c0-0.908,0.48-1.362,1.442-1.362h1.715v-4.607c0-1.032,0.611-1.549,1.835-1.549
		c1.117,0,1.676,0.517,1.676,1.549v4.607h6.984c0.973,0,1.46,0.467,1.46,1.4c0,0.961-0.487,1.44-1.46,1.44H471.146z"/>
	<path d="M504.844,51.334c0,3.754-2.736,5.631-8.208,5.631h-10.259c-5.762,0-8.642-1.807-8.642-5.422V49.01
		c0-3.746,2.814-5.619,8.444-5.619h15.271c-0.237-1.868-1.657-2.802-4.262-2.802h-4.262c-0.842,0-1.263-0.493-1.263-1.479
		c0-0.908,0.421-1.362,1.263-1.362h3.709c5.472,0,8.208,1.917,8.208,5.749V51.334z M501.489,46.351h-16.13
		c-2.742,0-4.112,0.864-4.112,2.59v2.63c0,1.623,1.462,2.434,4.389,2.434h11.624c2.819,0,4.229-1.23,4.229-3.69V46.351z"/>
	<path d="M518.654,56.965c-6.34,0-9.51-1.89-9.51-5.67v-7.915c0-3.754,2.881-5.631,8.642-5.631h12.903
		c1.078,0,1.618,0.454,1.618,1.362c0,0.986-0.54,1.479-1.618,1.479h-13.377c-3.104,0-4.656,0.892-4.656,2.675v7.83
		c0,1.941,1.789,2.911,5.367,2.911h12.666c0.973,0,1.46,0.521,1.46,1.56c0,0.933-0.487,1.399-1.46,1.399H518.654z"/>
	<path d="M541.698,40.589v14.995c0,1.052-0.572,1.578-1.717,1.578c-1.197,0-1.796-0.526-1.796-1.578V40.589h-1.714
		c-0.962,0-1.442-0.493-1.442-1.479c0-0.908,0.48-1.362,1.442-1.362h1.714v-4.607c0-1.032,0.612-1.549,1.836-1.549
		c1.117,0,1.677,0.517,1.677,1.549v4.607h6.983c0.974,0,1.46,0.467,1.46,1.4c0,0.961-0.486,1.44-1.46,1.44H541.698z"/>
	<path d="M576.461,51.835c0,3.42-2.446,5.13-7.34,5.13h-14.915c-1.026,0-1.539-0.479-1.539-1.439c0-1.013,0.513-1.52,1.539-1.52
		h15.507c2.104,0,3.157-0.731,3.157-2.194v-1.136c0-1.41-1.184-2.115-3.552-2.115h-8.286c-5.419,0-8.128-1.625-8.128-4.875v-1.258
		c0-3.119,2.59-4.678,7.773-4.678h4.104c1.025,0,1.539,0.467,1.539,1.4c0,0.961-0.514,1.44-1.539,1.44h-4.933
		c-2.289,0-3.433,0.605-3.433,1.815v1.184c0,1.42,1.352,2.131,4.056,2.131h8.428c5.041,0,7.562,1.657,7.562,4.972V51.835z"/>
</g>
</svg>
