<?xml version="1.0" encoding="utf-8"?>
<!-- Generator: Adobe Illustrator 16.0.0, SVG Export Plug-In . SVG Version: 6.00 Build 0)  -->
<!DOCTYPE svg PUBLIC "-//W3C//DTD SVG 1.1//EN" "http://www.w3.org/Graphics/SVG/1.1/DTD/svg11.dtd">
<svg version="1.1" id="Layer_1" xmlns="http://www.w3.org/2000/svg" xmlns:xlink="http://www.w3.org/1999/xlink" x="0px" y="0px"
	 width="70px" height="70px" viewBox="0 0 70 70" enable-background="new 0 0 70 70" xml:space="preserve">
<path display="none" fill="#00126C" d="M60.221,37.289c0.5,0.389,1.873-0.318,1.873-0.318c-0.961-1.063-3.838-3.577-3.838-3.577
	c-4.842-7.471-9.82-4.674-9.82-4.674c-3.652,1.84-3.426-1.169-3.426-1.169c2.281-1.841,1.369-4.498,1.369-4.498
	c3.426-0.141,3.791-3.292,3.791-3.292c2.01-3.222,6.029-1.24,6.029-1.24c2.469,1.522,3.197,0.78,3.197,0.78
	c0.502-0.248-0.273-0.85-0.273-0.85c0.457,0.105,1.918-0.39,1.918-0.39c-0.41-1.203-6.211-1.558-6.211-1.558
	c-6.395-0.922-6.395,1.63-6.395,1.63c-0.596,2.444-2.33,1.664-2.33,1.664c-0.686-1.842-4.568-3.792-4.568-3.792
	c-2.145-0.034-0.865-1.521-0.865-1.521c3.426-2.055,0.729-4.427,0.729-4.427c2.561-0.673,5.664-3.542,5.664-3.542
	c2.057-1.771-0.389-2.571-0.389-2.571c-2.307-0.623-1.531,2.041-1.531,2.041c-2.008,2.833-7.639,3.057-7.639,3.057
	c-0.621-0.54-1.838-0.851-2.5-0.988V7.967c0,0-0.088,0.013-0.23,0.04c-0.141-0.027-0.225-0.038-0.225-0.038l-0.004,0.083
	c-0.662,0.137-1.875,0.449-2.496,0.99c0,0-5.633-0.226-7.642-3.058c0,0,0.78-2.663-1.527-2.04c0,0-2.444,0.8-0.391,2.57
	c0,0,3.106,2.869,5.666,3.542c0,0-2.697,2.372,0.729,4.426c0,0,1.279,1.487-0.867,1.521c0,0-3.882,1.949-4.567,3.791
	c0,0-1.735,0.779-2.329-1.665c0,0,0-2.55-6.396-1.629c0,0-5.8,0.355-6.211,1.559c0,0,1.462,0.495,1.918,0.39
	c0,0-0.777,0.603-0.275,0.849c0,0,0.731,0.744,3.197-0.778c0,0,4.02-1.983,6.031,1.24c0,0,0.363,3.151,3.789,3.292
	c0,0-0.913,2.655,1.371,4.498c0,0,0.229,3.009-3.425,1.168c0,0-4.979-2.796-9.82,4.673c0,0-2.879,2.516-3.838,3.58
	c0,0,1.369,0.706,1.874,0.317c0,0-6.395,8.004-5.254,11.58c0,0,1.188-0.144,1.369-1.063c0,0,1.372,1.596,1.828,1.273
	c0,0-1.851-5.076,3.519-9.904c0.027-0.025,0.061-0.054,0.09-0.08c5.482-4.852,2.49-4.215,2.49-4.215s1.575-3.72,3.905-3.507
	c2.329,0.213-0.068,0.213-0.068,0.213s4.178,0.372,5.412,0.85c0,0-1.919,8.288-2.33,10.305c0,0-8.085,2.229-8.631,5.736
	c0,0,9.589,14.021-3.976,16.68l1.919,0.426l0.138,1.486c0,0,7.946-4.037,8.77-10.73l1.369-0.426c0,0-4.674-3.444-4.768-5.422
	c-0.01-0.191,0.022-0.367,0.108-0.527c0.961-1.805,3.426-2.229,5.619-2.549l-0.138,9.031c0,0,6.722,4.701,12.933,6.043l-0.006,0.332
	c0.375-0.025,0.758-0.068,1.141-0.125c0.387,0.057,0.768,0.1,1.143,0.125l-0.006-0.332c6.211-1.342,12.934-6.043,12.934-6.043
	l-0.139-9.029c2.191,0.318,4.658,0.742,5.617,2.549c0.086,0.158,0.119,0.336,0.111,0.525c-0.098,1.978-4.77,5.424-4.77,5.424
	l1.369,0.426c0.82,6.693,8.771,10.73,8.771,10.73l0.137-1.487l1.92-0.426c-13.566-2.655-3.975-16.681-3.975-16.681
	c-0.551-3.506-8.635-5.735-8.635-5.735c-0.408-2.021-2.328-10.306-2.328-10.306c1.232-0.477,5.41-0.849,5.41-0.849
	s-2.396,0-0.064-0.213c2.328-0.213,3.902,3.505,3.902,3.505s-2.99-0.637,2.49,4.215c0.029,0.026,0.061,0.056,0.09,0.082
	c5.369,4.826,3.52,9.902,3.52,9.902c0.457,0.319,1.826-1.272,1.826-1.272c0.184,0.922,1.371,1.063,1.371,1.063
	C66.613,45.293,60.221,37.289,60.221,37.289z"/>
<g>
	<polygon fill="#5E3C1D" points="66.253,48.11 66.253,3 3.703,3 3.703,48.11 32.134,48.11 32.134,52.56 21.546,52.56 21.546,54.38 
		48.998,54.38 48.998,52.56 37.43,52.56 37.43,48.11 	"/>
	<g>
		<g>
			<polygon fill="#007F89" points="63.508,43.962 5.86,43.962 63.508,6.338 			"/>
			<polygon fill="#01ACBD" points="6.056,44.063 6.056,6.439 63.704,6.439 			"/>
		</g>
		<rect x="39.193" y="32.231" fill="#E7B40F" width="17.059" height="3.232"/>
		<g>
			<rect x="14.879" y="12.609" fill="#65CFD8" width="13.529" height="8.294"/>
			<rect x="43.997" y="13.215" fill="#65CFD8" width="13.53" height="8.294"/>
			<rect x="29.291" y="12.912" fill="#65CFD8" width="13.529" height="8.294"/>
			<rect x="14.781" y="21.711" fill="#65CFD8" width="13.53" height="8.294"/>
			<rect x="43.898" y="22.319" fill="#65CFD8" width="13.527" height="8.293"/>
			<rect x="29.193" y="22.015" fill="#65CFD8" width="13.53" height="8.294"/>
		</g>
	</g>
	<g>
		<polygon fill="#EBE3D7" points="25.138,32.425 25.918,32.919 21.718,41.646 20.938,41.089 		"/>
		<polygon fill="#EBE3D7" points="20.098,32.606 20.878,33.661 17.338,36.94 20.638,40.47 20.098,41.212 15.958,36.94 		"/>
		<polygon fill="#EBE3D7" points="26.278,33.661 27.118,32.795 30.958,36.88 27.118,41.336 26.398,40.47 29.578,36.88 		"/>
	</g>
</g>
<g display="none">
	<circle display="inline" fill="#3BFFE5" cx="34.834" cy="35.167" r="31.333"/>
	<g display="inline">
		<g>
			<rect x="33.399" y="17.168" fill="#5D5D5D" width="0.875" height="35.5"/>
			
				<rect x="37.067" y="23.333" transform="matrix(-0.7981 -0.6025 0.6025 -0.7981 42.8339 96.0175)" fill="#5D5D5D" width="0.874" height="35"/>
			
				<rect x="30.4" y="22.334" transform="matrix(-0.8382 0.5454 -0.5454 -0.8382 78.4095 56.4038)" fill="#5D5D5D" width="0.874" height="35"/>
		</g>
		<rect x="17.168" y="19.835" fill="#EDEDED" stroke="#5B6165" stroke-miterlimit="10" width="34.666" height="25.333"/>
		<polyline fill="#93FF31" stroke="#5B6165" stroke-miterlimit="10" points="20.835,38.5 24.501,34.5 29.835,37.5 36.168,30.834 
			43.168,30.834 52.168,25.5 		"/>
		<path fill="#5B6165" d="M53.501,20.334c0-0.828-0.672-1.5-1.5-1.5h-35c-0.828,0-1.5,0.672-1.5,1.5l0,0c0,0.828,0.672,1.5,1.5,1.5
			h35C52.829,21.834,53.501,21.162,53.501,20.334L53.501,20.334z"/>
	</g>
</g>
<g>
	<path fill="#007F89" d="M5.161,59.524c0.636-0.096,1.392-0.168,2.219-0.168c1.5,0,2.567,0.348,3.274,1.008
		c0.72,0.659,1.14,1.595,1.14,2.902c0,1.319-0.408,2.398-1.163,3.142c-0.756,0.756-2.003,1.164-3.574,1.164
		c-0.744,0-1.367-0.036-1.896-0.097V59.524z M6.205,66.673c0.264,0.048,0.647,0.06,1.056,0.06c2.23,0,3.441-1.247,3.441-3.43
		c0.013-1.907-1.067-3.119-3.273-3.119c-0.54,0-0.948,0.049-1.224,0.108V66.673z"/>
	<path fill="#007F89" d="M14.557,59.284c-0.276,1.008-0.792,2.291-1.128,2.843l-0.671,0.084c0.264-0.708,0.575-1.955,0.707-2.818
		L14.557,59.284z"/>
	<path fill="#007F89" d="M15.661,67.5c0.024-0.396,0.049-0.983,0.049-1.499v-7.017h1.043v3.646h0.024
		c0.371-0.647,1.043-1.067,1.979-1.067c1.439,0,2.459,1.199,2.446,2.962c0,2.075-1.307,3.106-2.603,3.106
		c-0.839,0-1.511-0.323-1.942-1.091h-0.036L16.573,67.5H15.661z M16.753,65.173c0,0.133,0.024,0.265,0.048,0.384
		c0.204,0.732,0.815,1.235,1.583,1.235c1.104,0,1.764-0.899,1.764-2.23c0-1.163-0.6-2.159-1.728-2.159
		c-0.72,0-1.392,0.492-1.607,1.296c-0.023,0.12-0.06,0.264-0.06,0.432V65.173z"/>
	<path fill="#007F89" d="M27.394,65.917c0,0.6,0.013,1.127,0.049,1.583h-0.936l-0.061-0.947h-0.023
		c-0.276,0.468-0.888,1.079-1.919,1.079c-0.912,0-2.003-0.504-2.003-2.543v-3.394h1.055v3.214c0,1.104,0.336,1.848,1.296,1.848
		c0.707,0,1.199-0.492,1.391-0.96c0.061-0.156,0.097-0.348,0.097-0.54v-3.562h1.055V65.917z"/>
	<path fill="#007F89" d="M34.15,61.695c-0.024,0.42-0.048,0.888-0.048,1.595v3.37c0,1.332-0.265,2.147-0.828,2.65
		c-0.563,0.528-1.379,0.696-2.11,0.696c-0.696,0-1.464-0.168-1.932-0.479l0.265-0.804c0.384,0.239,0.983,0.455,1.703,0.455
		c1.079,0,1.87-0.563,1.87-2.026v-0.647h-0.023c-0.324,0.539-0.947,0.971-1.847,0.971c-1.439,0-2.471-1.223-2.471-2.83
		c0-1.967,1.283-3.082,2.614-3.082c1.008,0,1.56,0.527,1.811,1.007h0.024l0.048-0.875H34.15z M33.059,63.986
		c0-0.181-0.012-0.336-0.06-0.48c-0.192-0.611-0.708-1.115-1.476-1.115c-1.007,0-1.727,0.852-1.727,2.195
		c0,1.139,0.575,2.087,1.715,2.087c0.647,0,1.235-0.408,1.463-1.08c0.061-0.18,0.084-0.384,0.084-0.563V63.986z"/>
	<path fill="#007F89" d="M41.542,67.236c-0.384,0.191-1.151,0.384-2.135,0.384c-2.279,0-3.994-1.439-3.994-4.09
		c0-2.53,1.715-4.246,4.222-4.246c1.008,0,1.644,0.216,1.919,0.36l-0.252,0.852c-0.396-0.192-0.959-0.336-1.631-0.336
		c-1.895,0-3.154,1.211-3.154,3.334c0,1.979,1.14,3.25,3.106,3.25c0.636,0,1.283-0.132,1.703-0.336L41.542,67.236z"/>
	<path fill="#007F89" d="M44.376,59.284c-0.276,1.008-0.792,2.291-1.128,2.843l-0.671,0.084c0.264-0.708,0.575-1.955,0.707-2.818
		L44.376,59.284z"/>
	<path fill="#007F89" d="M45.479,67.5c0.024-0.396,0.049-0.983,0.049-1.499v-7.017h1.043v3.646h0.024
		c0.371-0.647,1.043-1.067,1.979-1.067c1.439,0,2.459,1.199,2.446,2.962c0,2.075-1.307,3.106-2.603,3.106
		c-0.839,0-1.511-0.323-1.942-1.091h-0.036L46.392,67.5H45.479z M46.571,65.173c0,0.133,0.024,0.265,0.048,0.384
		c0.204,0.732,0.815,1.235,1.583,1.235c1.104,0,1.764-0.899,1.764-2.23c0-1.163-0.6-2.159-1.728-2.159
		c-0.72,0-1.392,0.492-1.607,1.296c-0.023,0.12-0.06,0.264-0.06,0.432V65.173z"/>
	<path fill="#007F89" d="M57.213,65.917c0,0.6,0.013,1.127,0.049,1.583h-0.936l-0.061-0.947h-0.023
		c-0.276,0.468-0.888,1.079-1.919,1.079c-0.912,0-2.003-0.504-2.003-2.543v-3.394h1.055v3.214c0,1.104,0.336,1.848,1.296,1.848
		c0.707,0,1.199-0.492,1.391-0.96c0.061-0.156,0.097-0.348,0.097-0.54v-3.562h1.055V65.917z"/>
	<path fill="#007F89" d="M63.97,61.695c-0.024,0.42-0.048,0.888-0.048,1.595v3.37c0,1.332-0.264,2.147-0.828,2.65
		c-0.563,0.528-1.379,0.696-2.11,0.696c-0.696,0-1.464-0.168-1.931-0.479l0.264-0.804c0.384,0.239,0.983,0.455,1.703,0.455
		c1.079,0,1.871-0.563,1.871-2.026v-0.647h-0.024c-0.324,0.539-0.947,0.971-1.847,0.971c-1.439,0-2.471-1.223-2.471-2.83
		c0-1.967,1.283-3.082,2.614-3.082c1.008,0,1.56,0.527,1.811,1.007h0.024l0.048-0.875H63.97z M62.878,63.986
		c0-0.181-0.012-0.336-0.06-0.48c-0.192-0.611-0.708-1.115-1.476-1.115c-1.007,0-1.727,0.852-1.727,2.195
		c0,1.139,0.575,2.087,1.715,2.087c0.647,0,1.235-0.408,1.463-1.08c0.061-0.18,0.084-0.384,0.084-0.563V63.986z"/>
</g>
</svg>
