<?xml version="1.0" encoding="utf-8"?>
<!-- Generator: Adobe Illustrator 16.0.0, SVG Export Plug-In . SVG Version: 6.00 Build 0)  -->
<!DOCTYPE svg PUBLIC "-//W3C//DTD SVG 1.1//EN" "http://www.w3.org/Graphics/SVG/1.1/DTD/svg11.dtd">
<svg version="1.1" id="Layer_1" xmlns="http://www.w3.org/2000/svg" xmlns:xlink="http://www.w3.org/1999/xlink" x="0px" y="0px"
	 width="70px" height="70px" viewBox="0 0 70 70" enable-background="new 0 0 70 70" xml:space="preserve">
<g display="none">
	<path display="inline" fill="#0A9045" d="M47.314,16.421c-3.164,3.164-12.141,2.847-12.141,2.847s-8.977,0.317-12.141-2.847
		c-3.164-3.164-12.892-0.277-15.542,4.112c-2.649,4.39-8.226,18.508-6.96,32.349c1.266,13.843,7.75,9.412,13.051,5.063
		c5.299-4.351,7.038-8.146,21.592-8.146c14.553,0,16.293,3.796,21.592,8.146c5.299,4.35,11.785,8.78,13.05-5.063
		c1.268-13.841-4.311-27.959-6.958-32.349C60.206,16.144,50.479,13.257,47.314,16.421z M54.553,20.612
		c1.633,0,2.96,1.327,2.96,2.958c0,1.631-1.327,2.958-2.96,2.958c-1.63,0-2.957-1.327-2.957-2.958
		C51.596,21.938,52.923,20.612,54.553,20.612z M35.988,23.191l0.04,0.007c2.033,0.384,3.637,2.01,3.992,4.045
		c0.037,0.21-0.104,0.413-0.315,0.45c-0.022,0.004-0.045,0.006-0.066,0.006c-0.186,0-0.35-0.133-0.383-0.322
		c-0.3-1.719-1.653-3.091-3.367-3.415c-0.209-0.039-0.367-0.245-0.33-0.454C35.596,23.297,35.779,23.155,35.988,23.191z
		 M30.201,27.181c0.387-2.046,2.018-3.65,4.061-3.999c0.212-0.034,0.412,0.106,0.448,0.317c0.035,0.211-0.107,0.412-0.317,0.448
		c-1.724,0.296-3.102,1.649-3.427,3.37c-0.036,0.188-0.203,0.329-0.389,0.329c-0.021,0-0.044-0.002-0.067-0.006
		c-0.21-0.039-0.352-0.229-0.313-0.438l0.382,0.07L30.201,27.181z M10.09,27.326c0-2.871,2.336-5.208,5.208-5.208
		c2.872,0,5.208,2.336,5.208,5.208c0,2.872-2.336,5.209-5.208,5.209S10.09,30.198,10.09,27.326z M25.372,47.03
		c-3.602,0-6.532-2.931-6.532-6.532c0-3.6,2.93-6.53,6.532-6.53c3.601,0,6.531,2.931,6.531,6.53
		C31.903,44.1,28.973,47.03,25.372,47.03z M34.262,33.012c-0.023,0-0.046-0.003-0.07-0.007l0.07-0.381l-0.077,0.38
		c-2.051-0.388-3.656-2.025-4.002-4.074c-0.036-0.211,0.107-0.413,0.319-0.447c0.21-0.039,0.412,0.107,0.447,0.318
		c0.292,1.73,1.646,3.111,3.371,3.439c0.211,0.039,0.354,0.243,0.317,0.454C34.603,32.88,34.444,33.012,34.262,33.012z
		 M35.105,32.063c-2.185,0-3.964-1.777-3.964-3.963c0-2.185,1.777-3.963,3.964-3.963c2.185,0,3.961,1.778,3.961,3.963
		C39.066,30.286,37.29,32.063,35.105,32.063z M35.856,33.029c-0.187,0-0.352-0.136-0.384-0.325c-0.035-0.211,0.109-0.411,0.32-0.446
		c1.735-0.289,3.123-1.645,3.45-3.375c0.039-0.209,0.245-0.372,0.455-0.336c0.21,0.039,0.355,0.214,0.318,0.425
		c-0.001,0.004-0.012,0.061-0.013,0.064c-0.386,2.04-2.028,3.645-4.083,3.986C35.899,33.028,35.878,33.029,35.856,33.029z
		 M43.08,44.705c-2.872,0-5.208-2.336-5.208-5.209c0-2.871,2.336-5.207,5.208-5.207s5.209,2.336,5.209,5.207
		C48.289,42.369,45.952,44.705,43.08,44.705z M49.434,31.649c-1.632,0-2.959-1.327-2.959-2.958s1.327-2.958,2.959-2.958
		c1.631,0,2.96,1.326,2.96,2.958S51.064,31.649,49.434,31.649z M54.553,36.77c-1.63,0-2.957-1.327-2.957-2.959
		c0-1.631,1.327-2.959,2.957-2.959c1.633,0,2.96,1.328,2.96,2.959C57.513,35.442,56.186,36.77,54.553,36.77z M59.675,31.649
		c-1.633,0-2.96-1.327-2.96-2.958s1.327-2.958,2.96-2.958c1.63,0,2.957,1.326,2.957,2.958S61.305,31.649,59.675,31.649z"/>
	<circle display="inline" fill="#56B94D" cx="59.675" cy="28.69" r="2.181"/>
	<path display="inline" fill="#56B94D" d="M43.08,35.843c-2.016,0-3.654,1.64-3.654,3.653c0,2.016,1.639,3.655,3.654,3.655
		s3.654-1.64,3.654-3.655C46.734,37.482,45.096,35.843,43.08,35.843z"/>
	<path display="inline" fill="#56B94D" d="M54.553,31.629c1.206,0,2.184,0.976,2.184,2.182c0,1.205-0.978,2.181-2.184,2.181
		c-1.203,0-2.181-0.976-2.181-2.181C52.372,32.605,53.35,31.629,54.553,31.629z"/>
	<circle display="inline" fill="#56B94D" cx="49.434" cy="28.69" r="2.181"/>
	<path display="inline" fill="#56B94D" d="M37.131,25.662c-0.423,0.2-1.103,0.531-1.169,0.896c0,0,1.823,1.775,1.719,3.4
		c0.379-0.525,0.609-1.163,0.609-1.857C38.29,27.117,37.833,26.248,37.131,25.662z"/>
	<path display="inline" fill="#56B94D" d="M35.075,27.357c-1.625,1.254-2.146,2.304-2.313,2.884
		c0.583,0.638,1.413,1.045,2.342,1.045c0.905,0,1.717-0.383,2.298-0.991C37.252,29.727,36.748,28.65,35.075,27.357z"/>
	<path display="inline" fill="#56B94D" d="M36.478,25.238c-0.418-0.201-0.88-0.324-1.373-0.324c-0.495,0-0.958,0.123-1.376,0.325
		c0.74,0.048,1.229,0.363,1.347,0.449C35.196,25.601,35.705,25.273,36.478,25.238z"/>
	<path display="inline" fill="#56B94D" d="M15.298,23.672c-2.016,0-3.655,1.64-3.655,3.654c0,2.016,1.639,3.655,3.655,3.655
		c2.015,0,3.654-1.64,3.654-3.655C18.952,25.312,17.313,23.672,15.298,23.672z"/>
	<path display="inline" fill="#56B94D" d="M33.056,25.68c-0.689,0.585-1.138,1.448-1.138,2.421c0,0.659,0.203,1.274,0.549,1.783
		c-0.046-1.605,1.722-3.326,1.722-3.326C34.125,26.204,33.481,25.883,33.056,25.68z"/>
	<path display="inline" fill="#56B94D" d="M54.553,21.388c1.206,0,2.184,0.978,2.184,2.183c0,1.204-0.978,2.182-2.184,2.182
		c-1.203,0-2.181-0.978-2.181-2.182C52.372,22.366,53.35,21.388,54.553,21.388z"/>
	<path display="inline" fill="#56B94D" d="M25.372,34.744c-3.173,0-5.754,2.582-5.754,5.754c0,3.174,2.582,5.754,5.754,5.754
		c3.173,0,5.754-2.58,5.754-5.754C31.126,37.325,28.545,34.744,25.372,34.744z M23.519,44.074v0.448
		c-0.957-0.442-1.729-1.215-2.17-2.171h0.448h0.44c0.313,0.53,0.753,0.97,1.283,1.282V44.074z M23.519,36.922v0.439
		c-0.53,0.314-0.969,0.755-1.283,1.284h-0.44h-0.448c0.441-0.958,1.214-1.729,2.171-2.172L23.519,36.922L23.519,36.922z
		 M27.225,44.522v-0.448v-0.439c0.529-0.313,0.969-0.753,1.283-1.282h0.44h0.448C28.953,43.308,28.182,44.08,27.225,44.522z
		 M28.948,38.646h-0.439c-0.314-0.529-0.754-0.969-1.283-1.284v-0.439v-0.447c0.957,0.442,1.729,1.215,2.171,2.171H28.948z"/>
</g>
<g display="none">
	<path display="inline" fill="#0093BD" d="M15.956,8h39.316c3.734,0,6.789,2.764,6.789,6.789v39.316
		c0,4.025-3.055,6.789-6.789,6.789H15.956c-3.735,0-6.789-2.764-6.789-6.789V14.79C9.167,10.765,12.221,8,15.956,8L15.956,8z
		 M47.697,13.877c-1.309,0-2.381,1.071-2.381,2.381v5.7c0,1.31,1.072,2.381,2.381,2.381h5.979c1.311,0,2.381-1.071,2.381-2.381v-5.7
		c0-1.311-1.07-2.381-2.381-2.381H47.697L47.697,13.877z M56.082,30.37h-4.654c0.439,1.438,0.678,2.961,0.678,4.537
		c0,8.798-7.361,15.931-16.441,15.931s-16.441-7.133-16.441-15.931c0-1.577,0.238-3.1,0.679-4.537h-4.857v22.343
		c0,1.156,0.945,2.104,2.102,2.104H53.98c1.158,0,2.104-0.947,2.104-2.104V30.37H56.082z M35.664,24.04
		c-5.867,0-10.624,4.608-10.624,10.293c0,5.687,4.757,10.292,10.624,10.292s10.623-4.605,10.623-10.292
		C46.287,28.647,41.531,24.04,35.664,24.04z"/>
</g>
<image display="none" overflow="visible" width="332" height="377" xlink:href="../../../../../Users/UTTAM/Documents/Knosys16/images/logodub.png"  transform="matrix(0.1528 0 0 0.1525 9.75 6)">
</image>
<image display="none" overflow="visible" width="332" height="377" xlink:href="../../../../../Users/UTTAM/Documents/Knosys16/images/dubsmash.png"  transform="matrix(0.1452 0 0 0.1605 12.667 1.667)">
</image>
<image display="none" overflow="visible" width="1076" height="720" xlink:href="../../../../../Users/UTTAM/Documents/Knosys16/images/53_original.png"  transform="matrix(0.1095 0 0 0.0854 -23.458 5.041)">
</image>
<image display="none" overflow="visible" width="800" height="800" xlink:href="../../../../../Users/UTTAM/Documents/Knosys16/images/2015-Despicable-Me-Minions-Figure-Cos-Iron-Man-Batman-Captain-America-Spider-man-Hulk-PVC-Figures.png"  transform="matrix(0.0823 0 0 0.0823 3 2.875)">
</image>
<image overflow="visible" width="540" height="276" xlink:href="../../../../../Users/UTTAM/Documents/Knosys16/images/eldesastredemaria.blogspot.png"  transform="matrix(0.2552 0 0 0.3036 -6.333 -16.8076)">
</image>
</svg>
