<?xml version="1.0" encoding="utf-8"?>
<!-- Generator: Adobe Illustrator 16.0.0, SVG Export Plug-In . SVG Version: 6.00 Build 0)  -->
<!DOCTYPE svg PUBLIC "-//W3C//DTD SVG 1.1//EN" "http://www.w3.org/Graphics/SVG/1.1/DTD/svg11.dtd">
<svg version="1.1" id="Layer_1" xmlns="http://www.w3.org/2000/svg" xmlns:xlink="http://www.w3.org/1999/xlink" x="0px" y="0px"
	 width="952px" height="418px" viewBox="0 0 952 418" enable-background="new 0 0 952 418" xml:space="preserve">
<linearGradient id="SVGID_1_" gradientUnits="userSpaceOnUse" x1="475.9995" y1="-92.3945" x2="475.9995" y2="630.5693">
	<stop  offset="0" style="stop-color:#9EA0A3"/>
	<stop  offset="0.5699" style="stop-color:#FFFFFF"/>
	<stop  offset="1" style="stop-color:#9C9EA1"/>
</linearGradient>
<rect y="0" fill="url(#SVGID_1_)" width="952" height="418"/>
<g>
	<path d="M398.57,39.965H421.8c0.909,0,1.364,0.538,1.364,1.612c0,1.048-0.455,1.571-1.364,1.571H398.57v4.984
		c0,2.271,2.135,3.406,6.407,3.406H421.8c0.964,0,1.447,0.503,1.447,1.509c0,1.061-0.482,1.591-1.447,1.591h-16.947
		c-6.834,0-10.25-2.122-10.25-6.365V34.757c0-4.326,3.541-6.489,10.623-6.489h4.588c0.91,0,1.364,0.524,1.364,1.571
		c0,1.02-0.455,1.529-1.364,1.529h-3.1c-5.429,0-8.143,1.13-8.143,3.389V39.965z"/>
	<path d="M441.557,53.977c-0.469,0.579-0.951,0.868-1.447,0.868c-0.248,0.027-0.469-0.028-0.661-0.165
		c-0.193-0.138-0.4-0.344-0.62-0.62l-13.64-17.484c-0.248-0.248-0.372-0.579-0.372-0.992c0-0.44,0.186-0.819,0.558-1.137
		c0.372-0.316,0.792-0.475,1.261-0.475c0.496,0,0.923,0.221,1.282,0.661l12.276,16.038l12.234-16.12
		c0.275-0.331,0.662-0.496,1.158-0.496c0.468,0,0.936,0.145,1.405,0.434c0.468,0.289,0.703,0.655,0.703,1.095
		c0,0.304-0.138,0.634-0.414,0.992L441.557,53.977z"/>
	<path d="M484.709,44.683c0,1.099-0.552,1.647-1.653,1.647h-21.617v2.501c0,1.804,1.874,2.707,5.621,2.707h4.009
		c1.047,0,1.571,0.503,1.571,1.508c0,1.062-0.524,1.592-1.571,1.592h-3.059c-6.834,0-10.25-2.076-10.25-6.229v-7.755
		c0-4.097,3.375-6.146,10.126-6.146h8.267c5.704,0,8.556,1.785,8.556,5.354V44.683z M461.438,43.23h19.716v-2.997
		c0-1.832-1.42-2.748-4.257-2.748h-9.837c-3.748,0-5.621,0.971-5.621,2.914V43.23z"/>
	<path d="M515.254,53.195c0,1.101-0.613,1.65-1.84,1.65s-1.838-0.551-1.838-1.653V39.965c0-1.653-1.664-2.48-4.99-2.48h-9.199
		c-3.354,0-5.031,0.827-5.031,2.48v13.227c0,1.103-0.613,1.653-1.84,1.653s-1.839-0.549-1.839-1.65v-13.2
		c0-3.657,3.231-5.486,9.698-5.486h7.098c6.521,0,9.781,1.829,9.781,5.486V53.195z"/>
	<path d="M524.72,37.485v15.707c0,1.103-0.6,1.653-1.798,1.653c-1.254,0-1.881-0.551-1.881-1.653V37.485h-1.797
		c-1.007,0-1.51-0.516-1.51-1.549c0-0.951,0.503-1.427,1.51-1.427h1.797v-4.826c0-1.081,0.641-1.622,1.922-1.622
		c1.171,0,1.757,0.541,1.757,1.622v4.826h7.315c1.02,0,1.529,0.49,1.529,1.467c0,1.006-0.51,1.509-1.529,1.509H524.72z"/>
	<path d="M561.133,49.265c0,3.583-2.563,5.374-7.688,5.374h-15.624c-1.074,0-1.612-0.502-1.612-1.508
		c0-1.062,0.538-1.592,1.612-1.592h16.244c2.204,0,3.307-0.766,3.307-2.298v-1.19c0-1.477-1.24-2.216-3.72-2.216h-8.681
		c-5.677,0-8.515-1.702-8.515-5.106V39.41c0-3.267,2.714-4.901,8.143-4.901h4.299c1.075,0,1.612,0.49,1.612,1.467
		c0,1.006-0.537,1.509-1.612,1.509h-5.167c-2.396,0-3.596,0.634-3.596,1.901v1.24c0,1.488,1.416,2.232,4.249,2.232h8.828
		c5.28,0,7.92,1.736,7.92,5.208V49.265z"/>
</g>
</svg>
