<?xml version="1.0" encoding="utf-8"?>
<!-- Generator: Adobe Illustrator 16.0.0, SVG Export Plug-In . SVG Version: 6.00 Build 0)  -->
<!DOCTYPE svg PUBLIC "-//W3C//DTD SVG 1.1//EN" "http://www.w3.org/Graphics/SVG/1.1/DTD/svg11.dtd">
<svg version="1.1" id="Layer_1" xmlns="http://www.w3.org/2000/svg" xmlns:xlink="http://www.w3.org/1999/xlink" x="0px" y="0px"
	 width="1023px" height="449px" viewBox="0 0 1023 449" enable-background="new 0 0 1023 449" xml:space="preserve">
<g id="Layer_2">
	<rect fill="#474E54" width="1025.333" height="449"/>
</g>
<g>
	<g>
		<g>
			<path fill="#FFFFFF" d="M88.086,124.861v12.487c0,0.648-0.383,0.972-1.149,0.972c-0.75,0-1.125-0.324-1.125-0.972v-12.487h-6.231
				c-0.553,0-0.83-0.315-0.83-0.948c0-0.553,0.276-0.829,0.83-0.829h14.714c0.553,0,0.829,0.276,0.829,0.829
				c0,0.632-0.276,0.948-0.829,0.948H88.086z"/>
			<path fill="#FFFFFF" d="M109.695,132.494c0,0.63-0.316,0.944-0.948,0.944H96.356v1.434c0,1.034,1.074,1.552,3.222,1.552h2.298
				c0.6,0,0.9,0.288,0.9,0.864c0,0.609-0.3,0.913-0.9,0.913h-1.753c-3.917,0-5.876-1.19-5.876-3.57v-4.446
				c0-2.349,1.935-3.523,5.805-3.523h4.739c3.27,0,4.904,1.023,4.904,3.069V132.494z M96.356,131.661h11.302v-1.718
				c0-1.05-0.813-1.575-2.44-1.575h-5.639c-2.148,0-3.222,0.557-3.222,1.67V131.661z"/>
			<path fill="#FFFFFF" d="M117.562,138.201c-3.807,0-5.71-1.135-5.71-3.405v-4.753c0-2.254,1.729-3.381,5.189-3.381h7.748
				c0.647,0,0.971,0.273,0.971,0.818c0,0.592-0.324,0.888-0.971,0.888h-8.032c-1.864,0-2.796,0.536-2.796,1.606v4.701
				c0,1.166,1.074,1.749,3.222,1.749h7.606c0.584,0,0.876,0.313,0.876,0.937c0,0.561-0.292,0.84-0.876,0.84H117.562z"/>
			<path fill="#FFFFFF" d="M143.933,137.373c0,0.631-0.352,0.946-1.055,0.946c-0.703,0-1.054-0.316-1.054-0.948v-7.037
				c0-1.311-1.177-1.967-3.53-1.967h-7.677v9.004c0,0.632-0.355,0.948-1.066,0.948c-0.695,0-1.042-0.316-1.042-0.948V123.89
				c0-0.616,0.347-0.924,1.042-0.924c0.71,0,1.066,0.311,1.066,0.93v2.766h7.001c4.21,0,6.315,1.214,6.315,3.642V137.373z"/>
			<path fill="#FFFFFF" d="M162.011,137.373c0,0.631-0.352,0.946-1.054,0.946c-0.703,0-1.054-0.316-1.054-0.948v-7.582
				c0-0.948-0.954-1.422-2.861-1.422h-5.273c-1.923,0-2.884,0.474-2.884,1.422v7.582c0,0.632-0.352,0.948-1.054,0.948
				c-0.703,0-1.054-0.315-1.054-0.946v-7.566c0-2.097,1.853-3.145,5.56-3.145h4.069c3.738,0,5.606,1.048,5.606,3.145V137.373z"/>
			<path fill="#FFFFFF" d="M167.46,124.979c0,0.727-0.49,1.09-1.469,1.09c-0.917,0-1.375-0.363-1.375-1.09
				c0-0.742,0.458-1.114,1.375-1.114C166.97,123.866,167.46,124.237,167.46,124.979z M167.104,137.372
				c0,0.632-0.348,0.948-1.042,0.948c-0.663,0-0.995-0.316-0.995-0.948v-9.17c0-0.6,0.316-0.9,0.948-0.9c0.727,0,1.09,0.3,1.09,0.9
				V137.372z"/>
			<path fill="#FFFFFF" d="M175.729,138.201c-3.807,0-5.71-1.135-5.71-3.405v-4.753c0-2.254,1.729-3.381,5.189-3.381h7.748
				c0.647,0,0.971,0.273,0.971,0.818c0,0.592-0.324,0.888-0.971,0.888h-8.032c-1.864,0-2.796,0.536-2.796,1.606v4.701
				c0,1.166,1.074,1.749,3.222,1.749h7.606c0.584,0,0.876,0.313,0.876,0.937c0,0.561-0.292,0.84-0.876,0.84H175.729z"/>
			<path fill="#FFFFFF" d="M201.887,134.819c0,2.254-1.643,3.381-4.929,3.381h-6.16c-3.459,0-5.189-1.085-5.189-3.256v-1.521
				c0-2.25,1.69-3.375,5.07-3.375h9.169c-0.142-1.121-0.995-1.682-2.559-1.682h-2.559c-0.506,0-0.758-0.296-0.758-0.888
				c0-0.545,0.252-0.818,0.758-0.818h2.227c3.286,0,4.929,1.151,4.929,3.452V134.819z M199.873,131.827h-9.686
				c-1.646,0-2.469,0.519-2.469,1.556v1.579c0,0.975,0.878,1.462,2.635,1.462h6.98c1.693,0,2.54-0.739,2.54-2.216V131.827z"/>
			<path fill="#FFFFFF" d="M206.792,137.372c0,0.632-0.348,0.948-1.042,0.948c-0.711,0-1.066-0.316-1.066-0.948V123.89
				c0-0.616,0.347-0.924,1.042-0.924c0.71,0,1.066,0.308,1.066,0.924V137.372z"/>
		</g>
		<g>
			<g>
				<path fill="#FFFFFF" d="M99.336,292.192c0,0.505-0.138,0.885-0.415,1.137c-0.276,0.253-0.596,0.379-0.959,0.379
					c-0.158,0-0.328-0.031-0.509-0.095c-0.182-0.063-0.36-0.181-0.533-0.355l-13.364-11.941v11.421c0,0.647-0.371,0.971-1.113,0.971
					c-0.727,0-1.09-0.323-1.09-0.971v-12.961c0-0.474,0.142-0.817,0.426-1.031c0.284-0.213,0.6-0.319,0.948-0.319
					c0.221,0,0.427,0.027,0.616,0.083s0.371,0.17,0.545,0.344l13.245,11.704v-11.278c0-0.615,0.379-0.924,1.138-0.924
					c0.71,0,1.066,0.309,1.066,0.924V292.192z"/>
				<path fill="#FFFFFF" d="M117.438,290.09c0,2.333-1.816,3.5-5.45,3.5h-4.241c-3.712,0-5.568-1.167-5.568-3.5v-4.469
					c0-2.38,1.879-3.57,5.639-3.57h4.17c3.633,0,5.45,1.183,5.45,3.547V290.09z M115.282,285.41c0-1.103-0.987-1.653-2.961-1.653
					h-4.81c-2.148,0-3.222,0.614-3.222,1.843v4.465c0,1.166,1.074,1.748,3.222,1.748h4.81c1.974,0,2.961-0.582,2.961-1.748V285.41z"
					/>
				<path fill="#FFFFFF" d="M135.398,292.763c0,0.631-0.352,0.945-1.054,0.945c-0.703,0-1.054-0.315-1.054-0.947v-7.582
					c0-0.948-0.954-1.422-2.861-1.422h-5.273c-1.923,0-2.884,0.474-2.884,1.422v7.582c0,0.632-0.352,0.947-1.054,0.947
					c-0.703,0-1.054-0.314-1.054-0.945v-7.566c0-2.097,1.853-3.146,5.56-3.146h4.069c3.738,0,5.606,1.049,5.606,3.146V292.763z"/>
				<path fill="#FFFFFF" d="M138.004,288.116c-0.601,0-0.9-0.269-0.9-0.806c0-0.568,0.3-0.853,0.9-0.853h7.961
					c0.521,0,0.782,0.269,0.782,0.806c0,0.568-0.261,0.853-0.782,0.853H138.004z"/>
				<path fill="#FFFFFF" d="M152.86,280.25v12.487c0,0.647-0.383,0.971-1.149,0.971c-0.75,0-1.125-0.323-1.125-0.971V280.25h-6.231
					c-0.553,0-0.83-0.315-0.83-0.947c0-0.553,0.276-0.83,0.83-0.83h14.714c0.553,0,0.829,0.277,0.829,0.83
					c0,0.632-0.276,0.947-0.829,0.947H152.86z"/>
				<path fill="#FFFFFF" d="M174.469,287.883c0,0.63-0.316,0.944-0.948,0.944h-12.392v1.434c0,1.035,1.074,1.552,3.222,1.552h2.298
					c0.6,0,0.9,0.289,0.9,0.865c0,0.608-0.3,0.912-0.9,0.912h-1.753c-3.917,0-5.876-1.189-5.876-3.57v-4.445
					c0-2.349,1.935-3.523,5.805-3.523h4.739c3.27,0,4.904,1.023,4.904,3.069V287.883z M161.129,287.051h11.302v-1.719
					c0-1.05-0.813-1.575-2.44-1.575h-5.639c-2.148,0-3.222,0.557-3.222,1.671V287.051z"/>
				<path fill="#FFFFFF" d="M182.335,293.59c-3.807,0-5.71-1.135-5.71-3.405v-4.753c0-2.254,1.729-3.381,5.189-3.381h7.748
					c0.647,0,0.971,0.272,0.971,0.818c0,0.592-0.324,0.888-0.971,0.888h-8.032c-1.864,0-2.796,0.536-2.796,1.606v4.701
					c0,1.166,1.074,1.748,3.222,1.748h7.606c0.584,0,0.876,0.313,0.876,0.937c0,0.561-0.292,0.841-0.876,0.841H182.335z"/>
				<path fill="#FFFFFF" d="M208.707,292.763c0,0.631-0.352,0.945-1.055,0.945c-0.703,0-1.054-0.315-1.054-0.947v-7.037
					c0-1.312-1.177-1.967-3.53-1.967h-7.677v9.004c0,0.632-0.355,0.947-1.066,0.947c-0.695,0-1.042-0.315-1.042-0.947v-13.482
					c0-0.615,0.347-0.924,1.042-0.924c0.71,0,1.066,0.311,1.066,0.93v2.767h7.001c4.21,0,6.315,1.214,6.315,3.642V292.763z"/>
				<path fill="#FFFFFF" d="M226.785,292.763c0,0.631-0.352,0.945-1.054,0.945c-0.703,0-1.054-0.315-1.054-0.947v-7.582
					c0-0.948-0.954-1.422-2.861-1.422h-5.273c-1.923,0-2.884,0.474-2.884,1.422v7.582c0,0.632-0.352,0.947-1.054,0.947
					c-0.703,0-1.054-0.314-1.054-0.945v-7.566c0-2.097,1.853-3.146,5.56-3.146h4.069c3.738,0,5.606,1.049,5.606,3.146V292.763z"/>
				<path fill="#FFFFFF" d="M232.234,280.368c0,0.728-0.49,1.091-1.469,1.091c-0.917,0-1.375-0.363-1.375-1.091
					c0-0.742,0.458-1.113,1.375-1.113C231.744,279.255,232.234,279.626,232.234,280.368z M231.878,292.761
					c0,0.632-0.348,0.947-1.042,0.947c-0.663,0-0.995-0.315-0.995-0.947v-9.17c0-0.6,0.316-0.9,0.948-0.9
					c0.727,0,1.09,0.301,1.09,0.9V292.761z"/>
				<path fill="#FFFFFF" d="M240.503,293.59c-3.807,0-5.71-1.135-5.71-3.405v-4.753c0-2.254,1.729-3.381,5.189-3.381h7.748
					c0.647,0,0.971,0.272,0.971,0.818c0,0.592-0.324,0.888-0.971,0.888h-8.032c-1.864,0-2.796,0.536-2.796,1.606v4.701
					c0,1.166,1.074,1.748,3.222,1.748h7.606c0.584,0,0.876,0.313,0.876,0.937c0,0.561-0.292,0.841-0.876,0.841H240.503z"/>
				<path fill="#FFFFFF" d="M266.661,290.209c0,2.254-1.643,3.381-4.929,3.381h-6.16c-3.459,0-5.189-1.085-5.189-3.256v-1.521
					c0-2.25,1.69-3.374,5.07-3.374h9.169c-0.142-1.122-0.995-1.683-2.559-1.683h-2.559c-0.506,0-0.758-0.296-0.758-0.888
					c0-0.546,0.252-0.818,0.758-0.818h2.227c3.286,0,4.929,1.151,4.929,3.452V290.209z M264.647,287.216h-9.686
					c-1.646,0-2.469,0.519-2.469,1.556v1.58c0,0.974,0.878,1.461,2.635,1.461h6.98c1.693,0,2.54-0.738,2.54-2.216V287.216z"/>
				<path fill="#FFFFFF" d="M271.565,292.761c0,0.632-0.348,0.947-1.042,0.947c-0.711,0-1.066-0.315-1.066-0.947v-13.482
					c0-0.615,0.347-0.924,1.042-0.924c0.71,0,1.066,0.309,1.066,0.924V292.761z"/>
			</g>
		</g>
	</g>
	<g>
		<path fill="#C5BCB2" d="M24.548,242.07c0,1.363-0.994,2.045-2.98,2.045h-3.726c-2.093,0-3.139-0.656-3.139-1.969v-0.92
			c0-1.36,1.022-2.041,3.066-2.041h5.546c-0.086-0.678-0.603-1.017-1.548-1.017H20.22c-0.306,0-0.458-0.179-0.458-0.537
			c0-0.33,0.152-0.495,0.458-0.495h1.348c1.986,0,2.98,0.696,2.98,2.088V242.07z M23.329,240.261h-5.857
			c-0.995,0-1.493,0.313-1.493,0.94v0.955c0,0.59,0.531,0.885,1.594,0.885h4.221c1.024,0,1.536-0.447,1.536-1.341V240.261z"/>
		<path fill="#C5BCB2" d="M35.395,243.615c0,0.381-0.213,0.571-0.638,0.571s-0.638-0.19-0.638-0.573v-4.585
			c0-0.573-0.577-0.859-1.73-0.859H29.2c-1.163,0-1.744,0.286-1.744,0.859v4.585c0,0.383-0.213,0.573-0.638,0.573
			s-0.638-0.19-0.638-0.571v-4.576c0-1.268,1.121-1.902,3.362-1.902h2.461c2.261,0,3.391,0.635,3.391,1.902V243.615z"/>
		<path fill="#C5BCB2" d="M38.676,238.169v5.444c0,0.383-0.208,0.573-0.623,0.573c-0.435,0-0.652-0.19-0.652-0.573v-5.444h-0.623
			c-0.349,0-0.523-0.179-0.523-0.537c0-0.33,0.175-0.495,0.523-0.495H37.4v-1.673c0-0.375,0.222-0.563,0.667-0.563
			c0.405,0,0.608,0.188,0.608,0.563v1.673h2.536c0.354,0,0.53,0.17,0.53,0.509c0,0.349-0.177,0.523-0.53,0.523H38.676z"/>
		<path fill="#C5BCB2" d="M50.913,242.07c0,1.363-0.994,2.045-2.98,2.045h-3.726c-2.093,0-3.139-0.656-3.139-1.969v-0.92
			c0-1.36,1.022-2.041,3.066-2.041h5.546c-0.086-0.678-0.603-1.017-1.548-1.017h-1.548c-0.306,0-0.458-0.179-0.458-0.537
			c0-0.33,0.152-0.495,0.458-0.495h1.348c1.986,0,2.98,0.696,2.98,2.088V242.07z M49.694,240.261h-5.857
			c-0.995,0-1.493,0.313-1.493,0.94v0.955c0,0.59,0.531,0.885,1.594,0.885h4.221c1.024,0,1.536-0.447,1.536-1.341V240.261z"/>
		<path fill="#C5BCB2" d="M61.817,244.015c0,1.395-1.156,2.093-3.468,2.093h-1.061c-0.373,0-0.559-0.173-0.559-0.517
			s0.186-0.516,0.559-0.516h1.218c1.366,0,2.049-0.291,2.049-0.874v-0.086h-4.37c-2.475,0-3.711-0.7-3.711-2.103v-2.759
			c0-1.411,1.127-2.117,3.382-2.117h2.278c2.454,0,3.683,0.71,3.683,2.131V244.015z M60.513,243.055v-3.726
			c0-0.773-0.673-1.16-2.021-1.16h-2.865c-1.252,0-1.877,0.349-1.877,1.046v2.779c0,0.707,0.726,1.061,2.178,1.061H60.513z"/>
		<path fill="#C5BCB2" d="M72.664,241.999c0,1.411-1.099,2.116-3.296,2.116h-2.564c-2.245,0-3.367-0.705-3.367-2.116v-2.703
			c0-1.439,1.137-2.159,3.41-2.159h2.521c2.197,0,3.296,0.716,3.296,2.146V241.999z M71.36,239.169c0-0.667-0.598-1-1.791-1H66.66
			c-1.299,0-1.948,0.371-1.948,1.114v2.7c0,0.705,0.649,1.058,1.948,1.058h2.909c1.193,0,1.791-0.353,1.791-1.058V239.169z"/>
		<path fill="#C5BCB2" d="M83.525,243.615c0,0.381-0.213,0.571-0.638,0.571s-0.638-0.19-0.638-0.573v-4.585
			c0-0.573-0.577-0.859-1.73-0.859h-3.188c-1.163,0-1.744,0.286-1.744,0.859v4.585c0,0.383-0.213,0.573-0.638,0.573
			s-0.638-0.19-0.638-0.571v-4.576c0-1.268,1.121-1.902,3.362-1.902h2.461c2.261,0,3.391,0.635,3.391,1.902V243.615z"/>
	</g>
	<g>
		<path fill="#E1716F" d="M167.246,243.615c0,0.381-0.213,0.571-0.638,0.571s-0.638-0.19-0.638-0.573v-4.255
			c0-0.793-0.712-1.189-2.135-1.189h-4.643v5.444c0,0.383-0.215,0.573-0.646,0.573c-0.42,0-0.63-0.19-0.63-0.573v-8.152
			c0-0.373,0.21-0.56,0.63-0.56c0.431,0,0.646,0.188,0.646,0.563v1.673h4.233c2.546,0,3.819,0.734,3.819,2.202V243.615z"/>
		<path fill="#E1716F" d="M178.652,242.07c0,1.363-0.994,2.045-2.98,2.045h-3.726c-2.093,0-3.139-0.656-3.139-1.969v-0.92
			c0-1.36,1.022-2.041,3.066-2.041h5.546c-0.086-0.678-0.603-1.017-1.548-1.017h-1.548c-0.306,0-0.458-0.179-0.458-0.537
			c0-0.33,0.152-0.495,0.458-0.495h1.348c1.986,0,2.98,0.696,2.98,2.088V242.07z M177.434,240.261h-5.857
			c-0.995,0-1.493,0.313-1.493,0.94v0.955c0,0.59,0.531,0.885,1.594,0.885h4.221c1.024,0,1.536-0.447,1.536-1.341V240.261z"/>
		<path fill="#E1716F" d="M183.667,244.115c-2.303,0-3.453-0.687-3.453-2.06v-2.874c0-1.363,1.046-2.045,3.138-2.045h4.686
			c0.392,0,0.588,0.165,0.588,0.495c0,0.358-0.196,0.537-0.588,0.537h-4.857c-1.127,0-1.69,0.323-1.69,0.971v2.844
			c0,0.705,0.649,1.058,1.948,1.058h4.6c0.354,0,0.53,0.188,0.53,0.566c0,0.339-0.177,0.508-0.53,0.508H183.667z"/>
		<path fill="#E1716F" d="M192.508,240.504l5.244,2.637c0.086,0.048,0.155,0.115,0.208,0.201s0.079,0.157,0.079,0.215
			c0,0.162-0.064,0.308-0.193,0.437s-0.274,0.193-0.438,0.193c-0.086,0-0.186-0.028-0.301-0.086l-5.545-2.865v2.378
			c0,0.383-0.208,0.573-0.623,0.573c-0.436,0-0.652-0.19-0.652-0.573v-8.152c0-0.373,0.217-0.56,0.652-0.56
			c0.415,0,0.623,0.187,0.623,0.56v4.355l5.646-2.708c0.076-0.048,0.152-0.071,0.229-0.071c0.152,0,0.291,0.062,0.415,0.186
			c0.124,0.125,0.187,0.254,0.187,0.387c0,0.077-0.026,0.156-0.079,0.237s-0.131,0.146-0.236,0.193L192.508,240.504z"/>
		<path fill="#E1716F" d="M208.743,242.07c0,1.363-0.994,2.045-2.98,2.045h-3.726c-2.093,0-3.139-0.656-3.139-1.969v-0.92
			c0-1.36,1.022-2.041,3.066-2.041h5.546c-0.086-0.678-0.603-1.017-1.548-1.017h-1.548c-0.306,0-0.458-0.179-0.458-0.537
			c0-0.33,0.152-0.495,0.458-0.495h1.348c1.986,0,2.98,0.696,2.98,2.088V242.07z M207.524,240.261h-5.857
			c-0.995,0-1.493,0.313-1.493,0.94v0.955c0,0.59,0.531,0.885,1.594,0.885h4.221c1.024,0,1.536-0.447,1.536-1.341V240.261z"/>
		<path fill="#E1716F" d="M212.182,238.169v5.444c0,0.383-0.208,0.573-0.623,0.573c-0.435,0-0.652-0.19-0.652-0.573v-5.444h-0.623
			c-0.349,0-0.523-0.179-0.523-0.537c0-0.33,0.175-0.495,0.523-0.495h0.623v-1.673c0-0.375,0.222-0.563,0.667-0.563
			c0.405,0,0.608,0.188,0.608,0.563v1.673h2.536c0.354,0,0.53,0.17,0.53,0.509c0,0.349-0.177,0.523-0.53,0.523H212.182z"/>
		<path fill="#E1716F" d="M225.736,243.615c0,0.381-0.212,0.571-0.638,0.571c-0.425,0-0.637-0.19-0.637-0.573v-4.255
			c0-0.793-0.712-1.189-2.136-1.189h-4.643v5.444c0,0.383-0.215,0.573-0.645,0.573c-0.421,0-0.631-0.19-0.631-0.573v-8.152
			c0-0.373,0.21-0.56,0.631-0.56c0.43,0,0.645,0.188,0.645,0.563v1.673h4.234c2.546,0,3.818,0.734,3.818,2.202V243.615z"/>
		<path fill="#E1716F" d="M236.612,241.999c0,1.411-1.099,2.116-3.296,2.116h-2.564c-2.245,0-3.367-0.705-3.367-2.116v-2.703
			c0-1.439,1.137-2.159,3.41-2.159h2.521c2.197,0,3.296,0.716,3.296,2.146V241.999z M235.309,239.169c0-0.667-0.598-1-1.791-1
			h-2.909c-1.299,0-1.948,0.371-1.948,1.114v2.7c0,0.705,0.649,1.058,1.948,1.058h2.909c1.193,0,1.791-0.353,1.791-1.058V239.169z"
			/>
		<path fill="#E1716F" d="M247.474,243.615c0,0.381-0.213,0.571-0.638,0.571s-0.638-0.19-0.638-0.573v-4.585
			c0-0.573-0.577-0.859-1.73-0.859h-3.188c-1.163,0-1.744,0.286-1.744,0.859v4.585c0,0.383-0.213,0.573-0.638,0.573
			s-0.638-0.19-0.638-0.571v-4.576c0-1.268,1.121-1.902,3.362-1.902h2.461c2.261,0,3.391,0.635,3.391,1.902V243.615z"/>
	</g>
	<g>
		<path fill="#0FACBD" d="M319.247,242.066c0,1.366-1.191,2.049-3.573,2.049h-2.383c-2.334,0-3.501-0.642-3.501-1.924v-2.943
			c0-1.427,1.165-2.14,3.496-2.14h4.686v-1.651c0-0.37,0.208-0.556,0.623-0.556c0.435,0,0.652,0.187,0.652,0.56V242.066z
			 M317.972,238.183h-4.958c-1.299,0-1.948,0.41-1.948,1.229v2.5c0,0.752,0.62,1.129,1.862,1.129h2.938
			c1.404,0,2.106-0.377,2.106-1.129V238.183z"/>
		<path fill="#0FACBD" d="M321.869,237.71c-0.048,0.191-0.144,0.33-0.287,0.416c-0.143,0.086-0.281,0.129-0.415,0.129
			c-0.144,0-0.266-0.041-0.365-0.122c-0.101-0.081-0.15-0.203-0.15-0.365c0-0.01,0.002-0.026,0.007-0.05
			c0.005-0.024,0.012-0.06,0.021-0.108l0.387-2.178c0.038-0.19,0.132-0.337,0.279-0.437c0.148-0.101,0.313-0.15,0.495-0.15
			c0.162,0,0.303,0.043,0.422,0.129c0.12,0.086,0.18,0.21,0.18,0.372c0,0.086-0.005,0.144-0.015,0.172L321.869,237.71z"/>
		<path fill="#0FACBD" d="M333.318,241.956c0,1.439-1.166,2.159-3.497,2.159h-2.35c-2.397,0-3.597-0.702-3.597-2.106v-6.548
			c0-0.373,0.213-0.56,0.638-0.56s0.638,0.188,0.638,0.563v1.673h4.678c2.326,0,3.49,0.716,3.49,2.146V241.956z M332.043,239.326
			c0-0.771-0.668-1.157-2.002-1.157h-4.891v3.829c0,0.695,0.696,1.043,2.088,1.043h3.046c0.601,0,1.043-0.093,1.329-0.279
			c0.286-0.186,0.43-0.469,0.43-0.85V239.326z"/>
		<path fill="#0FACBD" d="M344.279,242.08c0,1.357-1.183,2.035-3.548,2.035h-2.203c-2.385,0-3.577-0.678-3.577-2.035v-4.527
			c0-0.363,0.205-0.545,0.616-0.545c0.42,0,0.631,0.182,0.631,0.543v4.518c0,0.648,0.706,0.973,2.12,0.973h2.622
			c1.376,0,2.063-0.314,2.063-0.944v-4.546c0-0.352,0.218-0.528,0.652-0.528c0.415,0,0.623,0.177,0.623,0.53V242.08z"/>
		<path fill="#0FACBD" d="M355.271,244.015c0,1.395-1.156,2.093-3.468,2.093h-1.061c-0.373,0-0.559-0.173-0.559-0.517
			s0.186-0.516,0.559-0.516h1.218c1.366,0,2.049-0.291,2.049-0.874v-0.086h-4.37c-2.475,0-3.711-0.7-3.711-2.103v-2.759
			c0-1.411,1.127-2.117,3.382-2.117h2.278c2.454,0,3.683,0.71,3.683,2.131V244.015z M353.966,243.055v-3.726
			c0-0.773-0.673-1.16-2.021-1.16h-2.865c-1.252,0-1.877,0.349-1.877,1.046v2.779c0,0.707,0.726,1.061,2.178,1.061H353.966z"/>
		<path fill="#0FACBD" d="M365.429,244.115c-2.302,0-3.453-0.687-3.453-2.06v-2.874c0-1.363,1.046-2.045,3.139-2.045h4.686
			c0.392,0,0.587,0.165,0.587,0.495c0,0.358-0.195,0.537-0.587,0.537h-4.857c-1.128,0-1.691,0.323-1.691,0.971v2.844
			c0,0.705,0.649,1.058,1.949,1.058h4.6c0.353,0,0.53,0.188,0.53,0.566c0,0.339-0.178,0.508-0.53,0.508H365.429z"/>
		<path fill="#0FACBD" d="M372.923,237.71c-0.048,0.191-0.144,0.33-0.287,0.416c-0.143,0.086-0.281,0.129-0.415,0.129
			c-0.144,0-0.266-0.041-0.365-0.122c-0.101-0.081-0.15-0.203-0.15-0.365c0-0.01,0.002-0.026,0.007-0.05
			c0.005-0.024,0.012-0.06,0.021-0.108l0.387-2.178c0.038-0.19,0.132-0.337,0.279-0.437c0.148-0.101,0.313-0.15,0.495-0.15
			c0.162,0,0.303,0.043,0.422,0.129c0.12,0.086,0.18,0.21,0.18,0.372c0,0.086-0.005,0.144-0.015,0.172L372.923,237.71z"/>
		<path fill="#0FACBD" d="M384.372,241.956c0,1.439-1.166,2.159-3.497,2.159h-2.35c-2.397,0-3.597-0.702-3.597-2.106v-6.548
			c0-0.373,0.213-0.56,0.638-0.56s0.638,0.188,0.638,0.563v1.673h4.678c2.326,0,3.49,0.716,3.49,2.146V241.956z M383.097,239.326
			c0-0.771-0.668-1.157-2.002-1.157h-4.891v3.829c0,0.695,0.696,1.043,2.088,1.043h3.046c0.601,0,1.043-0.093,1.329-0.279
			c0.286-0.186,0.43-0.469,0.43-0.85V239.326z"/>
		<path fill="#0FACBD" d="M395.333,242.08c0,1.357-1.183,2.035-3.548,2.035h-2.203c-2.385,0-3.577-0.678-3.577-2.035v-4.527
			c0-0.363,0.205-0.545,0.616-0.545c0.42,0,0.631,0.182,0.631,0.543v4.518c0,0.648,0.706,0.973,2.12,0.973h2.622
			c1.376,0,2.063-0.314,2.063-0.944v-4.546c0-0.352,0.218-0.528,0.652-0.528c0.415,0,0.623,0.177,0.623,0.53V242.08z"/>
		<path fill="#0FACBD" d="M406.324,244.015c0,1.395-1.156,2.093-3.468,2.093h-1.061c-0.373,0-0.559-0.173-0.559-0.517
			s0.186-0.516,0.559-0.516h1.218c1.366,0,2.049-0.291,2.049-0.874v-0.086h-4.37c-2.475,0-3.711-0.7-3.711-2.103v-2.759
			c0-1.411,1.127-2.117,3.382-2.117h2.278c2.454,0,3.683,0.71,3.683,2.131V244.015z M405.02,243.055v-3.726
			c0-0.773-0.673-1.16-2.021-1.16h-2.865c-1.252,0-1.877,0.349-1.877,1.046v2.779c0,0.707,0.726,1.061,2.178,1.061H405.02z"/>
	</g>
	<g>
		<path fill="#DFDFDF" d="M468.194,243.613c0,0.383-0.211,0.573-0.631,0.573c-0.43,0-0.645-0.19-0.645-0.573v-8.152
			c0-0.373,0.21-0.56,0.63-0.56c0.431,0,0.646,0.187,0.646,0.56V243.613z"/>
		<path fill="#DFDFDF" d="M471.532,236.119c0,0.44-0.296,0.659-0.889,0.659c-0.554,0-0.831-0.219-0.831-0.659
			c0-0.448,0.277-0.673,0.831-0.673C471.236,235.446,471.532,235.671,471.532,236.119z M471.317,243.613
			c0,0.383-0.21,0.573-0.631,0.573c-0.4,0-0.602-0.19-0.602-0.573v-5.545c0-0.363,0.191-0.545,0.573-0.545
			c0.439,0,0.659,0.182,0.659,0.545V243.613z"/>
		<path fill="#DFDFDF" d="M482.365,243.615c0,0.381-0.213,0.571-0.638,0.571s-0.638-0.19-0.638-0.573v-4.585
			c0-0.573-0.577-0.859-1.73-0.859h-3.188c-1.163,0-1.744,0.286-1.744,0.859v4.585c0,0.383-0.213,0.573-0.638,0.573
			s-0.638-0.19-0.638-0.571v-4.576c0-1.268,1.121-1.902,3.362-1.902h2.461c2.261,0,3.391,0.635,3.391,1.902V243.615z"/>
		<path fill="#DFDFDF" d="M493.413,242.08c0,1.357-1.183,2.035-3.549,2.035h-2.203c-2.385,0-3.576-0.678-3.576-2.035v-4.527
			c0-0.363,0.205-0.545,0.616-0.545c0.42,0,0.63,0.182,0.63,0.543v4.518c0,0.648,0.707,0.973,2.121,0.973h2.622
			c1.376,0,2.063-0.314,2.063-0.944v-4.546c0-0.352,0.217-0.528,0.651-0.528c0.416,0,0.624,0.177,0.624,0.53V242.08z"/>
		<path fill="#DFDFDF" d="M499.188,239.888l3.51-2.679c0.134-0.105,0.268-0.158,0.401-0.158c0.172,0,0.317,0.064,0.438,0.193
			c0.119,0.129,0.179,0.275,0.179,0.438s-0.086,0.306-0.258,0.43l-3.296,2.508l3.296,2.536c0.134,0.105,0.201,0.234,0.201,0.387
			c0,0.163-0.056,0.315-0.165,0.459c-0.11,0.143-0.241,0.215-0.395,0.215c-0.096,0-0.205-0.053-0.329-0.158l-3.582-2.693
			l-3.568,2.693c-0.096,0.096-0.205,0.144-0.329,0.144c-0.153,0-0.285-0.069-0.395-0.208c-0.11-0.138-0.165-0.288-0.165-0.451
			c0-0.144,0.067-0.272,0.201-0.387l3.281-2.536l-3.281-2.508c-0.086-0.066-0.153-0.131-0.201-0.193s-0.066-0.141-0.057-0.236
			c0-0.182,0.06-0.327,0.179-0.438c0.119-0.109,0.26-0.164,0.423-0.164c0.058,0,0.126,0.009,0.208,0.028
			c0.081,0.02,0.15,0.053,0.207,0.101L499.188,239.888z"/>
		<path fill="#DFDFDF" d="M511.353,239.028h8.053c0.315,0,0.473,0.187,0.473,0.559c0,0.363-0.157,0.545-0.473,0.545h-8.053v1.728
			c0,0.787,0.74,1.182,2.221,1.182h5.832c0.334,0,0.502,0.174,0.502,0.522c0,0.368-0.168,0.552-0.502,0.552h-5.875
			c-2.369,0-3.554-0.735-3.554-2.207v-4.686c0-1.499,1.228-2.249,3.683-2.249h1.591c0.315,0,0.473,0.182,0.473,0.544
			c0,0.354-0.157,0.53-0.473,0.53h-1.075c-1.882,0-2.822,0.392-2.822,1.175V239.028z"/>
		<path fill="#DFDFDF" d="M525.553,239.888l3.51-2.679c0.134-0.105,0.268-0.158,0.401-0.158c0.172,0,0.317,0.064,0.438,0.193
			c0.119,0.129,0.179,0.275,0.179,0.438s-0.086,0.306-0.258,0.43l-3.296,2.508l3.296,2.536c0.134,0.105,0.201,0.234,0.201,0.387
			c0,0.163-0.056,0.315-0.165,0.459c-0.11,0.143-0.241,0.215-0.395,0.215c-0.096,0-0.205-0.053-0.329-0.158l-3.582-2.693
			l-3.568,2.693c-0.096,0.096-0.205,0.144-0.329,0.144c-0.153,0-0.285-0.069-0.395-0.208c-0.11-0.138-0.165-0.288-0.165-0.451
			c0-0.144,0.067-0.272,0.201-0.387l3.281-2.536l-3.281-2.508c-0.086-0.066-0.153-0.131-0.201-0.193s-0.066-0.141-0.057-0.236
			c0-0.182,0.06-0.327,0.179-0.438c0.119-0.109,0.26-0.164,0.423-0.164c0.058,0,0.126,0.009,0.208,0.028
			c0.081,0.02,0.15,0.053,0.207,0.101L525.553,239.888z"/>
		<path fill="#DFDFDF" d="M540.641,242.013c0,1.402-1.057,2.103-3.17,2.103h-4.868v1.576c0,0.392-0.218,0.588-0.652,0.588
			c-0.416,0-0.623-0.196-0.623-0.587v-6.538c0-1.345,1.115-2.018,3.348-2.018h2.446c2.347,0,3.52,0.663,3.52,1.988V242.013z
			 M539.365,239.14c0-0.647-0.677-0.971-2.03-0.971h-2.788c-1.297,0-1.944,0.333-1.944,1v3.872h5.09
			c1.115,0,1.673-0.343,1.673-1.029V239.14z"/>
		<path fill="#DFDFDF" d="M551.56,240.664c0,0.381-0.191,0.571-0.573,0.571h-7.494v0.867c0,0.625,0.649,0.938,1.949,0.938h1.39
			c0.363,0,0.545,0.174,0.545,0.522c0,0.368-0.182,0.552-0.545,0.552h-1.061c-2.369,0-3.554-0.72-3.554-2.159v-2.688
			c0-1.421,1.17-2.131,3.511-2.131h2.866c1.978,0,2.966,0.619,2.966,1.856V240.664z M543.492,240.16h6.835v-1.039
			c0-0.635-0.492-0.952-1.476-0.952h-3.41c-1.3,0-1.949,0.337-1.949,1.01V240.16z"/>
		<path fill="#DFDFDF" d="M556.03,238.169c-1.213,0-1.819,0.358-1.819,1.074v4.37c0,0.383-0.216,0.573-0.646,0.573
			c-0.42,0-0.63-0.19-0.63-0.571v-4.361c0-1.411,1.074-2.117,3.224-2.117h0.588c0.314,0,0.473,0.17,0.473,0.509
			c0,0.349-0.134,0.523-0.401,0.523H556.03z"/>
		<path fill="#DFDFDF" d="M560.171,238.169v5.444c0,0.383-0.207,0.573-0.623,0.573c-0.435,0-0.651-0.19-0.651-0.573v-5.444h-0.623
			c-0.35,0-0.523-0.179-0.523-0.537c0-0.33,0.174-0.495,0.523-0.495h0.623v-1.673c0-0.375,0.222-0.563,0.666-0.563
			c0.405,0,0.608,0.188,0.608,0.563v1.673h2.537c0.353,0,0.529,0.17,0.529,0.509c0,0.349-0.177,0.523-0.529,0.523H560.171z"/>
	</g>
	<g>
		<path fill="#74C044" d="M790.422,243.6c0,0.382-0.229,0.573-0.688,0.573c-0.458,0-0.688-0.191-0.688-0.573v-8.139
			c0-0.373,0.238-0.56,0.717-0.56c0.438,0,0.658,0.187,0.658,0.56V243.6z"/>
		<path fill="#74C044" d="M797.199,236.048v7.552c0,0.392-0.231,0.587-0.694,0.587c-0.454,0-0.681-0.195-0.681-0.587v-7.552h-3.769
			c-0.335,0-0.502-0.19-0.502-0.573c0-0.334,0.167-0.501,0.502-0.501h8.898c0.334,0,0.501,0.167,0.501,0.501
			c0,0.383-0.167,0.573-0.501,0.573H797.199z"/>
		<path fill="#74C044" d="M810.855,244.187c0,1.28-0.975,1.921-2.924,1.921h-1.59c-0.325,0-0.487-0.178-0.487-0.53
			c0-0.335,0.162-0.502,0.487-0.502h1.705c1.021,0,1.533-0.296,1.533-0.889v-0.071h-4.686c-2.217,0-3.324-0.678-3.324-2.035v-4.527
			c0-0.354,0.212-0.53,0.638-0.53c0.425,0,0.638,0.177,0.638,0.528v4.518c0,0.648,0.604,0.973,1.815,0.973h4.919v-5.49
			c0-0.352,0.207-0.528,0.623-0.528c0.435,0,0.652,0.177,0.652,0.53V244.187z"/>
		<path fill="#74C044" d="M821.932,242.08c0,1.357-1.183,2.035-3.549,2.035h-2.203c-2.385,0-3.576-0.678-3.576-2.035v-4.527
			c0-0.363,0.205-0.545,0.616-0.545c0.42,0,0.63,0.182,0.63,0.543v4.518c0,0.648,0.707,0.973,2.121,0.973h2.622
			c1.376,0,2.063-0.314,2.063-0.944v-4.546c0-0.352,0.217-0.528,0.651-0.528c0.416,0,0.624,0.177,0.624,0.53V242.08z"/>
		<path fill="#74C044" d="M825.93,240.504l5.244,2.637c0.086,0.048,0.155,0.115,0.208,0.201c0.052,0.086,0.078,0.157,0.078,0.215
			c0,0.162-0.064,0.308-0.193,0.437s-0.274,0.193-0.437,0.193c-0.086,0-0.187-0.028-0.301-0.086l-5.546-2.865v2.378
			c0,0.383-0.208,0.573-0.623,0.573c-0.435,0-0.652-0.19-0.652-0.573v-8.152c0-0.373,0.218-0.56,0.652-0.56
			c0.415,0,0.623,0.187,0.623,0.56v4.355l5.646-2.708c0.077-0.048,0.153-0.071,0.229-0.071c0.152,0,0.291,0.062,0.416,0.186
			c0.124,0.125,0.186,0.254,0.186,0.387c0,0.077-0.026,0.156-0.078,0.237c-0.053,0.081-0.132,0.146-0.236,0.193L825.93,240.504z"/>
		<path fill="#74C044" d="M834.526,238.169v5.444c0,0.383-0.207,0.573-0.623,0.573c-0.435,0-0.651-0.19-0.651-0.573v-5.444h-0.623
			c-0.35,0-0.523-0.179-0.523-0.537c0-0.33,0.174-0.495,0.523-0.495h0.623v-1.673c0-0.375,0.222-0.563,0.666-0.563
			c0.405,0,0.608,0.188,0.608,0.563v1.673h2.537c0.353,0,0.529,0.17,0.529,0.509c0,0.349-0.177,0.523-0.529,0.523H834.526z"/>
		<path fill="#74C044" d="M848.082,243.615c0,0.381-0.213,0.571-0.638,0.571s-0.638-0.19-0.638-0.573v-4.255
			c0-0.793-0.712-1.189-2.135-1.189h-4.643v5.444c0,0.383-0.215,0.573-0.646,0.573c-0.42,0-0.63-0.19-0.63-0.573v-8.152
			c0-0.373,0.21-0.56,0.63-0.56c0.431,0,0.646,0.188,0.646,0.563v1.673h4.233c2.546,0,3.819,0.734,3.819,2.202V243.615z"/>
		<path fill="#74C044" d="M859.488,242.07c0,1.363-0.994,2.045-2.98,2.045h-3.726c-2.093,0-3.139-0.656-3.139-1.969v-0.92
			c0-1.36,1.022-2.041,3.066-2.041h5.546c-0.086-0.678-0.603-1.017-1.548-1.017h-1.548c-0.306,0-0.458-0.179-0.458-0.537
			c0-0.33,0.152-0.495,0.458-0.495h1.348c1.986,0,2.98,0.696,2.98,2.088V242.07z M858.27,240.261h-5.857
			c-0.995,0-1.493,0.313-1.493,0.94v0.955c0,0.59,0.531,0.885,1.594,0.885h4.221c1.024,0,1.536-0.447,1.536-1.341V240.261z"/>
	</g>
	<g>
		<path fill="#E1716F" d="M950.018,241.999c0,1.411-1.099,2.116-3.296,2.116h-2.565c-2.244,0-3.367-0.705-3.367-2.116v-2.703
			c0-1.439,1.137-2.159,3.41-2.159h2.522c2.197,0,3.296,0.716,3.296,2.146V241.999z M948.713,239.169c0-0.667-0.597-1-1.791-1
			h-2.908c-1.3,0-1.949,0.371-1.949,1.114v2.7c0,0.705,0.649,1.058,1.949,1.058h2.908c1.194,0,1.791-0.353,1.791-1.058V239.169z"/>
		<path fill="#E1716F" d="M960.979,242.013c0,1.402-1.058,2.103-3.17,2.103h-4.869v1.576c0,0.392-0.218,0.588-0.652,0.588
			c-0.415,0-0.623-0.196-0.623-0.587v-6.538c0-1.345,1.116-2.018,3.348-2.018h2.447c2.346,0,3.52,0.663,3.52,1.988V242.013z
			 M959.704,239.14c0-0.647-0.677-0.971-2.031-0.971h-2.788c-1.296,0-1.944,0.333-1.944,1v3.872h5.091
			c1.115,0,1.673-0.343,1.673-1.029V239.14z"/>
		<path fill="#E1716F" d="M964.432,238.169v5.444c0,0.383-0.207,0.573-0.623,0.573c-0.435,0-0.651-0.19-0.651-0.573v-5.444h-0.623
			c-0.35,0-0.523-0.179-0.523-0.537c0-0.33,0.174-0.495,0.523-0.495h0.623v-1.673c0-0.375,0.222-0.563,0.666-0.563
			c0.405,0,0.608,0.188,0.608,0.563v1.673h2.537c0.353,0,0.529,0.17,0.529,0.509c0,0.349-0.177,0.523-0.529,0.523H964.432z"/>
		<path fill="#E1716F" d="M970.178,236.119c0,0.44-0.296,0.659-0.889,0.659c-0.554,0-0.831-0.219-0.831-0.659
			c0-0.448,0.277-0.673,0.831-0.673C969.882,235.446,970.178,235.671,970.178,236.119z M969.963,243.613
			c0,0.383-0.21,0.573-0.631,0.573c-0.4,0-0.602-0.19-0.602-0.573v-5.545c0-0.363,0.191-0.545,0.573-0.545
			c0.439,0,0.659,0.182,0.659,0.545V243.613z"/>
		<path fill="#E1716F" d="M984.664,243.615c0,0.381-0.215,0.571-0.645,0.571c-0.42,0-0.63-0.19-0.63-0.573v-4.441
			c0-0.669-0.688-1.003-2.063-1.003c-1.634,0-2.45,0.396-2.45,1.189v4.255c0,0.383-0.206,0.573-0.616,0.573
			c-0.439,0-0.659-0.19-0.659-0.573v-4.255c0-0.793-0.814-1.189-2.442-1.189c-1.391,0-2.086,0.334-2.086,1.003v4.441
			c0,0.383-0.218,0.573-0.652,0.573c-0.415,0-0.623-0.19-0.623-0.571v-4.276c0-1.468,1.118-2.202,3.354-2.202
			c1.662,0,2.703,0.383,3.123,1.146c0.449-0.764,1.467-1.146,3.053-1.146c2.226,0,3.338,0.734,3.338,2.202V243.615z"/>
		<path fill="#E1716F" d="M995.712,242.08c0,1.357-1.183,2.035-3.548,2.035h-2.203c-2.385,0-3.577-0.678-3.577-2.035v-4.527
			c0-0.363,0.205-0.545,0.616-0.545c0.42,0,0.631,0.182,0.631,0.543v4.518c0,0.648,0.706,0.973,2.12,0.973h2.622
			c1.376,0,2.063-0.314,2.063-0.944v-4.546c0-0.352,0.218-0.528,0.652-0.528c0.415,0,0.623,0.177,0.623,0.53V242.08z"/>
		<path fill="#E1716F" d="M1005.886,242.253c0,1.241-0.889,1.862-2.665,1.862h-5.416c-0.373,0-0.56-0.174-0.56-0.522
			c0-0.368,0.187-0.552,0.56-0.552h5.631c0.765,0,1.146-0.266,1.146-0.797v-0.413c0-0.512-0.43-0.768-1.29-0.768h-3.009
			c-1.968,0-2.952-0.59-2.952-1.771v-0.457c0-1.133,0.941-1.699,2.823-1.699h1.49c0.372,0,0.559,0.17,0.559,0.509
			c0,0.349-0.187,0.523-0.559,0.523h-1.791c-0.831,0-1.247,0.22-1.247,0.659v0.43c0,0.516,0.491,0.773,1.474,0.773h3.06
			c1.831,0,2.746,0.602,2.746,1.806V242.253z"/>
	</g>
	<g>
		<path fill="#F3EB2E" d="M628.242,244.115c-2.302,0-3.453-0.687-3.453-2.06v-2.874c0-1.363,1.046-2.045,3.139-2.045h4.686
			c0.392,0,0.587,0.165,0.587,0.495c0,0.358-0.195,0.537-0.587,0.537h-4.857c-1.128,0-1.691,0.323-1.691,0.971v2.844
			c0,0.705,0.649,1.058,1.949,1.058h4.6c0.353,0,0.53,0.188,0.53,0.566c0,0.339-0.178,0.508-0.53,0.508H628.242z"/>
		<path fill="#F3EB2E" d="M643.718,241.999c0,1.411-1.099,2.116-3.296,2.116h-2.564c-2.245,0-3.367-0.705-3.367-2.116v-2.703
			c0-1.439,1.137-2.159,3.41-2.159h2.521c2.197,0,3.296,0.716,3.296,2.146V241.999z M642.414,239.169c0-0.667-0.598-1-1.791-1
			h-2.909c-1.299,0-1.948,0.371-1.948,1.114v2.7c0,0.705,0.649,1.058,1.948,1.058h2.909c1.193,0,1.791-0.353,1.791-1.058V239.169z"
			/>
		<path fill="#F3EB2E" d="M654.751,242.066c0,1.366-1.19,2.049-3.573,2.049h-2.382c-2.335,0-3.502-0.642-3.502-1.924v-2.943
			c0-1.427,1.166-2.14,3.496-2.14h4.687v-1.651c0-0.37,0.207-0.556,0.623-0.556c0.435,0,0.651,0.187,0.651,0.56V242.066z
			 M653.477,238.183h-4.958c-1.3,0-1.949,0.41-1.949,1.229v2.5c0,0.752,0.621,1.129,1.863,1.129h2.938
			c1.404,0,2.106-0.377,2.106-1.129V238.183z"/>
		<path fill="#F3EB2E" d="M665.713,240.664c0,0.381-0.191,0.571-0.573,0.571h-7.494v0.867c0,0.625,0.649,0.938,1.949,0.938h1.39
			c0.363,0,0.545,0.174,0.545,0.522c0,0.368-0.182,0.552-0.545,0.552h-1.061c-2.369,0-3.554-0.72-3.554-2.159v-2.688
			c0-1.421,1.17-2.131,3.511-2.131h2.866c1.978,0,2.966,0.619,2.966,1.856V240.664z M657.646,240.16h6.835v-1.039
			c0-0.635-0.492-0.952-1.476-0.952h-3.41c-1.3,0-1.949,0.337-1.949,1.01V240.16z"/>
		<path fill="#F3EB2E" d="M685.186,243.615c0,0.381-0.215,0.571-0.645,0.571c-0.42,0-0.63-0.19-0.63-0.573v-4.441
			c0-0.669-0.688-1.003-2.063-1.003c-1.634,0-2.45,0.396-2.45,1.189v4.255c0,0.383-0.206,0.573-0.616,0.573
			c-0.439,0-0.659-0.19-0.659-0.573v-4.255c0-0.793-0.814-1.189-2.442-1.189c-1.391,0-2.086,0.334-2.086,1.003v4.441
			c0,0.383-0.218,0.573-0.652,0.573c-0.415,0-0.623-0.19-0.623-0.571v-4.276c0-1.468,1.118-2.202,3.354-2.202
			c1.662,0,2.703,0.383,3.123,1.146c0.449-0.764,1.467-1.146,3.053-1.146c2.226,0,3.338,0.734,3.338,2.202V243.615z"/>
		<path fill="#F3EB2E" d="M696.592,242.07c0,1.363-0.993,2.045-2.98,2.045h-3.726c-2.092,0-3.138-0.656-3.138-1.969v-0.92
			c0-1.36,1.021-2.041,3.066-2.041h5.545c-0.086-0.678-0.602-1.017-1.547-1.017h-1.548c-0.306,0-0.459-0.179-0.459-0.537
			c0-0.33,0.153-0.495,0.459-0.495h1.347c1.987,0,2.98,0.696,2.98,2.088V242.07z M695.374,240.261h-5.857
			c-0.996,0-1.493,0.313-1.493,0.94v0.955c0,0.59,0.53,0.885,1.594,0.885h4.221c1.024,0,1.536-0.447,1.536-1.341V240.261z"/>
		<path fill="#F3EB2E" d="M700.03,238.169v5.444c0,0.383-0.207,0.573-0.623,0.573c-0.435,0-0.651-0.19-0.651-0.573v-5.444h-0.623
			c-0.35,0-0.523-0.179-0.523-0.537c0-0.33,0.174-0.495,0.523-0.495h0.623v-1.673c0-0.375,0.222-0.563,0.666-0.563
			c0.405,0,0.608,0.188,0.608,0.563v1.673h2.537c0.353,0,0.529,0.17,0.529,0.509c0,0.349-0.177,0.523-0.529,0.523H700.03z"/>
		<path fill="#F3EB2E" d="M713.586,243.615c0,0.381-0.213,0.571-0.638,0.571s-0.638-0.19-0.638-0.573v-4.255
			c0-0.793-0.712-1.189-2.135-1.189h-4.643v5.444c0,0.383-0.215,0.573-0.646,0.573c-0.42,0-0.63-0.19-0.63-0.573v-8.152
			c0-0.373,0.21-0.56,0.63-0.56c0.431,0,0.646,0.188,0.646,0.563v1.673h4.233c2.546,0,3.819,0.734,3.819,2.202V243.615z"/>
	</g>
	<g>
		<g>
			<g>
				<path fill="#5FBB46" d="M131.131,381.899c0,1.395-1.156,2.093-3.468,2.093h-1.061c-0.373,0-0.559-0.173-0.559-0.517
					s0.186-0.516,0.559-0.516h1.218c1.366,0,2.049-0.291,2.049-0.874V382h-4.37c-2.475,0-3.711-0.7-3.711-2.103v-2.759
					c0-1.411,1.127-2.117,3.382-2.117h2.278c2.455,0,3.683,0.71,3.683,2.131V381.899z M129.827,380.939v-3.726
					c0-0.773-0.673-1.16-2.021-1.16h-2.866c-1.251,0-1.877,0.349-1.877,1.046v2.779c0,0.707,0.726,1.061,2.178,1.061H129.827z"/>
				<path fill="#5FBB46" d="M142.508,379.955c0,1.363-0.994,2.045-2.98,2.045h-3.726c-2.092,0-3.138-0.656-3.138-1.969v-0.92
					c0-1.36,1.022-2.041,3.066-2.041h5.545c-0.086-0.678-0.602-1.017-1.547-1.017h-1.548c-0.306,0-0.458-0.179-0.458-0.537
					c0-0.33,0.153-0.495,0.458-0.495h1.347c1.987,0,2.98,0.696,2.98,2.088V379.955z M141.29,378.146h-5.857
					c-0.996,0-1.493,0.313-1.493,0.94v0.955c0,0.59,0.531,0.885,1.594,0.885h4.221c1.024,0,1.536-0.447,1.536-1.341V378.146z"/>
				<path fill="#5FBB46" d="M157.009,381.5c0,0.381-0.215,0.571-0.645,0.571c-0.42,0-0.63-0.19-0.63-0.573v-4.441
					c0-0.669-0.688-1.003-2.063-1.003c-1.634,0-2.45,0.396-2.45,1.189v4.255c0,0.383-0.206,0.573-0.616,0.573
					c-0.439,0-0.659-0.19-0.659-0.573v-4.255c0-0.793-0.814-1.189-2.442-1.189c-1.391,0-2.085,0.334-2.085,1.003v4.441
					c0,0.383-0.218,0.573-0.652,0.573c-0.416,0-0.623-0.19-0.623-0.571v-4.276c0-1.468,1.118-2.202,3.353-2.202
					c1.662,0,2.703,0.383,3.124,1.146c0.449-0.764,1.466-1.146,3.052-1.146c2.226,0,3.338,0.734,3.338,2.202V381.5z"/>
				<path fill="#5FBB46" d="M160.305,374.004c0,0.44-0.296,0.659-0.889,0.659c-0.554,0-0.831-0.219-0.831-0.659
					c0-0.448,0.277-0.673,0.831-0.673C160.008,373.331,160.305,373.556,160.305,374.004z M160.09,381.498
					c0,0.383-0.21,0.573-0.631,0.573c-0.401,0-0.602-0.19-0.602-0.573v-5.545c0-0.363,0.191-0.545,0.573-0.545
					c0.439,0,0.659,0.182,0.659,0.545V381.498z"/>
				<path fill="#5FBB46" d="M171.137,381.5c0,0.381-0.212,0.571-0.638,0.571c-0.425,0-0.638-0.19-0.638-0.573v-4.585
					c0-0.573-0.577-0.859-1.73-0.859h-3.188c-1.163,0-1.744,0.286-1.744,0.859v4.585c0,0.383-0.213,0.573-0.638,0.573
					c-0.425,0-0.638-0.19-0.638-0.571v-4.576c0-1.268,1.121-1.902,3.362-1.902h2.46c2.261,0,3.391,0.635,3.391,1.902V381.5z"/>
				<path fill="#5FBB46" d="M182.127,381.899c0,1.395-1.156,2.093-3.468,2.093h-1.061c-0.373,0-0.559-0.173-0.559-0.517
					s0.186-0.516,0.559-0.516h1.218c1.366,0,2.049-0.291,2.049-0.874V382h-4.37c-2.475,0-3.711-0.7-3.711-2.103v-2.759
					c0-1.411,1.127-2.117,3.382-2.117h2.278c2.455,0,3.683,0.71,3.683,2.131V381.899z M180.823,380.939v-3.726
					c0-0.773-0.673-1.16-2.021-1.16h-2.866c-1.251,0-1.877,0.349-1.877,1.046v2.779c0,0.707,0.726,1.061,2.178,1.061H180.823z"/>
			</g>
		</g>
		<g>
			<g>
				<path fill="#69BD45" d="M484.245,379.951c0,1.367-1.191,2.049-3.573,2.049h-2.382c-2.334,0-3.501-0.641-3.501-1.924v-2.943
					c0-1.426,1.166-2.139,3.496-2.139h4.686v-1.652c0-0.369,0.208-0.555,0.623-0.555c0.435,0,0.652,0.186,0.652,0.559V379.951z
					 M482.97,376.068h-4.958c-1.299,0-1.949,0.41-1.949,1.229v2.5c0,0.752,0.621,1.129,1.863,1.129h2.938
					c1.404,0,2.106-0.377,2.106-1.129V376.068z"/>
				<path fill="#69BD45" d="M495.264,379.965c0,1.357-1.183,2.035-3.548,2.035h-2.203c-2.385,0-3.577-0.678-3.577-2.035v-4.527
					c0-0.363,0.205-0.545,0.616-0.545c0.42,0,0.63,0.182,0.63,0.543v4.518c0,0.648,0.707,0.973,2.121,0.973h2.622
					c1.376,0,2.063-0.314,2.063-0.943v-4.547c0-0.352,0.217-0.527,0.652-0.527c0.416,0,0.624,0.176,0.624,0.529V379.965z"/>
				<path fill="#69BD45" d="M506.426,379.842c0,1.439-1.166,2.158-3.497,2.158h-2.35c-2.398,0-3.597-0.701-3.597-2.105v-6.549
					c0-0.373,0.212-0.559,0.638-0.559c0.425,0,0.638,0.188,0.638,0.563v1.672h4.677c2.327,0,3.49,0.717,3.49,2.146V379.842z
					 M505.151,377.211c0-0.771-0.667-1.156-2.002-1.156h-4.89v3.828c0,0.695,0.696,1.043,2.087,1.043h3.046
					c0.601,0,1.043-0.092,1.33-0.279c0.286-0.186,0.429-0.469,0.429-0.85V377.211z"/>
				<path fill="#69BD45" d="M516.514,380.139c0,1.24-0.889,1.861-2.665,1.861h-5.417c-0.373,0-0.559-0.174-0.559-0.521
					c0-0.369,0.187-0.553,0.559-0.553h5.631c0.765,0,1.146-0.266,1.146-0.797v-0.412c0-0.512-0.43-0.768-1.289-0.768h-3.009
					c-1.968,0-2.952-0.59-2.952-1.771v-0.457c0-1.133,0.941-1.699,2.823-1.699h1.49c0.373,0,0.56,0.17,0.56,0.51
					c0,0.348-0.187,0.523-0.56,0.523h-1.791c-0.831,0-1.247,0.219-1.247,0.658v0.43c0,0.516,0.491,0.773,1.473,0.773h3.06
					c1.83,0,2.746,0.602,2.746,1.807V380.139z"/>
				<path fill="#69BD45" d="M530.842,381.5c0,0.381-0.215,0.572-0.645,0.572c-0.42,0-0.63-0.191-0.63-0.574v-4.441
					c0-0.668-0.688-1.002-2.063-1.002c-1.634,0-2.45,0.396-2.45,1.189v4.254c0,0.383-0.206,0.574-0.616,0.574
					c-0.439,0-0.659-0.191-0.659-0.574v-4.254c0-0.793-0.814-1.189-2.442-1.189c-1.391,0-2.086,0.334-2.086,1.002v4.441
					c0,0.383-0.217,0.574-0.652,0.574c-0.415,0-0.623-0.191-0.623-0.572v-4.275c0-1.469,1.118-2.203,3.354-2.203
					c1.662,0,2.703,0.383,3.123,1.146c0.449-0.764,1.467-1.146,3.053-1.146c2.226,0,3.338,0.734,3.338,2.203V381.5z"/>
				<path fill="#69BD45" d="M542.248,379.955c0,1.363-0.993,2.045-2.98,2.045h-3.725c-2.093,0-3.139-0.656-3.139-1.969v-0.92
					c0-1.359,1.021-2.041,3.066-2.041h5.545c-0.086-0.678-0.602-1.016-1.547-1.016h-1.548c-0.306,0-0.458-0.18-0.458-0.537
					c0-0.33,0.152-0.496,0.458-0.496h1.347c1.987,0,2.98,0.697,2.98,2.088V379.955z M541.03,378.146h-5.857
					c-0.995,0-1.493,0.313-1.493,0.939v0.955c0,0.59,0.531,0.885,1.594,0.885h4.221c1.024,0,1.536-0.447,1.536-1.34V378.146z"/>
				<path fill="#69BD45" d="M552.336,380.139c0,1.24-0.889,1.861-2.665,1.861h-5.417c-0.372,0-0.559-0.174-0.559-0.521
					c0-0.369,0.187-0.553,0.559-0.553h5.632c0.765,0,1.146-0.266,1.146-0.797v-0.412c0-0.512-0.43-0.768-1.289-0.768h-3.009
					c-1.968,0-2.952-0.59-2.952-1.771v-0.457c0-1.133,0.941-1.699,2.822-1.699h1.49c0.373,0,0.56,0.17,0.56,0.51
					c0,0.348-0.187,0.523-0.56,0.523h-1.791c-0.83,0-1.246,0.219-1.246,0.658v0.43c0,0.516,0.491,0.773,1.473,0.773h3.061
					c1.83,0,2.746,0.602,2.746,1.807V380.139z"/>
				<path fill="#69BD45" d="M563.183,381.5c0,0.381-0.212,0.572-0.638,0.572c-0.425,0-0.637-0.191-0.637-0.574v-4.254
					c0-0.793-0.713-1.189-2.136-1.189h-4.643v5.443c0,0.383-0.215,0.574-0.646,0.574c-0.42,0-0.63-0.191-0.63-0.574v-8.152
					c0-0.373,0.21-0.559,0.63-0.559c0.431,0,0.646,0.188,0.646,0.563v1.672h4.233c2.547,0,3.819,0.734,3.819,2.203V381.5z"/>
			</g>
		</g>
		<g>
			<g>
				<path fill="#70CCF4" d="M665.241,382c-2.302,0-3.453-0.687-3.453-2.06v-2.874c0-1.363,1.046-2.045,3.138-2.045h4.686
					c0.393,0,0.588,0.165,0.588,0.495c0,0.358-0.195,0.537-0.588,0.537h-4.857c-1.127,0-1.69,0.323-1.69,0.971v2.844
					c0,0.705,0.649,1.058,1.948,1.058h4.6c0.354,0,0.531,0.188,0.531,0.566c0,0.339-0.178,0.508-0.531,0.508H665.241z"/>
				<path fill="#70CCF4" d="M680.717,379.884c0,1.411-1.099,2.116-3.296,2.116h-2.565c-2.244,0-3.367-0.705-3.367-2.116v-2.703
					c0-1.439,1.137-2.159,3.41-2.159h2.522c2.197,0,3.296,0.716,3.296,2.146V379.884z M679.412,377.054c0-0.667-0.597-1-1.791-1
					h-2.908c-1.299,0-1.949,0.371-1.949,1.114v2.7c0,0.705,0.65,1.058,1.949,1.058h2.908c1.194,0,1.791-0.353,1.791-1.058V377.054z"
					/>
				<path fill="#70CCF4" d="M691.808,379.841c0,1.439-1.165,2.159-3.497,2.159h-2.35c-2.397,0-3.596-0.702-3.596-2.106v-6.548
					c0-0.373,0.212-0.56,0.637-0.56c0.426,0,0.639,0.188,0.639,0.563v1.673h4.677c2.327,0,3.49,0.716,3.49,2.146V379.841z
					 M690.532,377.211c0-0.771-0.667-1.157-2.002-1.157h-4.89v3.829c0,0.695,0.695,1.043,2.087,1.043h3.046
					c0.601,0,1.043-0.093,1.33-0.279c0.285-0.186,0.429-0.469,0.429-0.85V377.211z"/>
				<path fill="#70CCF4" d="M703.442,381.613c-0.076,0.162-0.19,0.279-0.344,0.351c-0.153,0.072-0.315,0.107-0.487,0.107
					c-0.162,0-0.32-0.038-0.473-0.114s-0.254-0.182-0.301-0.315l-2.364-5.115l-2.394,5.115c-0.076,0.144-0.193,0.253-0.351,0.33
					c-0.157,0.076-0.317,0.114-0.479,0.114c-0.182,0-0.348-0.038-0.495-0.114c-0.147-0.077-0.261-0.191-0.337-0.344l-2.693-5.818
					c-0.039-0.076-0.058-0.162-0.058-0.258c0-0.19,0.069-0.344,0.208-0.458c0.139-0.115,0.289-0.172,0.451-0.172
					c0.086,0,0.177,0.026,0.272,0.078c0.095,0.053,0.167,0.132,0.215,0.236l2.479,5.331l2.421-5.116
					c0.077-0.162,0.182-0.279,0.315-0.351s0.271-0.107,0.416-0.107c0.162,0,0.314,0.033,0.458,0.101
					c0.144,0.066,0.248,0.182,0.315,0.344l2.422,5.13l2.449-5.331c0.077-0.162,0.225-0.243,0.445-0.243
					c0.162,0,0.324,0.053,0.486,0.157c0.162,0.105,0.244,0.239,0.244,0.401c0,0.077-0.02,0.148-0.058,0.215L703.442,381.613z"/>
				<path fill="#70CCF4" d="M716.496,378.549c0,0.381-0.191,0.571-0.572,0.571h-7.494v0.867c0,0.625,0.648,0.938,1.948,0.938h1.39
					c0.363,0,0.545,0.174,0.545,0.522c0,0.368-0.182,0.552-0.545,0.552h-1.061c-2.369,0-3.553-0.72-3.553-2.159v-2.688
					c0-1.421,1.17-2.131,3.51-2.131h2.866c1.978,0,2.966,0.619,2.966,1.856V378.549z M708.43,378.045h6.834v-1.039
					c0-0.635-0.492-0.952-1.476-0.952h-3.41c-1.3,0-1.948,0.337-1.948,1.01V378.045z"/>
				<path fill="#70CCF4" d="M727.458,379.841c0,1.439-1.165,2.159-3.497,2.159h-2.35c-2.397,0-3.596-0.702-3.596-2.106v-6.548
					c0-0.373,0.212-0.56,0.637-0.56c0.426,0,0.639,0.188,0.639,0.563v1.673h4.677c2.327,0,3.49,0.716,3.49,2.146V379.841z
					 M726.183,377.211c0-0.771-0.667-1.157-2.002-1.157h-4.89v3.829c0,0.695,0.695,1.043,2.087,1.043h3.046
					c0.601,0,1.043-0.093,1.33-0.279c0.285-0.186,0.429-0.469,0.429-0.85V377.211z"/>
			</g>
		</g>
		<g>
			<g>
				<path fill="#E1E31E" d="M842.539,373.918c-0.955,0-1.438,0.368-1.447,1.104h2.521c0.307,0,0.459,0.165,0.459,0.495
					c0,0.358-0.152,0.537-0.459,0.537h-2.521v5.444c0,0.383-0.205,0.573-0.615,0.573c-0.412,0-0.617-0.19-0.617-0.573v-6.502
					c0-1.406,0.984-2.109,2.952-2.109h0.774c0.324,0,0.486,0.175,0.486,0.523c0,0.339-0.157,0.508-0.473,0.508H842.539z"/>
				<path fill="#E1E31E" d="M854.461,379.965c0,1.357-1.183,2.035-3.549,2.035h-2.203c-2.385,0-3.576-0.678-3.576-2.035v-4.527
					c0-0.363,0.205-0.545,0.616-0.545c0.42,0,0.63,0.182,0.63,0.543v4.518c0,0.648,0.707,0.973,2.121,0.973h2.622
					c1.376,0,2.063-0.314,2.063-0.944v-4.546c0-0.352,0.217-0.528,0.652-0.528c0.415,0,0.623,0.177,0.623,0.53V379.965z"/>
				<path fill="#E1E31E" d="M865.395,381.5c0,0.381-0.213,0.571-0.639,0.571c-0.424,0-0.637-0.19-0.637-0.573v-4.585
					c0-0.573-0.577-0.859-1.73-0.859H859.2c-1.163,0-1.744,0.286-1.744,0.859v4.585c0,0.383-0.213,0.573-0.638,0.573
					c-0.426,0-0.638-0.19-0.638-0.571v-4.576c0-1.268,1.12-1.902,3.362-1.902h2.461c2.26,0,3.391,0.635,3.391,1.902V381.5z"/>
				<path fill="#E1E31E" d="M870.208,376.054c-1.213,0-1.819,0.358-1.819,1.074v4.37c0,0.383-0.215,0.573-0.645,0.573
					c-0.421,0-0.631-0.19-0.631-0.571v-4.361c0-1.411,1.074-2.117,3.225-2.117h0.587c0.315,0,0.473,0.17,0.473,0.509
					c0,0.349-0.134,0.523-0.401,0.523H870.208z"/>
				<path fill="#E1E31E" d="M881.457,379.884c0,1.411-1.1,2.116-3.297,2.116h-2.564c-2.244,0-3.367-0.705-3.367-2.116v-2.703
					c0-1.439,1.137-2.159,3.41-2.159h2.521c2.197,0,3.297,0.716,3.297,2.146V379.884z M880.152,377.054c0-0.667-0.598-1-1.791-1
					h-2.908c-1.3,0-1.949,0.371-1.949,1.114v2.7c0,0.705,0.649,1.058,1.949,1.058h2.908c1.193,0,1.791-0.353,1.791-1.058V377.054z"
					/>
				<path fill="#E1E31E" d="M892.261,379.884c0,1.411-1.099,2.116-3.296,2.116H886.4c-2.245,0-3.367-0.705-3.367-2.116v-2.703
					c0-1.439,1.137-2.159,3.41-2.159h2.521c2.197,0,3.296,0.716,3.296,2.146V379.884z M890.957,377.054c0-0.667-0.598-1-1.791-1
					h-2.909c-1.3,0-1.948,0.371-1.948,1.114v2.7c0,0.705,0.648,1.058,1.948,1.058h2.909c1.193,0,1.791-0.353,1.791-1.058V377.054z"
					/>
				<path fill="#E1E31E" d="M906.775,381.5c0,0.381-0.215,0.571-0.645,0.571c-0.42,0-0.63-0.19-0.63-0.573v-4.441
					c0-0.669-0.688-1.003-2.063-1.003c-1.634,0-2.45,0.396-2.45,1.189v4.255c0,0.383-0.206,0.573-0.616,0.573
					c-0.439,0-0.659-0.19-0.659-0.573v-4.255c0-0.793-0.814-1.189-2.442-1.189c-1.391,0-2.086,0.334-2.086,1.003v4.441
					c0,0.383-0.217,0.573-0.652,0.573c-0.415,0-0.623-0.19-0.623-0.571v-4.276c0-1.468,1.118-2.202,3.354-2.202
					c1.662,0,2.703,0.383,3.123,1.146c0.449-0.764,1.467-1.146,3.053-1.146c2.226,0,3.338,0.734,3.338,2.202V381.5z"/>
			</g>
		</g>
		<g>
			<g>
				<path fill="#1893BF" d="M277.314,380.139c0,1.24-0.889,1.861-2.665,1.861h-5.417c-0.373,0-0.559-0.174-0.559-0.521
					c0-0.369,0.187-0.553,0.559-0.553h5.631c0.764,0,1.146-0.266,1.146-0.797v-0.412c0-0.512-0.43-0.768-1.29-0.768h-3.009
					c-1.968,0-2.952-0.59-2.952-1.771v-0.457c0-1.133,0.941-1.699,2.823-1.699h1.49c0.373,0,0.559,0.17,0.559,0.51
					c0,0.348-0.187,0.523-0.559,0.523h-1.791c-0.831,0-1.247,0.219-1.247,0.658v0.43c0,0.516,0.491,0.773,1.473,0.773h3.06
					c1.831,0,2.746,0.602,2.746,1.807V380.139z"/>
				<path fill="#1893BF" d="M288.161,381.5c0,0.381-0.212,0.572-0.638,0.572c-0.425,0-0.637-0.191-0.637-0.574v-4.254
					c0-0.793-0.712-1.189-2.135-1.189h-4.643v5.443c0,0.383-0.215,0.574-0.645,0.574c-0.42,0-0.63-0.191-0.63-0.574v-8.152
					c0-0.373,0.21-0.559,0.63-0.559c0.43,0,0.645,0.188,0.645,0.563v1.672h4.234c2.546,0,3.819,0.734,3.819,2.203V381.5z"/>
				<path fill="#1893BF" d="M299.037,379.885c0,1.41-1.099,2.115-3.296,2.115h-2.565c-2.245,0-3.367-0.705-3.367-2.115v-2.703
					c0-1.439,1.137-2.16,3.41-2.16h2.522c2.197,0,3.296,0.717,3.296,2.146V379.885z M297.732,377.055c0-0.668-0.597-1-1.791-1
					h-2.909c-1.299,0-1.949,0.371-1.949,1.113v2.701c0,0.705,0.649,1.057,1.949,1.057h2.909c1.194,0,1.791-0.352,1.791-1.057
					V377.055z"/>
				<path fill="#1893BF" d="M309.841,379.885c0,1.41-1.099,2.115-3.296,2.115h-2.565c-2.245,0-3.367-0.705-3.367-2.115v-2.703
					c0-1.439,1.137-2.16,3.41-2.16h2.522c2.197,0,3.296,0.717,3.296,2.146V379.885z M308.537,377.055c0-0.668-0.597-1-1.791-1
					h-2.909c-1.299,0-1.949,0.371-1.949,1.113v2.701c0,0.705,0.649,1.057,1.949,1.057h2.909c1.194,0,1.791-0.352,1.791-1.057
					V377.055z"/>
				<path fill="#1893BF" d="M313.136,376.055v5.443c0,0.383-0.208,0.574-0.623,0.574c-0.435,0-0.652-0.191-0.652-0.574v-5.443
					h-0.623c-0.349,0-0.523-0.18-0.523-0.537c0-0.33,0.174-0.496,0.523-0.496h0.623v-1.672c0-0.375,0.222-0.563,0.667-0.563
					c0.405,0,0.608,0.188,0.608,0.563v1.672h2.537c0.353,0,0.53,0.17,0.53,0.51c0,0.348-0.177,0.523-0.53,0.523H313.136z"/>
				<path fill="#1893BF" d="M324.198,376.055v5.443c0,0.383-0.208,0.574-0.623,0.574c-0.435,0-0.652-0.191-0.652-0.574v-5.443H322.3
					c-0.349,0-0.523-0.18-0.523-0.537c0-0.33,0.174-0.496,0.523-0.496h0.623v-1.672c0-0.375,0.222-0.563,0.667-0.563
					c0.405,0,0.608,0.188,0.608,0.563v1.672h2.537c0.353,0,0.53,0.17,0.53,0.51c0,0.348-0.177,0.523-0.53,0.523H324.198z"/>
				<path fill="#1893BF" d="M337.753,381.5c0,0.381-0.212,0.572-0.638,0.572c-0.425,0-0.637-0.191-0.637-0.574v-4.254
					c0-0.793-0.712-1.189-2.135-1.189h-4.643v5.443c0,0.383-0.215,0.574-0.645,0.574c-0.42,0-0.63-0.191-0.63-0.574v-8.152
					c0-0.373,0.21-0.559,0.63-0.559c0.43,0,0.645,0.188,0.645,0.563v1.672h4.234c2.546,0,3.819,0.734,3.819,2.203V381.5z"/>
				<path fill="#1893BF" d="M348.744,378.549c0,0.381-0.191,0.572-0.573,0.572h-7.494v0.867c0,0.625,0.649,0.938,1.949,0.938h1.39
					c0.363,0,0.545,0.174,0.545,0.523c0,0.367-0.182,0.551-0.545,0.551h-1.06c-2.369,0-3.554-0.719-3.554-2.158v-2.689
					c0-1.42,1.17-2.131,3.511-2.131h2.866c1.978,0,2.966,0.619,2.966,1.857V378.549z M340.677,378.045h6.835v-1.039
					c0-0.635-0.492-0.951-1.476-0.951h-3.41c-1.299,0-1.949,0.336-1.949,1.01V378.045z"/>
				<path fill="#1893BF" d="M358.028,373.918c-0.955,0-1.438,0.369-1.447,1.104h2.521c0.306,0,0.458,0.166,0.458,0.496
					c0,0.357-0.153,0.537-0.458,0.537h-2.521v5.443c0,0.383-0.206,0.574-0.616,0.574c-0.411,0-0.616-0.191-0.616-0.574v-6.502
					c0-1.406,0.984-2.109,2.952-2.109h0.774c0.325,0,0.487,0.176,0.487,0.523c0,0.34-0.157,0.508-0.473,0.508H358.028z"/>
				<path fill="#1893BF" d="M363.302,376.055c-1.213,0-1.819,0.357-1.819,1.074v4.369c0,0.383-0.215,0.574-0.645,0.574
					c-0.42,0-0.63-0.191-0.63-0.572v-4.361c0-1.41,1.075-2.117,3.224-2.117h0.587c0.315,0,0.473,0.17,0.473,0.51
					c0,0.348-0.134,0.523-0.401,0.523H363.302z"/>
				<path fill="#1893BF" d="M374.006,379.955c0,1.363-0.994,2.045-2.98,2.045H367.3c-2.092,0-3.138-0.656-3.138-1.969v-0.92
					c0-1.359,1.022-2.041,3.066-2.041h5.545c-0.086-0.678-0.602-1.016-1.547-1.016h-1.548c-0.306,0-0.458-0.18-0.458-0.537
					c0-0.33,0.153-0.496,0.458-0.496h1.347c1.987,0,2.98,0.697,2.98,2.088V379.955z M372.788,378.146h-5.857
					c-0.996,0-1.493,0.313-1.493,0.939v0.955c0,0.59,0.531,0.885,1.594,0.885h4.221c1.024,0,1.536-0.447,1.536-1.34V378.146z"/>
				<path fill="#1893BF" d="M388.506,381.5c0,0.381-0.215,0.572-0.645,0.572c-0.42,0-0.63-0.191-0.63-0.574v-4.441
					c0-0.668-0.688-1.002-2.063-1.002c-1.634,0-2.45,0.396-2.45,1.189v4.254c0,0.383-0.206,0.574-0.616,0.574
					c-0.439,0-0.659-0.191-0.659-0.574v-4.254c0-0.793-0.814-1.189-2.442-1.189c-1.391,0-2.085,0.334-2.085,1.002v4.441
					c0,0.383-0.218,0.574-0.652,0.574c-0.416,0-0.623-0.191-0.623-0.572v-4.275c0-1.469,1.118-2.203,3.353-2.203
					c1.662,0,2.703,0.383,3.124,1.146c0.449-0.764,1.466-1.146,3.052-1.146c2.226,0,3.338,0.734,3.338,2.203V381.5z"/>
				<path fill="#1893BF" d="M399.497,378.549c0,0.381-0.191,0.572-0.573,0.572h-7.494v0.867c0,0.625,0.649,0.938,1.949,0.938h1.39
					c0.363,0,0.545,0.174,0.545,0.523c0,0.367-0.182,0.551-0.545,0.551h-1.06c-2.369,0-3.554-0.719-3.554-2.158v-2.689
					c0-1.42,1.17-2.131,3.511-2.131h2.866c1.978,0,2.966,0.619,2.966,1.857V378.549z M391.43,378.045h6.835v-1.039
					c0-0.635-0.492-0.951-1.476-0.951h-3.41c-1.299,0-1.949,0.336-1.949,1.01V378.045z"/>
			</g>
		</g>
	</g>
</g>
<g>
	<path fill="#FFFFFF" d="M402.371,56.709h30.785c1.205,0,1.808,0.712,1.808,2.136c0,1.388-0.603,2.082-1.808,2.082h-30.785v6.606
		c0,3.009,2.83,4.514,8.49,4.514h22.294c1.278,0,1.917,0.667,1.917,2c0,1.405-0.639,2.108-1.917,2.108h-22.458
		c-9.057,0-13.585-2.812-13.585-8.436V49.808c0-5.733,4.692-8.6,14.078-8.6h6.081c1.205,0,1.808,0.694,1.808,2.082
		c0,1.352-0.603,2.027-1.808,2.027h-4.108c-7.195,0-10.791,1.498-10.791,4.492V56.709z"/>
	<path fill="#FFFFFF" d="M459.339,75.279c-0.622,0.767-1.26,1.15-1.917,1.15c-0.329,0.036-0.621-0.037-0.876-0.219
		c-0.256-0.182-0.53-0.456-0.822-0.822l-18.076-23.17c-0.329-0.329-0.493-0.767-0.493-1.315c0-0.583,0.247-1.086,0.74-1.506
		c0.493-0.419,1.049-0.63,1.67-0.63c0.658,0,1.223,0.293,1.698,0.876l16.269,21.253l16.214-21.363
		c0.363-0.438,0.875-0.657,1.533-0.657c0.621,0,1.24,0.191,1.863,0.575c0.619,0.383,0.93,0.868,0.93,1.451
		c0,0.402-0.182,0.841-0.547,1.315L459.339,75.279z"/>
	<path fill="#FFFFFF" d="M516.526,62.962c0,1.456-0.731,2.183-2.191,2.183h-28.648v3.315c0,2.391,2.483,3.587,7.45,3.587h5.313
		c1.387,0,2.081,0.667,2.081,1.999c0,1.407-0.694,2.11-2.081,2.11h-4.054c-9.058,0-13.585-2.751-13.585-8.254V57.624
		c0-5.43,4.473-8.145,13.421-8.145h10.955c7.56,0,11.339,2.366,11.339,7.096V62.962z M485.687,61.037h26.129v-3.972
		c0-2.427-1.881-3.642-5.642-3.642h-13.037c-4.967,0-7.45,1.287-7.45,3.862V61.037z"/>
	<path fill="#FFFFFF" d="M557.006,74.242c0,1.458-0.813,2.187-2.438,2.187s-2.438-0.73-2.438-2.191V56.709
		c0-2.191-2.204-3.287-6.613-3.287h-12.189c-4.445,0-6.668,1.096-6.668,3.287v17.529c0,1.461-0.813,2.191-2.438,2.191
		c-1.626,0-2.438-0.729-2.438-2.187V56.75c0-4.847,4.283-7.271,12.853-7.271h9.407c8.641,0,12.961,2.424,12.961,7.271V74.242z"/>
	<path fill="#FFFFFF" d="M569.55,53.423v20.815c0,1.461-0.794,2.191-2.382,2.191c-1.662,0-2.493-0.73-2.493-2.191V53.423h-2.38
		c-1.336,0-2.002-0.684-2.002-2.053c0-1.26,0.666-1.891,2.002-1.891h2.38v-6.396c0-1.433,0.849-2.15,2.548-2.15
		c1.551,0,2.327,0.717,2.327,2.15v6.396h9.695c1.351,0,2.027,0.648,2.027,1.944c0,1.333-0.677,2-2.027,2H569.55z"/>
	<path fill="#FFFFFF" d="M617.809,69.034c0,4.748-3.396,7.121-10.188,7.121h-20.706c-1.424,0-2.137-0.666-2.137-1.999
		c0-1.406,0.713-2.11,2.137-2.11h21.527c2.921,0,4.382-1.015,4.382-3.045v-1.578c0-1.958-1.643-2.937-4.93-2.937h-11.503
		c-7.523,0-11.284-2.255-11.284-6.768v-1.747c0-4.329,3.597-6.494,10.791-6.494h5.696c1.425,0,2.137,0.648,2.137,1.944
		c0,1.333-0.712,2-2.137,2h-6.847c-3.177,0-4.766,0.84-4.766,2.52v1.644c0,1.972,1.877,2.958,5.631,2.958h11.699
		c6.998,0,10.497,2.3,10.497,6.902V69.034z"/>
</g>
</svg>
