<?xml version="1.0" encoding="utf-8"?>
<!-- Generator: Adobe Illustrator 16.0.0, SVG Export Plug-In . SVG Version: 6.00 Build 0)  -->
<!DOCTYPE svg PUBLIC "-//W3C//DTD SVG 1.1//EN" "http://www.w3.org/Graphics/SVG/1.1/DTD/svg11.dtd">
<svg version="1.1" id="Layer_1" xmlns="http://www.w3.org/2000/svg" xmlns:xlink="http://www.w3.org/1999/xlink" x="0px" y="0px"
	 width="70px" height="70px" viewBox="0 0 70 70" enable-background="new 0 0 70 70" xml:space="preserve">
<g>
	<path fill="#0A9045" d="M47.314,7.421c-3.164,3.164-12.142,2.847-12.142,2.847s-8.977,0.317-12.141-2.847
		C19.868,4.257,10.14,7.144,7.49,11.533c-2.649,4.39-8.226,18.508-6.96,32.349c1.266,13.843,7.75,9.412,13.051,5.063
		c5.299-4.352,7.038-8.146,21.592-8.146s16.293,3.797,21.593,8.146c5.299,4.35,11.784,8.779,13.049-5.063
		c1.269-13.841-4.311-27.959-6.957-32.349C60.206,7.144,50.479,4.257,47.314,7.421z M54.553,11.612c1.633,0,2.961,1.327,2.961,2.958
		c0,1.631-1.328,2.958-2.961,2.958c-1.63,0-2.957-1.327-2.957-2.958C51.596,12.938,52.923,11.612,54.553,11.612z M35.988,14.191
		l0.039,0.007c2.033,0.384,3.638,2.01,3.992,4.045c0.037,0.21-0.104,0.413-0.314,0.45c-0.021,0.004-0.045,0.006-0.066,0.006
		c-0.186,0-0.35-0.133-0.383-0.322c-0.3-1.719-1.652-3.091-3.367-3.415c-0.209-0.039-0.367-0.245-0.33-0.454
		C35.596,14.297,35.779,14.155,35.988,14.191z M30.201,18.181c0.387-2.046,2.018-3.65,4.061-3.999
		c0.212-0.034,0.412,0.106,0.448,0.317c0.035,0.211-0.107,0.412-0.317,0.448c-1.724,0.296-3.102,1.649-3.427,3.37
		c-0.036,0.188-0.203,0.329-0.389,0.329c-0.021,0-0.044-0.002-0.067-0.006c-0.21-0.039-0.352-0.229-0.313-0.438l0.382,0.07
		L30.201,18.181z M10.09,18.326c0-2.871,2.336-5.208,5.208-5.208s5.208,2.336,5.208,5.208s-2.336,5.209-5.208,5.209
		S10.09,21.198,10.09,18.326z M25.372,38.029c-3.602,0-6.532-2.93-6.532-6.531c0-3.6,2.93-6.53,6.532-6.53
		c3.601,0,6.531,2.931,6.531,6.53C31.903,35.1,28.973,38.029,25.372,38.029z M34.262,24.012c-0.023,0-0.046-0.003-0.07-0.007
		l0.07-0.381l-0.077,0.38c-2.051-0.388-3.656-2.025-4.002-4.074c-0.036-0.211,0.107-0.413,0.319-0.447
		c0.21-0.039,0.412,0.107,0.447,0.318c0.292,1.73,1.646,3.111,3.371,3.439c0.211,0.039,0.354,0.243,0.317,0.454
		C34.603,23.88,34.444,24.012,34.262,24.012z M35.105,23.063c-2.185,0-3.964-1.777-3.964-3.963c0-2.185,1.777-3.963,3.964-3.963
		c2.185,0,3.961,1.778,3.961,3.963C39.066,21.286,37.29,23.063,35.105,23.063z M35.855,24.029c-0.187,0-0.352-0.136-0.383-0.325
		c-0.035-0.211,0.109-0.411,0.32-0.446c1.735-0.289,3.123-1.645,3.45-3.375c0.039-0.209,0.244-0.372,0.455-0.336
		c0.21,0.039,0.354,0.214,0.318,0.425c-0.002,0.004-0.013,0.061-0.014,0.064c-0.386,2.04-2.027,3.645-4.083,3.986
		C35.898,24.028,35.878,24.029,35.855,24.029z M43.08,35.705c-2.872,0-5.208-2.336-5.208-5.209c0-2.871,2.336-5.207,5.208-5.207
		s5.209,2.336,5.209,5.207C48.289,33.369,45.952,35.705,43.08,35.705z M49.434,22.649c-1.632,0-2.959-1.327-2.959-2.958
		s1.327-2.958,2.959-2.958c1.631,0,2.961,1.326,2.961,2.958C52.395,21.323,51.064,22.649,49.434,22.649z M54.553,27.77
		c-1.63,0-2.957-1.327-2.957-2.958c0-1.631,1.327-2.959,2.957-2.959c1.633,0,2.961,1.328,2.961,2.959S56.186,27.77,54.553,27.77z
		 M59.675,22.649c-1.633,0-2.96-1.327-2.96-2.958s1.327-2.958,2.96-2.958c1.63,0,2.957,1.326,2.957,2.958
		C62.632,21.323,61.305,22.649,59.675,22.649z"/>
	<circle fill="#56B94D" cx="59.675" cy="19.69" r="2.181"/>
	<path fill="#56B94D" d="M43.08,26.843c-2.016,0-3.654,1.64-3.654,3.653c0,2.016,1.639,3.654,3.654,3.654s3.654-1.64,3.654-3.654
		C46.734,28.482,45.096,26.843,43.08,26.843z"/>
	<path fill="#56B94D" d="M54.553,22.629c1.206,0,2.184,0.976,2.184,2.182c0,1.205-0.978,2.181-2.184,2.181
		c-1.203,0-2.181-0.976-2.181-2.181C52.372,23.605,53.35,22.629,54.553,22.629z"/>
	<circle fill="#56B94D" cx="49.434" cy="19.69" r="2.181"/>
	<path fill="#56B94D" d="M37.131,16.662c-0.423,0.2-1.104,0.531-1.169,0.896c0,0,1.823,1.775,1.72,3.4
		c0.379-0.525,0.608-1.163,0.608-1.857C38.29,18.117,37.833,17.248,37.131,16.662z"/>
	<path fill="#56B94D" d="M35.075,18.357c-1.625,1.254-2.146,2.304-2.313,2.884c0.583,0.638,1.413,1.045,2.342,1.045
		c0.905,0,1.716-0.383,2.298-0.991C37.252,20.727,36.748,19.65,35.075,18.357z"/>
	<path fill="#56B94D" d="M36.479,16.238c-0.418-0.201-0.881-0.324-1.374-0.324c-0.495,0-0.958,0.123-1.376,0.325
		c0.74,0.048,1.229,0.363,1.347,0.449C35.196,16.601,35.705,16.273,36.479,16.238z"/>
	<path fill="#56B94D" d="M15.298,14.672c-2.016,0-3.655,1.64-3.655,3.654c0,2.016,1.639,3.655,3.655,3.655
		c2.015,0,3.654-1.64,3.654-3.655C18.952,16.312,17.313,14.672,15.298,14.672z"/>
	<path fill="#56B94D" d="M33.056,16.68c-0.689,0.585-1.138,1.448-1.138,2.421c0,0.659,0.203,1.274,0.549,1.783
		c-0.046-1.605,1.722-3.326,1.722-3.326C34.125,17.204,33.481,16.883,33.056,16.68z"/>
	<path fill="#56B94D" d="M54.553,12.388c1.206,0,2.184,0.978,2.184,2.183c0,1.204-0.978,2.182-2.184,2.182
		c-1.203,0-2.181-0.978-2.181-2.182C52.372,13.366,53.35,12.388,54.553,12.388z"/>
	<path fill="#56B94D" d="M25.372,25.744c-3.173,0-5.754,2.582-5.754,5.754c0,3.174,2.582,5.754,5.754,5.754
		c3.173,0,5.754-2.58,5.754-5.754C31.126,28.325,28.545,25.744,25.372,25.744z M23.519,35.074v0.447
		c-0.957-0.441-1.729-1.215-2.17-2.17h0.448h0.44c0.313,0.529,0.753,0.969,1.283,1.281L23.519,35.074L23.519,35.074z M23.519,27.922
		v0.439c-0.53,0.313-0.969,0.755-1.283,1.283h-0.44h-0.448c0.441-0.957,1.214-1.729,2.171-2.172V27.922L23.519,27.922z
		 M27.225,35.521v-0.447v-0.439c0.529-0.313,0.969-0.753,1.283-1.281h0.44h0.448C28.953,34.309,28.182,35.08,27.225,35.521z
		 M28.948,29.646h-0.439c-0.314-0.529-0.754-0.97-1.283-1.285v-0.438v-0.446c0.957,0.441,1.729,1.215,2.171,2.17H28.948
		L28.948,29.646z"/>
</g>
<g>
	<path fill="#0A9045" d="M21.397,66.974c-0.468,0.168-1.391,0.443-2.482,0.443c-1.223,0-2.231-0.312-3.022-1.067
		c-0.696-0.672-1.127-1.751-1.127-3.011c0.012-2.41,1.667-4.174,4.378-4.174c0.935,0,1.667,0.204,2.015,0.372l-0.252,0.852
		c-0.432-0.191-0.971-0.348-1.787-0.348c-1.967,0-3.25,1.224-3.25,3.25c0,2.051,1.235,3.263,3.118,3.263
		c0.684,0,1.151-0.097,1.392-0.216v-2.411h-1.644v-0.84h2.663V66.974z"/>
	<path fill="#0A9045" d="M26.271,67.333l-0.084-0.731H26.15c-0.324,0.456-0.947,0.863-1.775,0.863c-1.175,0-1.775-0.827-1.775-1.667
		c0-1.403,1.247-2.171,3.49-2.159V63.52c0-0.48-0.132-1.344-1.319-1.344c-0.54,0-1.104,0.168-1.511,0.432l-0.24-0.695
		c0.48-0.312,1.175-0.516,1.907-0.516c1.775,0,2.207,1.211,2.207,2.374v2.171c0,0.504,0.024,0.996,0.096,1.392H26.271z
		 M26.114,64.371c-1.151-0.024-2.458,0.18-2.458,1.307c0,0.684,0.456,1.008,0.996,1.008c0.755,0,1.235-0.479,1.403-0.972
		c0.036-0.107,0.06-0.228,0.06-0.336V64.371z"/>
	<path fill="#0A9045" d="M28.84,63.1c0-0.6-0.012-1.092-0.048-1.571h0.923l0.048,0.936H29.8c0.324-0.552,0.864-1.067,1.823-1.067
		c0.792,0,1.391,0.479,1.643,1.163h0.024c0.18-0.324,0.408-0.575,0.647-0.756c0.348-0.264,0.731-0.407,1.283-0.407
		c0.768,0,1.907,0.504,1.907,2.519v3.418h-1.032v-3.286c0-1.115-0.407-1.787-1.259-1.787c-0.6,0-1.067,0.443-1.247,0.96
		c-0.048,0.144-0.084,0.335-0.084,0.527v3.586h-1.031v-3.479c0-0.923-0.408-1.595-1.211-1.595c-0.66,0-1.14,0.527-1.308,1.056
		c-0.06,0.155-0.084,0.336-0.084,0.516v3.502H28.84V63.1z"/>
	<path fill="#0A9045" d="M40.023,59.897c0.012,0.359-0.252,0.647-0.672,0.647c-0.371,0-0.636-0.288-0.636-0.647
		c0-0.372,0.276-0.66,0.66-0.66C39.771,59.237,40.023,59.525,40.023,59.897z M38.849,67.333v-5.805h1.055v5.805H38.849z"/>
	<path fill="#0A9045" d="M41.657,63.1c0-0.6-0.013-1.092-0.049-1.571h0.936l0.061,0.959h0.023c0.288-0.552,0.96-1.091,1.919-1.091
		c0.804,0,2.051,0.479,2.051,2.471v3.466h-1.055v-3.346c0-0.936-0.348-1.716-1.344-1.716c-0.695,0-1.235,0.492-1.415,1.08
		c-0.048,0.132-0.072,0.312-0.072,0.491v3.49h-1.055V63.1z"/>
	<path fill="#0A9045" d="M53.317,61.528c-0.024,0.42-0.048,0.888-0.048,1.595v3.37c0,1.332-0.264,2.147-0.828,2.65
		c-0.563,0.528-1.379,0.696-2.11,0.696c-0.696,0-1.464-0.168-1.931-0.479l0.264-0.804c0.384,0.239,0.983,0.455,1.703,0.455
		c1.079,0,1.871-0.563,1.871-2.026v-0.647h-0.024c-0.324,0.539-0.947,0.971-1.847,0.971c-1.439,0-2.471-1.223-2.471-2.83
		c0-1.967,1.283-3.082,2.614-3.082c1.008,0,1.56,0.527,1.811,1.007h0.024l0.048-0.875H53.317z M52.226,63.819
		c0-0.181-0.012-0.336-0.06-0.48c-0.192-0.611-0.708-1.115-1.476-1.115c-1.007,0-1.727,0.852-1.727,2.195
		c0,1.139,0.575,2.087,1.715,2.087c0.647,0,1.235-0.408,1.463-1.08c0.061-0.18,0.084-0.384,0.084-0.563V63.819z"/>
</g>
</svg>
