<?xml version="1.0" encoding="utf-8"?>
<!-- Generator: Adobe Illustrator 16.0.0, SVG Export Plug-In . SVG Version: 6.00 Build 0)  -->
<!DOCTYPE svg PUBLIC "-//W3C//DTD SVG 1.1//EN" "http://www.w3.org/Graphics/SVG/1.1/DTD/svg11.dtd">
<svg version="1.1" id="Layer_1" xmlns="http://www.w3.org/2000/svg" xmlns:xlink="http://www.w3.org/1999/xlink" x="0px" y="0px"
	 width="70px" height="70px" viewBox="0 0 70 70" enable-background="new 0 0 70 70" xml:space="preserve">
<g>
	<path fill="#C52026" d="M13.931,5.904c0,0,20.739-8.719,43.23,0.114v31.026c0,0,1.111,4.767-8.271,12.919
		C39.51,58.116,35.73,60.75,35.73,60.75S21.832,50.03,18.76,46.56c0,0-4.536-5.36-4.463-7.022L13.931,5.904z"/>
	<path fill="#EE2752" d="M35.328,2.063C22.79,2.135,13.822,5.904,13.822,5.904l0.365,33.633c-0.072,1.662,4.463,7.022,4.463,7.022
		c2.808,3.173,14.666,12.406,16.678,13.964L35.328,2.063L35.328,2.063z"/>
	<path fill="#FFFFFF" d="M53.546,31.835V7.827L46.304,7.94l-10.588,9.915L25.37,8.168l-7.242-0.114v24.009
		c0,0-0.769,6.905,6.911,14.266l0.22-26.951l7.351,5.889l0.111,12.004l4.276-0.223v-0.104l1.955,0.098l0.107-12.002l7.354-5.889
		l0.219,26.951C54.313,38.74,53.546,31.835,53.546,31.835z"/>
</g>
<g>
	<path fill="#C52026" d="M11.205,61.784v3.383h3.91v-3.383h1.056v8.084h-1.056v-3.79h-3.91v3.79h-1.043v-8.084H11.205z"/>
	<path fill="#C52026" d="M21.164,69.868l-0.084-0.731h-0.036C20.72,69.593,20.096,70,19.269,70c-1.175,0-1.775-0.827-1.775-1.667
		c0-1.403,1.247-2.171,3.49-2.159v-0.119c0-0.48-0.132-1.344-1.319-1.344c-0.54,0-1.103,0.168-1.511,0.432l-0.24-0.695
		c0.48-0.312,1.176-0.516,1.907-0.516c1.775,0,2.207,1.211,2.207,2.374v2.171c0,0.504,0.024,0.996,0.096,1.392H21.164z
		 M21.008,66.906c-1.151-0.024-2.459,0.18-2.459,1.307c0,0.684,0.456,1.008,0.996,1.008c0.755,0,1.235-0.479,1.403-0.972
		c0.036-0.107,0.06-0.228,0.06-0.336V66.906z"/>
	<path fill="#C52026" d="M27.871,69.652c-0.275,0.144-0.888,0.336-1.667,0.336c-1.751,0-2.891-1.188-2.891-2.963
		c0-1.787,1.224-3.082,3.118-3.082c0.624,0,1.176,0.156,1.464,0.3l-0.24,0.815c-0.252-0.144-0.647-0.275-1.224-0.275
		c-1.331,0-2.051,0.983-2.051,2.194c0,1.344,0.864,2.171,2.015,2.171c0.601,0,0.996-0.156,1.296-0.288L27.871,69.652z"/>
	<path fill="#C52026" d="M30.152,66.726h0.024c0.144-0.203,0.348-0.455,0.516-0.659l1.703-2.003h1.271l-2.242,2.387l2.555,3.418
		h-1.283l-2.003-2.782l-0.54,0.6v2.183h-1.043v-8.516h1.043V66.726z"/>
	<path fill="#C52026" d="M38.168,69.868l-0.084-0.731h-0.036C37.725,69.593,37.101,70,36.272,70c-1.175,0-1.774-0.827-1.774-1.667
		c0-1.403,1.247-2.171,3.49-2.159v-0.119c0-0.48-0.132-1.344-1.319-1.344c-0.54,0-1.104,0.168-1.512,0.432l-0.239-0.695
		c0.479-0.312,1.175-0.516,1.906-0.516c1.775,0,2.207,1.211,2.207,2.374v2.171c0,0.504,0.024,0.996,0.096,1.392H38.168z
		 M38.012,66.906c-1.151-0.024-2.458,0.18-2.458,1.307c0,0.684,0.455,1.008,0.995,1.008c0.756,0,1.235-0.479,1.403-0.972
		c0.036-0.107,0.06-0.228,0.06-0.336V66.906z"/>
	<path fill="#C52026" d="M41.96,62.396v1.667h1.512v0.804H41.96v3.13c0,0.72,0.204,1.128,0.792,1.128
		c0.275,0,0.479-0.036,0.611-0.072l0.048,0.791c-0.203,0.084-0.527,0.145-0.936,0.145c-0.491,0-0.887-0.156-1.139-0.444
		c-0.3-0.312-0.408-0.827-0.408-1.511v-3.166h-0.899v-0.804h0.899v-1.392L41.96,62.396z"/>
	<path fill="#C52026" d="M44.661,61.353h1.055v3.622h0.024c0.168-0.3,0.432-0.563,0.756-0.743c0.312-0.18,0.684-0.3,1.079-0.3
		c0.779,0,2.026,0.479,2.026,2.482v3.454h-1.055v-3.334c0-0.936-0.348-1.728-1.344-1.728c-0.684,0-1.224,0.48-1.415,1.056
		c-0.06,0.144-0.072,0.3-0.072,0.504v3.502h-1.055V61.353z"/>
	<path fill="#C52026" d="M56.574,66.918c0,2.146-1.487,3.082-2.891,3.082c-1.571,0-2.782-1.151-2.782-2.986
		c0-1.942,1.271-3.082,2.878-3.082C55.446,63.932,56.574,65.143,56.574,66.918z M51.969,66.978c0,1.271,0.731,2.231,1.763,2.231
		c1.008,0,1.763-0.948,1.763-2.255c0-0.983-0.491-2.231-1.738-2.231C52.508,64.723,51.969,65.874,51.969,66.978z"/>
	<path fill="#C52026" d="M57.909,65.635c0-0.6-0.013-1.092-0.049-1.571h0.936l0.061,0.959h0.023c0.288-0.552,0.96-1.091,1.919-1.091
		c0.804,0,2.051,0.479,2.051,2.471v3.466h-1.055v-3.346c0-0.936-0.348-1.716-1.344-1.716c-0.695,0-1.235,0.492-1.415,1.08
		c-0.048,0.132-0.072,0.312-0.072,0.491v3.49h-1.055V65.635z"/>
</g>
</svg>
