<?xml version="1.0" encoding="utf-8"?>
<!-- Generator: Adobe Illustrator 16.0.0, SVG Export Plug-In . SVG Version: 6.00 Build 0)  -->
<!DOCTYPE svg PUBLIC "-//W3C//DTD SVG 1.1//EN" "http://www.w3.org/Graphics/SVG/1.1/DTD/svg11.dtd">
<svg version="1.1" id="Layer_1" xmlns="http://www.w3.org/2000/svg" xmlns:xlink="http://www.w3.org/1999/xlink" x="0px" y="0px"
	 width="70px" height="70px" viewBox="0 0 70 70" enable-background="new 0 0 70 70" xml:space="preserve">
<path display="none" fill="#00126C" d="M60.221,37.289c0.5,0.389,1.873-0.318,1.873-0.318c-0.961-1.063-3.838-3.577-3.838-3.577
	c-4.842-7.471-9.82-4.674-9.82-4.674c-3.652,1.84-3.426-1.169-3.426-1.169c2.281-1.841,1.369-4.498,1.369-4.498
	c3.426-0.141,3.791-3.292,3.791-3.292c2.01-3.222,6.029-1.24,6.029-1.24c2.469,1.522,3.197,0.78,3.197,0.78
	c0.502-0.248-0.273-0.85-0.273-0.85c0.457,0.105,1.918-0.39,1.918-0.39c-0.41-1.203-6.211-1.558-6.211-1.558
	c-6.395-0.922-6.395,1.63-6.395,1.63c-0.596,2.444-2.33,1.664-2.33,1.664c-0.686-1.842-4.568-3.792-4.568-3.792
	c-2.145-0.034-0.865-1.521-0.865-1.521c3.426-2.055,0.729-4.427,0.729-4.427c2.561-0.673,5.664-3.542,5.664-3.542
	c2.057-1.771-0.389-2.571-0.389-2.571c-2.307-0.623-1.531,2.041-1.531,2.041c-2.008,2.833-7.639,3.057-7.639,3.057
	c-0.621-0.54-1.838-0.851-2.5-0.988V7.967c0,0-0.088,0.013-0.23,0.04c-0.141-0.027-0.225-0.038-0.225-0.038l-0.004,0.083
	c-0.662,0.137-1.875,0.449-2.496,0.99c0,0-5.633-0.226-7.642-3.058c0,0,0.78-2.663-1.527-2.04c0,0-2.444,0.8-0.391,2.57
	c0,0,3.106,2.869,5.666,3.542c0,0-2.697,2.372,0.729,4.426c0,0,1.279,1.487-0.867,1.521c0,0-3.882,1.949-4.567,3.791
	c0,0-1.735,0.779-2.329-1.665c0,0,0-2.55-6.396-1.629c0,0-5.8,0.355-6.211,1.559c0,0,1.462,0.495,1.918,0.39
	c0,0-0.777,0.603-0.275,0.849c0,0,0.731,0.744,3.197-0.778c0,0,4.02-1.983,6.031,1.24c0,0,0.363,3.151,3.789,3.292
	c0,0-0.913,2.655,1.371,4.498c0,0,0.229,3.009-3.425,1.168c0,0-4.979-2.796-9.82,4.673c0,0-2.879,2.516-3.838,3.58
	c0,0,1.369,0.706,1.874,0.317c0,0-6.395,8.004-5.254,11.58c0,0,1.188-0.144,1.369-1.063c0,0,1.372,1.596,1.828,1.273
	c0,0-1.851-5.076,3.519-9.904c0.027-0.025,0.061-0.054,0.09-0.08c5.482-4.852,2.49-4.215,2.49-4.215s1.575-3.72,3.905-3.507
	c2.329,0.213-0.068,0.213-0.068,0.213s4.178,0.372,5.412,0.85c0,0-1.919,8.288-2.33,10.305c0,0-8.085,2.229-8.631,5.736
	c0,0,9.589,14.021-3.976,16.68l1.919,0.426l0.138,1.486c0,0,7.946-4.037,8.77-10.73l1.369-0.426c0,0-4.674-3.444-4.768-5.422
	c-0.01-0.191,0.022-0.367,0.108-0.527c0.961-1.805,3.426-2.229,5.619-2.549l-0.138,9.031c0,0,6.722,4.701,12.933,6.043l-0.006,0.332
	c0.375-0.025,0.758-0.068,1.141-0.125c0.387,0.057,0.768,0.1,1.143,0.125l-0.006-0.332c6.211-1.342,12.934-6.043,12.934-6.043
	l-0.139-9.029c2.191,0.318,4.658,0.742,5.617,2.549c0.086,0.158,0.119,0.336,0.111,0.525c-0.098,1.978-4.77,5.424-4.77,5.424
	l1.369,0.426c0.82,6.693,8.771,10.73,8.771,10.73l0.137-1.487l1.92-0.426c-13.566-2.655-3.975-16.681-3.975-16.681
	c-0.551-3.506-8.635-5.735-8.635-5.735c-0.408-2.021-2.328-10.306-2.328-10.306c1.232-0.477,5.41-0.849,5.41-0.849
	s-2.396,0-0.064-0.213c2.328-0.213,3.902,3.505,3.902,3.505s-2.99-0.637,2.49,4.215c0.029,0.026,0.061,0.056,0.09,0.082
	c5.369,4.826,3.52,9.902,3.52,9.902c0.457,0.319,1.826-1.272,1.826-1.272c0.184,0.922,1.371,1.063,1.371,1.063
	C66.613,45.293,60.221,37.289,60.221,37.289z"/>
<g display="none">
	<polygon display="inline" fill="#5E3C1D" points="66.253,57.943 66.253,12.833 3.703,12.833 3.703,57.943 32.134,57.943 
		32.134,62.393 21.546,62.393 21.546,64.213 48.998,64.213 48.998,62.393 37.43,62.393 37.43,57.943 	"/>
	<g display="inline">
		<g>
			<polygon fill="#007F89" points="63.508,53.795 5.86,53.795 63.508,16.171 			"/>
			<polygon fill="#01ACBD" points="6.056,53.896 6.056,16.272 63.704,16.272 			"/>
		</g>
		<rect x="39.193" y="42.064" fill="#E7B40F" width="17.059" height="3.232"/>
		<g>
			<rect x="14.879" y="22.442" fill="#65CFD8" width="13.529" height="8.294"/>
			<rect x="43.997" y="23.048" fill="#65CFD8" width="13.53" height="8.294"/>
			<rect x="29.291" y="22.745" fill="#65CFD8" width="13.529" height="8.294"/>
			<rect x="14.781" y="31.544" fill="#65CFD8" width="13.53" height="8.294"/>
			<rect x="43.898" y="32.152" fill="#65CFD8" width="13.527" height="8.293"/>
			<rect x="29.193" y="31.848" fill="#65CFD8" width="13.53" height="8.294"/>
		</g>
	</g>
	<g display="inline">
		<polygon fill="#EBE3D7" points="25.138,42.258 25.918,42.752 21.718,51.479 20.938,50.922 		"/>
		<polygon fill="#EBE3D7" points="20.098,42.439 20.878,43.494 17.338,46.773 20.638,50.303 20.098,51.045 15.958,46.773 		"/>
		<polygon fill="#EBE3D7" points="26.278,43.494 27.118,42.628 30.958,46.713 27.118,51.169 26.398,50.303 29.578,46.713 		"/>
	</g>
</g>
<g>
	<circle fill="#3BFFE5" cx="34.834" cy="29" r="28"/>
	<g>
		<g>
			<rect x="33.552" y="12.916" fill="#5D5D5D" width="0.782" height="31.723"/>
			
				<rect x="36.828" y="18.424" transform="matrix(-0.7983 -0.6022 0.6022 -0.7983 46.4208 83.6695)" fill="#5D5D5D" width="0.782" height="31.277"/>
			
				<rect x="30.872" y="17.532" transform="matrix(-0.8382 0.5454 -0.5454 -0.8382 75.5567 43.9203)" fill="#5D5D5D" width="0.781" height="31.276"/>
		</g>
		<rect x="19.047" y="15.299" fill="#EDEDED" stroke="#5B6165" stroke-miterlimit="10" width="30.979" height="22.639"/>
		<polyline fill="#93FF31" stroke="#5B6165" stroke-miterlimit="10" points="22.324,31.979 25.6,28.404 30.366,31.085 
			36.025,25.128 42.281,25.128 50.324,20.361 		"/>
		<path fill="#5B6165" d="M51.516,15.745c0-0.74-0.602-1.34-1.341-1.34H18.898c-0.74,0-1.34,0.601-1.34,1.34l0,0
			c0,0.74,0.6,1.341,1.34,1.341h31.277C50.914,17.085,51.516,16.485,51.516,15.745L51.516,15.745z"/>
	</g>
</g>
<g>
	<path d="M17.205,59.416V67.5h-1.043v-8.084H17.205z"/>
	<path d="M20.564,60.304h-2.458v-0.888h5.984v0.888H21.62V67.5h-1.056V60.304z"/>
	<path d="M24.861,61.695l1.271,3.43c0.132,0.384,0.276,0.84,0.372,1.188h0.024c0.107-0.348,0.228-0.791,0.371-1.211l1.151-3.406
		h1.115l-1.583,4.138c-0.755,1.991-1.271,3.011-1.99,3.634c-0.516,0.456-1.032,0.636-1.296,0.684l-0.264-0.888
		c0.264-0.084,0.611-0.252,0.924-0.516c0.288-0.228,0.647-0.636,0.888-1.175c0.048-0.108,0.084-0.192,0.084-0.252
		c0-0.061-0.024-0.145-0.072-0.276l-2.146-5.349H24.861z"/>
	<path d="M34.986,65.917c0,0.6,0.013,1.127,0.049,1.583H34.1l-0.061-0.947h-0.023c-0.276,0.468-0.888,1.079-1.919,1.079
		c-0.912,0-2.003-0.504-2.003-2.543v-3.394h1.055v3.214c0,1.104,0.336,1.848,1.296,1.848c0.707,0,1.199-0.492,1.391-0.96
		c0.061-0.156,0.097-0.348,0.097-0.54v-3.562h1.055V65.917z"/>
	<path d="M37.785,64.357h0.024c0.144-0.203,0.348-0.455,0.516-0.659l1.703-2.003h1.271l-2.242,2.387l2.555,3.418h-1.283
		l-2.003-2.782l-0.54,0.6V67.5h-1.043v-8.516h1.043V64.357z"/>
	<path d="M43.641,60.028v1.667h1.512v0.804h-1.512v3.13c0,0.72,0.204,1.128,0.792,1.128c0.275,0,0.479-0.036,0.611-0.072
		l0.048,0.791c-0.203,0.084-0.527,0.145-0.936,0.145c-0.491,0-0.887-0.156-1.139-0.444c-0.3-0.312-0.408-0.827-0.408-1.511v-3.166
		H41.71v-0.804h0.899v-1.392L43.641,60.028z"/>
	<path d="M46.342,58.984h1.055v3.622h0.024c0.168-0.3,0.432-0.563,0.756-0.743c0.312-0.18,0.684-0.3,1.079-0.3
		c0.779,0,2.026,0.479,2.026,2.482V67.5h-1.055v-3.334c0-0.936-0.349-1.728-1.344-1.728c-0.684,0-1.224,0.48-1.415,1.056
		c-0.06,0.144-0.072,0.3-0.072,0.504V67.5h-1.055V58.984z"/>
	<path d="M56.216,67.5l-0.084-0.731h-0.036c-0.324,0.456-0.947,0.863-1.775,0.863c-1.175,0-1.774-0.827-1.774-1.667
		c0-1.403,1.247-2.171,3.49-2.159v-0.119c0-0.48-0.132-1.344-1.319-1.344c-0.54,0-1.104,0.168-1.512,0.432l-0.239-0.695
		c0.479-0.312,1.175-0.516,1.906-0.516c1.775,0,2.207,1.211,2.207,2.374v2.171c0,0.504,0.024,0.996,0.096,1.392H56.216z
		 M56.06,64.538c-1.151-0.024-2.458,0.18-2.458,1.307c0,0.684,0.455,1.008,0.995,1.008c0.756,0,1.235-0.479,1.403-0.972
		c0.036-0.107,0.06-0.228,0.06-0.336V64.538z"/>
</g>
</svg>
