<?xml version="1.0" encoding="utf-8"?>
<!-- Generator: Adobe Illustrator 16.0.0, SVG Export Plug-In . SVG Version: 6.00 Build 0)  -->
<!DOCTYPE svg PUBLIC "-//W3C//DTD SVG 1.1//EN" "http://www.w3.org/Graphics/SVG/1.1/DTD/svg11.dtd">
<svg version="1.1" id="Layer_1" xmlns="http://www.w3.org/2000/svg" xmlns:xlink="http://www.w3.org/1999/xlink" x="0px" y="0px"
	 width="70px" height="70px" viewBox="0 0 70 70" enable-background="new 0 0 70 70" xml:space="preserve">
<g>
	<path fill="#010101" d="M60.752,32.847c0,0-4.847-4.08-5.743-5.254c0,0-2.718-3.723-3.025-5.153c0,0-0.569-10.145-3.479-13.579
		c0,0-2.51-4.789-9.11-6.335l0.001-0.012c-0.145-0.086-0.552-0.152-1.057-0.203c-0.746-0.125-1.537-0.212-2.382-0.248
		c0,0-3.807,0.076-4.331,0.374l0.015,0.162c-6.607,1.543-9.12,6.333-9.12,6.333c-2.913,3.438-3.48,13.583-3.48,13.583
		c-0.306,1.427-3.023,5.154-3.023,5.154c-0.897,1.175-5.74,5.255-5.74,5.255c-3.305,3.024-2.334,4.498-2.334,4.498
		c0.485,0.878,1.96-0.055,1.96-0.055c3.623-2.261,5.974-2.222,5.974-2.222c0.111,9.071,4.592,12.096,4.592,12.096l5.788,5.937
		l9.26,1.72l0.003-0.075l9.252-1.718l5.789-5.938c0,0,4.479-3.024,4.591-12.095c0,0,2.352-0.038,5.977,2.218
		c0,0,1.473,0.934,1.958,0.058C63.085,37.347,64.056,35.871,60.752,32.847z"/>
	<path fill="#DEDEDD" d="M20.915,47.652c0,0-4.818-13.666,7.057-22.962c0,0,7.394-4.705,13.889-1.009c0,0,13.663,7.393,8.848,23.633
		l-8.848,7.169l-3.137,0.672l-6.384-0.224l-9.186-3.476L20.915,47.652z"/>
	<g>
		<ellipse fill="#EDEDED" cx="30.062" cy="18.791" rx="5.452" ry="6.794"/>
		<path fill="#EDEDED" d="M46.787,18.865c0,2.682-2.475,4.855-5.523,4.855c-3.054,0-5.527-2.173-5.527-4.855
			c0-2.678,2.473-4.855,5.527-4.855C44.313,14.009,46.787,16.187,46.787,18.865z"/>
		<ellipse fill="#010101" cx="33.776" cy="18.935" rx="1.755" ry="2.536"/>
		<path fill="#010101" d="M38.976,19.327c0,1.199-0.647,2.169-1.45,2.169c-0.805,0-1.452-0.971-1.452-2.169
			c0-1.2,0.647-2.171,1.452-2.171C38.328,17.156,38.976,18.127,38.976,19.327z"/>
	</g>
	<g>
		<path fill="#FDD600" d="M14.584,52.327c0,0,3.306-5.656,9.719-5.601c0,0,5.962-0.225,8.091,3.194c0,0,2.323,2.994,1.484,5.289
			c0,0-0.84,1.542-3.639,1.542c-2.802,0-13.807-0.336-13.807-0.336S12.877,55.744,14.584,52.327z"/>
		<path fill="#FDD600" d="M56.671,52.327c0,0-3.304-5.656-9.716-5.601c0,0-5.964-0.225-8.093,3.194c0,0-2.32,2.994-1.483,5.289
			c0,0,0.84,1.542,3.642,1.542c2.8,0,13.804-0.336,13.804-0.336S58.382,55.744,56.671,52.327z"/>
	</g>
	<path fill="#FDD600" d="M30.808,22.973c0,0,3.51-3.287,9.858-0.374c0,0,0.819,0.56,0.26,1.716c0,0-1.979,3.586-3.807,4.891
		c0,0-1.084,1.422-3.361-0.933c0,0-1.942-2.053-2.875-3.731C30.884,24.542,30.25,23.417,30.808,22.973z"/>
</g>
<g>
	<path d="M5.912,59.416h1.043v7.208h3.454V67.5H5.912V59.416z"/>
	<path d="M12.715,60.064c0.012,0.359-0.252,0.647-0.671,0.647c-0.372,0-0.636-0.288-0.636-0.647c0-0.372,0.276-0.66,0.66-0.66
		C12.463,59.404,12.715,59.692,12.715,60.064z M11.54,67.5v-5.805h1.056V67.5H11.54z"/>
	<path d="M14.347,63.267c0-0.6-0.012-1.092-0.048-1.571h0.936l0.06,0.959h0.024c0.288-0.552,0.959-1.091,1.919-1.091
		c0.803,0,2.051,0.479,2.051,2.471V67.5h-1.056v-3.346c0-0.936-0.348-1.716-1.343-1.716c-0.695,0-1.235,0.492-1.415,1.08
		c-0.048,0.132-0.072,0.312-0.072,0.491v3.49h-1.056V63.267z"/>
	<path d="M25.865,65.917c0,0.6,0.012,1.127,0.048,1.583h-0.936l-0.06-0.947h-0.024c-0.276,0.468-0.887,1.079-1.919,1.079
		c-0.911,0-2.003-0.504-2.003-2.543v-3.394h1.056v3.214c0,1.104,0.336,1.848,1.295,1.848c0.708,0,1.199-0.492,1.391-0.96
		c0.06-0.156,0.096-0.348,0.096-0.54v-3.562h1.056V65.917z"/>
	<path d="M28.111,61.695l0.828,1.247c0.216,0.324,0.396,0.624,0.588,0.947h0.036c0.192-0.348,0.384-0.647,0.576-0.959l0.815-1.235
		h1.14l-1.979,2.807l2.039,2.998h-1.2l-0.852-1.308c-0.228-0.336-0.419-0.659-0.624-1.007h-0.024
		c-0.192,0.348-0.396,0.659-0.612,1.007L28.003,67.5H26.84l2.063-2.962l-1.967-2.843H28.111z"/>
	<path d="M39.94,63.71h-3.142v2.914h3.502V67.5h-4.546v-8.084h4.365v0.876h-3.321v2.555h3.142V63.71z"/>
	<path d="M42.114,61.695l0.827,1.247c0.217,0.324,0.396,0.624,0.588,0.947h0.036c0.192-0.348,0.384-0.647,0.575-0.959l0.816-1.235
		h1.139l-1.979,2.807l2.039,2.998h-1.199l-0.852-1.308c-0.229-0.336-0.42-0.659-0.624-1.007h-0.024
		c-0.191,0.348-0.395,0.659-0.611,1.007l-0.84,1.308h-1.163l2.063-2.962l-1.967-2.843H42.114z"/>
	<path d="M47.18,63.59c0-0.743-0.024-1.343-0.049-1.895h0.948l0.048,0.995h0.023c0.432-0.707,1.115-1.127,2.063-1.127
		c1.403,0,2.458,1.188,2.458,2.95c0,2.087-1.271,3.118-2.639,3.118c-0.768,0-1.438-0.336-1.786-0.911h-0.024v3.154H47.18V63.59z
		 M48.223,65.138c0,0.155,0.024,0.3,0.048,0.432c0.192,0.731,0.828,1.235,1.583,1.235c1.115,0,1.764-0.912,1.764-2.243
		c0-1.163-0.612-2.159-1.728-2.159c-0.72,0-1.392,0.517-1.595,1.308c-0.036,0.132-0.072,0.288-0.072,0.432V65.138z"/>
	<path d="M54.594,64.789c0.024,1.428,0.936,2.016,1.991,2.016c0.756,0,1.211-0.132,1.607-0.3l0.18,0.755
		c-0.372,0.168-1.008,0.36-1.931,0.36c-1.787,0-2.854-1.176-2.854-2.927s1.031-3.13,2.723-3.13c1.895,0,2.398,1.667,2.398,2.734
		c0,0.216-0.024,0.384-0.036,0.491H54.594z M57.688,64.034c0.012-0.672-0.276-1.716-1.463-1.716c-1.067,0-1.535,0.984-1.619,1.716
		H57.688z"/>
	<path d="M60.019,63.506c0-0.684-0.013-1.271-0.049-1.811h0.924l0.036,1.14h0.048c0.264-0.78,0.899-1.271,1.607-1.271
		c0.12,0,0.204,0.012,0.3,0.036v0.995c-0.108-0.024-0.216-0.036-0.36-0.036c-0.743,0-1.271,0.563-1.415,1.355
		c-0.023,0.144-0.048,0.312-0.048,0.491V67.5h-1.043V63.506z"/>
	<path d="M65.501,60.028v1.667h1.512v0.804h-1.512v3.13c0,0.72,0.204,1.128,0.792,1.128c0.275,0,0.479-0.036,0.611-0.072
		l0.048,0.791c-0.203,0.084-0.527,0.145-0.936,0.145c-0.491,0-0.887-0.156-1.139-0.444c-0.3-0.312-0.408-0.827-0.408-1.511v-3.166
		H63.57v-0.804h0.899v-1.392L65.501,60.028z"/>
</g>
</svg>
