<?xml version="1.0" encoding="utf-8"?>
<!-- Generator: Adobe Illustrator 16.0.0, SVG Export Plug-In . SVG Version: 6.00 Build 0)  -->
<!DOCTYPE svg PUBLIC "-//W3C//DTD SVG 1.1//EN" "http://www.w3.org/Graphics/SVG/1.1/DTD/svg11.dtd">
<svg version="1.1" id="Layer_1" xmlns="http://www.w3.org/2000/svg" xmlns:xlink="http://www.w3.org/1999/xlink" x="0px" y="0px"
	 width="952px" height="418px" viewBox="0 0 952 418" enable-background="new 0 0 952 418" xml:space="preserve">
<linearGradient id="SVGID_1_" gradientUnits="userSpaceOnUse" x1="315.9995" y1="100.6055" x2="315.9995" y2="823.5692" gradientTransform="matrix(1 0 0 1 160 -193)">
	<stop  offset="0" style="stop-color:#9EA0A3"/>
	<stop  offset="0.5699" style="stop-color:#FFFFFF"/>
	<stop  offset="1" style="stop-color:#9C9EA1"/>
</linearGradient>
<rect fill="url(#SVGID_1_)" width="952" height="418"/>
<g>
	<path d="M704.285,90.439c-6.646,0-9.967-1.84-9.967-5.522V70.1c0-0.875,0.532-1.313,1.599-1.313c1.089,0,1.633,0.439,1.633,1.315
		v14.842c0,1.979,2.2,2.969,6.6,2.969h12.526c0.809,0,1.212,0.443,1.212,1.329c0,0.797-0.403,1.196-1.212,1.196L704.285,90.439
		L704.285,90.439z"/>
	<path d="M741.797,85.465c0,3.316-2.582,4.974-7.745,4.974h-6.026c-5.275,0-7.913-1.658-7.913-4.974v-6.351
		c0-3.382,2.671-5.074,8.014-5.074h5.926c5.163,0,7.745,1.681,7.745,5.041V85.465z M738.731,78.815c0-1.567-1.402-2.35-4.209-2.35
		h-6.836c-3.053,0-4.579,0.873-4.579,2.619v6.346c0,1.656,1.526,2.484,4.579,2.484h6.836c2.807,0,4.209-0.828,4.209-2.484V78.815z"
		/>
	<path d="M767.455,90.203c0,3.277-2.717,4.917-8.148,4.917h-2.492c-0.875,0-1.313-0.404-1.313-1.212s0.438-1.212,1.313-1.212h2.861
		c3.211,0,4.816-0.685,4.816-2.054V90.44h-10.271c-5.813,0-8.721-1.646-8.721-4.94v-6.485c0-3.315,2.647-4.974,7.947-4.974h5.354
		c5.77,0,8.654,1.669,8.654,5.007V90.203z M764.391,87.947v-8.755c0-1.818-1.582-2.728-4.748-2.728h-6.733
		c-2.941,0-4.412,0.819-4.412,2.458v6.533c0,1.661,1.707,2.492,5.119,2.492H764.391z"/>
	<path d="M775.133,71.649c0,1.033-0.696,1.549-2.088,1.549c-1.302,0-1.953-0.516-1.953-1.549c0-1.055,0.651-1.583,1.953-1.583
		C774.437,70.067,775.133,70.594,775.133,71.649z M774.628,89.26c0,0.898-0.494,1.347-1.482,1.347c-0.941,0-1.414-0.449-1.414-1.347
		V76.229c0-0.853,0.449-1.28,1.348-1.28c1.032,0,1.55,0.427,1.55,1.28L774.628,89.26L774.628,89.26z"/>
	<path d="M800.589,89.263c0,0.896-0.5,1.344-1.498,1.344c-0.999,0-1.499-0.449-1.499-1.347V78.485c0-1.347-1.354-2.02-4.064-2.02
		h-7.493c-2.732,0-4.1,0.673-4.1,2.02V89.26c0,0.898-0.5,1.347-1.499,1.347s-1.498-0.448-1.498-1.344V78.509
		c0-2.979,2.634-4.47,7.901-4.47h5.782c5.313,0,7.968,1.49,7.968,4.47V89.263z"/>
</g>
</svg>
