<?xml version="1.0" encoding="utf-8"?>
<!-- Generator: Adobe Illustrator 16.0.0, SVG Export Plug-In . SVG Version: 6.00 Build 0)  -->
<!DOCTYPE svg PUBLIC "-//W3C//DTD SVG 1.1//EN" "http://www.w3.org/Graphics/SVG/1.1/DTD/svg11.dtd">
<svg version="1.1" id="Layer_1" xmlns="http://www.w3.org/2000/svg" xmlns:xlink="http://www.w3.org/1999/xlink" x="0px" y="0px"
	 width="961px" height="418px" viewBox="0 0 961 418" enable-background="new 0 0 961 418" xml:space="preserve">
<linearGradient id="SVGID_1_" gradientUnits="userSpaceOnUse" x1="156.0327" y1="637.5361" x2="156.0327" y2="1364.9623" gradientTransform="matrix(1 0 0 1 327 -730.5)">
	<stop  offset="0" style="stop-color:#98D4C4"/>
	<stop  offset="0.5699" style="stop-color:#FFFFFF"/>
	<stop  offset="1" style="stop-color:#9C9EA1"/>
</linearGradient>
<rect fill="url(#SVGID_1_)" width="966.066" height="420.58"/>
<g>
	
		<image overflow="visible" enable-background="new    " width="150" height="150" xlink:href="../menu/images/browsers/android.png"  transform="matrix(1 0 0 1 756 167)">
	</image>
	<g>
		
			<image overflow="visible" enable-background="new    " width="118" height="81" xlink:href="98FC45F4.png"  transform="matrix(0.9903 0 0 0.9903 761.5732 265.8936)">
		</image>
	</g>
</g>
<g>
	<g>
		<path fill="#444444" d="M306.992,93.486l25.352,12.745c0.416,0.232,0.75,0.555,1.003,0.971c0.253,0.415,0.38,0.762,0.38,1.039
			c0,0.786-0.311,1.489-0.935,2.112c-0.623,0.623-1.327,0.935-2.111,0.935c-0.416,0-0.902-0.137-1.457-0.415L302.42,97.02v11.499
			c0,1.847-1.004,2.77-3.013,2.77c-2.101,0-3.153-0.923-3.153-2.77V69.104c0-1.8,1.052-2.702,3.153-2.702
			c2.009,0,3.013,0.901,3.013,2.702v21.057l27.292-13.091c0.37-0.231,0.738-0.347,1.108-0.347c0.738,0,1.408,0.301,2.009,0.901
			c0.601,0.602,0.901,1.225,0.901,1.87c0,0.372-0.128,0.751-0.381,1.144c-0.254,0.393-0.635,0.704-1.142,0.935L306.992,93.486z"/>
		<path fill="#444444" d="M384.363,108.522c0,1.845-1.028,2.764-3.081,2.764c-2.054,0-3.083-0.922-3.083-2.77V86.35
			c0-2.771-2.789-4.156-8.362-4.156h-15.416c-5.621,0-8.432,1.386-8.432,4.156v22.166c0,1.848-1.028,2.77-3.082,2.77
			c-2.055,0-3.082-0.919-3.082-2.764v-22.12c0-6.128,5.416-9.196,16.251-9.196h11.897c10.926,0,16.389,3.067,16.389,9.196
			L384.363,108.522L384.363,108.522z"/>
		<path fill="#444444" d="M436.935,100.71c0,6.82-5.31,10.23-15.932,10.23h-12.399c-10.851,0-16.274-3.41-16.274-10.23V87.646
			c0-6.958,5.495-10.439,16.483-10.439h12.19c10.622,0,15.933,3.458,15.933,10.371L436.935,100.71L436.935,100.71z M430.633,87.029
			c0-3.224-2.886-4.833-8.658-4.833h-14.061c-6.281,0-9.42,1.795-9.42,5.385v13.054c0,3.407,3.139,5.11,9.42,5.11h14.061
			c5.772,0,8.658-1.703,8.658-5.11V87.029z"/>
		<path fill="#444444" d="M485.77,101.937c0,6.002-4.295,9.005-12.883,9.005h-26.184c-1.8,0-2.7-0.841-2.7-2.526
			c0-1.778,0.9-2.669,2.7-2.669h27.221c3.694,0,5.541-1.283,5.541-3.849v-1.995c0-2.476-2.076-3.712-6.23-3.712h-14.549
			c-9.514,0-14.269-2.853-14.269-8.56v-2.208c0-5.476,4.548-8.214,13.644-8.214h7.205c1.803,0,2.703,0.821,2.703,2.459
			c0,1.686-0.9,2.528-2.703,2.528h-8.656c-4.018,0-6.025,1.063-6.025,3.185v2.079c0,2.493,2.373,3.741,7.121,3.741h14.793
			c8.849,0,13.271,2.908,13.271,8.728V101.937L485.77,101.937z"/>
		<path fill="#444444" d="M537.717,111.286c0,6.188-4.709,9.281-14.129,9.281H515.9c-1.571,0-2.356-0.855-2.356-2.561
			c0-1.619,0.785-2.425,2.356-2.425h8.239c4.941,0,7.411-1.432,7.411-4.295v-0.346h-22.646c-10.717,0-16.071-3.278-16.071-9.835
			V79.217c0-1.708,1.028-2.563,3.083-2.563s3.082,0.853,3.082,2.558v21.836c0,3.133,2.925,4.699,8.776,4.699h23.776V79.21
			c0-1.702,1.004-2.557,3.015-2.557c2.102,0,3.15,0.855,3.15,2.563L537.717,111.286L537.717,111.286z"/>
		<path fill="#444444" d="M587.035,101.937c0,6.002-4.295,9.005-12.885,9.005h-26.186c-1.799,0-2.7-0.841-2.7-2.526
			c0-1.778,0.901-2.669,2.7-2.669h27.225c3.691,0,5.538-1.283,5.538-3.849v-1.995c0-2.476-2.075-3.712-6.231-3.712h-14.544
			c-9.518,0-14.271-2.853-14.271-8.56v-2.208c0-5.476,4.548-8.214,13.645-8.214h7.205c1.8,0,2.701,0.821,2.701,2.459
			c0,1.686-0.901,2.528-2.701,2.528h-8.656c-4.018,0-6.027,1.063-6.027,3.185v2.079c0,2.493,2.373,3.741,7.122,3.741h14.79
			c8.854,0,13.275,2.908,13.275,8.728V101.937L587.035,101.937z"/>
		<path fill="#444444" d="M590.775,79.979c-0.232,0.922-0.692,1.591-1.39,2.008c-0.689,0.415-1.359,0.625-2.008,0.625
			c-0.69,0-1.282-0.196-1.769-0.59c-0.484-0.392-0.727-0.979-0.727-1.766c0-0.046,0.012-0.126,0.034-0.244
			c0.021-0.113,0.058-0.288,0.104-0.52l1.868-10.528c0.188-0.923,0.637-1.629,1.352-2.113c0.716-0.484,1.513-0.727,2.391-0.727
			c0.786,0,1.466,0.208,2.044,0.624c0.577,0.415,0.865,1.017,0.865,1.8c0,0.416-0.021,0.693-0.065,0.832L590.775,79.979z"/>
	</g>
	<g>
		<g>
			<path fill="#00C5CE" d="M607.396,108.447c0,1.894-1.146,2.839-3.432,2.839c-2.146,0-3.22-0.946-3.22-2.839V69.104
				c0-1.8,1.073-2.702,3.22-2.702c2.287,0,3.432,0.901,3.432,2.702V108.447z"/>
			<path fill="#00C5CE" d="M671.885,100.205c0,7.158-5.68,10.736-17.039,10.736h-20.986c-12.19,0-18.286-3.509-18.286-10.529v-22.79
				c0-7.249,7.04-10.875,21.126-10.875h6.164c1.753,0,2.634,0.855,2.634,2.563c0,1.755-0.881,2.632-2.634,2.632h-9.006
				c-7.759,0-11.64,2.169-11.64,6.51v3.533h31.104c12.374,0,18.563,3.695,18.563,11.082L671.885,100.205L671.885,100.205z
				 M665.373,93.23c0-3.893-3.627-5.842-10.875-5.842h-32.28v12.029c0,4.218,3.56,6.326,10.667,6.326h23.067
				c6.278,0,9.421-1.855,9.421-5.563V93.23L665.373,93.23z"/>
		</g>
		<g>
			<g>
				<path fill="#00C5CE" d="M235.398,97.498c0,0,8.875-12.017,22.824-17.03c0,0,5.458-1.387,2.213,3.052l-9.467,12.801
					c0,0-2.272,3.803-1.238,4.658c0,0,8.523-9.524,20.792-14.32c0,0,5.396-1.694,3.742,3.422c0,0-2.979,6.354-1.589,8.272
					c0,0-0.059,0.708,2.892-1.652c0,0-3.747,6.634-4.958,4.735c0,0-2.181-2.245-1.061-7.419c0,0,0.529-3.552-4.422-0.915
					c0,0-16.429,7.345-13.037,15.75c0,0,1.036,5.309,5.81,7.341c0,0,4.276,2.038,15.042-8.655c0,0-11.205,12.137-13.304,13.39
					c0,0-7.37,5.97-11.915-7.153c0,0-0.589-1.844-0.412-2.302c0,0-2.271,15.061,5.043,28.549c0,0-15.776-22.354-5.868-39.281
					c0,0,3.772-7.39,5.986-10.635c0,0,3.097-6.634-2.86-2.92C249.611,87.19,239.379,93.563,235.398,97.498z"/>
				<path fill="#00C5CE" d="M250.498,66.886c0,0-5.251-2.063-11.857,0c0,0,3.864-7.178,16.219-16.103
					c0,0-23.83,13.007-27.337,22.593c0,0,4.187-2.316,14.803-4.749c0,0-18.933,13.109-11.237,21.47c0,0,5.427,4.189,15.282-3.672
					C246.368,86.425,263.06,73.228,250.498,66.886z M241.062,84.553c-8.94,3.303-6.165-3.923-6.165-3.923
					c1.268-3.538,5.307-6.873,5.307-6.873c7.02-5.646,8.701-0.102,8.701-0.102C250.113,79.878,241.062,84.553,241.062,84.553z"/>
				<path fill="#00C5CE" d="M274.089,79.051c0,0,0.149,2.552-1.563,2.789c0,0-1.739,0.278-1.77-2.508c0,0,0.592-6.754-3.979-5.619
					c0,0-4.485,0.65-3.214,6.725c0,0,1.384,4.749,5.66,4.661c0,0-4.601,0.573-6.488-3.142c0,0-1.357-2.079-1.033-5.501
					c0,0-0.06-5.395,5.986-5.69C267.691,70.765,273.676,70.589,274.089,79.051z"/>
				<path fill="#00C5CE" d="M267.956,79.582c0,0,1.238-0.988,1.592,0.621c0,0,0.593,1.591-1.09,2.021
					c-0.444,0.133-2.921,1-3.745-1.843c0,0-0.767-2.952,1.15-4.368c0,0-0.973,2.626,0.324,3.926
					C266.185,79.939,266.924,80.733,267.956,79.582z"/>
				<path fill="#00C5CE" d="M267.572,75.985c0,0,0.354-0.59,0.769-0.16c0,0,0.765,0.572-0.032,1.459c0,0-1.031,1.18-1.385,1.37
					c0,0-0.622,0.443-0.413-0.648C266.511,78.004,266.834,76.915,267.572,75.985z"/>
				<path fill="#00C5CE" d="M264.83,117.465c0,0,3.215-4.157,8.404-8.61c0.059-0.061-6.457,8.198-5.161,10.128
					c0,0,0.118,0.634-1.591,0.163C266.481,119.146,264.298,118.542,264.83,117.465z"/>
				<path fill="#00C5CE" d="M241.5,127.907c0,0-0.175-0.678-0.913-0.797c0,0-2.064-0.473-0.06-1.592c0,0,2.183-1.786,3.068-0.826
					c0,0,0.383,0.191,0.615,1.917c0,0,1.036,3.893,4.988,9.453C249.202,136.061,244.92,134.261,241.5,127.907z"/>
				<path fill="#00C5CE" d="M227.286,78.654c0,0-0.679-1.475,0.826-1.226c0,0,2.654,0.045,1.945,0.799c0,0-0.354,0.293-0.763,1.178
					c0,0-3.07,5.19-1.505,9.041C227.787,88.446,225.338,87.104,227.286,78.654z"/>
				<path fill="#00C5CE" d="M247.488,58.038c0,0-0.914,0.871,0.736,1.431c0,0,1.209,0.707,1.563-0.442c0,0,0.59-2.875,5.192-7.242
					C254.98,51.786,248.314,56.653,247.488,58.038z"/>
			</g>
		</g>
	</g>
	<g>
		<path fill="#444444" d="M556.078,142.51c0,0.425-0.256,0.636-0.771,0.636c-0.48,0-0.723-0.211-0.723-0.636v-8.825
			c0-0.405,0.24-0.606,0.723-0.606c0.516,0,0.771,0.204,0.771,0.606V142.51z"/>
		<path fill="#444444" d="M569.658,140.599c0,1.647-1.297,2.47-3.885,2.47h-1.727c-0.426,0-0.641-0.199-0.641-0.599
			c0-0.377,0.215-0.566,0.641-0.566h1.461c1.813,0,2.718-0.475,2.718-1.424v-0.861h-6.243c-2.788,0-4.183-0.824-4.183-2.471v-1.631
			c0-1.575,1.274-2.362,3.823-2.362h3.977c2.703,0,4.056,0.933,4.056,2.797L569.658,140.599L569.658,140.599z M568.229,138.392
			v-2.656c0-0.943-0.787-1.415-2.361-1.415h-4.568c-1.337,0-2.006,0.413-2.006,1.243v1.552c0,0.85,0.813,1.275,2.439,1.275
			L568.229,138.392L568.229,138.392z"/>
		<path fill="#444444" d="M571.289,139.481c-0.396,0-0.59-0.176-0.59-0.527c0-0.374,0.193-0.562,0.59-0.562h5.22
			c0.341,0,0.513,0.176,0.513,0.528c0,0.372-0.172,0.561-0.513,0.561H571.289L571.289,139.481z"/>
		<path fill="#444444" d="M590.229,136.25c0,1.667-1.183,2.5-3.543,2.5h-4.801c-1.596,0-2.393,0.38-2.393,1.142v2.012h10.189
			c0.363,0,0.545,0.188,0.545,0.566c0,0.4-0.182,0.599-0.545,0.599h-11.17c-0.318,0-0.48-0.166-0.48-0.496v-2.658
			c0-1.574,1.364-2.362,4.102-2.362h4.723c1.255,0,1.883-0.369,1.883-1.104v-1.024c0-0.736-0.592-1.104-1.771-1.104h-2.486
			c-0.393,0-0.592-0.198-0.592-0.591c0-0.382,0.199-0.575,0.592-0.575h2.285c2.312,0,3.465,0.818,3.465,2.455L590.229,136.25
			L590.229,136.25z"/>
		<path fill="#444444" d="M603.294,140.118c0,1.969-1.341,2.951-4.021,2.951h-3.448c-2.686,0-4.024-0.901-4.024-2.703v-4.274
			c0-1.956,1.352-2.937,4.054-2.937h3.435c2.675,0,4.008,0.98,4.008,2.937v4.026H603.294z M601.803,135.91
			c0-1.06-0.714-1.588-2.14-1.588h-4.219c-1.438,0-2.155,0.528-2.155,1.588v4.655c0,0.893,0.718,1.339,2.155,1.339h4.219
			c1.427,0,2.14-0.45,2.14-1.353V135.91z"/>
		<path fill="#444444" d="M624.549,142.527c0,0.414-0.231,0.62-0.699,0.62c-0.455,0-0.684-0.208-0.684-0.621v-4.816
			c0-0.725-0.746-1.088-2.237-1.088c-1.771,0-2.655,0.431-2.655,1.289v4.615c0,0.413-0.224,0.621-0.67,0.621
			c-0.478,0-0.716-0.208-0.716-0.621v-4.615c0-0.858-0.883-1.289-2.646-1.289c-1.505,0-2.263,0.363-2.263,1.088v4.816
			c0,0.413-0.232,0.621-0.709,0.621c-0.445,0-0.674-0.206-0.674-0.62v-4.635c0-1.591,1.212-2.387,3.638-2.387
			c1.801,0,2.931,0.413,3.387,1.241c0.486-0.828,1.589-1.241,3.308-1.241c2.413,0,3.62,0.796,3.62,2.387L624.549,142.527
			L624.549,142.527z"/>
		<path fill="#444444" d="M636.914,140.852c0,1.479-1.075,2.217-3.229,2.217h-4.041c-2.269,0-3.401-0.711-3.401-2.134v-0.997
			c0-1.475,1.108-2.212,3.323-2.212h6.014c-0.093-0.736-0.65-1.104-1.677-1.104h-1.681c-0.332,0-0.494-0.194-0.494-0.583
			c0-0.357,0.164-0.535,0.494-0.535h1.463c2.153,0,3.229,0.755,3.229,2.262V140.852L636.914,140.852z M635.595,138.891h-6.352
			c-1.078,0-1.618,0.339-1.618,1.021v1.035c0,0.64,0.574,0.958,1.729,0.958h4.576c1.11,0,1.665-0.485,1.665-1.453V138.891
			L635.595,138.891z"/>
		<path fill="#444444" d="M642.043,136.622c-1.314,0-1.973,0.388-1.973,1.166v4.739c0,0.413-0.232,0.621-0.699,0.621
			c-0.455,0-0.683-0.206-0.683-0.62v-4.729c0-1.531,1.165-2.293,3.494-2.293h0.64c0.34,0,0.513,0.182,0.513,0.552
			c0,0.376-0.146,0.565-0.436,0.565L642.043,136.622L642.043,136.622z"/>
		<path fill="#444444" d="M647.979,143.069c-2.495,0-3.743-0.744-3.743-2.233v-3.116c0-1.478,1.133-2.216,3.4-2.216h5.081
			c0.425,0,0.639,0.177,0.639,0.535c0,0.389-0.214,0.583-0.639,0.583h-5.267c-1.225,0-1.835,0.351-1.835,1.053v3.083
			c0,0.762,0.705,1.146,2.112,1.146h4.987c0.383,0,0.574,0.205,0.574,0.614c0,0.368-0.191,0.55-0.574,0.55L647.979,143.069
			L647.979,143.069z"/>
		<path fill="#444444" d="M665.271,142.527c0,0.414-0.231,0.62-0.693,0.62c-0.458,0-0.689-0.208-0.689-0.621v-4.615
			c0-0.858-0.771-1.289-2.313-1.289h-5.033v5.904c0,0.413-0.232,0.621-0.698,0.621c-0.456,0-0.686-0.208-0.686-0.621v-8.841
			c0-0.405,0.229-0.606,0.686-0.606c0.466,0,0.698,0.204,0.698,0.609v1.816h4.591c2.762,0,4.144,0.797,4.144,2.387L665.271,142.527
			L665.271,142.527z"/>
	</g>
</g>
<g opacity="0.5">
	<path d="M688.214,112.289c-0.137,0.168-0.276,0.252-0.42,0.252c-0.072,0.011-0.139-0.008-0.192-0.048s-0.116-0.1-0.18-0.18
		l-3.96-5.076c-0.072-0.072-0.108-0.168-0.108-0.288c0-0.128,0.054-0.235,0.162-0.33c0.108-0.092,0.229-0.138,0.366-0.138
		c0.144,0,0.268,0.064,0.372,0.192l3.563,4.653l3.555-4.68c0.077-0.096,0.189-0.144,0.336-0.144c0.136,0,0.271,0.042,0.405,0.126
		c0.139,0.084,0.204,0.188,0.204,0.315c0,0.088-0.04,0.187-0.12,0.288L688.214,112.289z"/>
	<path d="M700.741,109.591c0,0.317-0.158,0.479-0.479,0.479h-6.276v0.729c0,0.521,0.544,0.783,1.635,0.783h1.163
		c0.305,0,0.455,0.146,0.455,0.438c0,0.308-0.15,0.462-0.455,0.462h-0.89c-1.981,0-2.976-0.603-2.976-1.809v-2.251
		c0-1.189,0.979-1.784,2.938-1.784h2.4c1.656,0,2.484,0.518,2.484,1.555V109.591L700.741,109.591z M693.985,109.169h5.727V108.3
		c0-0.531-0.412-0.8-1.236-0.8h-2.854c-1.091,0-1.635,0.282-1.635,0.849L693.985,109.169L693.985,109.169z"/>
	<path d="M704.485,107.501c-1.016,0-1.521,0.303-1.521,0.9v3.66c0,0.32-0.182,0.479-0.54,0.479c-0.354,0-0.528-0.157-0.528-0.479
		v-3.652c0-1.182,0.9-1.771,2.7-1.771h0.492c0.264,0,0.396,0.142,0.396,0.426c0,0.292-0.109,0.438-0.336,0.438L704.485,107.501
		L704.485,107.501z"/>
	<path d="M713.521,110.922c0,1.04-0.744,1.56-2.229,1.56h-4.536c-0.313,0-0.469-0.146-0.469-0.438c0-0.311,0.154-0.465,0.469-0.465
		h4.716c0.64,0,0.96-0.222,0.96-0.667v-0.346c0-0.429-0.36-0.643-1.08-0.643h-2.52c-1.648,0-2.475-0.494-2.475-1.482v-0.383
		c0-0.948,0.788-1.423,2.364-1.423h1.248c0.312,0,0.468,0.142,0.468,0.426c0,0.292-0.156,0.438-0.468,0.438h-1.5
		c-0.696,0-1.044,0.187-1.044,0.555v0.357c0,0.435,0.411,0.648,1.231,0.648h2.563c1.532,0,2.299,0.504,2.299,1.512L713.521,110.922
		L713.521,110.922z"/>
	<path d="M716.065,105.785c0,0.368-0.248,0.555-0.744,0.555c-0.464,0-0.694-0.187-0.694-0.555c0-0.376,0.23-0.563,0.694-0.563
		C715.817,105.222,716.065,105.409,716.065,105.785z M715.886,112.062c0,0.32-0.177,0.479-0.528,0.479
		c-0.336,0-0.504-0.157-0.504-0.479v-4.646c0-0.304,0.16-0.453,0.479-0.453c0.366,0,0.553,0.149,0.553,0.453V112.062
		L715.886,112.062z"/>
	<path d="M725.089,110.709c0,1.184-0.92,1.772-2.76,1.772h-2.147c-1.881,0-2.82-0.591-2.82-1.772v-2.264
		c0-1.205,0.952-1.808,2.855-1.808h2.112c1.84,0,2.76,0.599,2.76,1.796V110.709z M723.997,108.339c0-0.561-0.5-0.84-1.5-0.84h-2.438
		c-1.089,0-1.633,0.313-1.633,0.936v2.262c0,0.59,0.544,0.885,1.633,0.885h2.438c1,0,1.5-0.295,1.5-0.885V108.339z"/>
	<path d="M734.185,112.063c0,0.319-0.178,0.479-0.533,0.479c-0.354,0-0.533-0.157-0.533-0.479v-3.84c0-0.48-0.482-0.723-1.448-0.723
		H729c-0.976,0-1.461,0.24-1.461,0.723v3.84c0,0.32-0.18,0.479-0.534,0.479c-0.356,0-0.534-0.157-0.534-0.479v-3.832
		c0-1.063,0.938-1.593,2.816-1.593h2.061c1.893,0,2.839,0.528,2.839,1.593L734.185,112.063L734.185,112.063z"/>
	<path d="M748.153,107.033c0,0.729-0.402,1.227-1.212,1.488c0.81,0.256,1.212,0.772,1.212,1.548v0.444
		c0,1.312-1.03,1.968-3.097,1.968h-4.979c-0.313,0-0.47-0.154-0.47-0.462c0-0.292,0.155-0.438,0.47-0.438h5.184
		c1.152,0,1.729-0.327,1.729-0.986v-0.762c-0.05-0.521-0.608-0.781-1.683-0.781h-5.229c-0.32,0-0.48-0.156-0.48-0.471
		c0-0.312,0.16-0.468,0.48-0.468h5.229c1.12,0,1.683-0.278,1.683-0.84v-0.732c0-0.544-0.568-0.813-1.704-0.813h-1.488
		c-0.313,0-0.468-0.152-0.468-0.456c0-0.296,0.154-0.444,0.468-0.444h1.176c2.12,0,3.183,0.588,3.183,1.767v0.44L748.153,107.033
		L748.153,107.033z"/>
	<path d="M750.325,111.882c0,0.392-0.242,0.588-0.729,0.588c-0.488,0-0.732-0.196-0.732-0.588c0-0.368,0.244-0.555,0.732-0.555
		C750.081,111.329,750.325,111.514,750.325,111.882z"/>
	<path d="M759.925,110.201c0,1.521-1.036,2.28-3.108,2.28h-2.664c-2.069,0-3.105-0.696-3.105-2.088v-3.3
		c0-1.515,1.044-2.271,3.132-2.271h2.652c2.063,0,3.096,0.756,3.096,2.271L759.925,110.201L759.925,110.201z M758.772,106.952
		c0-0.815-0.551-1.227-1.65-1.227h-3.261c-1.107,0-1.665,0.409-1.665,1.227v3.598c0,0.688,0.558,1.031,1.665,1.031h3.261
		c1.102,0,1.65-0.349,1.65-1.046V106.952z"/>
</g>
<g>
	<image overflow="visible" width="361" height="77" xlink:href="98FC45F8.png"  transform="matrix(1 0 0 1 260 84.5)">
	</image>
</g>
<g>
	<image overflow="visible" width="116" height="80" xlink:href="98FC45FE.png"  transform="matrix(1 0 0 1 197 106.5)">
	</image>
</g>
<g>
	<image overflow="visible" width="153" height="80" xlink:href="98FC45FF.png"  transform="matrix(1 0 0 1 560 87.5)">
	</image>
</g>
<g opacity="0.7">
	<text transform="matrix(1 0 0 1 299 142.8335)" font-family="'NeuropolXRg-Regular'" font-size="16.1959">NIT Puducherry</text>
</g>
<g>
	<g opacity="0.8">
		<text transform="matrix(1 0 0 1 280.791 41.9194)" font-family="'NeuropolXRg-Regular'" font-size="13.7243">Department of Computer Science and Engineering</text>
	</g>
	<g opacity="0.8">
		<text transform="matrix(1 0 0 1 445.4834 61.1484)" font-family="'NeuropolXRg-Regular'" font-size="13.7243">Presents</text>
	</g>
</g>
<text transform="matrix(1 0 0 1 582.9023 343.6436)"><tspan x="0" y="0" fill="#444444" font-family="'NeuropolXRg-Regular'" font-size="21.1363">“ if you control the </tspan><tspan x="230.721" y="0" fill="#7DE208" font-family="'NeuropolXRg-Regular'" font-size="21.1363">code</tspan><tspan x="293.58" y="0" fill="#444444" font-family="'NeuropolXRg-Regular'" font-size="21.1363">, </tspan><tspan x="0" y="25.363" fill="#444444" font-family="'NeuropolXRg-Regular'" font-size="21.1363">you control the world. ”</tspan></text>
</svg>
