<?xml version="1.0" encoding="utf-8"?>
<!-- Generator: Adobe Illustrator 16.0.0, SVG Export Plug-In . SVG Version: 6.00 Build 0)  -->
<!DOCTYPE svg PUBLIC "-//W3C//DTD SVG 1.1//EN" "http://www.w3.org/Graphics/SVG/1.1/DTD/svg11.dtd">
<svg version="1.1" id="Layer_1" xmlns="http://www.w3.org/2000/svg" xmlns:xlink="http://www.w3.org/1999/xlink" x="0px" y="0px"
	 width="70px" height="70px" viewBox="0 0 70 70" enable-background="new 0 0 70 70" xml:space="preserve">
<g display="none">
	<polygon display="inline" fill="#020033" points="50.293,22.081 52.666,23.541 39.887,49.279 37.514,47.639 	"/>
	<polygon display="inline" fill="#020033" points="15.076,22.627 17.449,25.731 6.679,35.407 16.72,45.813 15.076,48.004 
		2.48,35.407 	"/>
	<polygon display="inline" fill="#020033" points="53.76,25.731 56.316,23.175 68,35.224 56.316,48.369 54.125,45.813 
		63.801,35.224 	"/>
</g>
<g>
	<path fill="#FFFD22" stroke="#FAFF42" stroke-miterlimit="10" d="M26.926,47.623v-11.29c0,0-18.345-15.053-0.941-32.458
		c0,0,11.76-7.056,20.228,0.941c0,0,15.523,15.523-1.881,31.047v11.76c0,0-5.646,0.47-6.116,4.233c0,0-1.883,2.353-6.116-0.47
		C32.101,51.387,32.101,48.093,26.926,47.623z"/>
	<path fill="none" stroke="#FFFFFF" stroke-width="3" stroke-miterlimit="10" d="M33.512,40.567c0,0-9.878-21.639,1.882-14.112
		c0,0,14.248-11.697,2.822,13.172C30.219,57.032,33.512,40.567,33.512,40.567z"/>
	<path fill="#00AFBD" d="M26.926,41.345v6.661C32.1,48.477,32.1,51.77,32.1,51.77c4.233,2.822,6.116,0.47,6.116,0.47
		c0.471-3.763,6.116-4.233,6.116-4.233v-6.508C37.461,39.296,30.973,40.249,26.926,41.345z"/>
</g>
<g>
	<path fill="#00AFBD" d="M14.561,69.736c-0.384,0.191-1.151,0.384-2.135,0.384c-2.279,0-3.994-1.439-3.994-4.09
		c0-2.53,1.715-4.246,4.222-4.246c1.008,0,1.644,0.216,1.919,0.36l-0.252,0.852c-0.396-0.192-0.959-0.336-1.631-0.336
		c-1.895,0-3.154,1.211-3.154,3.334c0,1.979,1.14,3.25,3.106,3.25c0.636,0,1.283-0.132,1.703-0.336L14.561,69.736z"/>
	<path fill="#00AFBD" d="M20.957,67.05c0,2.146-1.487,3.082-2.891,3.082c-1.571,0-2.782-1.151-2.782-2.986
		c0-1.942,1.271-3.082,2.878-3.082C19.829,64.063,20.957,65.274,20.957,67.05z M16.352,67.109c0,1.271,0.731,2.231,1.763,2.231
		c1.008,0,1.763-0.948,1.763-2.255c0-0.983-0.491-2.231-1.738-2.231C16.891,64.854,16.352,66.006,16.352,67.109z"/>
	<path fill="#00AFBD" d="M27.305,61.484v7.017c0,0.516,0.012,1.104,0.048,1.499h-0.947l-0.048-1.008h-0.024
		c-0.323,0.648-1.031,1.14-1.979,1.14c-1.403,0-2.482-1.188-2.482-2.95c-0.013-1.931,1.188-3.118,2.603-3.118
		c0.888,0,1.487,0.42,1.751,0.888h0.023v-3.467H27.305z M26.249,66.558c0-0.132-0.012-0.312-0.048-0.443
		c-0.155-0.672-0.731-1.224-1.523-1.224c-1.091,0-1.738,0.96-1.738,2.243c0,1.175,0.575,2.146,1.715,2.146
		c0.708,0,1.355-0.468,1.547-1.259c0.036-0.145,0.048-0.288,0.048-0.456V66.558z"/>
	<path fill="#00AFBD" d="M29.646,67.289c0.024,1.428,0.936,2.016,1.991,2.016c0.756,0,1.211-0.132,1.607-0.3l0.18,0.755
		c-0.372,0.168-1.008,0.36-1.931,0.36c-1.787,0-2.854-1.176-2.854-2.927s1.031-3.13,2.723-3.13c1.895,0,2.398,1.667,2.398,2.734
		c0,0.216-0.024,0.384-0.036,0.491H29.646z M32.741,66.534c0.012-0.672-0.276-1.716-1.463-1.716c-1.067,0-1.535,0.984-1.619,1.716
		H32.741z"/>
	<path fill="#00AFBD" d="M44.463,66.45c-0.06-1.128-0.132-2.482-0.12-3.49h-0.036c-0.275,0.947-0.611,1.955-1.019,3.07l-1.428,3.922
		h-0.791l-1.308-3.85c-0.384-1.14-0.708-2.184-0.936-3.143h-0.024c-0.023,1.008-0.084,2.362-0.155,3.574L38.431,70h-0.996
		l0.564-8.084h1.331l1.379,3.91c0.336,0.995,0.611,1.883,0.815,2.723h0.036c0.204-0.815,0.492-1.703,0.852-2.723l1.439-3.91h1.331
		L45.687,70h-1.02L44.463,66.45z"/>
	<path fill="#00AFBD" d="M50.549,70l-0.084-0.731h-0.036c-0.323,0.456-0.947,0.863-1.775,0.863c-1.175,0-1.774-0.827-1.774-1.667
		c0-1.403,1.247-2.171,3.49-2.159v-0.119c0-0.48-0.132-1.344-1.319-1.344c-0.54,0-1.104,0.168-1.512,0.432l-0.239-0.695
		c0.479-0.312,1.175-0.516,1.906-0.516c1.775,0,2.207,1.211,2.207,2.374v2.171c0,0.504,0.024,0.996,0.096,1.392H50.549z
		 M50.393,67.038c-1.151-0.024-2.458,0.18-2.458,1.307c0,0.684,0.455,1.008,0.995,1.008c0.756,0,1.235-0.479,1.403-0.972
		c0.036-0.107,0.06-0.228,0.06-0.336V67.038z"/>
	<path fill="#00AFBD" d="M54.342,62.528v1.667h1.512v0.804h-1.512v3.13c0,0.72,0.204,1.128,0.792,1.128
		c0.275,0,0.479-0.036,0.611-0.072l0.048,0.791c-0.203,0.084-0.527,0.145-0.936,0.145c-0.491,0-0.887-0.156-1.139-0.444
		c-0.3-0.312-0.408-0.827-0.408-1.511v-3.166h-0.899v-0.804h0.899v-1.392L54.342,62.528z"/>
	<path fill="#00AFBD" d="M57.043,61.484h1.055v3.622h0.024c0.168-0.3,0.432-0.563,0.756-0.743c0.312-0.18,0.684-0.3,1.079-0.3
		c0.779,0,2.026,0.479,2.026,2.482V70h-1.055v-3.334c0-0.936-0.349-1.728-1.344-1.728c-0.684,0-1.224,0.48-1.415,1.056
		c-0.06,0.144-0.072,0.3-0.072,0.504V70h-1.055V61.484z"/>
</g>
</svg>
