<?xml version="1.0" encoding="utf-8"?>
<!-- Generator: Adobe Illustrator 16.0.0, SVG Export Plug-In . SVG Version: 6.00 Build 0)  -->
<!DOCTYPE svg PUBLIC "-//W3C//DTD SVG 1.1//EN" "http://www.w3.org/Graphics/SVG/1.1/DTD/svg11.dtd">
<svg version="1.1" id="Layer_1" xmlns="http://www.w3.org/2000/svg" xmlns:xlink="http://www.w3.org/1999/xlink" x="0px" y="0px"
	 width="70px" height="70px" viewBox="0 0 70 70" enable-background="new 0 0 70 70" xml:space="preserve">
<path display="none" fill="#00126C" d="M60.221,37.289c0.5,0.389,1.873-0.318,1.873-0.318c-0.961-1.063-3.838-3.577-3.838-3.577
	c-4.842-7.471-9.82-4.674-9.82-4.674c-3.651,1.84-3.426-1.169-3.426-1.169c2.281-1.841,1.369-4.498,1.369-4.498
	c3.426-0.141,3.791-3.292,3.791-3.292c2.01-3.222,6.029-1.24,6.029-1.24c2.469,1.522,3.197,0.78,3.197,0.78
	c0.502-0.248-0.273-0.85-0.273-0.85c0.457,0.104,1.918-0.39,1.918-0.39c-0.41-1.203-6.211-1.558-6.211-1.558
	c-6.395-0.922-6.395,1.63-6.395,1.63c-0.597,2.444-2.33,1.664-2.33,1.664c-0.687-1.842-4.568-3.792-4.568-3.792
	c-2.145-0.034-0.865-1.521-0.865-1.521c3.426-2.055,0.729-4.427,0.729-4.427c2.562-0.673,5.664-3.542,5.664-3.542
	c2.058-1.771-0.389-2.57-0.389-2.57c-2.307-0.623-1.531,2.041-1.531,2.041c-2.008,2.833-7.639,3.057-7.639,3.057
	c-0.621-0.54-1.838-0.851-2.5-0.988V7.967c0,0-0.088,0.013-0.23,0.04c-0.141-0.027-0.225-0.038-0.225-0.038l-0.004,0.083
	c-0.662,0.137-1.875,0.449-2.496,0.99c0,0-5.633-0.226-7.642-3.058c0,0,0.78-2.663-1.527-2.04c0,0-2.444,0.8-0.391,2.569
	c0,0,3.106,2.869,5.666,3.542c0,0-2.697,2.372,0.729,4.426c0,0,1.279,1.487-0.867,1.521c0,0-3.882,1.949-4.567,3.791
	c0,0-1.735,0.779-2.329-1.665c0,0,0-2.55-6.396-1.629c0,0-5.8,0.355-6.211,1.559c0,0,1.462,0.495,1.918,0.39
	c0,0-0.777,0.603-0.275,0.849c0,0,0.731,0.744,3.197-0.778c0,0,4.02-1.983,6.031,1.24c0,0,0.363,3.151,3.789,3.292
	c0,0-0.913,2.655,1.371,4.498c0,0,0.229,3.009-3.425,1.168c0,0-4.979-2.796-9.82,4.673c0,0-2.879,2.516-3.838,3.579
	c0,0,1.369,0.707,1.874,0.318c0,0-6.395,8.004-5.254,11.58c0,0,1.188-0.145,1.369-1.063c0,0,1.372,1.596,1.828,1.272
	c0,0-1.851-5.076,3.519-9.904c0.027-0.024,0.061-0.054,0.09-0.08c5.482-4.852,2.49-4.215,2.49-4.215s1.575-3.72,3.905-3.507
	c2.329,0.213-0.068,0.213-0.068,0.213s4.178,0.372,5.412,0.85c0,0-1.919,8.287-2.33,10.304c0,0-8.085,2.229-8.631,5.736
	c0,0,9.589,14.021-3.976,16.68l1.919,0.427l0.138,1.485c0,0,7.946-4.037,8.77-10.729l1.369-0.426c0,0-4.674-3.444-4.768-5.422
	c-0.01-0.191,0.022-0.367,0.108-0.527c0.961-1.805,3.426-2.229,5.619-2.549l-0.138,9.03c0,0,6.722,4.701,12.933,6.043l-0.006,0.334
	c0.375-0.026,0.758-0.069,1.141-0.127c0.387,0.058,0.768,0.101,1.143,0.125l-0.006-0.332c6.211-1.342,12.934-6.041,12.934-6.041
	l-0.139-9.03c2.191,0.317,4.658,0.742,5.617,2.549c0.086,0.158,0.119,0.336,0.111,0.525c-0.099,1.978-4.771,5.424-4.771,5.424
	l1.369,0.426c0.819,6.693,8.771,10.729,8.771,10.729l0.137-1.486l1.92-0.426c-13.565-2.655-3.975-16.682-3.975-16.682
	c-0.551-3.506-8.635-5.734-8.635-5.734c-0.408-2.021-2.328-10.306-2.328-10.306c1.232-0.477,5.41-0.849,5.41-0.849
	s-2.396,0-0.064-0.213c2.328-0.213,3.902,3.505,3.902,3.505s-2.99-0.637,2.49,4.215c0.029,0.026,0.061,0.057,0.09,0.082
	c5.369,4.826,3.52,9.902,3.52,9.902c0.457,0.318,1.826-1.273,1.826-1.273c0.185,0.924,1.371,1.063,1.371,1.063
	C66.613,45.293,60.221,37.289,60.221,37.289z"/>
<g display="none">
	<polygon display="inline" fill="#5E3C1D" points="66.253,57.943 66.253,12.833 3.703,12.833 3.703,57.943 32.134,57.943 
		32.134,62.393 21.546,62.393 21.546,64.213 48.998,64.213 48.998,62.393 37.43,62.393 37.43,57.943 	"/>
	<g display="inline">
		<g>
			<polygon fill="#007F89" points="63.508,53.795 5.86,53.795 63.508,16.171 			"/>
			<polygon fill="#01ACBD" points="6.056,53.896 6.056,16.272 63.704,16.272 			"/>
		</g>
		<rect x="39.193" y="42.064" fill="#E7B40F" width="17.059" height="3.231"/>
		<g>
			<rect x="14.879" y="22.442" fill="#65CFD8" width="13.529" height="8.294"/>
			<rect x="43.997" y="23.048" fill="#65CFD8" width="13.53" height="8.294"/>
			<rect x="29.291" y="22.745" fill="#65CFD8" width="13.529" height="8.294"/>
			<rect x="14.781" y="31.544" fill="#65CFD8" width="13.53" height="8.294"/>
			<rect x="43.898" y="32.152" fill="#65CFD8" width="13.526" height="8.293"/>
			<rect x="29.193" y="31.848" fill="#65CFD8" width="13.53" height="8.294"/>
		</g>
	</g>
	<g display="inline">
		<polygon fill="#EBE3D7" points="25.138,42.258 25.918,42.752 21.718,51.479 20.938,50.922 		"/>
		<polygon fill="#EBE3D7" points="20.098,42.439 20.878,43.494 17.338,46.773 20.638,50.303 20.098,51.045 15.958,46.773 		"/>
		<polygon fill="#EBE3D7" points="26.278,43.494 27.118,42.628 30.958,46.713 27.118,51.169 26.398,50.303 29.578,46.713 		"/>
	</g>
</g>
<g display="none">
	<circle display="inline" fill="#3BFFE5" cx="34.834" cy="35.167" r="31.333"/>
	<g display="inline">
		<g>
			<rect x="33.399" y="17.168" fill="#5D5D5D" width="0.875" height="35.5"/>
			
				<rect x="37.067" y="23.333" transform="matrix(0.7983 0.6022 -0.6022 0.7983 32.1545 -14.3511)" fill="#5D5D5D" width="0.874" height="35"/>
			
				<rect x="30.4" y="22.333" transform="matrix(0.8382 -0.5454 0.5454 0.8382 -16.7345 23.2634)" fill="#5D5D5D" width="0.874" height="35.002"/>
		</g>
		<rect x="17.168" y="19.835" fill="#EDEDED" stroke="#5B6165" stroke-miterlimit="10" width="34.666" height="25.333"/>
		<polyline fill="#93FF31" stroke="#5B6165" stroke-miterlimit="10" points="20.835,38.5 24.501,34.5 29.835,37.5 36.168,30.834 
			43.168,30.834 52.168,25.5 		"/>
		<path fill="#5B6165" d="M53.501,20.334c0-0.828-0.672-1.5-1.5-1.5h-35c-0.828,0-1.5,0.672-1.5,1.5l0,0c0,0.828,0.672,1.5,1.5,1.5
			h35C52.829,21.834,53.501,21.162,53.501,20.334L53.501,20.334z"/>
	</g>
</g>
<g>
	<path fill="#393939" d="M62.998,51.579c0,2.718-2.202,4.92-4.919,4.92H13.252c-2.717,0-4.92-2.202-4.92-4.92V6.753
		c0-2.717,2.203-4.92,4.92-4.92h44.827c2.717,0,4.919,2.203,4.919,4.92V51.579z"/>
	<path fill="#F8F8F8" d="M62.998,8.527V6.753c0-2.717-2.202-4.92-4.919-4.92H13.252c-2.717,0-4.919,2.203-4.919,4.92v1.775
		L62.998,8.527L62.998,8.527z"/>
	<g>
		<circle fill="#13B7EE" cx="42.359" cy="5.459" r="2.65"/>
		<circle fill="#F2D614" cx="50.03" cy="5.459" r="2.65"/>
		<circle fill="#E0716F" cx="57.561" cy="5.459" r="2.65"/>
	</g>
	<g>
		<path fill="#FFFFFF" d="M17.223,34.314l4.656-2.399v0.693l-3.923,1.967v0.019l3.923,1.969v0.691l-4.656-2.398V34.314z"/>
		<path fill="#FFFFFF" d="M22.535,37.656l2.799-7.275h0.683l-2.81,7.275H22.535z"/>
		<path fill="#FFFFFF" d="M31.478,37.033c-0.322,0.16-0.963,0.321-1.787,0.321c-1.906,0-3.342-1.203-3.342-3.423
			c0-2.116,1.435-3.551,3.532-3.551c0.843,0,1.375,0.18,1.606,0.3l-0.211,0.713c-0.332-0.16-0.803-0.281-1.365-0.281
			c-1.586,0-2.64,1.013-2.64,2.79c0,1.655,0.953,2.72,2.6,2.72c0.532,0,1.073-0.111,1.424-0.281L31.478,37.033z"/>
		<path fill="#FFFFFF" d="M38.145,33.802c0,2.329-1.415,3.563-3.141,3.563c-1.787,0-3.041-1.385-3.041-3.433
			c0-2.147,1.335-3.551,3.141-3.551C36.95,30.381,38.145,31.796,38.145,33.802z M32.896,33.912c0,1.446,0.783,2.739,2.158,2.739
			c1.385,0,2.166-1.274,2.166-2.81c0-1.343-0.7-2.749-2.156-2.749C33.62,31.093,32.896,32.427,32.896,33.912z"/>
		<path fill="#FFFFFF" d="M39.281,30.58c0.532-0.081,1.165-0.141,1.857-0.141c1.255,0,2.147,0.292,2.739,0.843
			c0.603,0.552,0.954,1.335,0.954,2.429c0,1.104-0.342,2.006-0.974,2.629c-0.633,0.633-1.676,0.974-2.99,0.974
			c-0.623,0-1.145-0.03-1.587-0.081V30.58z M40.155,36.563c0.221,0.04,0.541,0.05,0.883,0.05c1.866,0,2.879-1.043,2.879-2.87
			c0.012-1.595-0.892-2.61-2.738-2.61c-0.451,0-0.793,0.041-1.023,0.091V36.563z"/>
		<path fill="#FFFFFF" d="M49.472,34.083h-2.629v2.438h2.93v0.732h-3.805V30.49h3.654v0.733h-2.779v2.138h2.629V34.083z"/>
		<path fill="#FFFFFF" d="M55.465,34.867l-4.656,2.387v-0.691l3.953-1.969v-0.019l-3.953-1.967v-0.693l4.656,2.388V34.867z"/>
	</g>
</g>
<g>
	<path fill="#E0716F" d="M20.986,64.041c0,2.782-1.69,4.258-3.754,4.258c-2.135,0-3.634-1.655-3.634-4.102
		c0-2.566,1.596-4.246,3.754-4.246C19.559,59.951,20.986,61.643,20.986,64.041z M14.713,64.173c0,1.728,0.936,3.274,2.579,3.274
		c1.655,0,2.591-1.523,2.591-3.358c0-1.606-0.84-3.286-2.579-3.286C15.578,60.803,14.713,62.398,14.713,64.173z"/>
	<path fill="#E0716F" d="M22.31,64.257c0-0.743-0.024-1.343-0.049-1.895h0.948l0.048,0.995h0.023
		c0.432-0.707,1.115-1.127,2.063-1.127c1.403,0,2.458,1.188,2.458,2.95c0,2.087-1.271,3.118-2.639,3.118
		c-0.768,0-1.438-0.336-1.786-0.911h-0.024v3.154H22.31V64.257z M23.353,65.805c0,0.155,0.024,0.3,0.048,0.432
		c0.192,0.731,0.828,1.235,1.583,1.235c1.115,0,1.764-0.912,1.764-2.243c0-1.163-0.612-2.159-1.728-2.159
		c-0.72,0-1.392,0.517-1.595,1.308c-0.036,0.132-0.072,0.288-0.072,0.432V65.805z"/>
	<path fill="#E0716F" d="M30.409,60.695v1.667h1.512v0.804h-1.512v3.13c0,0.72,0.204,1.128,0.792,1.128
		c0.275,0,0.479-0.036,0.611-0.072l0.048,0.791c-0.203,0.084-0.527,0.145-0.936,0.145c-0.491,0-0.887-0.156-1.139-0.444
		c-0.3-0.312-0.408-0.827-0.408-1.511v-3.166h-0.899v-0.804h0.899v-1.392L30.409,60.695z"/>
	<path fill="#E0716F" d="M34.285,60.731c0.012,0.359-0.252,0.647-0.672,0.647c-0.371,0-0.636-0.288-0.636-0.647
		c0-0.372,0.276-0.66,0.66-0.66C34.033,60.071,34.285,60.359,34.285,60.731z M33.11,68.167v-5.805h1.055v5.805H33.11z"/>
	<path fill="#E0716F" d="M35.918,63.934c0-0.6-0.012-1.092-0.049-1.571h0.924l0.049,0.936h0.035
		c0.324-0.552,0.863-1.067,1.824-1.067c0.791,0,1.391,0.479,1.643,1.163h0.023c0.18-0.324,0.408-0.575,0.648-0.756
		c0.348-0.264,0.73-0.407,1.283-0.407c0.768,0,1.906,0.504,1.906,2.519v3.418h-1.031v-3.286c0-1.115-0.408-1.787-1.26-1.787
		c-0.6,0-1.066,0.443-1.246,0.96c-0.049,0.144-0.084,0.335-0.084,0.527v3.586h-1.031v-3.479c0-0.923-0.408-1.595-1.213-1.595
		c-0.658,0-1.139,0.527-1.307,1.056c-0.061,0.155-0.084,0.336-0.084,0.516v3.502h-1.031V63.934z"/>
	<path fill="#E0716F" d="M50.783,66.584c0,0.6,0.012,1.127,0.049,1.583h-0.936l-0.061-0.947h-0.023
		c-0.277,0.468-0.889,1.079-1.92,1.079c-0.912,0-2.002-0.504-2.002-2.543v-3.394h1.055v3.214c0,1.104,0.336,1.848,1.295,1.848
		c0.707,0,1.199-0.492,1.391-0.96c0.061-0.156,0.098-0.348,0.098-0.54v-3.562h1.055V66.584z"/>
	<path fill="#E0716F" d="M52.393,67.088c0.313,0.203,0.863,0.42,1.393,0.42c0.768,0,1.127-0.384,1.127-0.864
		c0-0.504-0.301-0.779-1.08-1.067c-1.043-0.371-1.535-0.947-1.535-1.643c0-0.936,0.756-1.703,2.004-1.703
		c0.588,0,1.104,0.168,1.426,0.359l-0.264,0.768c-0.227-0.144-0.646-0.336-1.188-0.336c-0.623,0-0.971,0.36-0.971,0.792
		c0,0.479,0.348,0.695,1.104,0.983c1.008,0.384,1.523,0.888,1.523,1.751c0,1.02-0.791,1.739-2.172,1.739
		c-0.635,0-1.223-0.156-1.631-0.396L52.393,67.088z"/>
</g>
</svg>
