<?xml version="1.0" encoding="utf-8"?>
<!-- Generator: Adobe Illustrator 16.0.0, SVG Export Plug-In . SVG Version: 6.00 Build 0)  -->
<!DOCTYPE svg PUBLIC "-//W3C//DTD SVG 1.1//EN" "http://www.w3.org/Graphics/SVG/1.1/DTD/svg11.dtd">
<svg version="1.1" id="Layer_1" xmlns="http://www.w3.org/2000/svg" xmlns:xlink="http://www.w3.org/1999/xlink" x="0px" y="0px"
	 width="952px" height="418px" viewBox="0 0 952 418" enable-background="new 0 0 952 418" xml:space="preserve">
<linearGradient id="SVGID_1_" gradientUnits="userSpaceOnUse" x1="315.9995" y1="100.6055" x2="315.9995" y2="823.5692" gradientTransform="matrix(1 0 0 1 160 -193)">
	<stop  offset="0" style="stop-color:#9EA0A3"/>
	<stop  offset="0.5699" style="stop-color:#FFFFFF"/>
	<stop  offset="1" style="stop-color:#9C9EA1"/>
</linearGradient>
<rect fill="url(#SVGID_1_)" width="952" height="418"/>
<g display="none">
	<path display="inline" d="M398.57,39.965H421.8c0.909,0,1.364,0.538,1.364,1.612c0,1.048-0.455,1.571-1.364,1.571H398.57v4.984
		c0,2.271,2.135,3.406,6.405,3.406H421.8c0.964,0,1.447,0.503,1.447,1.509c0,1.061-0.482,1.591-1.447,1.591h-16.947
		c-6.834,0-10.25-2.122-10.25-6.365V34.757c0-4.326,3.541-6.489,10.623-6.489h4.59c0.908,0,1.362,0.524,1.362,1.571
		c0,1.02-0.455,1.529-1.362,1.529h-3.102c-5.429,0-8.143,1.13-8.143,3.389L398.57,39.965L398.57,39.965z"/>
	<path display="inline" d="M441.557,53.977c-0.469,0.579-0.949,0.868-1.445,0.868c-0.248,0.027-0.471-0.028-0.661-0.165
		c-0.193-0.138-0.4-0.344-0.62-0.62l-13.64-17.484c-0.248-0.248-0.372-0.579-0.372-0.992c0-0.44,0.186-0.819,0.558-1.137
		c0.372-0.316,0.792-0.475,1.261-0.475c0.496,0,0.923,0.221,1.282,0.661l12.276,16.038l12.232-16.12
		c0.275-0.331,0.662-0.496,1.158-0.496c0.468,0,0.936,0.145,1.405,0.434c0.468,0.289,0.703,0.655,0.703,1.095
		c0,0.304-0.14,0.634-0.414,0.992L441.557,53.977z"/>
	<path display="inline" d="M484.709,44.683c0,1.099-0.552,1.647-1.653,1.647H461.44v2.501c0,1.804,1.872,2.707,5.619,2.707h4.011
		c1.047,0,1.569,0.503,1.569,1.508c0,1.062-0.522,1.592-1.569,1.592h-3.061c-6.834,0-10.25-2.076-10.25-6.229v-7.755
		c0-4.097,3.375-6.146,10.126-6.146h8.269c5.704,0,8.556,1.785,8.556,5.354L484.709,44.683L484.709,44.683z M461.438,43.23h19.718
		v-2.997c0-1.832-1.42-2.748-4.259-2.748h-9.837c-3.747,0-5.619,0.971-5.619,2.914v2.831H461.438z"/>
	<path display="inline" d="M515.254,53.195c0,1.101-0.613,1.65-1.84,1.65c-1.229,0-1.838-0.551-1.838-1.653V39.965
		c0-1.653-1.664-2.48-4.99-2.48h-9.199c-3.354,0-5.031,0.827-5.031,2.48v13.227c0,1.103-0.611,1.653-1.84,1.653
		c-1.227,0-1.839-0.549-1.839-1.65v-13.2c0-3.657,3.231-5.486,9.698-5.486h7.098c6.521,0,9.781,1.829,9.781,5.486V53.195
		L515.254,53.195z"/>
	<path display="inline" d="M524.72,37.485v15.707c0,1.103-0.6,1.653-1.798,1.653c-1.254,0-1.881-0.551-1.881-1.653V37.485h-1.797
		c-1.007,0-1.51-0.516-1.51-1.549c0-0.951,0.503-1.427,1.51-1.427h1.797v-4.826c0-1.081,0.641-1.622,1.922-1.622
		c1.171,0,1.757,0.541,1.757,1.622v4.826h7.315c1.02,0,1.529,0.49,1.529,1.467c0,1.006-0.512,1.509-1.529,1.509H524.72z"/>
	<path display="inline" d="M561.133,49.265c0,3.583-2.563,5.374-7.688,5.374h-15.624c-1.074,0-1.612-0.502-1.612-1.508
		c0-1.062,0.538-1.592,1.612-1.592h16.244c2.202,0,3.307-0.766,3.307-2.298v-1.19c0-1.477-1.24-2.216-3.72-2.216h-8.683
		c-5.677,0-8.515-1.702-8.515-5.106V39.41c0-3.267,2.714-4.901,8.143-4.901h4.301c1.073,0,1.61,0.49,1.61,1.467
		c0,1.006-0.537,1.509-1.61,1.509h-5.167c-2.396,0-3.598,0.634-3.598,1.901v1.24c0,1.488,1.416,2.232,4.249,2.232h8.828
		c5.28,0,7.92,1.736,7.92,5.208L561.133,49.265L561.133,49.265z"/>
</g>
<g>
	<path d="M687.396,74.297c0,3.806-3.021,5.709-9.067,5.709h-8.695l15.039,6.605c0.622,0.298,0.933,0.722,0.933,1.269
		c0,0.423-0.144,0.821-0.429,1.194c-0.286,0.373-0.666,0.56-1.138,0.56c-0.225,0-0.448-0.075-0.672-0.224l-20.636-9.625v8.319
		c0,1.02-0.586,1.529-1.755,1.529c-1.219,0-1.829-0.51-1.829-1.53V66.759c0-0.746,0.385-1.12,1.157-1.12h17.203
		c6.592,0,9.889,2.028,9.889,6.083V74.297L687.396,74.297z M683.888,71.549c0-2.073-1.953-3.111-5.857-3.111h-15.3v8.77h15.934
		c3.482,0,5.224-0.85,5.224-2.549V71.549z"/>
	<path d="M714.823,80.46c0,0.992-0.498,1.487-1.493,1.487h-19.518v2.258c0,1.629,1.691,2.443,5.075,2.443h3.62
		c0.945,0,1.418,0.454,1.418,1.361c0,0.959-0.473,1.438-1.418,1.438h-2.761c-6.17,0-9.255-1.874-9.255-5.623v-7.001
		c0-3.699,3.047-5.549,9.143-5.549h7.463c5.15,0,7.726,1.612,7.726,4.834V80.46L714.823,80.46z M693.813,79.148h17.801v-2.706
		c0-1.654-1.281-2.481-3.844-2.481h-8.881c-3.384,0-5.075,0.877-5.075,2.631L693.813,79.148L693.813,79.148z"/>
	<path d="M742.513,89.187c0,3.632-3.012,5.448-9.031,5.448h-2.761c-0.97,0-1.456-0.448-1.456-1.343s0.485-1.344,1.456-1.344h3.172
		c3.559,0,5.335-0.759,5.335-2.276v-0.224h-11.381c-6.443,0-9.665-1.824-9.665-5.475v-7.187c0-3.675,2.937-5.512,8.808-5.512h5.934
		c6.394,0,9.591,1.85,9.591,5.549L742.513,89.187L742.513,89.187z M739.116,86.687v-9.703c0-2.015-1.754-3.022-5.263-3.022h-7.463
		c-3.26,0-4.889,0.908-4.889,2.724v7.239c0,1.841,1.89,2.762,5.672,2.762H739.116z"/>
	<path d="M751.021,68.625c0,1.145-0.771,1.717-2.313,1.717c-1.443,0-2.164-0.572-2.164-1.717c0-1.169,0.721-1.754,2.164-1.754
		C750.249,66.871,751.021,67.456,751.021,68.625z M750.461,88.142c0,0.996-0.548,1.493-1.643,1.493
		c-1.045,0-1.566-0.497-1.566-1.493V73.7c0-0.945,0.497-1.418,1.492-1.418c1.145,0,1.717,0.473,1.717,1.418V88.142z"/>
	<path d="M777.254,84.597c0,3.234-2.313,4.851-6.941,4.851h-14.104c-0.971,0-1.455-0.454-1.455-1.361
		c0-0.958,0.484-1.438,1.455-1.438h14.666c1.988,0,2.984-0.691,2.984-2.075V83.5c0-1.333-1.119-2-3.358-2h-7.836
		c-5.125,0-7.688-1.537-7.688-4.61V75.7c0-2.949,2.45-4.424,7.353-4.424h3.881c0.971,0,1.455,0.442,1.455,1.325
		c0,0.909-0.484,1.362-1.455,1.362h-4.664c-2.165,0-3.247,0.573-3.247,1.716v1.12c0,1.343,1.278,2.015,3.836,2.015h7.97
		c4.769,0,7.151,1.567,7.151,4.702L777.254,84.597L777.254,84.597z"/>
	<path d="M784.231,73.961v14.18c0,0.996-0.541,1.493-1.622,1.493c-1.133,0-1.697-0.497-1.697-1.493v-14.18h-1.622
		c-0.909,0-1.363-0.466-1.363-1.399c0-0.858,0.454-1.288,1.363-1.288h1.622v-4.356c0-0.976,0.577-1.465,1.734-1.465
		c1.058,0,1.585,0.489,1.585,1.465v4.356h6.605c0.92,0,1.381,0.442,1.381,1.325c0,0.909-0.461,1.362-1.381,1.362H784.231z"/>
	<path d="M818.152,80.46c0,0.992-0.497,1.487-1.492,1.487h-19.517v2.258c0,1.629,1.691,2.443,5.074,2.443h3.62
		c0.945,0,1.418,0.454,1.418,1.361c0,0.959-0.473,1.438-1.418,1.438h-2.762c-6.171,0-9.255-1.874-9.255-5.623v-7.001
		c0-3.699,3.048-5.549,9.144-5.549h7.463c5.149,0,7.725,1.612,7.725,4.834V80.46L818.152,80.46z M797.144,79.148h17.8v-2.706
		c0-1.654-1.281-2.481-3.844-2.481h-8.882c-3.383,0-5.074,0.877-5.074,2.631V79.148z"/>
	<path d="M829.796,73.961c-3.16,0-4.739,0.933-4.739,2.799v11.381c0,0.996-0.561,1.493-1.68,1.493c-1.095,0-1.643-0.496-1.643-1.49
		V76.787c0-3.675,2.8-5.512,8.396-5.512h1.53c0.82,0,1.23,0.442,1.23,1.325c0,0.909-0.349,1.362-1.045,1.362L829.796,73.961
		L829.796,73.961z"/>
</g>
</svg>
