<?xml version="1.0" encoding="utf-8"?>
<!-- Generator: Adobe Illustrator 16.0.0, SVG Export Plug-In . SVG Version: 6.00 Build 0)  -->
<!DOCTYPE svg PUBLIC "-//W3C//DTD SVG 1.1//EN" "http://www.w3.org/Graphics/SVG/1.1/DTD/svg11.dtd">
<svg version="1.1" id="Layer_1" xmlns="http://www.w3.org/2000/svg" xmlns:xlink="http://www.w3.org/1999/xlink" x="0px" y="0px"
	 width="70px" height="70px" viewBox="0 0 70 70" enable-background="new 0 0 70 70" xml:space="preserve">
<g display="none">
	<path display="inline" fill="#0A9045" d="M47.314,16.421c-3.164,3.164-12.142,2.847-12.142,2.847s-8.977,0.317-12.141-2.847
		c-3.164-3.164-12.892-0.277-15.542,4.112c-2.649,4.39-8.226,18.508-6.96,32.349c1.266,13.843,7.75,9.412,13.051,5.063
		c5.299-4.352,7.038-8.146,21.592-8.146s16.293,3.797,21.593,8.146c5.299,4.35,11.784,8.779,13.049-5.063
		c1.269-13.841-4.311-27.959-6.957-32.349C60.206,16.144,50.479,13.257,47.314,16.421z M54.553,20.612
		c1.633,0,2.961,1.327,2.961,2.958c0,1.631-1.328,2.958-2.961,2.958c-1.63,0-2.957-1.327-2.957-2.958
		C51.596,21.938,52.923,20.612,54.553,20.612z M35.988,23.191l0.039,0.007c2.033,0.384,3.638,2.01,3.992,4.045
		c0.037,0.21-0.104,0.413-0.314,0.45c-0.021,0.004-0.045,0.006-0.066,0.006c-0.186,0-0.35-0.133-0.383-0.322
		c-0.3-1.719-1.652-3.091-3.367-3.415c-0.209-0.039-0.367-0.245-0.33-0.454C35.596,23.297,35.779,23.155,35.988,23.191z
		 M30.201,27.181c0.387-2.046,2.018-3.65,4.061-3.999c0.212-0.034,0.412,0.106,0.448,0.317c0.035,0.211-0.107,0.412-0.317,0.448
		c-1.724,0.296-3.102,1.649-3.427,3.37c-0.036,0.188-0.203,0.329-0.389,0.329c-0.021,0-0.044-0.002-0.067-0.006
		c-0.21-0.039-0.352-0.229-0.313-0.438l0.382,0.07L30.201,27.181z M10.09,27.326c0-2.871,2.336-5.208,5.208-5.208
		s5.208,2.336,5.208,5.208s-2.336,5.209-5.208,5.209S10.09,30.198,10.09,27.326z M25.372,47.029c-3.602,0-6.532-2.93-6.532-6.531
		c0-3.6,2.93-6.53,6.532-6.53c3.601,0,6.531,2.931,6.531,6.53C31.903,44.1,28.973,47.029,25.372,47.029z M34.262,33.012
		c-0.023,0-0.046-0.003-0.07-0.007l0.07-0.381l-0.077,0.38c-2.051-0.388-3.656-2.025-4.002-4.074
		c-0.036-0.211,0.107-0.413,0.319-0.447c0.21-0.039,0.412,0.107,0.447,0.318c0.292,1.73,1.646,3.111,3.371,3.439
		c0.211,0.039,0.354,0.243,0.317,0.454C34.603,32.88,34.444,33.012,34.262,33.012z M35.105,32.063c-2.185,0-3.964-1.777-3.964-3.963
		c0-2.185,1.777-3.963,3.964-3.963c2.185,0,3.961,1.778,3.961,3.963C39.066,30.286,37.29,32.063,35.105,32.063z M35.855,33.029
		c-0.187,0-0.352-0.136-0.383-0.325c-0.035-0.211,0.109-0.411,0.32-0.446c1.735-0.289,3.123-1.645,3.45-3.375
		c0.039-0.209,0.244-0.372,0.455-0.336c0.21,0.039,0.354,0.214,0.318,0.425c-0.002,0.004-0.013,0.061-0.014,0.064
		c-0.386,2.04-2.027,3.645-4.083,3.986C35.898,33.028,35.878,33.029,35.855,33.029z M43.08,44.705c-2.872,0-5.208-2.336-5.208-5.209
		c0-2.871,2.336-5.207,5.208-5.207s5.209,2.336,5.209,5.207C48.289,42.369,45.952,44.705,43.08,44.705z M49.434,31.649
		c-1.632,0-2.959-1.327-2.959-2.958s1.327-2.958,2.959-2.958c1.631,0,2.961,1.326,2.961,2.958
		C52.395,30.323,51.064,31.649,49.434,31.649z M54.553,36.77c-1.63,0-2.957-1.327-2.957-2.958c0-1.631,1.327-2.959,2.957-2.959
		c1.633,0,2.961,1.328,2.961,2.959S56.186,36.77,54.553,36.77z M59.675,31.649c-1.633,0-2.96-1.327-2.96-2.958
		s1.327-2.958,2.96-2.958c1.63,0,2.957,1.326,2.957,2.958C62.632,30.323,61.305,31.649,59.675,31.649z"/>
	<circle display="inline" fill="#56B94D" cx="59.675" cy="28.69" r="2.181"/>
	<path display="inline" fill="#56B94D" d="M43.08,35.843c-2.016,0-3.654,1.64-3.654,3.653c0,2.016,1.639,3.654,3.654,3.654
		s3.654-1.64,3.654-3.654C46.734,37.482,45.096,35.843,43.08,35.843z"/>
	<path display="inline" fill="#56B94D" d="M54.553,31.629c1.206,0,2.184,0.976,2.184,2.182c0,1.205-0.978,2.181-2.184,2.181
		c-1.203,0-2.181-0.976-2.181-2.181C52.372,32.605,53.35,31.629,54.553,31.629z"/>
	<circle display="inline" fill="#56B94D" cx="49.434" cy="28.69" r="2.181"/>
	<path display="inline" fill="#56B94D" d="M37.131,25.662c-0.423,0.2-1.104,0.531-1.169,0.896c0,0,1.823,1.775,1.72,3.4
		c0.379-0.525,0.608-1.163,0.608-1.857C38.29,27.117,37.833,26.248,37.131,25.662z"/>
	<path display="inline" fill="#56B94D" d="M35.075,27.357c-1.625,1.254-2.146,2.304-2.313,2.884
		c0.583,0.638,1.413,1.045,2.342,1.045c0.905,0,1.716-0.383,2.298-0.991C37.252,29.727,36.748,28.65,35.075,27.357z"/>
	<path display="inline" fill="#56B94D" d="M36.479,25.238c-0.418-0.201-0.881-0.324-1.374-0.324c-0.495,0-0.958,0.123-1.376,0.325
		c0.74,0.048,1.229,0.363,1.347,0.449C35.196,25.601,35.705,25.273,36.479,25.238z"/>
	<path display="inline" fill="#56B94D" d="M15.298,23.672c-2.016,0-3.655,1.64-3.655,3.654c0,2.016,1.639,3.655,3.655,3.655
		c2.015,0,3.654-1.64,3.654-3.655C18.952,25.312,17.313,23.672,15.298,23.672z"/>
	<path display="inline" fill="#56B94D" d="M33.056,25.68c-0.689,0.585-1.138,1.448-1.138,2.421c0,0.659,0.203,1.274,0.549,1.783
		c-0.046-1.605,1.722-3.326,1.722-3.326C34.125,26.204,33.481,25.883,33.056,25.68z"/>
	<path display="inline" fill="#56B94D" d="M54.553,21.388c1.206,0,2.184,0.978,2.184,2.183c0,1.204-0.978,2.182-2.184,2.182
		c-1.203,0-2.181-0.978-2.181-2.182C52.372,22.366,53.35,21.388,54.553,21.388z"/>
	<path display="inline" fill="#56B94D" d="M25.372,34.744c-3.173,0-5.754,2.582-5.754,5.754c0,3.174,2.582,5.754,5.754,5.754
		c3.173,0,5.754-2.58,5.754-5.754C31.126,37.325,28.545,34.744,25.372,34.744z M23.519,44.074v0.447
		c-0.957-0.441-1.729-1.215-2.17-2.17h0.448h0.44c0.313,0.529,0.753,0.969,1.283,1.281L23.519,44.074L23.519,44.074z M23.519,36.922
		v0.439c-0.53,0.313-0.969,0.755-1.283,1.283h-0.44h-0.448c0.441-0.957,1.214-1.729,2.171-2.172V36.922L23.519,36.922z
		 M27.225,44.521v-0.447v-0.439c0.529-0.313,0.969-0.753,1.283-1.281h0.44h0.448C28.953,43.309,28.182,44.08,27.225,44.521z
		 M28.948,38.646h-0.439c-0.314-0.529-0.754-0.97-1.283-1.285v-0.438v-0.446c0.957,0.441,1.729,1.215,2.171,2.17H28.948
		L28.948,38.646z"/>
</g>
<g>
	<path fill="#0093BD" d="M18.31,2h34.608c3.286,0,5.976,2.433,5.976,5.977v34.608c0,3.543-2.689,5.977-5.976,5.977H18.31
		c-3.287,0-5.976-2.434-5.976-5.977V7.977C12.333,4.434,15.022,2,18.31,2L18.31,2z M46.249,7.174c-1.149,0-2.095,0.942-2.095,2.095
		v5.018c0,1.154,0.945,2.096,2.095,2.096h5.265c1.153,0,2.096-0.942,2.096-2.096V9.269c0-1.153-0.942-2.095-2.096-2.095H46.249
		L46.249,7.174z M53.631,21.692h-4.097c0.387,1.266,0.597,2.606,0.597,3.994c0,7.744-6.479,14.023-14.473,14.023
		c-7.992,0-14.472-6.279-14.472-14.023c0-1.389,0.209-2.729,0.597-3.994h-4.275v19.667c0,1.019,0.832,1.853,1.851,1.853h32.422
		c1.02,0,1.852-0.834,1.852-1.853V21.692H53.631z M35.658,16.12c-5.165,0-9.352,4.057-9.352,9.06c0,5.006,4.188,9.061,9.352,9.061
		c5.164,0,9.352-4.054,9.352-9.061C45.01,20.175,40.822,16.12,35.658,16.12z"/>
</g>
<path fill="#0093BD" d="M11.101,58.196c0.468,0.288,1.151,0.528,1.871,0.528c1.067,0,1.691-0.564,1.691-1.38
	c0-0.755-0.432-1.188-1.523-1.606c-1.319-0.468-2.135-1.151-2.135-2.291c0-1.26,1.043-2.195,2.614-2.195
	c0.828,0,1.427,0.192,1.787,0.396L15.118,52.5c-0.264-0.145-0.803-0.384-1.535-0.384c-1.103,0-1.523,0.659-1.523,1.211
	c0,0.756,0.492,1.127,1.607,1.56c1.367,0.527,2.063,1.187,2.063,2.374c0,1.247-0.923,2.327-2.831,2.327
	c-0.779,0-1.631-0.229-2.063-0.516L11.101,58.196z"/>
<path fill="#0093BD" d="M17.125,50.952h1.056v3.622h0.024c0.168-0.3,0.432-0.563,0.755-0.743c0.312-0.18,0.684-0.3,1.08-0.3
	c0.779,0,2.027,0.479,2.027,2.482v3.454H21.01v-3.334c0-0.936-0.348-1.728-1.343-1.728c-0.684,0-1.223,0.48-1.415,1.056
	c-0.06,0.144-0.072,0.3-0.072,0.504v3.502h-1.056V50.952z"/>
<path fill="#0093BD" d="M29.037,56.518c0,2.146-1.487,3.082-2.89,3.082c-1.571,0-2.783-1.151-2.783-2.986
	c0-1.943,1.271-3.082,2.878-3.082C27.91,53.531,29.037,54.742,29.037,56.518z M24.432,56.577c0,1.271,0.732,2.231,1.763,2.231
	c1.007,0,1.763-0.948,1.763-2.255c0-0.983-0.492-2.231-1.739-2.231C24.972,54.322,24.432,55.474,24.432,56.577z"/>
<path fill="#0093BD" d="M35.626,56.518c0,2.146-1.487,3.082-2.891,3.082c-1.571,0-2.783-1.151-2.783-2.986
	c0-1.943,1.271-3.082,2.878-3.082C34.498,53.531,35.626,54.742,35.626,56.518z M31.02,56.577c0,1.271,0.732,2.231,1.763,2.231
	c1.008,0,1.763-0.948,1.763-2.255c0-0.983-0.491-2.231-1.738-2.231C31.56,54.322,31.02,55.474,31.02,56.577z"/>
<path fill="#0093BD" d="M38.231,51.996v1.667h1.512v0.804h-1.512v3.13c0,0.72,0.204,1.128,0.792,1.128
	c0.275,0,0.479-0.036,0.611-0.072l0.048,0.791c-0.203,0.084-0.527,0.145-0.936,0.145c-0.491,0-0.887-0.156-1.139-0.444
	c-0.3-0.312-0.408-0.827-0.408-1.511v-3.166h-0.899v-0.804H37.2v-1.392L38.231,51.996z"/>
<path fill="#0093BD" d="M44.747,51.996v1.667h1.512v0.804h-1.512v3.13c0,0.72,0.204,1.128,0.792,1.128
	c0.275,0,0.479-0.036,0.611-0.072l0.048,0.791c-0.203,0.084-0.527,0.145-0.936,0.145c-0.491,0-0.887-0.156-1.139-0.444
	c-0.3-0.312-0.408-0.827-0.408-1.511v-3.166h-0.899v-0.804h0.899v-1.392L44.747,51.996z"/>
<path fill="#0093BD" d="M47.448,50.952h1.055v3.622h0.024c0.168-0.3,0.432-0.563,0.756-0.743c0.312-0.18,0.684-0.3,1.079-0.3
	c0.779,0,2.026,0.479,2.026,2.482v3.454h-1.055v-3.334c0-0.936-0.349-1.728-1.344-1.728c-0.684,0-1.224,0.48-1.415,1.056
	c-0.06,0.144-0.072,0.3-0.072,0.504v3.502h-1.055V50.952z"/>
<path fill="#0093BD" d="M54.695,56.757c0.024,1.428,0.936,2.016,1.991,2.016c0.756,0,1.211-0.132,1.607-0.3l0.18,0.755
	c-0.372,0.168-1.008,0.36-1.931,0.36c-1.787,0-2.854-1.176-2.854-2.927s1.031-3.13,2.723-3.13c1.895,0,2.398,1.667,2.398,2.734
	c0,0.216-0.024,0.384-0.036,0.491H54.695z M57.79,56.002c0.012-0.672-0.276-1.715-1.463-1.715c-1.067,0-1.535,0.983-1.619,1.715
	H57.79z"/>
<path fill="#0093BD" d="M19.876,61.784h4.354v0.876h-3.31v2.687h3.058v0.863H20.92v3.658h-1.043V61.784z"/>
<path fill="#0093BD" d="M25.373,65.874c0-0.684-0.012-1.271-0.048-1.811h0.923l0.036,1.14h0.048c0.264-0.78,0.899-1.271,1.607-1.271
	c0.12,0,0.204,0.012,0.3,0.036v0.995c-0.108-0.024-0.216-0.036-0.36-0.036c-0.744,0-1.271,0.563-1.416,1.355
	c-0.024,0.144-0.048,0.312-0.048,0.491v3.095h-1.043V65.874z"/>
<path fill="#0093BD" d="M32.45,69.868l-0.084-0.731h-0.036C32.007,69.593,31.383,70,30.556,70c-1.175,0-1.775-0.827-1.775-1.667
	c0-1.403,1.247-2.171,3.49-2.159v-0.119c0-0.48-0.132-1.344-1.319-1.344c-0.54,0-1.103,0.168-1.511,0.432l-0.24-0.695
	c0.48-0.312,1.176-0.516,1.907-0.516c1.775,0,2.207,1.211,2.207,2.374v2.171c0,0.504,0.023,0.996,0.096,1.392H32.45z M32.295,66.906
	c-1.151-0.024-2.459,0.18-2.459,1.307c0,0.684,0.456,1.008,0.996,1.008c0.755,0,1.235-0.479,1.403-0.972
	c0.036-0.108,0.06-0.228,0.06-0.336V66.906z"/>
<path fill="#0093BD" d="M35.021,65.635c0-0.6-0.013-1.092-0.049-1.571h0.924l0.048,0.936h0.036c0.324-0.552,0.863-1.067,1.823-1.067
	c0.791,0,1.391,0.479,1.643,1.163h0.024c0.18-0.324,0.407-0.575,0.647-0.756c0.348-0.264,0.731-0.407,1.283-0.407
	c0.768,0,1.907,0.504,1.907,2.519v3.418h-1.031v-3.286c0-1.115-0.408-1.787-1.26-1.787c-0.6,0-1.067,0.443-1.247,0.96
	c-0.048,0.144-0.084,0.335-0.084,0.527v3.586h-1.031V66.39c0-0.923-0.408-1.595-1.212-1.595c-0.659,0-1.139,0.527-1.307,1.056
	c-0.061,0.155-0.084,0.336-0.084,0.516v3.502h-1.031V65.635z"/>
<path fill="#0093BD" d="M45.616,67.157c0.024,1.428,0.936,2.016,1.991,2.016c0.756,0,1.211-0.132,1.607-0.3l0.18,0.755
	c-0.372,0.168-1.008,0.36-1.931,0.36c-1.787,0-2.854-1.176-2.854-2.927s1.031-3.13,2.723-3.13c1.895,0,2.398,1.667,2.398,2.734
	c0,0.216-0.024,0.384-0.036,0.491H45.616z M48.711,66.402c0.012-0.672-0.276-1.715-1.463-1.715c-1.067,0-1.535,0.983-1.619,1.715
	H48.711z"/>
</svg>
