<?xml version="1.0" encoding="utf-8"?>
<!-- Generator: Adobe Illustrator 16.0.0, SVG Export Plug-In . SVG Version: 6.00 Build 0)  -->
<!DOCTYPE svg PUBLIC "-//W3C//DTD SVG 1.1//EN" "http://www.w3.org/Graphics/SVG/1.1/DTD/svg11.dtd">
<svg version="1.1" id="Layer_1" xmlns="http://www.w3.org/2000/svg" xmlns:xlink="http://www.w3.org/1999/xlink" x="0px" y="0px"
	 width="952px" height="418px" viewBox="0 0 952 418" enable-background="new 0 0 952 418" xml:space="preserve">
<linearGradient id="SVGID_1_" gradientUnits="userSpaceOnUse" x1="397.25" y1="414.3945" x2="397.25" y2="-308.5692" gradientTransform="matrix(1 0 0 -1 80 322)">
	<stop  offset="0" style="stop-color:#9EA0A3"/>
	<stop  offset="0.5699" style="stop-color:#FFFFFF"/>
	<stop  offset="1" style="stop-color:#9C9EA1"/>
</linearGradient>
<rect fill="url(#SVGID_1_)" width="954.5" height="418"/>
<g>
	<path d="M411.08,34.242v21.844c0,1.133-0.67,1.699-2.01,1.699c-1.313,0-1.969-0.566-1.969-1.699V34.242H396.2
		c-0.968,0-1.451-0.553-1.451-1.658c0-0.967,0.483-1.451,1.451-1.451h25.741c0.967,0,1.451,0.484,1.451,1.451
		c0,1.105-0.484,1.658-1.451,1.658H411.08z"/>
	<path d="M448.883,47.594c0,1.102-0.553,1.652-1.658,1.652h-21.679v2.508c0,1.81,1.879,2.714,5.637,2.714h4.021
		c1.05,0,1.575,0.504,1.575,1.512c0,1.065-0.525,1.597-1.575,1.597h-3.067c-6.854,0-10.28-2.082-10.28-6.246v-7.777
		c0-4.108,3.385-6.163,10.155-6.163h8.29c5.72,0,8.581,1.791,8.581,5.37V47.594z M425.546,46.138h19.772v-3.006
		c0-1.836-1.423-2.756-4.27-2.756h-9.865c-3.758,0-5.637,0.974-5.637,2.922V46.138z"/>
	<path d="M480.427,51.663c0,3.943-2.874,5.915-8.622,5.915h-10.777c-6.052,0-9.078-1.898-9.078-5.695v-2.661
		c0-3.936,2.957-5.903,8.87-5.903h16.041c-0.248-1.962-1.741-2.943-4.476-2.943h-4.477c-0.884,0-1.326-0.517-1.326-1.554
		c0-0.953,0.442-1.431,1.326-1.431h3.896c5.748,0,8.622,2.014,8.622,6.04V51.663z M476.903,46.428h-16.945
		c-2.879,0-4.319,0.908-4.319,2.722v2.763c0,1.705,1.536,2.557,4.61,2.557h12.21c2.962,0,4.444-1.292,4.444-3.876V46.428z"/>
	<path d="M522.374,56.13c0,1.104-0.622,1.655-1.865,1.655c-1.217,0-1.824-0.552-1.824-1.658v-12.85c0-1.934-1.989-2.902-5.969-2.902
		c-4.726,0-7.088,1.147-7.088,3.44v12.311c0,1.105-0.595,1.658-1.782,1.658c-1.271,0-1.907-0.552-1.907-1.658V43.816
		c0-2.293-2.355-3.44-7.065-3.44c-4.021,0-6.033,0.968-6.033,2.902v12.85c0,1.105-0.629,1.658-1.887,1.658
		c-1.201,0-1.802-0.551-1.802-1.655V43.762c0-4.247,3.232-6.371,9.699-6.371c4.809,0,7.819,1.106,9.036,3.316
		c1.299-2.21,4.241-3.316,8.829-3.316c6.438,0,9.658,2.124,9.658,6.371V56.13z"/>
	<path d="M551.803,52.189c0,3.593-2.569,5.389-7.709,5.389h-15.669c-1.077,0-1.616-0.504-1.616-1.512
		c0-1.064,0.539-1.597,1.616-1.597h16.29c2.211,0,3.316-0.768,3.316-2.304v-1.194c0-1.481-1.243-2.222-3.73-2.222h-8.705
		c-5.692,0-8.538-1.707-8.538-5.121v-1.322c0-3.276,2.721-4.915,8.165-4.915h4.312c1.077,0,1.616,0.491,1.616,1.472
		c0,1.009-0.539,1.513-1.616,1.513h-5.182c-2.404,0-3.606,0.636-3.606,1.907v1.244c0,1.492,1.421,2.238,4.261,2.238h8.854
		c5.295,0,7.942,1.741,7.942,5.223V52.189z"/>
</g>
</svg>
