<?xml version="1.0" encoding="utf-8"?>
<!-- Generator: Adobe Illustrator 16.0.0, SVG Export Plug-In . SVG Version: 6.00 Build 0)  -->
<!DOCTYPE svg PUBLIC "-//W3C//DTD SVG 1.1//EN" "http://www.w3.org/Graphics/SVG/1.1/DTD/svg11.dtd">
<svg version="1.1" id="Layer_1" xmlns="http://www.w3.org/2000/svg" xmlns:xlink="http://www.w3.org/1999/xlink" x="0px" y="0px"
	 width="952px" height="418px" viewBox="0 0 952 418" enable-background="new 0 0 952 418" xml:space="preserve">
<linearGradient id="SVGID_1_" gradientUnits="userSpaceOnUse" x1="396" y1="414.3945" x2="396" y2="-308.5692" gradientTransform="matrix(1 0 0 -1 80 322)">
	<stop  offset="0" style="stop-color:#9EA0A3"/>
	<stop  offset="0.5699" style="stop-color:#FFFFFF"/>
	<stop  offset="1" style="stop-color:#9C9EA1"/>
</linearGradient>
<rect fill="url(#SVGID_1_)" width="952" height="418"/>
<g display="none">
	<path display="inline" d="M398.57,39.965H421.8c0.909,0,1.364,0.538,1.364,1.612c0,1.048-0.455,1.571-1.364,1.571H398.57v4.984
		c0,2.271,2.135,3.406,6.406,3.406H421.8c0.964,0,1.447,0.503,1.447,1.509c0,1.061-0.482,1.591-1.447,1.591h-16.947
		c-6.834,0-10.25-2.122-10.25-6.365V34.757c0-4.326,3.541-6.489,10.623-6.489h4.589c0.909,0,1.363,0.524,1.363,1.571
		c0,1.02-0.455,1.529-1.363,1.529h-3.101c-5.429,0-8.143,1.13-8.143,3.389L398.57,39.965L398.57,39.965z"/>
	<path display="inline" d="M441.557,53.977c-0.469,0.579-0.95,0.868-1.446,0.868c-0.248,0.027-0.47-0.028-0.661-0.165
		c-0.193-0.138-0.4-0.344-0.62-0.62l-13.64-17.484c-0.248-0.248-0.372-0.579-0.372-0.992c0-0.44,0.186-0.819,0.558-1.137
		c0.372-0.316,0.792-0.475,1.261-0.475c0.496,0,0.923,0.221,1.282,0.661l12.276,16.038l12.233-16.12
		c0.275-0.331,0.662-0.496,1.158-0.496c0.468,0,0.936,0.145,1.405,0.434c0.468,0.289,0.703,0.655,0.703,1.095
		c0,0.304-0.139,0.634-0.414,0.992L441.557,53.977z"/>
	<path display="inline" d="M484.709,44.683c0,1.099-0.552,1.647-1.653,1.647h-21.616v2.501c0,1.804,1.873,2.707,5.62,2.707h4.01
		c1.047,0,1.57,0.503,1.57,1.508c0,1.062-0.523,1.592-1.57,1.592h-3.06c-6.834,0-10.25-2.076-10.25-6.229v-7.755
		c0-4.097,3.375-6.146,10.126-6.146h8.268c5.704,0,8.556,1.785,8.556,5.354V44.683z M461.438,43.23h19.717v-2.997
		c0-1.832-1.42-2.748-4.258-2.748h-9.837c-3.747,0-5.62,0.971-5.62,2.914v2.831H461.438z"/>
	<path display="inline" d="M515.254,53.195c0,1.101-0.613,1.65-1.84,1.65c-1.228,0-1.838-0.551-1.838-1.653V39.965
		c0-1.653-1.664-2.48-4.99-2.48h-9.199c-3.354,0-5.031,0.827-5.031,2.48v13.227c0,1.103-0.612,1.653-1.84,1.653
		c-1.227,0-1.839-0.549-1.839-1.65v-13.2c0-3.657,3.231-5.486,9.698-5.486h7.098c6.521,0,9.781,1.829,9.781,5.486V53.195
		L515.254,53.195z"/>
	<path display="inline" d="M524.72,37.485v15.707c0,1.103-0.6,1.653-1.798,1.653c-1.254,0-1.881-0.551-1.881-1.653V37.485h-1.797
		c-1.007,0-1.51-0.516-1.51-1.549c0-0.951,0.503-1.427,1.51-1.427h1.797v-4.826c0-1.081,0.641-1.622,1.922-1.622
		c1.171,0,1.757,0.541,1.757,1.622v4.826h7.315c1.02,0,1.529,0.49,1.529,1.467c0,1.006-0.511,1.509-1.529,1.509H524.72z"/>
	<path display="inline" d="M561.133,49.265c0,3.583-2.563,5.374-7.688,5.374h-15.624c-1.074,0-1.612-0.502-1.612-1.508
		c0-1.062,0.538-1.592,1.612-1.592h16.244c2.203,0,3.307-0.766,3.307-2.298v-1.19c0-1.477-1.24-2.216-3.72-2.216h-8.682
		c-5.677,0-8.515-1.702-8.515-5.106V39.41c0-3.267,2.714-4.901,8.143-4.901h4.3c1.074,0,1.611,0.49,1.611,1.467
		c0,1.006-0.537,1.509-1.611,1.509h-5.167c-2.396,0-3.597,0.634-3.597,1.901v1.24c0,1.488,1.416,2.232,4.249,2.232h8.828
		c5.28,0,7.92,1.736,7.92,5.208L561.133,49.265L561.133,49.265z"/>
</g>
<g display="none">
	<path display="inline" d="M406.137,37.152c0,3.806-3.022,5.709-9.068,5.709h-8.695l15.039,6.605
		c0.622,0.298,0.933,0.722,0.933,1.269c0,0.423-0.144,0.821-0.429,1.194c-0.286,0.373-0.666,0.56-1.138,0.56
		c-0.224,0-0.448-0.075-0.672-0.224l-20.636-9.625v8.319c0,1.02-0.585,1.529-1.754,1.529c-1.219,0-1.829-0.51-1.829-1.53V29.614
		c0-0.746,0.385-1.12,1.157-1.12h17.203c6.592,0,9.889,2.028,9.889,6.083V37.152z M402.629,34.404c0-2.073-1.953-3.111-5.858-3.111
		h-15.3v8.77h15.934c3.483,0,5.224-0.85,5.224-2.549V34.404z"/>
	<path display="inline" d="M433.564,43.315c0,0.992-0.498,1.487-1.493,1.487h-19.517v2.258c0,1.629,1.691,2.443,5.075,2.443h3.62
		c0.945,0,1.418,0.454,1.418,1.361c0,0.959-0.473,1.438-1.418,1.438h-2.761c-6.17,0-9.255-1.874-9.255-5.623v-7.001
		c0-3.699,3.047-5.549,9.143-5.549h7.463c5.15,0,7.725,1.612,7.725,4.834V43.315z M412.555,42.003h17.8v-2.706
		c0-1.654-1.281-2.481-3.843-2.481h-8.881c-3.384,0-5.075,0.877-5.075,2.631V42.003z"/>
	<path display="inline" d="M461.254,52.042c0,3.632-3.012,5.448-9.031,5.448h-2.761c-0.97,0-1.456-0.448-1.456-1.343
		s0.485-1.344,1.456-1.344h3.172c3.558,0,5.335-0.759,5.335-2.276v-0.224h-11.381c-6.443,0-9.665-1.824-9.665-5.475v-7.187
		c0-3.675,2.936-5.512,8.807-5.512h5.934c6.394,0,9.591,1.85,9.591,5.549V52.042z M457.857,49.542v-9.703
		c0-2.015-1.754-3.022-5.262-3.022h-7.463c-3.26,0-4.889,0.908-4.889,2.724v7.239c0,1.841,1.89,2.762,5.672,2.762H457.857z"/>
	<path display="inline" d="M469.762,31.48c0,1.145-0.771,1.717-2.313,1.717c-1.443,0-2.164-0.572-2.164-1.717
		c0-1.169,0.721-1.754,2.164-1.754C468.99,29.726,469.762,30.311,469.762,31.48z M469.202,50.997c0,0.996-0.548,1.493-1.642,1.493
		c-1.045,0-1.567-0.497-1.567-1.493V36.555c0-0.945,0.497-1.418,1.492-1.418c1.145,0,1.717,0.473,1.717,1.418V50.997z"/>
	<path display="inline" d="M495.995,47.452c0,3.234-2.313,4.851-6.941,4.851h-14.105c-0.97,0-1.455-0.454-1.455-1.361
		c0-0.958,0.485-1.438,1.455-1.438h14.666c1.989,0,2.985-0.691,2.985-2.075v-1.074c0-1.333-1.12-2-3.359-2h-7.836
		c-5.125,0-7.688-1.537-7.688-4.61v-1.19c0-2.949,2.45-4.424,7.352-4.424h3.881c0.971,0,1.455,0.442,1.455,1.325
		c0,0.909-0.484,1.362-1.455,1.362h-4.664c-2.165,0-3.247,0.573-3.247,1.716v1.12c0,1.343,1.278,2.015,3.836,2.015h7.97
		c4.768,0,7.151,1.567,7.151,4.702V47.452z"/>
	<path display="inline" d="M502.973,36.816v14.18c0,0.996-0.541,1.493-1.622,1.493c-1.133,0-1.698-0.497-1.698-1.493v-14.18h-1.622
		c-0.909,0-1.363-0.466-1.363-1.399c0-0.858,0.454-1.288,1.363-1.288h1.622v-4.356c0-0.976,0.578-1.465,1.735-1.465
		c1.057,0,1.585,0.489,1.585,1.465v4.356h6.605c0.92,0,1.381,0.442,1.381,1.325c0,0.909-0.461,1.362-1.381,1.362H502.973z"/>
	<path display="inline" d="M536.894,43.315c0,0.992-0.498,1.487-1.493,1.487h-19.516v2.258c0,1.629,1.691,2.443,5.074,2.443h3.62
		c0.945,0,1.418,0.454,1.418,1.361c0,0.959-0.473,1.438-1.418,1.438h-2.762c-6.17,0-9.254-1.874-9.254-5.623v-7.001
		c0-3.699,3.047-5.549,9.143-5.549h7.463c5.149,0,7.725,1.612,7.725,4.834V43.315z M515.885,42.003h17.8v-2.706
		c0-1.654-1.282-2.481-3.844-2.481h-8.882c-3.383,0-5.074,0.877-5.074,2.631V42.003z"/>
	<path display="inline" d="M548.537,36.816c-3.16,0-4.739,0.933-4.739,2.799v11.381c0,0.996-0.561,1.493-1.68,1.493
		c-1.095,0-1.642-0.496-1.642-1.49V39.642c0-3.675,2.799-5.512,8.396-5.512h1.53c0.821,0,1.231,0.442,1.231,1.325
		c0,0.909-0.349,1.362-1.045,1.362H548.537z"/>
</g>
<g display="none">
	<path display="inline" d="M428.488,51.182c-6.646,0-9.967-1.84-9.967-5.522V30.843c0-0.875,0.533-1.313,1.599-1.313
		c1.089,0,1.633,0.439,1.633,1.315v14.842c0,1.979,2.2,2.969,6.6,2.969h12.526c0.808,0,1.212,0.443,1.212,1.329
		c0,0.797-0.404,1.196-1.212,1.196H428.488z"/>
	<path display="inline" d="M466,46.208c0,3.316-2.582,4.974-7.745,4.974h-6.027c-5.275,0-7.913-1.658-7.913-4.974v-6.351
		c0-3.382,2.671-5.074,8.014-5.074h5.926c5.163,0,7.745,1.681,7.745,5.041V46.208z M462.935,39.558c0-1.567-1.403-2.35-4.209-2.35
		h-6.836c-3.053,0-4.579,0.873-4.579,2.619v6.346c0,1.656,1.526,2.484,4.579,2.484h6.836c2.806,0,4.209-0.828,4.209-2.484V39.558z"
		/>
	<path display="inline" d="M491.658,50.946c0,3.277-2.717,4.917-8.148,4.917h-2.492c-0.875,0-1.314-0.404-1.314-1.212
		s0.439-1.212,1.314-1.212h2.861c3.211,0,4.816-0.685,4.816-2.054v-0.202h-10.271c-5.814,0-8.721-1.646-8.721-4.94v-6.485
		c0-3.315,2.648-4.974,7.947-4.974h5.354c5.77,0,8.654,1.669,8.654,5.007V50.946z M488.594,48.69v-8.755
		c0-1.818-1.582-2.728-4.748-2.728h-6.734c-2.941,0-4.412,0.819-4.412,2.458v6.533c0,1.661,1.707,2.492,5.119,2.492H488.594z"/>
	<path display="inline" d="M499.336,32.392c0,1.033-0.696,1.549-2.088,1.549c-1.302,0-1.953-0.516-1.953-1.549
		c0-1.055,0.651-1.583,1.953-1.583C498.64,30.81,499.336,31.337,499.336,32.392z M498.831,50.003c0,0.898-0.494,1.347-1.482,1.347
		c-0.942,0-1.414-0.449-1.414-1.347V36.972c0-0.853,0.449-1.28,1.347-1.28c1.033,0,1.55,0.427,1.55,1.28V50.003z"/>
	<path display="inline" d="M524.792,50.006c0,0.896-0.5,1.344-1.498,1.344c-0.999,0-1.499-0.449-1.499-1.347V39.228
		c0-1.347-1.354-2.02-4.065-2.02h-7.493c-2.732,0-4.099,0.673-4.099,2.02v10.775c0,0.898-0.5,1.347-1.499,1.347
		s-1.498-0.448-1.498-1.344V39.252c0-2.979,2.633-4.47,7.901-4.47h5.782c5.313,0,7.968,1.49,7.968,4.47V50.006z"/>
</g>
<g>
	<path d="M351.032,39.334l-9.477,21.51c-0.235,0.5-0.581,0.896-1.036,1.19c-0.456,0.294-0.978,0.441-1.565,0.441
		c-0.559,0-1.073-0.147-1.542-0.441c-0.47-0.293-0.837-0.734-1.102-1.322L325.379,36.69c-0.029-0.117-0.051-0.235-0.066-0.353
		c-0.015-0.117-0.022-0.25-0.022-0.397c0-0.558,0.227-1.006,0.683-1.344c0.455-0.337,0.962-0.507,1.521-0.507
		c0.852,0,1.425,0.368,1.719,1.102l9.829,22.611l9.212-21.818c0.265-0.617,0.639-1.072,1.124-1.367
		c0.485-0.293,1.021-0.44,1.609-0.44c0.499,0,0.977,0.14,1.433,0.418c0.455,0.28,0.8,0.669,1.036,1.168l9.433,22.039l9.564-22.611
		c0.323-0.764,0.94-1.146,1.851-1.146c0.5,0,0.984,0.184,1.455,0.551c0.47,0.368,0.705,0.815,0.705,1.344
		c0,0.236-0.044,0.5-0.132,0.793l-10.975,23.934c-0.236,0.588-0.595,1.036-1.08,1.345s-1.007,0.463-1.565,0.463
		c-0.5,0-1.007-0.139-1.521-0.419c-0.514-0.279-0.889-0.712-1.124-1.3L351.032,39.334z"/>
	<path d="M405.291,55.876c0,4.34-3.379,6.51-10.138,6.51h-7.89c-6.906,0-10.358-2.17-10.358-6.51v-8.313
		c0-4.428,3.497-6.642,10.49-6.642h7.757c6.758,0,10.138,2.2,10.138,6.598V55.876z M401.28,47.171c0-2.051-1.837-3.077-5.51-3.077
		h-8.948c-3.996,0-5.994,1.143-5.994,3.428v8.307c0,2.168,1.998,3.252,5.994,3.252h8.948c3.673,0,5.51-1.084,5.51-3.252V47.171z"/>
	<path d="M419.88,44.095c-3.732,0-5.598,1.102-5.598,3.306v13.444c0,1.175-0.661,1.763-1.983,1.763
		c-1.293,0-1.939-0.586-1.939-1.759V47.432c0-4.34,3.306-6.51,9.917-6.51h1.808c0.97,0,1.454,0.522,1.454,1.564
		c0,1.073-0.411,1.609-1.233,1.609H419.88z"/>
	<path d="M434.072,51.279l16.133,8.11c0.265,0.147,0.477,0.353,0.639,0.617c0.161,0.265,0.242,0.485,0.242,0.661
		c0,0.5-0.198,0.948-0.595,1.345c-0.396,0.396-0.845,0.595-1.344,0.595c-0.265,0-0.573-0.088-0.926-0.264l-17.058-8.815v7.317
		c0,1.175-0.64,1.763-1.917,1.763c-1.338,0-2.006-0.587-2.006-1.763v-25.08c0-1.146,0.668-1.719,2.006-1.719
		c1.277,0,1.917,0.573,1.917,1.719v13.399l17.366-8.331c0.234-0.146,0.47-0.22,0.705-0.22c0.47,0,0.896,0.191,1.278,0.573
		c0.381,0.382,0.572,0.779,0.572,1.19c0,0.235-0.081,0.478-0.242,0.727c-0.162,0.25-0.404,0.448-0.728,0.595L434.072,51.279z"/>
	<path d="M480.971,56.657c0,3.82-2.733,5.73-8.199,5.73h-16.66c-1.146,0-1.72-0.536-1.72-1.608c0-1.132,0.573-1.698,1.72-1.698
		h17.321c2.351,0,3.526-0.817,3.526-2.451v-1.269c0-1.575-1.322-2.363-3.967-2.363h-9.256c-6.054,0-9.08-1.815-9.08-5.446v-1.406
		c0-3.483,2.895-5.226,8.684-5.226h4.584c1.146,0,1.719,0.522,1.719,1.564c0,1.073-0.573,1.609-1.719,1.609h-5.51
		c-2.557,0-3.835,0.676-3.835,2.028v1.322c0,1.586,1.511,2.38,4.531,2.38h9.414c5.631,0,8.446,1.852,8.446,5.554V56.657z"/>
	<path d="M514.336,60.848c0,1.173-0.654,1.759-1.961,1.759c-1.308,0-1.962-0.587-1.962-1.763V47.753
		c0-2.439-2.189-3.659-6.567-3.659h-14.28v16.75c0,1.175-0.661,1.763-1.983,1.763c-1.294,0-1.939-0.587-1.939-1.763v-25.08
		c0-1.146,0.646-1.719,1.939-1.719c1.322,0,1.983,0.577,1.983,1.73v5.146h13.022c7.832,0,11.748,2.258,11.748,6.774V60.848z"/>
	<path d="M547.79,55.876c0,4.34-3.379,6.51-10.138,6.51h-7.89c-6.905,0-10.358-2.17-10.358-6.51v-8.313
		c0-4.428,3.497-6.642,10.49-6.642h7.758c6.759,0,10.138,2.2,10.138,6.598V55.876z M543.779,47.171c0-2.051-1.837-3.077-5.51-3.077
		h-8.947c-3.997,0-5.995,1.143-5.995,3.428v8.307c0,2.168,1.998,3.252,5.995,3.252h8.947c3.673,0,5.51-1.084,5.51-3.252V47.171z"/>
	<path d="M581.509,55.92c0,4.312-3.251,6.466-9.751,6.466h-14.977v4.849c0,1.205-0.669,1.807-2.006,1.807
		c-1.278,0-1.917-0.602-1.917-1.805V47.126c0-4.136,3.433-6.205,10.298-6.205h7.525c7.218,0,10.827,2.039,10.827,6.114V55.92z
		 M577.586,47.083c0-1.992-2.082-2.988-6.246-2.988h-8.576c-3.988,0-5.982,1.025-5.982,3.077v11.91h15.658
		c3.431,0,5.146-1.055,5.146-3.164V47.083z"/>
	<path d="M612.583,56.657c0,3.82-2.733,5.73-8.199,5.73h-16.66c-1.146,0-1.72-0.536-1.72-1.608c0-1.132,0.573-1.698,1.72-1.698
		h17.321c2.351,0,3.526-0.817,3.526-2.451v-1.269c0-1.575-1.322-2.363-3.967-2.363h-9.256c-6.054,0-9.08-1.815-9.08-5.446v-1.406
		c0-3.483,2.895-5.226,8.684-5.226h4.584c1.146,0,1.719,0.522,1.719,1.564c0,1.073-0.573,1.609-1.719,1.609h-5.51
		c-2.557,0-3.835,0.676-3.835,2.028v1.322c0,1.586,1.511,2.38,4.531,2.38h9.414c5.631,0,8.446,1.852,8.446,5.554V56.657z"/>
</g>
</svg>
