<?xml version="1.0" encoding="utf-8"?>
<!-- Generator: Adobe Illustrator 16.0.0, SVG Export Plug-In . SVG Version: 6.00 Build 0)  -->
<!DOCTYPE svg PUBLIC "-//W3C//DTD SVG 1.1//EN" "http://www.w3.org/Graphics/SVG/1.1/DTD/svg11.dtd">
<svg version="1.1" id="Layer_1" xmlns="http://www.w3.org/2000/svg" xmlns:xlink="http://www.w3.org/1999/xlink" x="0px" y="0px"
	 width="744px" height="700px" viewBox="0 0 744 700" enable-background="new 0 0 744 700" xml:space="preserve">
<g id="window-domain">
	<path id="label" fill="#394145" d="M372.004,700.314C178.528,700.314,21.686,543.479,21.686,350
		c0-193.468,156.842-350.314,350.318-350.314c193.469,0,350.311,156.846,350.311,350.314
		C722.314,543.479,565.473,700.314,372.004,700.314z"/>
	<g id="icon">
		<g>
			<g>
				<path fill="#FC6220" d="M258.338,283.984c-23.009,0-41.667,18.65-41.667,41.668c0,23.005,18.659,41.656,41.667,41.656
					c23.006,0,41.664-18.651,41.664-41.656C300.002,302.634,281.344,283.984,258.338,283.984z M256.376,343.652l-2.957,3.208
					l-2.838-3.305l-16.08-18.706l5.238-5.659l13.034,9.597l28.486-23.404l5.311,5.633L256.376,343.652z"/>
			</g>
			<g>
				<path fill="#0099CC" d="M347.818,346.622l-7.46-28.163h-0.161l-7.137,28.163h-11.934l-13.306-41.958h12.171l7.71,28.481h0.158
					l6.979-28.481h11.195l7.154,28.396h0.157l7.706-28.396h11.845l-13.225,41.958H347.818z"/>
				<path fill="#0099CC" d="M413.873,346.622l-7.453-28.163h-0.17l-7.137,28.163h-11.93l-13.311-41.958h12.18l7.699,28.481h0.17
					l6.975-28.481h11.199l7.137,28.396h0.162l7.707-28.396h11.844l-13.213,41.958H413.873z"/>
				<path fill="#0099CC" d="M479.934,346.622l-7.469-28.163h-0.16l-7.139,28.163h-11.938l-13.307-41.958h12.176l7.699,28.481h0.178
					l6.977-28.481h11.199l7.139,28.396h0.16l7.705-28.396h11.863l-13.23,41.958H479.934z"/>
				<path fill="#FC6220" d="M518.629,334.123v12.499H505.9v-12.499H518.629z"/>
			</g>
		</g>
		<path fill="#FFFFFF" d="M433.855,485.668H318.122v-20.291h115.733V485.668z M318.423,488.318l-5.035,10.791
			c0,0,0.527,3.16,2.63,3.16c2.104,0,118.899,0,120.989,0c2.125,0,2.125-3.16,2.125-3.16l-5.039-10.791H318.423z M561.402,208.269
			v210.733v4.943v24.65c0,6.492-4.742,11.818-10.521,11.818H193.143c-5.799,0-10.532-5.326-10.532-11.818v-24.65v-4.943V208.269
			c0-5.799,4.732-10.527,10.532-10.527h357.738C556.66,197.741,561.402,202.469,561.402,208.269z M539.395,223.928H203.768v189.5
			h335.626V223.928z"/>
	</g>
</g>
</svg>
