<?xml version="1.0" encoding="utf-8"?>
<!-- Generator: Adobe Illustrator 16.0.0, SVG Export Plug-In . SVG Version: 6.00 Build 0)  -->
<!DOCTYPE svg PUBLIC "-//W3C//DTD SVG 1.1//EN" "http://www.w3.org/Graphics/SVG/1.1/DTD/svg11.dtd">
<svg version="1.1" id="Layer_1" xmlns="http://www.w3.org/2000/svg" xmlns:xlink="http://www.w3.org/1999/xlink" x="0px" y="0px"
	 width="280px" height="100px" viewBox="0 0 280 100" enable-background="new 0 0 280 100" xml:space="preserve">
<g enable-background="new    ">
	<path fill="#FFFFFF" d="M102.643,47.593c0.663-0.612,1.437-0.919,2.321-0.919c0.608,0,1.133,0.141,1.576,0.425
		c0.441,0.283,0.662,0.659,0.662,1.132c0,0.565-0.33,1.132-0.993,1.697h0.082l-7.378,7.282l-2.653,2.546h0.083
		c-1.107,1.084-2.183,2.146-3.232,3.184c-1.049,1.037-2.129,2.121-3.232,3.252v1.271c0.498-0.093,0.981-0.15,1.45-0.177
		c0.469-0.022,1.008-0.034,1.616-0.034c1.327,0,2.666,0.082,4.021,0.245c1.354,0.166,2.695,0.459,4.021,0.886
		c1.049,0.331,2.224,0.803,3.523,1.415c1.298,0.614,2.515,1.321,3.648,2.122c1.132,0.803,2.072,1.709,2.818,2.725
		c0.746,1.018,1.118,2.11,1.118,3.291c0,0.752-0.277,1.401-0.829,1.942c-0.552,0.542-1.244,0.813-2.074,0.813
		c-0.497,0-0.925-0.144-1.285-0.424c-0.359-0.283-0.538-0.758-0.538-1.416c0-0.851-0.346-1.662-1.037-2.439
		c-0.693-0.776-1.548-1.473-2.57-2.087c-1.022-0.611-2.113-1.13-3.276-1.556c-1.159-0.425-2.183-0.729-3.066-0.918
		c-0.939-0.235-1.895-0.395-2.862-0.459c-0.966-0.074-1.921-0.105-2.86-0.105c-0.222,0-0.429,0-0.623,0
		c-0.194,0-0.429,0.021-0.704,0.07h-0.58c0,1.13-0.015,2.05-0.042,2.759c-0.027,0.708-0.041,1.379-0.041,2.016
		c0,0.636,0,1.335,0,2.085c0,0.758,0,1.723,0,2.899c-0.111,0.659-0.47,1.2-1.078,1.624c-0.61,0.425-1.216,0.636-1.824,0.636
		c-0.497,0-0.925-0.151-1.285-0.457c-0.36-0.31-0.539-0.793-0.539-1.45v-9.121c-0.278,0.047-0.637,0.069-1.079,0.069
		c-0.995,0-1.728-0.188-2.198-0.565c-0.468-0.375-0.705-0.821-0.705-1.344c0-0.563,0.345-1.244,1.036-2.049
		c0.69-0.801,1.395-1.577,2.115-2.333l0.994-0.921c0-1.416,0.014-2.99,0.042-4.737c0.027-1.743,0.054-3.511,0.083-5.302
		c0.027-1.791,0.041-3.561,0.041-5.303s0-3.299,0-4.666c0-0.66,0.305-1.25,0.913-1.771c0.608-0.518,1.216-0.778,1.824-0.778
		c1.104,0,1.769,0.543,1.989,1.626c0,1.179-0.015,2.57-0.041,4.17c-0.028,1.603-0.042,3.229-0.042,4.878v6.999l5.39-5.373
		L102.643,47.593z"/>
	<path fill="#FFFFFF" d="M115.742,58.197c0-0.658,0.318-1.248,0.953-1.77c0.634-0.519,1.256-0.777,1.865-0.777
		c1.05,0,1.685,0.543,1.906,1.627c0,0.52,0.014,1.072,0.042,1.66c0.027,0.59,0.041,1.166,0.041,1.731
		c0.055,2.026,0.11,4.089,0.166,6.187c0.054,2.099,0.247,4.185,0.579,6.258c0.112-0.374,0.277-0.789,0.498-1.237
		c0.22-0.446,0.386-0.858,0.498-1.237c0.44-1.226,0.924-2.498,1.452-3.82c0.525-1.318,1.063-2.512,1.617-3.569
		c0.552-1.063,1.121-1.933,1.7-2.617c0.581-0.681,1.201-1.022,1.866-1.022c0.55,0,1.076,0.224,1.574,0.672
		c0.498,0.451,0.965,1.037,1.41,1.77c0.44,0.73,0.87,1.566,1.284,2.51c0.414,0.944,0.841,1.935,1.286,2.972
		c0.608,1.368,1.202,2.696,1.783,3.995c0.58,1.298,1.174,2.369,1.783,3.218v-0.073c0.33,0.331,0.499,0.709,0.499,1.13
		c0,0.569-0.264,1.085-0.79,1.562c-0.524,0.47-1.118,0.707-1.781,0.707c-0.554,0-1.149-0.377-1.783-1.133
		c-0.635-0.756-1.272-1.694-1.908-2.824c-0.637-1.133-1.257-2.356-1.865-3.678c-0.61-1.32-1.162-2.545-1.659-3.677l-0.662,2.12
		c-0.61,1.979-1.298,3.901-2.074,5.764c-0.772,1.861-1.878,3.475-3.316,4.846v-0.073c-0.277,0.239-0.567,0.459-0.871,0.674
		c-0.305,0.211-0.677,0.318-1.118,0.318c-0.331,0-0.775-0.118-1.327-0.354c-0.553-0.234-1.133-0.638-1.742-1.203
		c-0.443-0.424-0.773-1.316-0.994-2.687c-0.222-1.369-0.403-2.921-0.54-4.668c-0.137-1.744-0.22-3.546-0.248-5.408
		c-0.029-1.86-0.041-3.474-0.041-4.843c0-0.707-0.015-1.333-0.042-1.875C115.755,58.823,115.742,58.436,115.742,58.197z"/>
	<path fill="#FFFFFF" d="M148.736,60.814c0.994,0.188,1.947,0.52,2.858,0.986c0.913,0.473,1.728,1.036,2.442,1.696
		c0.721,0.66,1.3,1.399,1.744,2.228c0.438,0.823,0.66,1.688,0.66,2.582c0,0.803-0.262,1.692-0.791,2.688
		c-0.522,0.988-1.271,1.921-2.235,2.791c-0.97,0.874-2.104,1.603-3.399,2.193c-1.302,0.588-2.727,0.884-4.271,0.884
		c-1.935,0-3.371-0.496-4.312-1.482c-0.938-0.989-1.411-2.31-1.411-3.96c0-1.462,0.291-3.005,0.872-4.633
		c0.582-1.625,1.092-2.98,1.533-4.064c0.055-0.802,0.428-1.39,1.119-1.771c0.689-0.373,1.479-0.566,2.36-0.566
		c0.61,0,1.133,0.05,1.577,0.146c0.438,0.096,0.884,0.188,1.326,0.281h-0.082L148.736,60.814L148.736,60.814z M148.652,65.27
		c-0.441-0.093-0.827-0.188-1.158-0.281c-0.332-0.094-0.721-0.143-1.161-0.143c-0.222,0-0.415,0.188-0.581,0.563
		c-0.166,0.379-0.291,0.842-0.375,1.38c-0.081,0.543-0.15,1.12-0.204,1.732c-0.058,0.613-0.084,1.131-0.084,1.556
		c0,1.038,0.097,1.709,0.288,2.017c0.193,0.307,0.622,0.456,1.286,0.456c1.437,0,2.653-0.436,3.646-1.307
		c0.998-0.872,1.495-1.825,1.495-2.863c0-0.61-0.235-1.188-0.706-1.731c-0.469-0.541-1.285-0.979-2.445-1.307v-0.068V65.27
		L148.652,65.27z"/>
	<path fill="#FFFFFF" d="M175.268,61.592c0,0.662-0.291,1.249-0.871,1.771c-0.584,0.52-1.179,0.773-1.782,0.773
		c-0.608,0-1.052-0.149-1.327-0.458c-0.276-0.308-0.555-0.646-0.829-1.022c-0.276-0.376-0.522-0.721-0.745-1.026
		c-0.221-0.306-0.525-0.46-0.913-0.46c-0.774,0-1.563,0.318-2.36,0.954c-0.801,0.634-1.2,1.308-1.2,2.015
		c0,0.236,0.022,0.354,0.083,0.354c0.109,0.377,0.591,0.858,1.449,1.448c0.854,0.593,1.863,1.264,3.025,2.016
		c0.993,0.566,1.986,1.178,2.984,1.84c0.994,0.66,1.895,1.342,2.693,2.049s1.449,1.416,1.946,2.122s0.745,1.415,0.745,2.119
		c0,0.944-0.279,1.757-0.827,2.44c-0.553,0.682-1.257,1.248-2.114,1.695c-0.856,0.446-1.797,0.773-2.819,0.986
		s-1.979,0.316-2.859,0.316c-1.604,0-3.134-0.279-4.603-0.849c-1.465-0.563-2.775-1.306-3.938-2.228
		c-1.156-0.922-2.111-1.979-2.857-3.18c-0.744-1.205-1.227-2.416-1.448-3.645c0-0.661,0.265-1.273,0.788-1.839
		c0.525-0.563,1.119-0.849,1.785-0.849c0.328,0,0.676,0.084,1.033,0.248c0.359,0.168,0.678,0.414,0.952,0.743
		c0.164,0.85,0.521,1.724,1.079,2.616c0.553,0.896,1.213,1.725,1.986,2.475c0.773,0.76,1.645,1.371,2.611,1.843
		c0.97,0.47,1.92,0.704,2.857,0.704c0.168,0,0.439-0.021,0.829-0.071c0.387-0.047,0.772-0.129,1.161-0.246
		c0.385-0.119,0.729-0.272,1.033-0.46c0.306-0.188,0.459-0.4,0.459-0.635c0-0.521-0.557-1.133-1.658-1.838
		c-1.107-0.709-2.293-1.463-3.563-2.265c-0.501-0.327-0.995-0.646-1.495-0.952c-0.496-0.308-0.967-0.625-1.408-0.953l-0.996-0.707
		c-0.771-0.521-1.545-1.118-2.317-1.806c-0.772-0.681-1.159-1.425-1.159-2.227c0-1.226,0.262-2.347,0.786-3.356
		c0.525-1.016,1.215-1.888,2.074-2.615c0.854-0.729,1.813-1.297,2.858-1.696c1.047-0.399,2.1-0.601,3.147-0.601
		c1.326,0,2.502,0.316,3.522,0.952c1.021,0.638,1.758,1.662,2.201,3.076V61.592l-0.006-0.001v-0.005h0.006V61.592L175.268,61.592z"
		/>
	<path fill="#FFFFFF" d="M179.245,63.288c0-0.661,0.264-1.238,0.788-1.731c0.525-0.496,1.145-0.742,1.865-0.742
		c0.717,0,1.382,0.33,1.985,0.987c0.224,0.565,0.539,1.345,0.951,2.333c0.417,0.99,0.89,2.016,1.412,3.076
		c0.521,1.063,1.075,2.075,1.655,3.039c0.582,0.971,1.147,1.689,1.701,2.158c0.389-0.285,0.746-0.825,1.082-1.626
		c0.328-0.804,0.621-1.722,0.867-2.761c0.246-1.035,0.469-2.072,0.663-3.112c0.195-1.034,0.371-1.91,0.537-2.615l0.168-1.063h-0.084
		c0.167-0.518,0.552-0.963,1.16-1.343c0.606-0.375,1.159-0.563,1.658-0.563c0.497,0,0.896,0.225,1.2,0.673
		c0.304,0.449,0.551,1,0.744,1.661c0.195,0.663,0.332,1.403,0.416,2.229c0.082,0.824,0.15,1.593,0.207,2.3c0,0.235,0,0.459,0,0.67
		c0,0.213,0.022,0.438,0.084,0.675c0.055,0.423,0.096,0.919,0.125,1.481c0.022,0.565,0.094,1.111,0.202,1.629
		c0.168,1.506,0.331,3.17,0.502,4.983c0.162,1.815,0.246,3.667,0.246,5.55c0,2.074-0.181,4.172-0.536,6.294
		c-0.361,2.121-1.023,4.03-1.99,5.726c-0.967,1.699-2.309,3.078-4.021,4.14c-1.715,1.063-3.925,1.593-6.631,1.593
		c-1.214,0-2.486-0.117-3.813-0.354c-1.328-0.235-2.543-0.635-3.646-1.204c-1.104-0.563-2.018-1.308-2.735-2.224
		c-0.717-0.922-1.077-2.064-1.077-3.433c0-0.521,0.178-1.024,0.534-1.521c0.363-0.492,0.792-0.932,1.287-1.309
		c0.498-0.375,0.983-0.668,1.45-0.883c0.47-0.215,0.844-0.318,1.117-0.318c0.552,0,1.007,0.151,1.369,0.459
		c0.357,0.308,0.537,0.719,0.537,1.237c0,0.236-0.139,0.661-0.416,1.274l-1.158,1.131c0.22,0.941,0.965,1.686,2.238,2.229
		c1.271,0.538,2.682,0.811,4.228,0.811c1.714,0,3.137-0.376,4.271-1.133c1.131-0.756,2.002-1.756,2.609-3.004
		c0.605-1.246,1.036-2.677,1.288-4.274c0.248-1.604,0.371-3.254,0.371-4.952c0-1.369-0.056-2.688-0.166-3.96
		c-0.109-1.272-0.222-2.476-0.33-3.604c-0.663,1.035-1.38,1.873-2.157,2.511c-0.771,0.636-1.604,0.954-2.486,0.954
		c-1.047,0-2.086-0.506-3.106-1.521c-1.024-1.015-1.99-2.236-2.903-3.675c-0.91-1.438-1.74-2.946-2.488-4.526
		c-0.746-1.574-1.338-2.953-1.78-4.136L179.245,63.288L179.245,63.288z"/>
	<path fill="#FFFFFF" d="M221.441,61.592c0,0.662-0.291,1.249-0.873,1.771c-0.578,0.52-1.172,0.773-1.782,0.773
		c-0.608,0-1.052-0.149-1.325-0.458c-0.277-0.308-0.555-0.646-0.831-1.022c-0.274-0.376-0.522-0.721-0.745-1.026
		c-0.217-0.306-0.523-0.46-0.91-0.46c-0.774,0-1.563,0.318-2.363,0.954c-0.803,0.634-1.199,1.308-1.199,2.015
		c0,0.236,0.025,0.354,0.081,0.354c0.11,0.377,0.594,0.858,1.45,1.448c0.855,0.593,1.865,1.264,3.026,2.016
		c0.992,0.566,1.987,1.178,2.983,1.84c0.995,0.66,1.893,1.342,2.695,2.049c0.797,0.707,1.449,1.416,1.942,2.122
		c0.501,0.706,0.749,1.415,0.749,2.119c0,0.944-0.279,1.757-0.831,2.44c-0.552,0.682-1.256,1.248-2.11,1.695
		c-0.858,0.446-1.799,0.773-2.821,0.986c-1.021,0.213-1.978,0.316-2.86,0.316c-1.601,0-3.136-0.279-4.6-0.849
		c-1.467-0.563-2.778-1.306-3.939-2.228c-1.158-0.922-2.113-1.979-2.856-3.18c-0.745-1.205-1.229-2.416-1.45-3.645
		c0-0.661,0.265-1.273,0.788-1.839c0.524-0.563,1.116-0.849,1.782-0.849c0.33,0,0.678,0.084,1.035,0.248
		c0.36,0.168,0.676,0.414,0.951,0.743c0.166,0.85,0.524,1.724,1.081,2.616c0.554,0.896,1.212,1.725,1.985,2.475
		c0.775,0.76,1.645,1.371,2.615,1.843c0.966,0.47,1.92,0.704,2.858,0.704c0.165,0,0.438-0.021,0.827-0.071
		c0.391-0.047,0.773-0.129,1.16-0.246c0.387-0.119,0.729-0.272,1.033-0.46c0.306-0.188,0.459-0.4,0.459-0.635
		c0-0.521-0.553-1.133-1.658-1.838c-1.105-0.709-2.296-1.463-3.563-2.265c-0.5-0.327-0.996-0.646-1.496-0.952
		c-0.496-0.308-0.967-0.625-1.407-0.953l-0.993-0.707c-0.775-0.521-1.549-1.118-2.321-1.806c-0.774-0.681-1.159-1.425-1.159-2.227
		c0-1.226,0.262-2.347,0.791-3.356c0.521-1.016,1.211-1.888,2.072-2.615c0.854-0.729,1.811-1.297,2.857-1.696
		c1.051-0.399,2.103-0.601,3.15-0.601c1.325,0,2.502,0.316,3.521,0.952c1.021,0.638,1.755,1.662,2.197,3.076v0.419l0,0v0.001h-0.004
		v-0.001L221.441,61.592L221.441,61.592z"/>
	<path fill="#FFFFFF" d="M229.15,48.229c0-0.66,0.316-1.25,0.953-1.768c0.633-0.518,1.256-0.779,1.862-0.779
		c1.05,0,1.688,0.52,1.907,1.556v7.849c0,1.272,0.018,2.569,0.043,3.89c0.021,1.32,0.039,2.614,0.039,3.89
		c-0.112,0.659-0.471,1.2-1.079,1.626c-0.606,0.422-1.215,0.635-1.819,0.635c-0.445,0-0.857-0.15-1.244-0.461
		c-0.388-0.307-0.582-0.79-0.582-1.447c0-1.227-0.018-2.465-0.041-3.713c-0.027-1.247-0.041-2.509-0.041-3.781v-7.496v0.003h0.002
		V48.229z"/>
</g>
<g>
	<path fill="#00C6B2" d="M246.229,45.259c0.168-0.519,0.537-0.966,1.119-1.344c0.579-0.376,1.146-0.566,1.699-0.566
		c0.994,0,1.602,0.543,1.823,1.627c0,2.828-0.019,5.668-0.043,8.519c-0.028,2.853-0.069,5.692-0.12,8.519l-0.168,17.184
		c-0.114,0.66-0.471,1.203-1.081,1.628c-0.608,0.423-1.214,0.634-1.824,0.634c-1.272,0-1.905-0.634-1.905-1.911
		c0-2.638,0.026-5.268,0.082-7.883c0.055-2.618,0.11-5.244,0.168-7.888c0.055-2.494,0.096-4.971,0.123-7.422
		c0.023-2.448,0.041-4.927,0.041-7.423v-3.464L246.229,45.259z"/>
	<path fill="#00C6B2" d="M264.053,45.259c0.606-0.519,1.271-0.778,1.99-0.778c0.552,0,1.008,0.153,1.37,0.459
		c0.356,0.307,0.538,0.719,0.538,1.238c0,0.188-0.041,0.364-0.125,0.53s-0.18,0.39-0.289,0.672
		c-1.105,1.037-2.073,2.299-2.902,3.783c-0.826,1.483-1.561,3.052-2.195,4.702c-0.637,1.65-1.136,3.348-1.496,5.09
		c-0.356,1.745-0.563,3.395-0.62,4.951c1.495-0.942,3.206-1.732,5.142-2.371c1.936-0.635,3.95-0.951,6.049-0.951
		c0.889,0,1.771,0.07,2.652,0.213c0.885,0.141,1.674,0.423,2.361,0.85c0.691,0.425,1.259,1,1.699,1.731
		c0.439,0.728,0.664,1.659,0.664,2.792c0,1.273-0.5,2.615-1.494,4.03c-0.996,1.413-2.209,2.711-3.646,3.888
		c-1.438,1.178-2.983,2.154-4.644,2.936c-1.658,0.776-3.178,1.166-4.56,1.166c-1.159,0-2.296-0.222-3.401-0.67
		s-2.073-1.155-2.9-2.121c-0.829-0.967-1.494-2.168-1.989-3.604c-0.498-1.438-0.748-3.146-0.748-5.127
		c0-1.838,0.168-3.815,0.501-5.938c0.331-2.119,0.842-4.229,1.533-6.326c0.689-2.1,1.576-4.113,2.652-6.047
		C261.275,48.417,262.559,46.721,264.053,45.259z M272.758,66.895c-0.609-0.328-1.302-0.494-2.072-0.494
		c-0.775,0-1.631,0.144-2.57,0.426c-0.938,0.279-1.879,0.661-2.819,1.129c-0.938,0.473-1.837,0.979-2.692,1.521
		c-0.854,0.543-1.59,1.097-2.194,1.661c0.051,0.521,0.206,1.063,0.454,1.625c0.248,0.566,0.566,1.085,0.951,1.556
		c0.39,0.474,0.813,0.86,1.287,1.17c0.467,0.307,0.95,0.457,1.448,0.457c0.938,0,1.961-0.223,3.067-0.67
		c1.104-0.45,2.124-1.016,3.066-1.695c0.938-0.684,1.726-1.438,2.361-2.266c0.633-0.824,0.952-1.639,0.952-2.439
		C274.001,68.121,273.587,67.46,272.758,66.895z"/>
</g>
<path fill="#00C6B2" d="M23.782,95.916h34.896c0,0-1.212-1.046-2.031-4.971c0,0-0.582-3.223-0.667-3.976
	c0,0-0.329-3.603-0.309-4.055c0,0,0.288-2.742,0.329-3.258c0,0,0.467-3.083,0.626-3.578c0,0,1.195-4.188,1.714-4.965
	c0,0,1.195-2.618,1.503-3.021c0,0,2.002-3.411,2.054-3.514c0,0,1.705-2.978,1.979-3.632c0,0,1.24-3.008,1.313-3.346
	c0,0,0.805-2.871,0.849-3.464c0,0,0.028-3.54,0-4.172c0-0.016,0-0.028,0-0.042c-0.032-0.488-0.191-3.378-0.382-4.256
	c0,0-0.666-3.271-0.857-3.813c0,0-1.47-3.916-1.642-4.162c0,0-2.031-3.506-2.351-3.96c0,0-2.902-3.505-3.26-3.758
	c0,0-2.7-2.319-3.739-2.976c0,0-2.661-1.718-4.081-2.228c-0.017-0.006-0.031-0.013-0.047-0.018c-1.409-0.486-3.42-1.133-5.062-1.482
	c0,0-4.998-0.603-5.802-0.677c0,0-6.342-0.031-7.104,0c0,0-4.543,0.37-5.886,0.889c0,0-4.533,1.619-5.516,2.182
	c0,0-4.099,2.489-4.331,2.742c0,0-3.038,2.67-3.791,3.929c0,0-1.673,2.646-2.032,3.706c0,0-1.664,4.533-1.726,5.113
	c0,0-1.006,3.167-1.249,3.706c0,0-0.498,2.042-0.498,3.377c0,0-0.021,1.218,0.899,2.966c0,0,0.614,1.979-0.273,2.931
	c0,0-2.562,3.292-2.659,3.633c0,0-2.063,3.301-2.234,3.492c0,0-1.557,1.813-1.397,2.86c0,0-0.17,0.825,0.634,1.479
	c0,0,1.228,1.094,2.371,1.363c0,0,1.441,0,1.62,0.895c0,0,0.296,1.494-0.603,2.34c0,0-0.266,0.613,0.295,1.501
	c0,0,0.466,0.686,1.132,1.092c0,0,0.319,0.229,0.34,0.349c0,0-0.026,0.168-0.271,0.313c0,0-0.862,0.822-0.301,1.773
	c0,0,0.498,0.633,0.604,0.817c0,0,0.81,1.01,0.726,1.785c0,0-0.79,3.37-0.494,4.056c0,0,0.085,2.024,1.705,3.305
	c0,0,1.948,1.31,3.843,1.438c0,0,4.193,0.306,4.722,0.243c0,0,3.433-0.085,4.75,1.515c0.02,0.021,0.04,0.048,0.057,0.071
	c0,0,1.01,0.677,0.897,2.172c-0.114,1.501,0.184,2.614,0.268,3.489C23.315,94.121,23.486,95.35,23.782,95.916z"/>
<path fill="#FFFFFF" d="M18.043,35.319c0,0,5.787-4.122,6.101-4.177c0,0,6.309-2.485,6.674-2.373c0,0,2.667-0.501,3.03-0.515
	c0,0,2.385,0.021,2.71,0.085c0,0,3.767,0.337,3.8,0.388c0,0,3.8,0.536,4.1,0.621c0.302,0.084,3.624,0.981,3.71,1.073
	c0,0,2.885,1.687,3.644,2.342c0,0,2.117,1.81,2.273,2.033c0,0,1.812,1.666,2.243,2.21c0,0,2.502,4.051,3.148,5.511
	c0,0,1.349,3.729,1.31,6.015c0,0-0.097,3.938-0.409,5.168c0,0-0.743,2.772-2.621,4.297c0,0-1.8,1.481-3.324,2.204
	c0,0-2.991,1.566-3.324,2.117c0,0-0.919,0.553-2.073,2.351c0,0-2.287,2.015-3.147,2.459c0,0-1.915,1.229-4.203,0.55
	c0,0-3.167-1.249-4.341-1.97c0,0-2.875-1.565-4.654-1.479c0,0-1.29-0.317-2.621,0.146c0,0-3.677,0.146-5.729-1.564
	c0,0-2.073-1.821-2.483-2.925c0,0-1.485-2.476-3.071-2.881c0,0-3.597-0.846-4.302-3.049c0,0-1.486-2.33-1.583-4.32
	c0,0-0.352-3.093,0-4.766c0,0,0.918-4.806,2.131-6.182C15.033,38.688,17.224,36.081,18.043,35.319z"/>
<path fill="#FFFFFF" d="M65.15,12.298c0.051-2.095,0.118-4.121,0.208-6.086l1.703-0.578c2.505,4.44,5.067,9.153,7.683,14.14
	c0.069-0.968,0.119-2.093,0.149-3.376c0.007-0.188,0.02-0.594,0.028-1.214c0-0.502,0.009-0.901,0.032-1.199
	c0.039-1.055,0.042-2.621,0.014-4.691c-0.041-2.124-0.041-3.682,0-4.68h2.707c0.081,1.708,0.114,4.841,0.105,9.397
	c0,0.604-0.014,1.423-0.045,2.46c-0.029,0.997-0.087,2.215-0.178,3.657c-0.166,2.695-0.495,4.573-0.977,5.626l-1.821,0.104
	l-6.752-13.753L67.99,12.36c-0.126,5.754-0.394,10.545-0.796,14.374l-1.897-0.041C65.073,22.845,65.025,18.051,65.15,12.298z"/>
<path fill="#00C6B2" d="M82.77,25.784c-0.207,0-0.518-0.006-0.933-0.016c-0.405-0.013-0.708-0.015-0.918-0.015
	c-0.246-3.809-0.321-8.57-0.221-14.285c0.04-2.082,0.1-4.095,0.179-6.042c0.305,0,0.744,0.005,1.319,0.016
	c0.602,0.011,1.044,0.02,1.332,0.028c0.011,1.956-0.003,3.969-0.042,6.042C83.381,17.226,83.144,21.983,82.77,25.784z"/>
<path fill="#FFFFFF" d="M93.58,25.933c-0.22-0.013-0.537-0.016-0.949-0.016c-0.424,0-0.739,0-0.947,0
	c-0.296-3.78-0.435-8.506-0.417-14.181c0.012-1.443,0.031-2.847,0.061-4.221c-0.532,0.039-1.074,0.074-1.628,0.104
	c-1.5,0.1-2.956,0.164-4.365,0.191c-0.01-0.147-0.038-0.596-0.089-1.345c-0.028-0.543-0.053-0.993-0.073-1.35
	c1.412-0.125,2.865-0.236,4.368-0.326c4.126-0.247,7.569-0.297,10.332-0.147c0.02,0.216,0.039,0.531,0.059,0.946
	c0.029,0.424,0.049,0.74,0.054,0.949c-1.744,0.307-3.708,0.557-5.889,0.753c0.018,1.462,0.021,2.942,0.013,4.442
	C94.088,17.418,93.912,22.15,93.58,25.933z"/>
<path fill="#FFFFFF" d="M110.912,25.8c-0.216,0-0.535-0.006-0.946-0.016c-0.426-0.011-0.744-0.016-0.948-0.016
	c-0.226-3.841-0.278-8.636-0.15-14.388c0.029-1.175,0.064-2.325,0.105-3.447c-0.565,0.136-1.139,0.291-1.731,0.458l-0.756-2.622
	c3.239-1.013,5.981-1.441,8.235-1.272c0.472,0.027,0.937,0.086,1.389,0.176c1.292,0.297,2.34,0.804,3.14,1.526
	c0.771,0.78,1.221,1.708,1.348,2.782c0.067,0.988-0.135,1.993-0.61,3.021c-0.484,0.967-1.166,1.882-2.042,2.739
	c-1.837,1.627-3.994,2.759-6.47,3.391C111.349,20.933,111.161,23.491,110.912,25.8z M111.577,15.967
	c1.766-0.718,3.29-1.732,4.575-3.034c0.63-0.669,1.1-1.352,1.406-2.044c0.247-0.601,0.344-1.14,0.295-1.611
	c-0.056-0.405-0.237-0.75-0.531-1.036c-0.406-0.354-0.999-0.618-1.775-0.785c-0.087-0.049-0.43-0.095-1.023-0.133
	c-0.828-0.058-1.746-0.024-2.752,0.104c-0.009,1.313-0.03,2.649-0.057,4.011C111.673,13.096,111.629,14.606,111.577,15.967z"/>
<path fill="#FFFFFF" d="M121.749,13.29l2.414,0.296c-0.374,3.317-0.472,5.839-0.282,7.564c0.071,0.602,0.172,1.106,0.308,1.509
	c0.08,0.236,0.167,0.417,0.267,0.547c0.07,0.088,0.136,0.153,0.207,0.192c0.147,0.08,0.389,0.111,0.726,0.103
	c0.365-0.019,0.738-0.127,1.109-0.324c0.437-0.238,0.839-0.577,1.213-1.02c0.76-0.928,1.311-2.079,1.642-3.451l-0.013-1.613
	c-0.011-1.194,0.005-2.353,0.045-3.478h2.442c0.049,1.115,0.074,2.275,0.074,3.478c0.018,3.288-0.113,6.023-0.402,8.215h-1.701
	c-0.08-0.59-0.149-1.217-0.207-1.865l-0.088,0.121c-0.521,0.699-1.129,1.262-1.823,1.687c-0.681,0.396-1.388,0.627-2.131,0.695
	c-0.772,0.071-1.454-0.04-2.057-0.324c-0.377-0.21-0.714-0.483-1.008-0.831c-0.273-0.347-0.508-0.766-0.696-1.26
	c-0.218-0.58-0.377-1.282-0.472-2.104C121.109,19.515,121.257,16.804,121.749,13.29z"/>
<path fill="#FFFFFF" d="M136.287,16.339c0.236-0.256,0.488-0.493,0.753-0.709c1.097-0.879,2.3-1.407,3.614-1.584
	c0.729-0.058,1.421-0.028,2.076,0.089l0.018-1.082c0.027-1.846,0.082-3.635,0.164-5.374l1.229,0.013l1.207,0.03
	c0.019,1.738,0,3.533-0.023,5.389c-0.098,5.083-0.328,9.317-0.684,12.703l-0.854-0.017l-0.854-0.015
	c-0.086-1.401-0.154-2.889-0.189-4.457c-0.895,1.185-1.793,2.22-2.694,3.109c-0.613,0.554-1.197,0.988-1.732,1.305
	c-0.575,0.313-1.122,0.515-1.644,0.591c-0.594,0.049-1.137-0.057-1.628-0.325c-0.438-0.277-0.782-0.673-1.036-1.185
	c-0.354-0.811-0.457-1.808-0.308-2.989c0.156-1.108,0.512-2.195,1.052-3.272C135.168,17.731,135.683,16.99,136.287,16.339z
	 M138.686,17.598c-0.073,0.029-0.243,0.198-0.521,0.504c-0.443,0.475-0.833,1.022-1.17,1.642c-0.411,0.82-0.688,1.639-0.828,2.458
	c-0.098,0.69-0.082,1.223,0.058,1.599c0,0.009,0.012,0.034,0.029,0.074c0.019,0.031,0.027,0.051,0.027,0.062
	c0,0.01,0.021,0.016,0.058,0.016h0.074c0.196-0.011,0.457-0.094,0.771-0.25c0.406-0.218,0.858-0.534,1.363-0.951
	c1.214-0.999,2.594-2.447,4.143-4.353c-0.014-0.552-0.014-1.119,0-1.701c-0.563-0.148-1.145-0.193-1.742-0.135
	C140.141,16.69,139.386,17.035,138.686,17.598z"/>
<path fill="#FFFFFF" d="M148.059,13.29l2.409,0.296c-0.374,3.317-0.467,5.839-0.278,7.564c0.067,0.602,0.168,1.106,0.313,1.509
	c0.079,0.236,0.169,0.417,0.264,0.547c0.064,0.088,0.135,0.153,0.203,0.192c0.152,0.08,0.389,0.111,0.729,0.103
	c0.359-0.019,0.738-0.127,1.111-0.324c0.434-0.238,0.838-0.577,1.209-1.02c0.76-0.928,1.31-2.079,1.643-3.451l-0.014-1.613
	c-0.013-1.194,0.004-2.353,0.043-3.478h2.441c0.053,1.115,0.072,2.275,0.072,3.478c0.021,3.288-0.11,6.023-0.4,8.215H156.1
	c-0.082-0.59-0.146-1.217-0.203-1.865l-0.088,0.121c-0.522,0.699-1.134,1.262-1.815,1.687c-0.687,0.396-1.396,0.627-2.14,0.695
	c-0.769,0.071-1.448-0.04-2.056-0.324c-0.371-0.21-0.714-0.483-1.006-0.831c-0.274-0.347-0.509-0.766-0.694-1.26
	c-0.218-0.58-0.38-1.282-0.475-2.104C147.42,19.515,147.563,16.804,148.059,13.29z"/>
<path fill="#FFFFFF" d="M162.771,18.217c-0.237,0.809-0.321,1.633-0.252,2.472c0.084,0.789,0.279,1.451,0.592,1.982
	c0.137,0.229,0.291,0.407,0.462,0.534c0.157,0.119,0.331,0.195,0.515,0.238c0.209,0.049,0.451,0.044,0.729-0.019
	c0.345-0.085,0.718-0.258,1.127-0.517c1.026-0.66,2.137-1.755,3.33-3.286c0.149,0.108,0.386,0.276,0.713,0.502
	c0.313,0.22,0.561,0.386,0.726,0.504c-1.167,1.805-2.338,3.174-3.511,4.102c-0.578,0.412-1.168,0.717-1.744,0.902
	c-0.591,0.178-1.18,0.231-1.75,0.161c-0.552-0.086-1.066-0.297-1.538-0.622c-0.423-0.298-0.789-0.675-1.104-1.141
	c-0.567-0.858-0.93-1.884-1.082-3.077c-0.123-1.175-0.025-2.335,0.283-3.479c0.332-1.104,0.854-2.072,1.564-2.901
	c0.18-0.207,0.26-0.296,0.252-0.267c0.979-0.948,2.152-1.545,3.54-1.791c1.499-0.197,3.142,0.019,4.928,0.65
	c-0.088,0.258-0.229,0.651-0.43,1.185c-0.179,0.514-0.313,0.902-0.407,1.17c-1.396-0.455-2.611-0.601-3.656-0.445
	c-0.828,0.157-1.527,0.518-2.106,1.082c-0.011,0-0.056,0.054-0.146,0.163C163.337,16.847,162.998,17.478,162.771,18.217z"/>
<path fill="#FFFFFF" d="M175.074,16.31c0.205-0.375,0.434-0.745,0.68-1.111c0.65-0.907,1.333-1.599,2.043-2.072
	c0.43-0.257,0.854-0.43,1.283-0.518c0.521-0.079,1.014-0.035,1.49,0.134c0.453,0.188,0.854,0.489,1.211,0.902
	c0.313,0.377,0.584,0.84,0.82,1.392c0.119,0.216,0.277,0.74,0.457,1.57c0.457,2.171,0.502,5.245,0.147,9.224
	c-0.272-0.018-0.692-0.055-1.237-0.104c-0.557-0.038-0.969-0.067-1.242-0.087c0.252-3.721,0.18-6.549-0.234-8.484
	c-0.09-0.443-0.192-0.83-0.332-1.154c-0.109-0.295-0.23-0.524-0.354-0.682c-0.025-0.02-0.084-0.074-0.188-0.162
	c0.012,0.011-0.018,0.003-0.086-0.014c-0.107,0.019-0.24,0.074-0.387,0.163c-0.434,0.269-0.895,0.715-1.377,1.346
	c-0.523,0.711-1.01,1.551-1.48,2.516c-0.957,2.112-1.559,4.238-1.795,6.383l-0.028,0.312c-0.187-0.011-0.471-0.021-0.87-0.029
	c-0.387,0-0.678-0.005-0.871-0.014c-0.22-3.565-0.278-8.02-0.182-13.369c0.037-1.943,0.1-3.831,0.182-5.654
	c0.276,0.01,0.688,0.021,1.239,0.03c0.552,0.01,0.966,0.021,1.239,0.029c0.015,1.815,0,3.701-0.029,5.655
	C175.146,13.887,175.111,15.155,175.074,16.31z"/>
<path fill="#FFFFFF" d="M185.748,16.339c0.564-0.918,1.268-1.66,2.113-2.22c0.97-0.592,2.047-0.917,3.244-0.977h0.041
	c0.475,0.019,0.937,0.122,1.396,0.31c0.418,0.197,0.803,0.46,1.14,0.784c0.019,0.011,0.063,0.06,0.129,0.147
	c0.299,0.328,0.521,0.683,0.67,1.067c0.188,0.515,0.24,1.039,0.158,1.584c-0.097,0.553-0.332,1.076-0.709,1.569
	c-0.39,0.473-0.885,0.908-1.494,1.301c-1.306,0.761-3.062,1.347-5.271,1.76c0.109,0.522,0.3,0.967,0.563,1.333
	c0.273,0.364,0.621,0.611,1.037,0.739c0.53,0.129,1.168,0.063,1.905-0.192c0.96-0.333,2.006-0.955,3.151-1.864l0.56,0.652
	l0.568,0.637c-1.226,1.123-2.407,1.946-3.538,2.47c-1.115,0.445-2.154,0.583-3.124,0.414c-0.927-0.215-1.715-0.694-2.358-1.433
	c-0.535-0.691-0.908-1.519-1.123-2.476C184.47,19.985,184.782,18.114,185.748,16.339z M191.093,17.744
	c0.363-0.237,0.636-0.473,0.813-0.709c0.119-0.148,0.188-0.286,0.205-0.413c0.01-0.078,0-0.163-0.03-0.252
	c-0.01-0.058-0.063-0.149-0.158-0.268l-0.048-0.044c-0.107-0.098-0.225-0.183-0.366-0.252c-0.127-0.05-0.248-0.08-0.354-0.089
	h-0.017c-0.716,0.031-1.352,0.213-1.912,0.548c-0.523,0.333-0.959,0.79-1.334,1.364c-0.287,0.502-0.498,1.012-0.635,1.526
	C188.869,18.787,190.143,18.319,191.093,17.744z"/>
<path fill="#FFFFFF" d="M199.366,17.153c0.128-0.177,0.26-0.358,0.389-0.533c0.427-0.535,0.89-1.012,1.392-1.437
	c0.41-0.355,0.847-0.662,1.281-0.917c1.118-0.612,2.297-0.938,3.539-0.977c0.012,0.277,0.028,0.689,0.059,1.242
	c0.02,0.554,0.039,0.968,0.051,1.244c-0.819,0.079-1.594,0.329-2.329,0.756c-0.149,0.039-0.454,0.256-0.919,0.65
	c-0.367,0.316-0.721,0.671-1.057,1.066c-1.142,1.461-2.006,3.232-2.588,5.314c-0.181,0.683-0.317,1.363-0.416,2.045v0.028h-0.162
	h-0.023l-0.162-0.013h-0.025h-0.164h-0.025h-0.167h-0.029h-0.157h-0.028l-0.163-0.019h-0.027h-0.164h-0.027h-0.158h-0.028h-0.164
	h-0.013h-0.034c-0.246-2.376-0.333-5.345-0.261-8.898c0.021-1.293,0.063-2.547,0.133-3.761c0.273,0,0.689,0.005,1.238,0.016
	c0.554,0.008,0.967,0.018,1.242,0.028c0.021,1.214,0.021,2.466,0,3.761L199.366,17.153z"/>
<path fill="#FFFFFF" d="M209.609,17.153c0.133-0.177,0.261-0.358,0.386-0.533c0.43-0.535,0.894-1.012,1.394-1.437
	c0.414-0.355,0.851-0.662,1.291-0.917c1.114-0.612,2.29-0.938,3.537-0.977c0.01,0.277,0.028,0.689,0.059,1.242
	c0.02,0.554,0.033,0.968,0.041,1.244c-0.816,0.079-1.59,0.329-2.32,0.756c-0.151,0.039-0.457,0.256-0.92,0.65
	c-0.367,0.316-0.719,0.671-1.057,1.066c-1.145,1.461-2.01,3.232-2.594,5.314c-0.18,0.683-0.316,1.363-0.41,2.045v0.028h-0.162
	h-0.026l-0.163-0.013h-0.028h-0.157h-0.031h-0.159h-0.03h-0.162h-0.024l-0.162-0.019h-0.028h-0.162h-0.031h-0.156h-0.028h-0.163
	h-0.015h-0.031c-0.245-2.376-0.332-5.345-0.263-8.898c0.021-1.293,0.063-2.547,0.135-3.761c0.273,0,0.689,0.005,1.24,0.016
	c0.554,0.008,0.963,0.018,1.238,0.028c0.021,1.214,0.021,2.466,0,3.761L209.609,17.153z"/>
<path fill="#FFFFFF" d="M217.589,13.688l1.241,0.104l1.238,0.105c-0.271,3.78-0.271,6.604,0,8.466
	c0.088,0.543,0.19,0.981,0.31,1.318l0.086,0.204c0.101-0.081,0.228-0.186,0.372-0.325c0.919-0.965,1.835-2.507,2.749-4.617
	c0.833-2.015,1.319-3.825,1.483-5.435h1.305l1.236,0.016c0.043,2.182,0.056,4.432,0.05,6.751c0,0.137-0.028,2.323-0.089,6.557
	c0,0.077-0.004,0.121-0.018,0.134c-0.121,1.076-0.337,2.039-0.664,2.886c-0.356,0.876-0.822,1.63-1.392,2.265
	c-0.604,0.623-1.306,1.102-2.104,1.436c-0.809,0.306-1.692,0.47-2.646,0.488l-0.059-0.875l-0.057-0.873
	c0.739-0.108,1.377-0.303,1.939-0.591c0.488-0.266,0.914-0.616,1.271-1.05c0.334-0.444,0.606-0.978,0.815-1.603
	c0.208-0.649,0.347-1.395,0.416-2.233c-0.021-0.256-0.037-2.048-0.052-5.375c-0.683,1.568-1.472,2.862-2.361,3.878
	c-0.338,0.355-0.684,0.637-1.021,0.844c-0.46,0.269-0.916,0.397-1.383,0.391c-0.273-0.013-0.54-0.065-0.802-0.166
	c-0.245-0.119-0.472-0.271-0.681-0.46c-0.332-0.327-0.614-0.754-0.83-1.288c-0.195-0.523-0.354-1.156-0.471-1.896
	C217.182,20.696,217.216,17.676,217.589,13.688z"/>
</svg>
