<?xml version="1.0" encoding="utf-8"?>
<!-- Generator: Adobe Illustrator 16.0.0, SVG Export Plug-In . SVG Version: 6.00 Build 0)  -->
<!DOCTYPE svg PUBLIC "-//W3C//DTD SVG 1.1//EN" "http://www.w3.org/Graphics/SVG/1.1/DTD/svg11.dtd">
<svg version="1.1" id="Layer_1" xmlns="http://www.w3.org/2000/svg" xmlns:xlink="http://www.w3.org/1999/xlink" x="0px" y="0px"
	 width="1366px" height="1420px" viewBox="0 0 1366 1420" enable-background="new 0 0 1366 1420" xml:space="preserve">
<rect x="-52.578" y="-43.841" fill="#14334E" width="1471.156" height="1507.683"/>
<g opacity="0.3">
	<g id="_x33_3" opacity="0.6">
		<path fill="#FFFFFF" d="M1345.395,893.473l-26.163-3.1c-2.497-11.896-7.191-22.979-13.637-32.852l16.325-20.711
			c1.168-1.457,1.04-3.734-0.301-5.06l-18.516-18.526c-1.329-1.323-3.608-1.47-5.095-0.307l-20.7,16.33
			c-9.855-6.434-20.938-11.144-32.852-13.631l-3.075-26.162c-0.237-1.855-1.937-3.388-3.821-3.388h-26.189
			c-1.88,0-3.585,1.531-3.811,3.388l-3.1,26.162c-11.9,2.487-23,7.197-32.834,13.631l-20.718-16.33
			c-1.468-1.163-3.745-1.018-5.082,0.307l-18.503,18.526c-1.341,1.324-1.491,3.603-0.313,5.076l16.313,20.692
			c-6.428,9.875-11.127,20.955-13.625,32.853l-26.157,3.1c-1.861,0.213-3.389,1.942-3.389,3.811v26.196
			c0,1.867,1.526,3.586,3.389,3.799l26.157,3.087c2.498,11.919,7.197,23.008,13.625,32.874l-16.313,20.713
			c-1.179,1.457-1.027,3.74,0.313,5.075l18.503,18.521c1.33,1.324,3.614,1.446,5.094,0.284l20.706-16.318
			c9.834,6.434,20.934,11.134,32.834,13.629l3.1,26.152c0.226,1.867,1.931,3.388,3.811,3.388h26.189
			c1.886,0,3.584-1.521,3.821-3.388l3.075-26.151c11.914-2.495,22.995-7.196,32.852-13.63l20.7,16.318
			c1.485,1.162,3.766,1.028,5.095-0.284l18.516-18.521c1.341-1.335,1.469-3.618,0.301-5.075l-16.325-20.713
			c6.444-9.866,11.14-20.955,13.637-32.874l26.163-3.087c1.845-0.213,3.389-1.932,3.389-3.798v-26.197
			C1348.782,895.415,1347.238,893.686,1345.395,893.473z M1224.457,991.183c-44.615,0-80.779-36.197-80.779-80.802
			c0-44.615,36.164-80.802,80.779-80.802c44.628,0,80.803,36.187,80.803,80.802C1305.26,954.984,1269.085,991.183,1224.457,991.183z
			"/>
	</g>
	<path opacity="0.6" fill="#FFFFFF" enable-background="new    " d="M348.505,964.497c0.075-0.198,0.125-0.415,0.125-0.642v-29.573
		c0-0.938-0.764-1.706-1.702-1.706H300.33c-0.936,0-1.704,0.769-1.704,1.706v29.573c0,0.227,0.042,0.442,0.129,0.642H348.505z
		 M301.315,935.268h44.625v26.749h-44.625V935.268z M355.014,971.591c0,0,0,2.121-2.128,2.121c-2.123,0-56.388,0-58.516,0
		s-2.128-2.121-2.128-2.121h6.514h49.75H355.014z"/>
	<path opacity="0.6" fill="#FFFFFF" enable-background="new    " d="M485.725,964.498c0.075-0.202,0.125-0.414,0.125-0.641V934.28
		c0-0.938-0.764-1.702-1.701-1.702H437.55c-0.936,0-1.704,0.764-1.704,1.702v29.577c0,0.227,0.042,0.438,0.129,0.641H485.725
		L485.725,964.498z M438.535,935.27h44.625v26.745h-44.625V935.27z M492.234,971.588c0,0,0,2.121-2.128,2.121
		c-2.123,0-56.389,0-58.517,0s-2.128-2.121-2.128-2.121h6.515h49.75H492.234z"/>
	<path opacity="0.6" fill="#0099CC" enable-background="new    " d="M429.307,888.273l-39.441-0.195l0.044-9.121l-4.878-0.021
		l-0.045,9.119l-39.438-0.193c-7.153-0.033-12.98,5.738-13.016,12.894l-0.154,31.281l4.416,0.021l0.154-31.28
		c0.028-4.714,3.866-8.51,8.579-8.489l39.438,0.193l-0.163,32.801l4.879,0.024l0.162-32.803l39.442,0.194
		c4.708,0.028,8.508,3.86,8.483,8.575l-0.152,31.28l4.422,0.021l0.154-31.282C442.227,894.14,436.458,888.313,429.307,888.273z"/>
	<g opacity="0.6">
		<rect x="401.021" y="781.901" fill="#FFFFFF" width="3.935" height="3.931"/>
		<path fill="#FFFFFF" d="M394.567,781.646c-1.222,0-2.201,0.989-2.201,2.221c0,1.221,0.979,2.201,2.201,2.201
			c1.229,0,2.218-0.98,2.218-2.201C396.785,782.637,395.797,781.646,394.567,781.646z"/>
		<path fill="#FFFFFF" d="M385.84,763.966h-35.201c-0.787,0-1.439,0.66-1.439,1.485c0,0.811,0.652,1.471,1.439,1.471h35.201
			c0.797,0,1.445-0.66,1.445-1.471C387.285,764.626,386.637,763.966,385.84,763.966z"/>
		<path fill="#FFFFFF" d="M385.84,782.387h-35.201c-0.787,0-1.439,0.66-1.439,1.48c0,0.813,0.652,1.479,1.439,1.479h35.201
			c0.797,0,1.445-0.665,1.445-1.479C387.285,783.047,386.637,782.387,385.84,782.387z"/>
		<rect x="401.021" y="818.737" fill="#FFFFFF" width="3.935" height="3.937"/>
		<path fill="#FFFFFF" d="M394.567,763.227c-1.222,0-2.201,0.994-2.201,2.226c0,1.216,0.979,2.201,2.201,2.201
			c1.229,0,2.218-0.985,2.218-2.201C396.785,764.221,395.797,763.227,394.567,763.227z"/>
		<path fill="#FFFFFF" d="M385.84,800.816h-35.201c-0.787,0-1.439,0.654-1.439,1.471c0,0.815,0.652,1.479,1.439,1.479h35.201
			c0.797,0,1.445-0.665,1.445-1.479C387.285,801.472,386.637,800.816,385.84,800.816z"/>
		<path fill="#FFFFFF" d="M385.84,819.232h-35.201c-0.787,0-1.439,0.654-1.439,1.476c0,0.811,0.652,1.476,1.439,1.476h35.201
			c0.797,0,1.445-0.664,1.445-1.476C387.285,819.888,386.637,819.232,385.84,819.232z"/>
		<rect x="401.021" y="800.317" fill="#FFFFFF" width="3.935" height="3.939"/>
		<path fill="#FFFFFF" d="M394.567,800.072c-1.222,0-2.201,0.988-2.201,2.215c0,1.221,0.979,2.206,2.201,2.206
			c1.229,0,2.218-0.985,2.218-2.206C396.785,801.063,395.797,800.072,394.567,800.072z"/>
		<rect x="401.021" y="726.64" fill="#FFFFFF" width="3.935" height="3.932"/>
		<path fill="#FFFFFF" d="M394.567,726.39c-1.222,0-2.201,0.989-2.201,2.221c0,1.212,0.979,2.196,2.201,2.196
			c1.229,0,2.218-0.984,2.218-2.196C396.785,727.379,395.797,726.39,394.567,726.39z"/>
		<path fill="#FFFFFF" d="M385.84,727.13h-35.201c-0.787,0-1.439,0.659-1.439,1.479c0,0.807,0.652,1.476,1.439,1.476h35.201
			c0.797,0,1.445-0.669,1.445-1.476C387.285,727.789,386.637,727.13,385.84,727.13z"/>
		<path fill="#FFFFFF" d="M394.567,818.488c-1.222,0-2.201,0.988-2.201,2.22c0,1.221,0.979,2.206,2.201,2.206
			c1.229,0,2.218-0.985,2.218-2.206C396.785,819.479,395.797,818.488,394.567,818.488z"/>
		<path fill="#FFFFFF" d="M336.077,710v168.935h80.936V710H336.077z M376.54,866.623c-4.909,0-8.904-3.992-8.904-8.904
			c0-4.921,3.995-8.918,8.904-8.918c4.912,0,8.911,3.997,8.911,8.918C385.451,862.631,381.452,866.623,376.54,866.623z
			 M403.782,827.523h-54.481c-3.605,0-6.543-3.018-6.543-6.728c0-3.723,2.938-6.74,6.543-6.74h54.481
			c3.607,0,6.549,3.019,6.549,6.74C410.332,824.507,407.391,827.523,403.782,827.523z M403.782,809.107h-54.481
			c-3.605,0-6.543-3.021-6.543-6.73c0-3.724,2.938-6.74,6.543-6.74h54.481c3.607,0,6.549,3.018,6.549,6.74
			C410.332,806.086,407.391,809.107,403.782,809.107z M403.782,790.688h-54.481c-3.605,0-6.543-3.03-6.543-6.73
			c0-3.724,2.938-6.745,6.543-6.745h54.481c3.607,0,6.549,3.021,6.549,6.745C410.332,787.656,407.391,790.688,403.782,790.688z
			 M403.782,772.267h-54.481c-3.605,0-6.543-3.025-6.543-6.726c0-3.729,2.938-6.75,6.543-6.75h54.481
			c3.607,0,6.549,3.021,6.549,6.75C410.332,769.24,407.391,772.267,403.782,772.267z M403.782,753.846h-54.481
			c-3.605,0-6.543-3.024-6.543-6.729c0-3.725,2.938-6.745,6.543-6.745h54.481c3.607,0,6.549,3.021,6.549,6.745
			C410.332,750.82,407.391,753.846,403.782,753.846z M403.782,735.421h-54.481c-3.605,0-6.543-3.021-6.543-6.73
			c0-3.725,2.938-6.74,6.543-6.74h54.481c3.607,0,6.549,3.017,6.549,6.74C410.332,732.399,407.391,735.421,403.782,735.421z"/>
		<rect x="401.021" y="745.061" fill="#FFFFFF" width="3.935" height="3.937"/>
		<path fill="#FFFFFF" d="M394.567,744.811c-1.222,0-2.201,0.989-2.201,2.221c0,1.216,0.979,2.201,2.201,2.201
			c1.229,0,2.218-0.985,2.218-2.201C396.785,745.8,395.797,744.811,394.567,744.811z"/>
		<path fill="#FFFFFF" d="M385.84,745.551h-35.201c-0.787,0-1.439,0.659-1.439,1.479c0,0.811,0.652,1.476,1.439,1.476h35.201
			c0.797,0,1.445-0.665,1.445-1.476C387.285,746.21,386.637,745.551,385.84,745.551z"/>
		<rect x="401.021" y="763.48" fill="#FFFFFF" width="3.935" height="3.936"/>
	</g>
	<rect x="375.248" y="666.746" opacity="0.6" fill="#FFFFFF" enable-background="new    " width="2.605" height="43.253"/>
	<path opacity="0.6" fill="#FFFFFF" enable-background="new    " d="M405.143,601.823c-2.137,0-5.244,1.313-7.223,1.83
		c-3.691-10.485-12.645-19.038-24.396-19.038c-14.396,0-26.153,11.281-26.932,25.486c-0.876-0.118-1.768-0.201-2.677-0.201
		c-11.204,0-20.289,9.08-20.289,20.282c0,11.204,9.085,20.283,20.289,20.283c8.332,0,48.375,0,61.227,0
		c13.437,0,24.318-10.888,24.318-24.324C429.461,612.711,418.578,601.823,405.143,601.823z"/>
	<polygon fill="#394145" points="374.183,651.481 378.914,651.481 378.914,659.62 394.021,659.62 394.021,667.507 359.08,667.507 
		359.08,659.62 374.183,659.62 	"/>
	<path opacity="0.6" fill="#FFFFFF" enable-background="new    " d="M419.453,955.305c0.075-0.202,0.125-0.414,0.125-0.641v-29.577
		c0-0.938-0.764-1.702-1.702-1.702h-46.598c-0.937,0-1.704,0.764-1.704,1.702v29.577c0,0.227,0.042,0.438,0.129,0.641H419.453z
		 M372.263,926.076h44.625v26.745h-44.625V926.076z M425.962,962.395c0,0,0,2.121-2.128,2.121c-2.123,0-56.388,0-58.516,0
		s-2.128-2.121-2.128-2.121h6.514h49.75H425.962z"/>
	<g id="icon_4_" opacity="0.6">
		<path fill="#FFFFFF" d="M1049.034,755.966v11.097h-36.748c-0.75-3.463-1.283-7.157-1.553-11.097
			c-0.113-1.807-0.191-13.333-0.191-15.237c19.248-5.512,29.066-18.307,38.492-18.307V755.966z M1049.034,812.473
			c0,0,29.272-10.962,36.752-45.409h-36.752V812.473z M1095.288,736.156v4.572c0,1.382-0.063,13.55-0.212,15.733
			c-0.271,4.163-0.839,8.28-1.703,12.237c-8.28,38.146-40.256,50.537-41.612,51.04l-2.132,0.807
			c-0.191,0.067-0.388,0.104-0.595,0.104c-0.202,0-0.404-0.036-0.596-0.104l-2.127-0.807c-1.361-0.503-33.337-12.898-41.612-51.04
			c-0.854-3.957-1.434-8.074-1.698-12.237c-0.148-2.188-0.217-14.353-0.217-15.733v-4.572c0-0.754,0.502-1.416,1.231-1.628
			l4.395-1.264c8.819-2.525,15.521-6.832,21.427-10.646c6.631-4.275,12.359-7.966,19.197-7.966c6.853,0,12.571,3.689,19.201,7.95
			c5.91,3.829,12.603,8.136,21.438,10.661l4.39,1.264C1094.786,734.74,1095.288,735.402,1095.288,736.156z M1091.909,737.432
			l-3.179-0.91c-9.307-2.66-16.23-7.122-22.333-11.056c-6.181-3.979-11.511-7.417-17.363-7.417c-5.844,0-11.187,3.438-17.354,7.406
			c-6.111,3.943-13.026,8.405-22.333,11.064l-3.173,0.911v3.298c0,1.655,0.083,13.545,0.207,15.512
			c0.254,3.995,0.809,7.947,1.641,11.748c7.884,36.349,38.191,48.098,39.48,48.584l1.532,0.563l1.531-0.563
			c1.288-0.486,31.612-12.235,39.489-48.584c0.833-3.801,1.377-7.753,1.642-11.748c0.13-1.967,0.213-13.855,0.213-15.512V737.432z"
			/>
	</g>
	<rect x="191.604" y="508.091" opacity="0.6" fill="#FFFFFF" enable-background="new    " width="20.152" height="1.872"/>
	<rect x="429.067" y="627.294" opacity="0.6" fill="#FFFFFF" enable-background="new    " width="454.884" height="1.872"/>
	<polygon opacity="0.6" fill="#394145" enable-background="new    " points="175.777,500.457 179.18,500.457 179.18,506.313 
		190.049,506.313 190.049,511.985 164.91,511.985 164.91,506.313 175.777,506.313 	"/>
	<g opacity="0.6">
		<path fill="#FFFFFF" d="M215.89,455.206v43.208h-76.827V462.87c0-2.783,2.279-5.064,5.066-5.064h39.075
			c1.797,0,3.3-1.274,3.654-2.971c0.02-0.097,0.04-0.202,0.051-0.303l0,0c0.333-2.468,2.457-4.394,5.015-4.394h18.901
			C213.613,450.137,215.89,452.418,215.89,455.206z"/>
	</g>
	<rect x="209.455" y="508.801" opacity="0.6" fill="#FFFFFF" enable-background="new    " width="2.605" height="250.699"/>
	<rect x="209.455" y="757.629" opacity="0.6" fill="#FFFFFF" enable-background="new    " width="133.303" height="1.871"/>
	<g opacity="0.6">
		<path fill="#FFFFFF" d="M1054.309,433.911c0.597,1.034,0.272,2.288-0.957,2.939c-1.088,0.578-2.312,0.146-2.867-0.905
			c-0.579-1.087-0.218-2.361,0.905-2.958C1052.545,432.372,1053.732,432.823,1054.309,433.911z M1062.436,457.499l-9.025-16.988
			l3.088-1.641l9.026,16.988L1062.436,457.499z"/>
		<path fill="#FFFFFF" d="M1064.07,440.741c-0.937-1.754-1.735-3.175-2.59-4.521l2.737-1.453l1.67,2.712l0.068-0.034
			c-0.017-2.065,1.113-4.688,3.919-6.179c2.354-1.25,6.747-1.787,9.845,4.039l5.393,10.146l-3.087,1.639l-5.204-9.793
			c-1.456-2.738-3.689-4.476-6.604-2.927c-2.032,1.081-2.848,3.358-2.459,5.355c0.062,0.464,0.271,1.028,0.55,1.555l5.432,10.214
			l-3.088,1.641L1064.07,440.741z"/>
		<path fill="#FFFFFF" d="M1082.096,419.008l2.596,4.877l4.422-2.35l1.249,2.35l-4.421,2.354l4.867,9.158
			c1.119,2.107,2.351,2.982,4.071,2.068c0.806-0.427,1.347-0.851,1.677-1.162l1.372,2.243c-0.466,0.563-1.321,1.243-2.515,1.877
			c-1.438,0.765-2.839,0.921-4.023,0.472c-1.361-0.446-2.481-1.785-3.543-3.788l-4.926-9.267l-2.632,1.4l-1.249-2.352l2.631-1.397
			l-2.165-4.071L1082.096,419.008z"/>
		<path fill="#FFFFFF" d="M1100.944,409.126c0.593,1.036,0.269,2.29-0.958,2.942c-1.088,0.578-2.312,0.146-2.87-0.908
			c-0.579-1.088-0.218-2.359,0.905-2.958C1099.181,407.587,1100.365,408.039,1100.944,409.126z M1109.068,432.714l-9.026-16.987
			l3.087-1.641l9.026,16.987L1109.068,432.714z"/>
		<path fill="#FFFFFF" d="M1110.702,415.958c-0.933-1.756-1.734-3.175-2.586-4.521l2.737-1.455l1.671,2.712l0.066-0.036
			c-0.016-2.063,1.113-4.687,3.92-6.178c2.351-1.25,6.747-1.787,9.843,4.039l5.392,10.146l-3.088,1.641l-5.204-9.793
			c-1.453-2.737-3.686-4.476-6.599-2.929c-2.032,1.081-2.853,3.359-2.464,5.357c0.064,0.461,0.275,1.025,0.555,1.552l5.427,10.214
			l-3.084,1.641L1110.702,415.958z"/>
		<path fill="#FFFFFF" d="M1076.705,476.05c0.595,1.034,0.271,2.288-0.959,2.94c-1.087,0.578-2.312,0.146-2.867-0.906
			c-0.579-1.087-0.22-2.361,0.906-2.958C1074.939,474.512,1076.129,474.963,1076.705,476.05z M1084.831,499.639l-9.026-16.987
			l3.088-1.642l9.025,16.987L1084.831,499.639z"/>
		<path fill="#FFFFFF" d="M1093.361,495.104l-7.776-14.636l-2.389,1.27l-1.249-2.352l2.389-1.269l-0.431-0.808
			c-1.27-2.387-1.899-4.84-1.188-6.976c0.563-1.738,1.86-3.016,3.301-3.78c1.092-0.579,2.169-0.835,2.895-0.907l0.852,2.61
			c-0.569,0.033-1.299,0.191-2.172,0.659c-2.635,1.398-2.067,4.069-0.687,6.667l0.484,0.912l4.104-2.181l1.25,2.351l-4.104,2.182
			l7.776,14.636L1093.361,495.104z"/>
		<path fill="#FFFFFF" d="M1097.058,461.903c-0.73,4.801-0.168,10.352,3.207,16.704c3.321,6.248,7.639,9.714,11.994,11.899
			l-2.421,1.286c-3.761-1.737-8.531-4.963-12.168-11.806c-3.642-6.934-3.677-12.675-3.033-16.798L1097.058,461.903z"/>
		<path fill="#FFFFFF" d="M1125.049,477.454c-0.586,0.853-2.078,2.366-4.359,3.579c-5.123,2.722-10.301,1.018-13.063-4.176
			c-2.777-5.23-1.214-10.922,4.333-13.87c1.822-0.97,3.68-1.372,4.747-1.397l0.565,2.759c-0.961-0.028-2.325,0.202-4.01,1.098
			c-3.893,2.069-4.473,6.066-2.589,9.609c2.091,3.932,5.903,5.011,9.275,3.222c1.754-0.934,2.667-2.004,3.34-2.856L1125.049,477.454
			z"/>
		<path fill="#FFFFFF" d="M1139.58,459.469c3.34,6.282,0.438,11.334-3.667,13.516c-4.599,2.442-9.933,0.958-12.783-4.411
			c-3.021-5.687-1.078-10.994,3.628-13.495C1131.635,452.485,1136.819,454.275,1139.58,459.469z M1126.194,466.806
			c1.978,3.723,5.611,5.393,8.628,3.79c2.952-1.567,3.687-5.515,1.649-9.34c-1.526-2.88-4.905-5.764-8.553-3.825
			C1124.266,459.372,1124.479,463.58,1126.194,466.806z"/>
		<path fill="#FFFFFF" d="M1141.489,453.637c-0.933-1.754-1.734-3.175-2.583-4.521l2.738-1.455l1.666,2.714l0.067-0.036
			c-0.013-2.063,1.113-4.686,3.92-6.178c2.354-1.25,6.748-1.787,9.845,4.039l5.39,10.144l-3.088,1.64l-5.204-9.793
			c-1.453-2.738-3.684-4.477-6.6-2.929c-2.031,1.083-2.851,3.361-2.463,5.358c0.068,0.461,0.275,1.026,0.555,1.553l5.428,10.214
			l-3.085,1.642L1141.489,453.637z"/>
		<path fill="#FFFFFF" d="M1169.969,459.434l-14.867-27.973l6.429-3.414l1.021,1.93l-4.036,2.146l12.813,24.113l4.039-2.147
			l1.025,1.93L1169.969,459.434z"/>
		<path fill="#FFFFFF" d="M1169.409,426.782c0.593,1.036,0.271,2.288-0.958,2.941c-1.084,0.578-2.309,0.146-2.871-0.907
			c-0.575-1.088-0.213-2.361,0.906-2.957C1167.646,425.245,1168.83,425.695,1169.409,426.782z M1177.535,450.372l-9.025-16.987
			l3.084-1.641l9.029,16.987L1177.535,450.372z"/>
		<path fill="#FFFFFF" d="M1179.17,433.613c-0.932-1.756-1.734-3.174-2.586-4.521l2.738-1.455l1.67,2.713l0.068-0.036
			c-0.018-2.063,1.112-4.687,3.918-6.178c2.351-1.25,6.747-1.786,9.846,4.039l5.392,10.146l-3.087,1.641l-5.208-9.793
			c-1.453-2.738-3.687-4.476-6.599-2.929c-2.032,1.081-2.849,3.358-2.463,5.356c0.063,0.461,0.274,1.027,0.554,1.553l5.431,10.214
			l-3.088,1.641L1179.17,433.613z"/>
		<path fill="#FFFFFF" d="M1206.669,402.93l10.913,20.535c0.799,1.508,1.748,3.208,2.473,4.312l-2.772,1.474l-1.709-2.874
			l-0.071,0.037c0.063,2.397-1.246,4.938-4.017,6.411c-4.106,2.181-9.113,0.385-11.853-4.773
			c-3.041-5.632-1.378-10.972,2.766-13.172c2.599-1.379,5.007-1.086,6.505-0.126l0.067-0.038l-5.389-10.143L1206.669,402.93z
			 M1211.472,419.419c-0.207-0.387-0.521-0.893-0.831-1.225c-1.499-1.725-4.043-2.443-6.362-1.212
			c-3.191,1.694-3.593,5.513-1.597,9.269c1.826,3.44,5.021,5.387,8.356,3.615c2.071-1.102,3.235-3.479,2.565-6.091
			c-0.115-0.479-0.308-0.916-0.565-1.408L1211.472,419.419z"/>
		<path fill="#FFFFFF" d="M1222.553,416.276c2.292,4.137,5.871,4.438,8.959,2.797c2.213-1.175,3.34-2.27,4.239-3.377l1.702,1.934
			c-0.828,1.07-2.389,2.62-5.091,4.055c-5.229,2.78-10.186,1-12.906-4.126c-2.722-5.124-1.849-10.761,3.101-13.393
			c5.543-2.946,9.611,1.146,11.271,4.271c0.337,0.632,0.523,1.16,0.66,1.495L1222.553,416.276z M1230.434,409.251
			c-1.01-1.984-3.476-4.589-6.947-2.745c-3.123,1.661-2.963,5.266-2.071,7.538L1230.434,409.251z"/>
		<path fill="#FFFFFF" d="M1234.948,398.076l4.358,2.363c1.141,0.611,2.134,1.21,3.194,1.857l0.106-0.055
			c0.02-1.317,0.112-2.494,0.19-3.704l0.466-4.882l3.334-1.772l-1.425,11.29l10.628,5.604l-3.508,1.866l-4.524-2.502
			c-1.189-0.628-2.256-1.277-3.395-1.979l-0.068,0.037c-0.021,1.317-0.136,2.548-0.224,3.9l-0.424,5.132l-3.404,1.811l1.431-11.88
			l-10.182-5.256L1234.948,398.076z"/>
		<path fill="#FFFFFF" d="M1148.774,518.887c-0.587,0.854-2.074,2.364-4.359,3.578c-5.123,2.725-10.302,1.021-13.062-4.175
			c-2.78-5.229-1.218-10.923,4.329-13.871c1.825-0.968,3.684-1.372,4.748-1.397l0.566,2.761c-0.959-0.029-2.324,0.201-4.007,1.094
			c-3.896,2.071-4.473,6.068-2.589,9.612c2.087,3.933,5.898,5.012,9.271,3.22c1.754-0.932,2.67-2.003,3.344-2.854L1148.774,518.887z
			"/>
		<path fill="#FFFFFF" d="M1163.309,500.901c3.34,6.281,0.44,11.333-3.662,13.515c-4.604,2.443-9.937,0.958-12.791-4.413
			c-3.02-5.685-1.067-10.996,3.632-13.494C1155.367,493.917,1160.548,495.705,1163.309,500.901z M1149.927,508.238
			c1.979,3.722,5.608,5.392,8.624,3.788c2.952-1.568,3.688-5.516,1.654-9.341c-1.531-2.878-4.906-5.764-8.557-3.823
			C1147.997,500.802,1148.208,505.011,1149.927,508.238z"/>
		<path fill="#FFFFFF" d="M1165.222,495.069c-0.936-1.757-1.734-3.175-2.589-4.521l2.737-1.455l1.67,2.713l0.068-0.036
			c-0.013-2.063,1.112-4.686,3.923-6.177c2.349-1.25,6.744-1.787,9.838,4.039l5.392,10.145l-3.084,1.64l-5.204-9.793
			c-1.455-2.738-3.687-4.477-6.599-2.928c-2.036,1.081-2.852,3.358-2.463,5.357c0.062,0.461,0.271,1.026,0.554,1.554l5.428,10.214
			l-3.088,1.64L1165.222,495.069z"/>
		<path fill="#FFFFFF" d="M1193.695,500.865l-14.865-27.973l6.424-3.414l1.026,1.929l-4.039,2.146l12.814,24.112l4.036-2.146
			l1.026,1.93L1193.695,500.865z"/>
		<path fill="#FFFFFF" d="M1193.138,468.214c0.597,1.034,0.272,2.288-0.958,2.94c-1.084,0.578-2.307,0.146-2.867-0.906
			c-0.578-1.087-0.217-2.36,0.906-2.956C1191.374,466.676,1192.563,467.126,1193.138,468.214z M1201.265,491.803l-9.025-16.986
			l3.088-1.642l9.024,16.987L1201.265,491.803z"/>
		<path fill="#FFFFFF" d="M1202.898,475.045c-0.936-1.755-1.734-3.175-2.587-4.521l2.738-1.457l1.667,2.716l0.067-0.037
			c-0.013-2.063,1.112-4.686,3.923-6.177c2.35-1.251,6.745-1.787,9.842,4.039l5.393,10.143l-3.089,1.641l-5.202-9.793
			c-1.457-2.737-3.688-4.476-6.601-2.928c-2.035,1.081-2.851,3.359-2.463,5.358c0.062,0.461,0.272,1.024,0.554,1.552l5.428,10.214
			l-3.088,1.641L1202.898,475.045z"/>
		<path fill="#FFFFFF" d="M1230.398,444.362l10.911,20.532c0.804,1.509,1.748,3.209,2.474,4.313l-2.773,1.473l-1.705-2.874
			l-0.07,0.039c0.058,2.397-1.249,4.938-4.021,6.411c-4.106,2.181-9.11,0.385-11.854-4.773c-3.039-5.632-1.373-10.972,2.767-13.173
			c2.599-1.38,5.007-1.087,6.505-0.126l0.068-0.038l-5.39-10.144L1230.398,444.362z M1235.201,460.851
			c-0.207-0.388-0.521-0.895-0.832-1.227c-1.498-1.724-4.043-2.443-6.359-1.212c-3.19,1.697-3.596,5.513-1.599,9.271
			c1.828,3.44,5.02,5.386,8.355,3.615c2.07-1.103,3.236-3.479,2.566-6.091c-0.117-0.479-0.309-0.919-0.566-1.408L1235.201,460.851z"
			/>
		<path fill="#FFFFFF" d="M1246.282,457.706c2.291,4.139,5.87,4.44,8.961,2.799c2.21-1.175,3.337-2.269,4.235-3.377l1.702,1.933
			c-0.827,1.071-2.389,2.621-5.09,4.058c-5.229,2.78-10.182,0.998-12.903-4.126c-2.726-5.125-1.852-10.762,3.101-13.393
			c5.541-2.947,9.608,1.146,11.27,4.272c0.337,0.631,0.524,1.16,0.66,1.493L1246.282,457.706z M1254.166,450.681
			c-1.014-1.981-3.477-4.588-6.952-2.743c-3.12,1.66-2.961,5.267-2.071,7.538L1254.166,450.681z"/>
		<path fill="#FFFFFF" d="M1258.677,439.507l4.359,2.363c1.14,0.61,2.13,1.207,3.194,1.858l0.106-0.057
			c0.022-1.316,0.116-2.493,0.193-3.704l0.467-4.883l3.33-1.771l-1.424,11.289l10.628,5.603l-3.509,1.866l-4.523-2.5
			c-1.19-0.63-2.256-1.278-3.396-1.981l-0.067,0.038c-0.021,1.318-0.133,2.547-0.228,3.901l-0.422,5.129l-3.403,1.812l1.431-11.88
			l-10.175-5.259L1258.677,439.507z"/>
		<path fill="#FFFFFF" d="M1274.257,422.133l14.884,28.009l-6.424,3.414l-1.025-1.93l4.039-2.146l-12.832-24.147l-4.039,2.146
			l-1.026-1.931L1274.257,422.133z"/>
		<path fill="#FFFFFF" d="M1292.497,428.148l-1.117-2.104l18.11-9.625l1.117,2.104L1292.497,428.148z M1296.154,435.029l-1.12-2.107
			l18.11-9.625l1.119,2.107L1296.154,435.029z"/>
		<path fill="#FFFFFF" d="M1321.733,411.892c-0.933-1.758-1.734-3.175-2.585-4.522l2.736-1.455l1.67,2.714l0.068-0.038
			c-0.013-2.062,1.113-4.686,3.919-6.176c2.354-1.251,6.748-1.787,9.842,4.039l5.393,10.144l-3.084,1.642l-5.204-9.793
			c-1.457-2.738-3.688-4.479-6.6-2.93c-2.035,1.081-2.854,3.359-2.467,5.358c0.065,0.461,0.275,1.028,0.558,1.552l5.428,10.214
			l-3.088,1.642L1321.733,411.892z"/>
		<path fill="#FFFFFF" d="M1345.311,405.08c2.288,4.139,5.871,4.439,8.959,2.799c2.214-1.176,3.34-2.269,4.238-3.379l1.699,1.932
			c-0.825,1.071-2.389,2.622-5.087,4.06c-5.23,2.778-10.183,0.997-12.907-4.126c-2.725-5.126-1.851-10.764,3.102-13.395
			c5.543-2.947,9.611,1.147,11.269,4.272c0.337,0.631,0.528,1.16,0.661,1.494L1345.311,405.08z M1353.191,398.053
			c-1.011-1.979-3.478-4.586-6.949-2.741c-3.123,1.66-2.961,5.264-2.071,7.536L1353.191,398.053z"/>
		<path fill="#FFFFFF" d="M1121.495,560.331c0.593,1.034,0.269,2.287-0.958,2.94c-1.087,0.575-2.312,0.146-2.87-0.906
			c-0.576-1.087-0.217-2.361,0.906-2.958C1119.73,558.792,1120.916,559.244,1121.495,560.331z M1129.619,583.919l-9.026-16.988
			l3.087-1.641l9.026,16.988L1129.619,583.919z"/>
		<path fill="#FFFFFF" d="M1138.149,579.385l-7.776-14.638l-2.386,1.269l-1.249-2.35l2.385-1.269l-0.43-0.808
			c-1.267-2.387-1.896-4.844-1.186-6.976c0.561-1.738,1.86-3.017,3.301-3.78c1.088-0.58,2.168-0.835,2.895-0.908l0.848,2.61
			c-0.565,0.03-1.295,0.189-2.172,0.658c-2.631,1.397-2.063,4.069-0.686,6.667l0.484,0.913l4.104-2.183l1.249,2.351l-4.104,2.181
			l7.777,14.638L1138.149,579.385z"/>
		<path fill="#FFFFFF" d="M1141.849,546.184c-0.73,4.802-0.168,10.352,3.207,16.705c3.32,6.248,7.639,9.715,11.994,11.899
			l-2.421,1.287c-3.761-1.738-8.534-4.963-12.169-11.806c-3.641-6.933-3.676-12.674-3.032-16.799L1141.849,546.184z"/>
		<path fill="#FFFFFF" d="M1154.727,561.844l-9.443-16.586l3.369-1.79l8.463,17.107L1154.727,561.844z M1156.516,567.33
			c-0.67-1.265-0.277-2.645,0.913-3.276c1.263-0.672,2.558-0.188,3.228,1.076c0.652,1.228,0.349,2.605-0.913,3.276
			C1158.516,569.058,1157.17,568.556,1156.516,567.33z"/>
		<path fill="#FFFFFF" d="M1177.914,557.443c-0.586,0.853-2.074,2.365-4.359,3.578c-5.123,2.723-10.301,1.018-13.062-4.177
			c-2.78-5.229-1.218-10.92,4.33-13.868c1.824-0.969,3.68-1.371,4.748-1.397l0.565,2.757c-0.962-0.029-2.324,0.202-4.007,1.097
			c-3.896,2.07-4.473,6.068-2.589,9.612c2.087,3.929,5.899,5.01,9.271,3.221c1.755-0.934,2.666-2.005,3.341-2.855L1177.914,557.443z
			"/>
		<path fill="#FFFFFF" d="M1192.445,539.458c3.34,6.282,0.442,11.333-3.666,13.515c-4.597,2.443-9.931,0.958-12.784-4.413
			c-3.022-5.685-1.077-10.995,3.628-13.495C1184.5,532.473,1189.686,534.262,1192.445,539.458z M1179.063,546.795
			c1.975,3.72,5.608,5.393,8.629,3.788c2.944-1.568,3.683-5.515,1.649-9.34c-1.53-2.878-4.905-5.765-8.557-3.824
			C1177.135,539.36,1177.348,543.567,1179.063,546.795z"/>
		<path fill="#FFFFFF" d="M1194.358,533.626c-0.937-1.756-1.735-3.175-2.587-4.521l2.737-1.457l1.667,2.715l0.068-0.037
			c-0.018-2.063,1.113-4.688,3.919-6.18c2.353-1.25,6.748-1.784,9.845,4.042l5.393,10.143l-3.088,1.641l-5.203-9.793
			c-1.457-2.737-3.685-4.476-6.604-2.928c-2.032,1.081-2.848,3.359-2.459,5.358c0.064,0.461,0.271,1.025,0.55,1.55l5.432,10.215
			l-3.087,1.641L1194.358,533.626z"/>
		<path fill="#FFFFFF" d="M1222.835,539.423l-14.864-27.975l6.424-3.414l1.025,1.932l-4.039,2.146l12.816,24.111l4.035-2.146
			l1.025,1.932L1222.835,539.423z"/>
		<path fill="#FFFFFF" d="M1222.278,506.77c0.595,1.034,0.269,2.286-0.958,2.94c-1.084,0.576-2.309,0.146-2.867-0.906
			c-0.58-1.088-0.217-2.358,0.906-2.958C1220.514,505.23,1221.702,505.682,1222.278,506.77z M1230.404,530.358l-9.025-16.987
			l3.087-1.641l9.026,16.987L1230.404,530.358z"/>
		<path fill="#FFFFFF" d="M1232.035,513.602c-0.932-1.756-1.734-3.175-2.582-4.521l2.738-1.455l1.666,2.712l0.067-0.036
			c-0.014-2.063,1.113-4.686,3.919-6.178c2.354-1.251,6.748-1.787,9.846,4.039l5.389,10.146l-3.088,1.642l-5.203-9.793
			c-1.453-2.738-3.684-4.477-6.596-2.929c-2.036,1.08-2.853,3.358-2.468,5.355c0.065,0.462,0.275,1.028,0.555,1.552l5.428,10.216
			l-3.085,1.641L1232.035,513.602z"/>
		<path fill="#FFFFFF" d="M1259.538,482.918l10.913,20.533c0.803,1.509,1.747,3.209,2.473,4.313l-2.777,1.476l-1.701-2.874
			l-0.071,0.037c0.059,2.396-1.249,4.937-4.021,6.409c-4.106,2.186-9.112,0.386-11.854-4.771
			c-3.039-5.634-1.372-10.974,2.767-13.175c2.601-1.38,5.007-1.084,6.506-0.126l0.067-0.036l-5.389-10.144L1259.538,482.918z
			 M1264.341,499.406c-0.207-0.385-0.521-0.895-0.832-1.225c-1.498-1.725-4.042-2.442-6.358-1.213
			c-3.194,1.697-3.597,5.512-1.6,9.27c1.825,3.439,5.021,5.388,8.356,3.615c2.07-1.101,3.235-3.477,2.565-6.092
			c-0.115-0.477-0.308-0.916-0.565-1.408L1264.341,499.406z"/>
		<path fill="#FFFFFF" d="M1275.419,496.263c2.291,4.14,5.87,4.44,8.961,2.8c2.21-1.177,3.337-2.27,4.236-3.378l1.702,1.934
			c-0.828,1.069-2.39,2.62-5.09,4.057c-5.23,2.778-10.183,0.997-12.907-4.126c-2.723-5.125-1.849-10.764,3.101-13.395
			c5.544-2.945,9.611,1.148,11.272,4.271c0.336,0.632,0.526,1.162,0.656,1.497L1275.419,496.263z M1283.299,489.239
			c-1.01-1.982-3.476-4.588-6.948-2.743c-3.123,1.66-2.961,5.266-2.07,7.536L1283.299,489.239z"/>
		<path fill="#FFFFFF" d="M1287.813,478.065l4.359,2.362c1.141,0.61,2.133,1.208,3.194,1.858l0.106-0.055
			c0.021-1.317,0.116-2.496,0.193-3.704l0.467-4.883l3.33-1.772l-1.424,11.292l10.631,5.602l-3.512,1.866l-4.524-2.5
			c-1.189-0.63-2.255-1.278-3.395-1.979l-0.067,0.037c-0.022,1.317-0.133,2.547-0.224,3.9l-0.425,5.129l-3.407,1.813l1.434-11.88
			l-10.179-5.257L1287.813,478.065z"/>
		<path fill="#FFFFFF" d="M1303.396,460.689l14.884,28.009l-6.424,3.415l-1.026-1.932l4.036-2.146l-12.832-24.148l-4.036,2.146
			l-1.025-1.931L1303.396,460.689z"/>
		<path fill="#FFFFFF" d="M1319.936,480.441c-0.692-1.302-0.303-2.681,0.929-3.334c1.227-0.65,2.554-0.187,3.246,1.112
			c0.67,1.264,0.368,2.641-0.933,3.331C1321.947,482.205,1320.604,481.703,1319.936,480.441z"/>
		<path fill="#FFFFFF" d="M1340.68,470.944c-0.586,0.853-2.074,2.363-4.358,3.577c-5.123,2.723-10.302,1.019-13.063-4.176
			c-2.779-5.229-1.217-10.921,4.33-13.87c1.822-0.967,3.68-1.372,4.748-1.397l0.566,2.759c-0.961-0.027-2.327,0.202-4.01,1.096
			c-3.895,2.071-4.474,6.068-2.59,9.612c2.092,3.93,5.903,5.01,9.275,3.22c1.754-0.932,2.667-2.003,3.34-2.854L1340.68,470.944z"/>
		<path fill="#FFFFFF" d="M1355.211,452.958c3.34,6.282,0.439,11.334-3.664,13.515c-4.599,2.445-9.933,0.958-12.787-4.41
			c-3.021-5.687-1.076-10.997,3.629-13.496C1347.266,445.974,1352.449,447.763,1355.211,452.958z M1341.825,460.296
			c1.979,3.72,5.61,5.392,8.628,3.788c2.951-1.568,3.686-5.515,1.65-9.34c-1.527-2.88-4.903-5.764-8.555-3.825
			C1339.899,452.861,1340.109,457.068,1341.825,460.296z"/>
		<path fill="#FFFFFF" d="M1357.12,447.126c-0.933-1.754-1.735-3.175-2.583-4.521l2.738-1.453l1.666,2.712l0.071-0.036
			c-0.017-2.065,1.109-4.688,3.915-6.178c2.354-1.251,6.748-1.786,9.846,4.039l5.389,10.146l-3.087,1.64l-5.204-9.793
			c-1.453-2.737-3.684-4.477-6.596-2.927c-2.035,1.081-2.853,3.359-2.466,5.356c0.066,0.463,0.273,1.026,0.553,1.552l5.428,10.215
			l-3.084,1.641L1357.12,447.126z"/>
		<path fill="#FFFFFF" d="M1193.564,603.169c-0.586,0.854-2.074,2.366-4.358,3.58c-5.123,2.722-10.302,1.016-13.063-4.179
			c-2.779-5.229-1.217-10.922,4.33-13.871c1.825-0.967,3.681-1.369,4.747-1.396l0.566,2.759c-0.958-0.028-2.323,0.201-4.007,1.097
			c-3.896,2.069-4.474,6.067-2.589,9.612c2.088,3.929,5.899,5.01,9.271,3.22c1.754-0.935,2.67-2.005,3.343-2.856L1193.564,603.169z"
			/>
		<path fill="#FFFFFF" d="M1208.1,585.183c3.34,6.281,0.44,11.332-3.664,13.516c-4.602,2.444-9.936,0.958-12.788-4.413
			c-3.021-5.687-1.068-10.997,3.631-13.496C1200.158,578.197,1205.339,579.987,1208.1,585.183z M1194.714,592.521
			c1.981,3.718,5.612,5.388,8.628,3.784c2.952-1.567,3.688-5.513,1.65-9.34c-1.527-2.877-4.902-5.763-8.553-3.824
			C1192.789,585.084,1192.999,589.292,1194.714,592.521z"/>
		<path fill="#FFFFFF" d="M1210.009,579.35c-0.932-1.754-1.73-3.173-2.585-4.52l2.737-1.454l1.67,2.712l0.068-0.036
			c-0.013-2.063,1.112-4.686,3.922-6.178c2.35-1.249,6.745-1.786,9.839,4.041l5.392,10.143l-3.084,1.64l-5.204-9.79
			c-1.457-2.737-3.687-4.477-6.6-2.93c-2.038,1.081-2.851,3.359-2.463,5.358c0.063,0.459,0.271,1.024,0.554,1.552l5.429,10.214
			l-3.089,1.64L1210.009,579.35z"/>
		<path fill="#FFFFFF" d="M1238.485,585.149l-14.864-27.976l6.424-3.415l1.026,1.933l-4.039,2.146l12.814,24.112l4.036-2.147
			l1.026,1.934L1238.485,585.149z"/>
		<path fill="#FFFFFF" d="M1237.929,552.495c0.597,1.035,0.272,2.288-0.958,2.94c-1.084,0.576-2.308,0.146-2.867-0.907
			c-0.578-1.087-0.217-2.361,0.906-2.957C1236.165,550.957,1237.354,551.407,1237.929,552.495z M1246.056,576.084l-9.025-16.988
			l3.088-1.641l9.024,16.987L1246.056,576.084z"/>
		<path fill="#FFFFFF" d="M1247.688,559.327c-0.934-1.754-1.731-3.174-2.584-4.521l2.738-1.455l1.667,2.713l0.067-0.035
			c-0.013-2.063,1.113-4.688,3.923-6.18c2.35-1.251,6.744-1.785,9.842,4.039l5.393,10.144l-3.089,1.641l-5.202-9.79
			c-1.457-2.738-3.688-4.476-6.601-2.929c-2.035,1.081-2.852,3.358-2.463,5.357c0.063,0.459,0.271,1.024,0.554,1.551l5.428,10.214
			l-3.087,1.641L1247.688,559.327z"/>
		<path fill="#FFFFFF" d="M1275.188,528.644l10.913,20.531c0.804,1.51,1.748,3.211,2.474,4.313l-2.773,1.473l-1.705-2.871
			l-0.071,0.037c0.059,2.397-1.249,4.938-4.021,6.41c-4.105,2.185-9.113,0.385-11.854-4.773c-3.039-5.631-1.373-10.972,2.767-13.172
			c2.599-1.38,5.007-1.084,6.505-0.126l0.068-0.036l-5.39-10.143L1275.188,528.644z M1279.991,545.132
			c-0.207-0.388-0.521-0.895-0.831-1.223c-1.499-1.727-4.043-2.443-6.359-1.214c-3.193,1.698-3.596,5.512-1.6,9.269
			c1.826,3.44,5.02,5.389,8.355,3.615c2.071-1.102,3.236-3.477,2.566-6.091c-0.116-0.479-0.309-0.916-0.566-1.408L1279.991,545.132z
			"/>
		<path fill="#FFFFFF" d="M1291.072,541.989c2.292,4.138,5.871,4.439,8.962,2.798c2.21-1.176,3.337-2.27,4.235-3.377l1.702,1.933
			c-0.827,1.071-2.389,2.621-5.091,4.056c-5.229,2.779-10.182,0.998-12.902-4.125c-2.726-5.125-1.852-10.765,3.101-13.395
			c5.541-2.948,9.608,1.149,11.269,4.272c0.338,0.631,0.524,1.159,0.66,1.494L1291.072,541.989z M1298.957,534.963
			c-1.014-1.984-3.479-4.589-6.952-2.745c-3.123,1.66-2.962,5.267-2.071,7.538L1298.957,534.963z"/>
		<path fill="#FFFFFF" d="M1303.468,523.788l4.359,2.363c1.14,0.609,2.133,1.21,3.194,1.859l0.105-0.058
			c0.021-1.317,0.113-2.492,0.194-3.703l0.467-4.884l3.33-1.771l-1.424,11.288l10.627,5.604l-3.509,1.864l-4.523-2.5
			c-1.19-0.628-2.256-1.277-3.396-1.978l-0.067,0.036c-0.021,1.316-0.134,2.547-0.228,3.898l-0.421,5.131l-3.404,1.812l1.432-11.879
			l-10.176-5.257L1303.468,523.788z"/>
		<path fill="#FFFFFF" d="M1319.048,506.416l14.884,28.009l-6.424,3.414l-1.025-1.93l4.039-2.146l-12.832-24.146l-4.039,2.146
			l-1.026-1.931L1319.048,506.416z"/>
		<path fill="#FFFFFF" d="M1335.585,526.167c-0.692-1.301-0.301-2.68,0.929-3.333c1.228-0.65,2.555-0.188,3.246,1.113
			c0.67,1.262,0.369,2.639-0.932,3.33C1337.598,527.931,1336.255,527.429,1335.585,526.167z"/>
		<path fill="#FFFFFF" d="M1353.965,518.736l-1.383-2.01l-0.106,0.057c-0.235,1.835-1.427,3.999-3.854,5.287
			c-3.438,1.828-6.479,0.338-7.783-2.118c-2.185-4.107,0.275-8.293,6.857-11.747l-0.188-0.349c-0.744-1.405-2.476-3.728-5.951-1.882
			c-1.58,0.843-2.968,2.209-3.751,3.615l-1.779-1.664c0.916-1.66,2.635-3.336,4.776-4.474c5.193-2.761,8.34,0.111,10.148,3.517
			l3.379,6.354c0.783,1.472,1.618,2.872,2.443,3.92L1353.965,518.736z M1348.899,510.31c-3.404,1.722-6.909,4.353-5.159,7.649
			c1.064,2,2.899,2.239,4.479,1.399c2.214-1.177,2.868-3.325,2.596-5.025c-0.062-0.371-0.181-0.759-0.347-1.075L1348.899,510.31z"/>
		<path fill="#FFFFFF" d="M1362.91,482.026l10.912,20.531c0.8,1.509,1.748,3.21,2.473,4.312l-2.772,1.474l-1.709-2.873l-0.071,0.039
			c0.062,2.396-1.242,4.937-4.016,6.41c-4.107,2.183-9.11,0.385-11.853-4.774c-3.042-5.631-1.376-10.973,2.767-13.173
			c2.597-1.378,5.004-1.084,6.502-0.125l0.068-0.036l-5.389-10.144L1362.91,482.026z M1367.713,498.516
			c-0.208-0.388-0.521-0.896-0.832-1.227c-1.499-1.725-4.043-2.443-6.363-1.21c-3.189,1.696-3.592,5.51-1.596,9.268
			c1.829,3.438,5.021,5.388,8.356,3.615c2.07-1.102,3.239-3.478,2.569-6.092c-0.12-0.477-0.308-0.916-0.568-1.408L1367.713,498.516z
			"/>
		<path fill="#FFFFFF" d="M1202.086,649.442c1.228,0.112,3.179-0.115,4.727-0.937c2.245-1.193,2.698-2.877,1.954-4.28
			c-0.782-1.474-2.091-1.813-4.818-1.444c-3.636,0.534-5.965-0.385-7.045-2.423c-1.457-2.736-0.438-6.157,3.21-8.098
			c1.722-0.915,3.491-1.227,4.734-1.167l0.424,2.655c-0.891-0.065-2.418,0.026-4,0.866c-1.821,0.969-2.278,2.562-1.608,3.825
			c0.745,1.402,2.101,1.493,4.755,1.162c3.547-0.442,5.838,0.229,7.185,2.757c1.582,2.983,0.39,6.316-3.649,8.465
			c-1.858,0.988-3.819,1.445-5.387,1.377L1202.086,649.442z"/>
		<path fill="#FFFFFF" d="M1209.967,621.396c0.594,1.035,0.27,2.289-0.958,2.94c-1.084,0.578-2.308,0.146-2.866-0.906
			c-0.579-1.087-0.218-2.36,0.905-2.958C1208.203,619.859,1209.388,620.309,1209.967,621.396z M1218.094,644.986L1209.064,628
			l3.087-1.641l9.028,16.985L1218.094,644.986z"/>
		<path fill="#FFFFFF" d="M1223.43,639.854l2.373-14.089c0.252-1.305,0.523-2.483,0.81-3.806l-0.039-0.068l-9.191,4.886
			l-1.326-2.492l12.951-6.882l0.99,1.947l-2.343,13.891c-0.194,1.319-0.45,2.537-0.757,3.824l0.038,0.07l9.937-5.28l1.304,2.456
			l-13.793,7.332L1223.43,639.854z"/>
		<path fill="#FFFFFF" d="M1238.599,623.916c2.292,4.141,5.871,4.441,8.962,2.801c2.211-1.176,3.337-2.271,4.236-3.379l1.702,1.935
			c-0.829,1.069-2.392,2.619-5.091,4.053c-5.23,2.78-10.182,1.002-12.906-4.125c-2.723-5.123-1.848-10.763,3.1-13.395
			c5.546-2.944,9.612,1.149,11.272,4.272c0.337,0.633,0.524,1.162,0.66,1.495L1238.599,623.916z M1246.479,616.891
			c-1.01-1.983-3.476-4.589-6.947-2.742c-3.123,1.658-2.962,5.268-2.071,7.535L1246.479,616.891z"/>
		<path fill="#FFFFFF" d="M1257.783,599.946l4.386,8.249l7.929-4.215l1.12,2.106l-7.929,4.215l4.417,8.317l-2.245,1.193
			l-4.418-8.317l-7.936,4.215l-1.12-2.106l7.936-4.216l-4.385-8.248L1257.783,599.946z"/>
		<path fill="#FFFFFF" d="M1278.717,588.822l4.382,8.248l7.934-4.215l1.119,2.105l-7.933,4.216l4.42,8.317l-2.246,1.193l-4.42-8.316
			l-7.933,4.215l-1.12-2.107l7.934-4.215l-4.383-8.248L1278.717,588.822z"/>
		<path fill="#FFFFFF" d="M1292.555,587.23c-0.688-1.299-0.297-2.679,0.895-3.312c1.269-0.673,2.557-0.188,3.249,1.11
			c0.649,1.227,0.35,2.604-0.919,3.277C1294.555,588.958,1293.209,588.457,1292.555,587.23z M1300.875,606.528
			c-0.33-2.482-1.375-6.74-2.354-9.509l3.219-2.158c0.744,3.43,1.271,8.146,1.164,10.318L1300.875,606.528z"/>
		<path fill="#FFFFFF" d="M1220.737,739.873c-2.491,1.326-2.042,3.02-1.463,4.109c0.505,0.946,1.146,1.819,1.79,2.692
			c0.646,0.873,1.308,1.779,1.813,2.729c1.883,3.543,0.343,5.985-2.534,7.514l-0.737,0.391l-1.025-1.932l0.595-0.316
			c1.952-1.077,2.23-2.58,1.188-4.543c-0.45-0.844-1.021-1.578-1.59-2.399c-0.59-0.765-1.193-1.566-1.698-2.519
			c-1.194-2.246-0.845-3.961,0.491-5.168l-0.035-0.067c-1.768,0.397-3.348-0.203-4.54-2.449c-0.502-0.945-0.813-1.865-1.141-2.816
			c-0.34-0.897-0.649-1.813-1.077-2.621c-1.007-1.895-2.323-2.592-4.376-1.545l-0.635,0.334l-1.021-1.928l0.702-0.375
			c2.983-1.586,5.852-1.354,7.565,1.873c0.521,0.984,0.888,2.006,1.267,3.066c0.382,1.055,0.764,2.11,1.287,3.096
			c0.654,1.229,1.731,2.41,4.225,1.086L1220.737,739.873z"/>
	</g>
	<g id="icon_17_" opacity="0.5">
		<path fill="#FFFFFF" d="M959.291,611.501c0,3.424,9.736,6.209,21.746,6.209c12.011,0,21.747-2.786,21.747-6.209
			c0-3.432-9.736-6.214-21.747-6.214C969.027,605.287,959.291,608.07,959.291,611.501z M959.291,616.476v7.451
			c0,3.423,9.736,6.217,21.746,6.217c12.011,0,21.747-2.794,21.747-6.217v-7.451c-6.21,4.173-19.791,4.344-21.747,4.344
			C979.088,620.818,965.503,620.648,959.291,616.476z M959.291,628.905v7.442c0,3.436,9.736,6.22,21.746,6.22
			c12.011,0,21.747-2.785,21.747-6.22v-7.442c-6.21,4.173-19.791,4.343-21.747,4.343
			C979.088,633.248,965.503,633.078,959.291,628.905z M959.291,641.332v7.451c0,3.424,9.736,6.21,21.746,6.21
			c12.011,0,21.747-2.786,21.747-6.21v-7.451c-6.21,4.173-19.791,4.341-21.747,4.341
			C979.088,645.673,965.503,645.505,959.291,641.332z M903.996,605.287c-12.012,0-21.75,2.783-21.75,6.214
			c0,3.424,9.738,6.209,21.75,6.209c12.006,0,21.746-2.786,21.746-6.209C925.742,608.07,916.002,605.287,903.996,605.287z
			 M882.246,616.476v7.451c0,3.423,9.738,6.217,21.75,6.217c12.006,0,21.746-2.794,21.746-6.217v-7.451
			c-6.213,4.173-19.791,4.344-21.746,4.344C902.043,620.818,888.455,620.648,882.246,616.476z M882.246,628.905v7.442
			c0,3.436,9.738,6.22,21.75,6.22c12.006,0,21.746-2.785,21.746-6.22v-7.442c-6.213,4.173-19.791,4.343-21.746,4.343
			C902.043,633.248,888.455,633.078,882.246,628.905z M882.246,641.332v7.451c0,3.424,9.738,6.21,21.75,6.21
			c12.006,0,21.746-2.786,21.746-6.21v-7.451c-6.213,4.173-19.791,4.341-21.746,4.341
			C902.043,645.673,888.455,645.505,882.246,641.332z M942.669,570.488c12.013,0,21.749-2.774,21.749-6.214
			c0-3.425-9.736-6.21-21.749-6.21s-21.749,2.785-21.749,6.21C920.92,567.714,930.656,570.488,942.669,570.488z M942.669,582.921
			c12.013,0,21.749-2.789,21.749-6.212v-7.457c-6.214,4.174-19.796,4.347-21.749,4.347c-1.952,0-15.528-0.173-21.749-4.347v7.457
			C920.92,580.132,930.656,582.921,942.669,582.921z M942.669,595.345c12.013,0,21.749-2.786,21.749-6.209v-7.459
			c-6.214,4.173-19.796,4.353-21.749,4.353c-1.952,0-15.528-0.18-21.749-4.353v7.459C920.92,592.56,930.656,595.345,942.669,595.345
			z M942.669,607.77c12.013,0,21.749-2.784,21.749-6.209v-7.45c-6.214,4.172-19.796,4.343-21.749,4.343
			c-1.952,0-15.528-0.171-21.749-4.343v7.45C920.92,604.984,930.656,607.77,942.669,607.77z"/>
		
			<rect x="966.072" y="595.123" transform="matrix(-0.7662 -0.6426 0.6426 -0.7662 1340.2637 1679.5349)" fill="#394145" width="19.203" height="1.646"/>
		<polygon fill="#394145" points="917.723,590.42 916.664,589.16 901.959,601.503 903.011,602.761 		"/>
		<rect x="930.67" y="640.416" fill="#394145" width="24.002" height="2.055"/>
	</g>
	<g id="icon_3_" opacity="0.5">
		<path fill="#FFFFFF" d="M422.722,376.853c-15.334-26.072-44.063-43.571-73.038-45.137c-38.421-2.944-75.331,18.974-91.583,54.31
			c-11.685,23.742-11.238,57.195,0.583,80.618c14.997,32.415,50.223,54.456,85.65,53c35.964-0.055,69.989-24.206,83.931-56.831
			C440.503,436.559,437.718,401.178,422.722,376.853z M336.169,337.14c-14.06,10.365-26.717,25.199-33.897,39.978
			c-7.462-3.732-15.024-8.964-20.785-15.07C296.621,347.432,315.303,338.705,336.169,337.14z M281.259,489.095
			c5.952-6.452,13.332-11.139,20.366-15.106c7.299,14.752,19.065,29.585,33.152,39.985
			C314.184,512.218,295.838,503.2,281.259,489.095z M341.084,511.746c-14.679-9.975-26.873-24.425-34.426-40.123
			c10.583-4.969,21.995-7.48,34.553-7.799L341.084,511.746z M331.665,429.051l9.71,0.046L341.32,458.2
			c-0.428,0.127-1.064,0.173-1.62,0.209c-12.331,0.455-24.443,3.34-35.354,8.1c-3.604-8.8-6.125-18.563-7.28-28.146
			c-1.656,0.71-3.467,1.073-5.351,1.165c1.209,10.347,3.94,20.147,7.798,29.43c-8.217,4.177-15.361,9.883-22.149,16.034
			c-14.014-15.688-21.646-34.535-22.523-55.861l21.149-0.041c-0.619-1.691-1.01-3.494-1.01-5.388l-19.979,0.027l-0.132-0.127
			l0.246-6.726c0.382-0.3-0.082-0.847,0.214-1.238c2.379-18.546,9.359-35.582,22.272-49.649
			c6.771,6.498,14.242,12.103,22.313,16.144c-3.476,7.927-5.896,16.891-7.371,25.763c1.857,0.191,3.604,0.674,5.223,1.447
			c1.356-8.618,3.632-16.867,7.026-24.716c11.303,4.814,23.924,8.018,36.656,8.117l-0.138,30.95l-34.462,0.009
			c0,1.894-0.391,3.695-1,5.388L331.665,429.051z M341.348,387.209c-12.977-0.273-23.269-2.994-34.188-7.595
			c7.479-15.338,20.002-29.58,34.389-39.604L341.348,387.209z M346.854,392.556c8.117-0.287,16.053-1.861,23.643-4.282
			c-1.092-1.465-1.902-3.13-2.439-4.932c-6.67,2.093-13.641,3.458-21.176,3.685l0.073-46.046
			c9.792,6.461,19.047,15.734,26.163,25.671c1.411-1.183,3.012-2.12,4.769-2.757c-7.216-10.22-16.663-19.729-26.481-26.687
			c19.646,2.088,37.83,10.083,52.79,24.666c-2.566,2.617-5.378,5.051-8.327,7.308c1.128,1.475,1.984,3.139,2.557,4.95
			c3.313-2.475,6.507-5.187,9.547-8.153c14.479,15.934,22.049,35.545,22.724,57.604l-33.325,0.055
			c-0.355-11.192-2.293-21.53-5.451-31.45c-1.52,0.992-3.212,1.71-5.033,2.129c3.003,9.218,4.732,18.957,4.987,29.293l-44.855,0.108
			l-0.081-0.091l-0.082-30.64V392.556L346.854,392.556z M407.734,484.845c-3.541-3.386-7.28-6.353-11.131-9.063
			c-1,1.547-2.293,2.875-3.758,3.996c3.851,2.684,7.535,5.732,11.075,9.145c-14.067,13.725-31.596,22.333-50.761,24.717
			c11.021-8.3,20.821-19.074,28.01-30.74c0.019-0.019,0.027-0.036,0.036-0.046c-1.91-0.255-3.694-0.837-5.332-1.701
			c-7.526,11.839-17.927,22.559-29.339,30.413l0.209-47.723c6.953,0.419,13.914,1.702,20.621,3.677c0-0.146-0.037-0.264-0.037-0.399
			c0-1.783,0.355-3.467,0.901-5.069c-6.844-1.938-13.987-3.23-21.458-3.604l0.128-29.329l43.708-0.102l1.247,0.092
			c-0.092,7.98-1.339,15.66-3.35,23.032c1.82,0.628,3.449,1.574,4.896,2.775c2.394-8.582,3.823-17.49,3.932-25.872l31.979-0.063
			c0.382,0.209,0.882,0.081,1.347,0.127C429.847,449.918,421.884,468.865,407.734,484.845z"/>
		<g>
			<path fill="#0099CC" d="M373.936,385.735c2.125,2.867,5.496,4.75,9.328,4.75c0.919,0,1.793-0.137,2.648-0.332
				c1.328-0.31,2.566-0.833,3.676-1.561c3.199-2.079,5.324-5.669,5.324-9.755c0-1.211-0.237-2.348-0.569-3.44
				c-0.423-1.325-1.042-2.539-1.87-3.617c-2.13-2.771-5.441-4.591-9.209-4.591c-1.383,0-2.692,0.282-3.931,0.728
				c-1.283,0.463-2.453,1.151-3.485,2.011c-2.558,2.134-4.23,5.315-4.23,8.91c0,1.146,0.223,2.239,0.537,3.294
				C372.543,383.446,373.134,384.662,373.936,385.735z"/>
			<path fill="#FC6220" d="M387.094,456.17c-1.206-0.428-2.483-0.701-3.831-0.701c-5.124,0-9.428,3.339-10.983,7.944
				c-0.401,1.165-0.664,2.403-0.664,3.704c0,0.101,0.031,0.187,0.031,0.291c0.113,4.332,2.607,8.05,6.22,9.965
				c1.191,0.628,2.503,1.056,3.895,1.238c0.501,0.063,0.983,0.146,1.502,0.146c2.64,0,5.042-0.906,7.002-2.394
				c1.069-0.811,2.017-1.784,2.748-2.912c1.192-1.829,1.898-4,1.898-6.334c0-3.604-1.666-6.779-4.241-8.918
				C389.615,457.317,388.423,456.625,387.094,456.17z"/>
			<path fill="#FC6220" d="M295.919,413.199c-1.178-0.564-2.457-0.91-3.813-1.057c-0.4-0.036-0.783-0.117-1.192-0.117
				c-6.42,0-11.648,5.224-11.648,11.647c0,0.004,0.009,0.015,0.009,0.02c0,1.383,0.282,2.702,0.737,3.939
				c1.629,4.468,5.879,7.686,10.902,7.686c0.2,0,0.391-0.041,0.592-0.06c1.374-0.063,2.694-0.332,3.904-0.852
				c2.985-1.25,5.306-3.727,6.416-6.774c0.446-1.237,0.737-2.558,0.737-3.939c0-0.004,0.009-0.015,0.009-0.02
				C302.572,419.046,299.833,415.083,295.919,413.199z"/>
		</g>
	</g>
</g>
</svg>
