<?xml version="1.0" encoding="utf-8"?>
<!-- Generator: Adobe Illustrator 16.0.0, SVG Export Plug-In . SVG Version: 6.00 Build 0)  -->
<!DOCTYPE svg PUBLIC "-//W3C//DTD SVG 1.1//EN" "http://www.w3.org/Graphics/SVG/1.1/DTD/svg11.dtd">
<svg version="1.1" id="Layer_1" xmlns="http://www.w3.org/2000/svg" xmlns:xlink="http://www.w3.org/1999/xlink" x="0px" y="0px"
	 width="1366px" height="864px" viewBox="0 0 1366 864" enable-background="new 0 0 1366 864" xml:space="preserve">
<animateTransform  type="rotate" fill="remove" accumulate="none" attributeName="transform" begin="0s" repeatCount="indefinite" calcMode="linear" restart="always" to="360 60 60" from="0 60 60" additive="replace" dur="20s">
	</animateTransform>
<g>
	<g id="icon_4_">
		<path fill="#FF1746" d="M-124.062-857.608l14.962,0.477l-1.577,49.554c-4.699,0.86-9.701,1.421-15.03,1.615
			c-2.439,0.075-17.985-0.313-20.552-0.396c-6.607-26.19-23.438-39.981-23.035-52.689L-124.062-857.608L-124.062-857.608z
			 M-47.867-855.182c0,0-13.525-39.941-59.651-51.503l-1.576,49.555L-47.867-855.182z M-148.789-920.829l6.167,0.201
			c1.863,0.056,18.267,0.664,21.203,0.957c5.601,0.542,11.128,1.483,16.426,2.82c51.085,12.801,66.417,56.452,67.04,58.302
			l0.996,2.908c0.082,0.263,0.122,0.53,0.115,0.808c-0.011,0.273-0.068,0.546-0.168,0.799l-1.179,2.836
			c-0.739,1.811-18.821,44.398-70.609,53.918c-5.373,0.983-10.947,1.59-16.573,1.765c-2.954,0.103-19.364-0.322-21.219-0.378
			l-6.167-0.195c-1.016-0.033-1.888-0.742-2.139-1.734l-1.524-5.975c-3.02-12.004-8.545-21.226-13.431-29.353
			c-5.481-9.124-10.21-17.006-9.922-26.227c0.299-9.243,5.513-16.793,11.54-25.553c5.421-7.806,11.516-16.646,15.296-28.451
			l1.898-5.868C-150.719-920.207-149.806-920.858-148.789-920.829z M-147.216-916.216l-1.358,4.246
			c-3.986,12.438-10.299,21.579-15.874,29.64c-5.626,8.167-10.491,15.208-10.744,23.096c-0.25,7.879,4.156,15.234,9.244,23.718
			c5.058,8.406,10.777,17.92,13.963,30.587l1.087,4.317l4.45,0.143c2.227,0.07,18.268,0.466,20.924,0.385
			c5.396-0.17,10.751-0.751,15.911-1.707c49.354-9.074,66.496-49.435,67.206-51.151l0.824-2.044l-0.691-2.091
			c-0.599-1.754-15.141-43.146-63.818-55.329c-5.092-1.284-10.395-2.188-15.769-2.717c-2.648-0.26-18.676-0.881-20.91-0.951
			L-147.216-916.216z"/>
	</g>
	<g>
		
			<rect x="158.71" y="878.91" transform="matrix(-0.0015 -1 1 -0.0015 -719.9621 1043.5746)" fill="#9CEB2F" width="4.665" height="4.663"/>
		<path fill="#9CEB2F" d="M158.495,891.188c0.001,1.449,1.172,2.613,2.638,2.605c1.449,0.005,2.61-1.16,2.611-2.607
			c-0.002-1.461-1.167-2.633-2.612-2.631C159.668,888.559,158.494,889.727,158.495,891.188z"/>
		<path fill="#9CEB2F" d="M137.539,901.56l0.03,41.743c-0.001,0.931,0.783,1.71,1.76,1.708c0.959-0.004,1.745-0.779,1.747-1.709
			l-0.033-41.747c-0.003-0.947-0.783-1.716-1.749-1.712C138.316,899.839,137.537,900.611,137.539,901.56z"/>
		<path fill="#9CEB2F" d="M159.383,901.54l0.032,41.748c0.002,0.93,0.784,1.707,1.756,1.705c0.963-0.001,1.755-0.777,1.753-1.709
			l-0.031-41.745c-0.002-0.95-0.791-1.715-1.755-1.715C160.167,899.824,159.381,900.594,159.383,901.54z"/>
		<rect x="202.47" y="878.884" fill="#9CEB2F" width="4.667" height="4.662"/>
		<path fill="#9CEB2F" d="M136.651,891.207c0.003,1.447,1.182,2.608,2.646,2.606c1.439,0,2.61-1.163,2.609-2.609
			c-0.003-1.459-1.172-2.635-2.612-2.629C137.829,888.574,136.65,889.746,136.651,891.207z"/>
		<path fill="#9CEB2F" d="M181.241,901.526l0.03,41.744c0.001,0.931,0.775,1.707,1.748,1.705c0.96,0.001,1.751-0.775,1.75-1.707
			l-0.032-41.746c-0.003-0.949-0.789-1.715-1.753-1.714C182.017,899.81,181.241,900.577,181.241,901.526z"/>
		<path fill="#9CEB2F" d="M203.081,901.508l0.033,41.746c-0.001,0.933,0.773,1.709,1.751,1.703c0.96,0.001,1.748-0.776,1.748-1.706
			l-0.032-41.746c-0.001-0.949-0.788-1.717-1.751-1.716C203.86,899.794,203.08,900.564,203.081,901.508z"/>
		<rect x="180.7" y="878.824" fill="#9CEB2F" width="4.667" height="4.66"/>
		<path fill="#9CEB2F" d="M180.351,891.175c-0.002,1.444,1.171,2.605,2.63,2.606c1.448,0,2.616-1.163,2.617-2.611
			c0-1.457-1.174-2.632-2.619-2.627C181.522,888.543,180.348,889.713,180.351,891.175z"/>
		<rect x="93.269" y="879" fill="#9CEB2F" width="4.67" height="4.665"/>
		<path fill="#9CEB2F" d="M92.962,891.242c0.002,1.445,1.176,2.604,2.641,2.605c1.438-0.002,2.599-1.165,2.599-2.613
			c0.001-1.455-1.165-2.633-2.604-2.631C94.134,888.605,92.959,889.78,92.962,891.242z"/>
		<path fill="#9CEB2F" d="M93.848,901.592l0.03,41.742c0,0.936,0.784,1.708,1.755,1.707c0.961,0.001,1.753-0.776,1.753-1.709
			l-0.032-41.744c-0.001-0.944-0.793-1.718-1.75-1.716C94.627,899.874,93.846,900.646,93.848,901.592z"/>
		<path fill="#9CEB2F" d="M202.191,891.157c-0.002,1.448,1.17,2.609,2.631,2.606c1.452,0,2.62-1.16,2.619-2.61
			c-0.001-1.459-1.172-2.63-2.62-2.629C203.364,888.528,202.19,889.696,202.191,891.157z"/>
		<path fill="#9CEB2F" d="M73.574,960.623l200.357-0.153l-0.07-95.987l-200.357,0.149L73.574,960.623z M259.294,912.497
			c0.005,5.819-4.725,10.558-10.55,10.567c-5.837,0.003-10.58-4.729-10.584-10.554c-0.006-5.825,4.73-10.574,10.569-10.578
			C254.555,901.929,259.292,906.668,259.294,912.497z M212.901,880.216l0.048,64.617c0.005,4.273-3.577,7.759-7.976,7.764
			c-4.413,0.005-7.998-3.475-8-7.753l-0.049-64.618c-0.003-4.27,3.577-7.766,7.986-7.77
			C209.316,872.453,212.896,875.937,212.901,880.216z M191.059,880.232l0.046,64.618c0.008,4.27-3.576,7.761-7.976,7.764
			c-4.414,0.004-7.996-3.476-8-7.752l-0.049-64.617c0-4.27,3.579-7.766,7.989-7.771
			C187.468,872.472,191.055,875.952,191.059,880.232z M169.21,880.251l0.048,64.614c0.005,4.274-3.583,7.761-7.971,7.765
			c-4.417,0.004-8.001-3.477-8.006-7.751l-0.049-64.618c-0.001-4.271,3.578-7.771,7.996-7.769
			C165.607,872.489,169.206,875.97,169.21,880.251z M147.363,880.268l0.05,64.617c0.003,4.271-3.578,7.761-7.97,7.762
			c-4.422,0.006-8.006-3.475-8.009-7.753l-0.046-64.613c-0.004-4.275,3.576-7.769,7.995-7.772
			C143.769,872.501,147.361,875.987,147.363,880.268z M125.514,880.283l0.049,64.618c0.001,4.272-3.577,7.759-7.971,7.764
			c-4.424,0.004-8.001-3.478-8.006-7.754l-0.05-64.615c-0.003-4.274,3.576-7.768,7.994-7.771
			C121.923,872.519,125.512,876.004,125.514,880.283z M103.666,880.302l0.049,64.614c0.004,4.273-3.578,7.761-7.975,7.764
			c-4.418,0.005-7.998-3.476-7.998-7.751l-0.05-64.617c-0.003-4.273,3.574-7.768,7.988-7.774
			C100.077,872.537,103.662,876.021,103.666,880.302z"/>
		<rect x="115.035" y="878.843" fill="#9CEB2F" width="4.667" height="4.663"/>
		<path fill="#9CEB2F" d="M114.811,891.224c0.002,1.445,1.175,2.608,2.636,2.607c1.446-0.003,2.611-1.163,2.608-2.61
			c0.001-1.461-1.171-2.634-2.613-2.632C115.981,888.591,114.809,889.761,114.811,891.224z"/>
		<path fill="#9CEB2F" d="M115.695,901.571l0.033,41.747c0.002,0.933,0.781,1.705,1.757,1.709c0.961-0.001,1.752-0.777,1.75-1.708
			l-0.031-41.75c0.001-0.945-0.792-1.715-1.751-1.713C116.476,899.856,115.697,900.627,115.695,901.571z"/>
		<rect x="136.848" y="878.879" fill="#9CEB2F" width="4.667" height="4.665"/>
	</g>
	<g>
		<path fill="#BE1E2D" d="M-587.506,833.219c-3.5-3.007-14.9,4.503-25.45,16.784c-10.548,12.283-16.249,24.686-12.747,27.694
			c3.507,3.013,14.902-4.498,25.453-16.782C-589.703,848.63-583.997,836.23-587.506,833.219z M-592.591,828.851l-7.621-6.545
			c-3.499-3.011-14.909,4.497-25.457,16.78c-10.549,12.28-16.245,24.688-12.742,27.699l7.618,6.54
			c1.187-10.018,12.939-24.057,14.659-26.053C-614.422,845.281-602.312,831.539-592.591,828.851z M-605.303,817.932l-7.607-6.535
			c-3.518-3.017-14.917,4.491-25.465,16.771c-10.548,12.283-16.253,24.687-12.733,27.705l7.606,6.536
			c1.186-10.017,12.938-24.057,14.657-26.052C-627.133,834.362-615.026,820.618-605.303,817.932z M-618.015,807.018l-7.615-6.542
			c-3.504-3.009-14.901,4.502-25.454,16.782c-10.547,12.285-16.251,24.688-12.748,27.693l7.618,6.544
			c1.188-10.013,12.942-24.05,14.661-26.049C-639.839,823.45-627.732,809.706-618.015,807.018z M-532.584,782.129
			c10.552-12.284,16.257-24.686,12.75-27.7c-3.501-3.005-14.904,4.506-25.454,16.785c-10.547,12.282-16.251,24.69-12.75,27.698
			C-554.526,801.923-543.128,794.406-532.584,782.129z M-524.921,750.06l-7.617-6.543c-3.504-3.008-14.916,4.501-25.462,16.779
			c-10.548,12.277-16.246,24.693-12.743,27.701l7.62,6.541c1.184-10.018,12.938-24.06,14.65-26.056
			C-546.75,766.49-534.644,752.744-524.921,750.06z M-537.63,739.142l-7.608-6.533c-3.518-3.018-14.921,4.494-25.467,16.773
			c-10.546,12.277-16.255,24.688-12.737,27.71l7.607,6.533c1.186-10.017,12.94-24.058,14.659-26.056
			C-559.462,755.572-547.355,741.828-537.63,739.142z M-550.342,728.229l-7.618-6.547c-3.502-3.007-14.906,4.51-25.453,16.791
			c-10.55,12.279-16.255,24.684-12.75,27.69l7.618,6.545c1.19-10.017,12.944-24.054,14.661-26.052
			C-572.169,744.66-560.061,730.913-550.342,728.229z M-530.964,852.241c-10.552,12.285-16.265,24.677-12.747,27.698
			c3.505,3.01,14.899-4.5,25.454-16.784c10.55-12.284,16.257-24.686,12.75-27.695C-509.021,832.438-520.414,839.958-530.964,852.241
			z M-543.678,841.323c-10.552,12.283-16.251,24.687-12.748,27.695l7.625,6.548c1.189-10.02,12.94-24.062,14.658-26.058
			c1.709-1.997,13.813-15.729,23.544-18.424l-7.626-6.55C-521.723,821.531-533.125,829.04-543.678,841.323z M-556.378,830.41
			c-10.555,12.285-16.26,24.687-12.758,27.694l7.63,6.552c1.189-10.02,12.932-24.068,14.644-26.065
			c1.715-1.994,13.828-15.721,23.558-18.418l-7.629-6.549C-534.43,810.615-545.832,818.129-556.378,830.41z M-569.089,819.496
			c-10.552,12.289-16.257,24.687-12.752,27.696l7.617,6.543c1.192-10.021,12.945-24.057,14.662-26.056
			c1.711-1.999,13.813-15.73,23.542-18.427l-7.615-6.543C-547.137,799.702-558.539,807.214-569.089,819.496z"/>
		
			<rect x="-598.799" y="862.41" transform="matrix(-0.9867 0.1626 -0.1626 -0.9867 -1023.4658 1810.8291)" fill="#394145" width="25.884" height="2.221"/>
		<polygon fill="#394145" points="-529.436,809.225 -527.217,809.247 -526.924,783.369 -529.135,783.342 		"/>
		
			<rect x="-619.705" y="788.533" transform="matrix(-0.6515 0.7586 -0.7586 -0.6515 -397.5063 1762.4274)" fill="#394145" width="32.355" height="2.772"/>
	</g>
	<g>
		<polygon opacity="0.6" fill="#394145" enable-background="new    " points="-525.053,-673.099 -529.927,-677.024 
			-523.173,-685.41 -538.741,-697.945 -532.199,-706.072 -496.189,-677.082 -502.733,-668.955 -518.3,-681.488 		"/>
		<g>
			<path fill="#FFBD00" d="M-634.689-654.547l49.827-61.89l110.042,88.602l-40.993,50.912c-3.208,3.989-9.105,4.625-13.097,1.413
				l-55.967-45.067c-2.574-2.07-6.192-1.984-8.658,0.043c-0.141,0.113-0.293,0.243-0.427,0.375l0,0
				c-3.323,3.15-8.587,3.463-12.254,0.512l-27.075-21.797C-637.282-644.66-637.907-650.551-634.689-654.547z"/>
		</g>
	</g>
	<g>
		<path opacity="0.6" fill="#27AAE1" enable-background="new    " d="M695.367,1058.554c-1.582-2.228-5.248-4.491-7.25-6.173
			c8.199-11.605,10.496-27.257,1.801-39.511c-10.644-15.006-31.102-18.915-46.482-9.223c-0.528-1-1.098-1.99-1.769-2.938
			c-8.284-11.676-24.468-14.432-36.144-6.15c-11.678,8.285-14.421,24.473-6.137,36.146c6.162,8.686,35.773,50.423,45.283,63.817
			c9.938,14.012,29.331,17.299,43.339,7.362C702.006,1091.956,705.303,1072.559,695.367,1058.554z"/>
		<polygon fill="#394145" points="620.712,1063.01 624.209,1067.941 615.725,1073.96 626.9,1089.706 618.679,1095.541 
			592.837,1059.119 601.06,1053.287 612.228,1069.026 		"/>
	</g>
	<path fill="#00A207" d="M629.49-402.184c-0.062-0.425-0.18-0.855-0.401-1.256l-28.644-52.347c-0.912-1.66-3.008-2.276-4.666-1.369
		l-82.479,45.14c-1.659,0.904-2.275,3.005-1.365,4.665l28.643,52.348c0.22,0.402,0.503,0.737,0.849,1.009L629.49-402.184z
		 M517.648-408.211l78.988-43.224l25.91,47.348l-78.988,43.223L517.648-408.211z M647.882-395.93c0,0,2.053,3.754-1.711,5.814
		c-3.759,2.056-99.811,54.62-103.578,56.679c-3.766,2.062-5.817-1.694-5.817-1.694l11.528-6.309l88.058-48.188L647.882-395.93z"/>
	<g>
		<path fill="#92278F" d="M-44.663-416.208l-8.909,1.313c-1.807,0.264-3.486-0.984-3.752-2.79l-0.2-1.364
			c-0.266-1.803-1.803-3.076-3.433-2.833c-1.634,0.239-2.738,1.896-2.471,3.704l0.199,1.36c0.265,1.806-0.981,3.487-2.79,3.751
			l-28.531,4.196c-1.805,0.268-3.053,1.948-2.786,3.749l0.25,1.709c0.264,1.804,1.803,3.93,3.438,4.75l33.824,16.916
			c1.636,0.814,4.064,1.314,5.431,1.11c1.365-0.198,2.256-1.824,1.992-3.628l-2.896-19.68c-0.265-1.803,0.984-3.482,2.789-3.746
			l8.91-1.311c1.806-0.266,3.054-1.945,2.788-3.752l-0.096-0.669C-41.179-415.229-42.857-416.474-44.663-416.208z M-59.055-387.841
			c-0.05,0.007-1.401-0.664-3.021-1.507l-18.275-9.459c-1.95-0.81-3.803-1.551-5.918-2.338c-1.708-0.638-3.115-1.183-3.125-1.256
			c-0.011-0.071,1.454-0.257,3.269-0.455c1.87-0.207,3.738-0.443,5.599-0.718l15.569-2.291c1.808-0.266,3.485,0.982,3.749,2.786
			l1.761,11.949C-59.184-389.319-59.007-387.847-59.055-387.841z"/>
		<path fill="#92278F" d="M-100.843-463.46c0.282-1.804-0.703-3.44-2.479-3.717c-1.781-0.272-3.65,0.923-3.904,2.729
			c-0.419,2.991-0.539,7.13,0.155,11.837c2.886,19.618,17.422,29.807,34.877,27.238c9.112-1.34,16.459-5.614,20.586-11.365
			c4.627-6.534,5.802-14.158,4.5-23.012c-0.874-5.947-2.739-11.095-4.371-14.641c-0.766-1.659-2.96-2.733-4.769-2.463l-21.583,3.175
			c-1.808,0.266-3.055,1.947-2.792,3.751l1.873,12.73c0.268,1.806,1.844,3.07,3.524,2.821c1.675-0.248,2.822-1.913,2.559-3.717
			l-0.774-5.269c-0.267-1.803,0.983-3.485,2.788-3.749l10.908-1.607c1.805-0.267,4.089,0.769,4.702,2.486
			c0.621,1.741,1.192,4.029,1.608,6.873c2.021,13.715-5.444,23.86-20.292,26.043c-14.667,2.157-24.891-5.826-26.989-20.064
			C-101.322-457.512-101.276-460.744-100.843-463.46z"/>
		<path fill="#92278F" d="M-61.02-354.284c9.235-1.359,16.605-8.442,18.317-17.626c0.092-0.501-0.015-1.021-0.308-1.439
			c-0.289-0.427-0.732-0.712-1.231-0.808c-1.029-0.19-2.066,0.517-2.251,1.539c-1.416,7.562-7.475,13.395-15.092,14.514
			c-6.965,1.025-13.932-2.131-17.759-8.039c-0.361-0.567-0.698-1.155-0.997-1.748c-0.372-0.753-1.177-1.176-2.008-1.054
			c-0.204,0.029-0.391,0.09-0.58,0.181c-0.953,0.471-1.346,1.633-0.873,2.587c0.37,0.739,0.777,1.462,1.216,2.136
			C-77.937-356.87-69.477-353.037-61.02-354.284z"/>
		<path fill="#92278F" d="M-59.396-343.246c13.159-1.937,23.828-11.51,27.171-24.39c0.259-1.029-0.359-2.085-1.389-2.357
			c-1.011-0.249-2.09,0.39-2.355,1.389c-2.949,11.371-12.375,19.823-23.989,21.535c-10.326,1.52-20.746-2.637-27.199-10.846
			c-0.722-0.916-1.396-1.892-2.013-2.899c-0.402-0.664-1.161-1.021-1.927-0.911c-0.253,0.037-0.497,0.128-0.718,0.261
			c-0.445,0.273-0.758,0.694-0.869,1.194c-0.132,0.5-0.049,1.02,0.22,1.461c0.688,1.131,1.458,2.235,2.276,3.274
			C-82.886-346.232-71.084-341.526-59.396-343.246z"/>
		<path fill="#92278F" d="M-21.842-364.943c0.268-1.028-0.357-2.087-1.388-2.357c-1.019-0.262-2.099,0.39-2.356,1.387
			c-4.04,15.557-16.919,27.119-32.812,29.453c-15.275,2.251-30.639-4.622-39.133-17.52c-0.276-0.417-0.546-0.833-0.801-1.264
			c-0.413-0.666-1.169-1.021-1.934-0.907c-0.254,0.039-0.495,0.128-0.722,0.259c-0.443,0.269-0.752,0.691-0.87,1.188
			c-0.126,0.499-0.049,1.025,0.226,1.463c0.279,0.468,0.574,0.927,0.868,1.39c9.322,14.139,26.17,21.683,42.929,19.214
			C-40.404-335.2-26.271-347.885-21.842-364.943z"/>
		<path fill="#92278F" d="M-63.344-487.087c0.481,0.925,1.674,1.308,2.603,0.828c0.455-0.235,0.796-0.637,0.95-1.131
			c0.159-0.49,0.111-1.017-0.125-1.467c-4.28-8.302-13.375-12.962-22.619-11.602c-8.455,1.241-15.453,7.351-17.838,15.553
			c-0.222,0.776-0.404,1.578-0.549,2.394c-0.176,1.053,0.535,2.053,1.584,2.229c0.201,0.032,0.4,0.032,0.608,0.003
			c0.83-0.122,1.479-0.762,1.619-1.586c0.111-0.655,0.267-1.315,0.452-1.959c1.959-6.761,7.725-11.786,14.692-12.812
			C-74.357-497.76-66.872-493.923-63.344-487.087z"/>
		<path fill="#92278F" d="M-84.153-511.495c-11.688,1.718-21.635,9.622-25.955,20.628c-0.484,1.231-0.903,2.512-1.235,3.796
			c-0.132,0.5-0.06,1.024,0.208,1.459c0.253,0.447,0.679,0.766,1.181,0.894c0.249,0.062,0.504,0.08,0.761,0.043
			c0.763-0.115,1.387-0.676,1.585-1.43c0.303-1.144,0.663-2.269,1.091-3.35c3.813-9.727,12.594-16.706,22.919-18.224
			c11.615-1.711,23.076,3.673,29.181,13.708c0.538,0.882,1.759,1.185,2.649,0.649c0.911-0.552,1.198-1.745,0.651-2.654
			C-58.021-507.341-70.995-513.433-84.153-511.495z"/>
		<path fill="#92278F" d="M-121.29-491.344c-0.15,0.526-0.302,1.054-0.432,1.58c-0.131,0.504-0.053,1.023,0.202,1.464
			c0.262,0.443,0.679,0.763,1.181,0.888c0.248,0.064,0.507,0.08,0.761,0.041c0.765-0.112,1.387-0.672,1.592-1.429
			c0.12-0.487,0.257-0.963,0.402-1.441c4.419-14.793,17.153-25.805,32.43-28.051c15.892-2.339,31.558,5.022,39.906,18.758
			c0.536,0.877,1.759,1.191,2.658,0.646c0.906-0.555,1.207-1.745,0.651-2.651c-9.159-15.064-26.343-23.14-43.777-20.577
			C-102.474-519.644-116.433-507.566-121.29-491.344z"/>
	</g>
	<g>
		<path fill="#662D91" d="M344.496,590.818c-0.003-4.761-3.876-8.624-8.635-8.62l-76.625,0.057c-4.76,0.004-8.627,3.872-8.627,8.633
			l0.016,16.174c-0.003,1.346,1.101,2.45,2.447,2.451c0,0,0.077,0.002,0.171-0.002c0.088-0.001,0.163,1.234,0.167,2.757l0.004,6.579
			c0.003,1.521-0.072,2.755-0.161,2.754l-0.169,0.002c-1.348,0.001-2.449,1.102-2.445,2.455l0.019,25.334
			c0.001,1.349,1.102,2.452,2.451,2.452c0,0,0.074-0.004,0.166-0.003c0.091,0,0.168,1.232,0.17,2.756l0,1.948
			c0.002,1.52-0.072,2.754-0.164,2.755l-0.169-0.001c-1.345,0.004-2.447,1.104-2.447,2.453l0.023,26.741
			c0,4.757,3.878,8.623,8.637,8.62l76.625-0.058c4.759-0.003,8.624-3.875,8.62-8.631l-0.045-64.437
			c-0.002-1.346-1.1-2.447-2.453-2.445c0,0-0.767-0.003-1.711,0.001c-0.948-0.001-1.711-1.235-1.714-2.759l-0.003-6.577
			c-0.004-1.522,0.764-2.755,1.711-2.756l1.711-0.004c1.351,0,2.446-1.1,2.447-2.453L344.496,590.818z M336.202,626.44
			c0,0,0.768-0.003,1.712-0.001c0.943,0,1.71,1.231,1.712,2.753l0.046,59.23c0,2.051-1.673,3.721-3.731,3.723l-76.624,0.058
			c-2.054,0.003-3.729-1.665-3.73-3.721l-0.017-21.534c-0.002-1.519,0.074-2.753,0.164-2.753l0.163-0.003
			c1.348-0.001,2.454-1.102,2.455-2.453l-0.009-12.355c0.001-1.352-1.103-2.452-2.458-2.447c0,0-0.076-0.002-0.167-0.004
			c-0.086,0.004-0.164-1.233-0.165-2.752l-0.011-14.93c-0.002-1.52,0.071-2.752,0.161-2.748l0.164-0.003
			c1.353-0.002,2.456-1.103,2.454-2.456l-0.012-16.99c0-1.344-1.102-2.45-2.457-2.45c0,0-0.071,0.002-0.165,0.001
			c-0.093-0.001-0.167-1.236-0.168-2.754l-0.006-10.965c0-2.058,1.668-3.732,3.726-3.732l76.624-0.059
			c2.059-0.002,3.733,1.666,3.735,3.727l0.01,10.966c-0.002,1.521-0.764,2.758-1.71,2.757l-1.713-0.001
			c-1.346,0.004-2.451,1.102-2.45,2.453l0.014,16.991C333.749,625.341,334.852,626.442,336.202,626.44z"/>
		<path fill="#662D91" d="M319.51,668.919l2.671,6.144c0.711,1.66,1.874,1.66,2.585-0.003l2.654-6.147
			c0.713-1.658-0.169-2.999-1.974-3.002l-3.968,0.006C319.667,665.919,318.792,667.261,319.51,668.919z"/>
		<path fill="#662D91" d="M320.093,656.984c0.001,0.541,1.033,1.657,2.303,2.491l0.849,0.558c1.273,0.835,2.541,1.509,2.84,1.51
			c0.296-0.002,0.534-0.89,0.536-1.984c-0.003-1.1,0.497-1.985,1.109-1.986c0.612,0.001,1.11-0.349,1.109-0.783
			c-0.001-0.433-0.498-0.78-1.111-0.78c-0.614-0.001-1.11-0.251-1.113-0.564c0.002-0.311-0.279-0.564-0.624-0.565
			c-0.343,0.004-0.626,0.253-0.625,0.567c-0.001,0.31-1.184,0.565-2.641,0.568C321.273,656.013,320.094,656.454,320.093,656.984z
			 M324.177,657.575c0.657-0.003,1.192,0.53,1.195,1.19c0.002,0.658-0.545,0.836-1.215,0.386c-0.606-0.401-1.211-0.813-1.211-0.813
			c-0.25-0.138-0.487-0.263-0.735-0.39c-0.41-0.215-0.405-0.387,0.018-0.384c0.256,0.001,0.512,0.012,0.761,0.012
			C322.987,657.575,323.517,657.575,324.177,657.575z"/>
		<path fill="#662D91" d="M325.134,648.751c-0.001-0.44,0.513-0.801,1.138-0.801c0.627-0.004,1.24,0.268,1.283,0.618
			c0.021,0.181,0.034,0.393,0.036,0.633c0,1.879-1.224,3.148-3.284,3.151c-2.111,0.001-3.258-1.356-3.26-3.296
			c0-0.408,0.029-0.755,0.083-1.055c0.1-0.578,0.014-1.089-0.356-1.191c-0.368-0.101-0.894,0.335-1.003,1.008
			c-0.058,0.358-0.094,0.773-0.094,1.227c0.003,2.999,1.832,5.03,4.711,5.04c1.376,0.002,2.574-0.459,3.337-1.262
			c0.824-0.863,1.214-2.037,1.212-3.568c0.002-0.518-0.056-1.025-0.136-1.478c-0.142-0.805-1.41-1.43-2.672-1.43
			c-1.27,0.004-2.294,0.718-2.296,1.603c0.003,0.887,0.297,1.604,0.653,1.6C324.843,649.552,325.135,649.195,325.134,648.751z"/>
		<path fill="#662D91" d="M323.205,639.131c-0.362-0.291-0.781-0.435-1.226-0.435c-0.781-0.001-1.374,0.376-1.713,0.937
			c-0.411,0.607-0.571,1.373-0.572,2.589c-0.002,0.416,0.017,0.828,0.047,1.213c0.052,0.671,1.384,1.21,2.906,1.208h3.401
			c1.521-0.001,2.814-0.458,2.85-1.021c0.017-0.299,0.028-0.638,0.029-1.017c0-1.664-0.289-2.734-0.842-3.377
			c-0.443-0.515-1.081-0.862-1.887-0.86c-0.594,0.001-1.075,0.202-1.44,0.518C324.105,639.441,323.776,639.59,323.205,639.131z
			 M320.928,642.531c-0.007-0.132-0.012-0.289-0.01-0.474c-0.004-1.053,0.392-1.697,1.253-1.699c0.759,0,1.306,0.63,1.307,1.792
			c0,0,0,0.193,0,0.423c0,0.236-0.555,0.427-1.245,0.427C321.543,643.002,320.941,642.79,320.928,642.531z M327.671,642.562
			c-0.006,0.24-0.697,0.437-1.519,0.438c-0.822-0.002-1.482-0.187-1.484-0.415l0-0.408c-0.001-1.138,0.427-2.074,1.494-2.074
			c1.115,0.001,1.505,0.956,1.507,2.021C327.673,642.287,327.674,642.433,327.671,642.562z"/>
	</g>
	<g>
		<path fill="#603913" d="M777.477,24.908l-5.574-49.809c-0.133-1.16-0.902-2.134-2-2.541c-1.109-0.41-2.318-0.159-3.172,0.643
			l-2.316,2.188c-2.021,1.895-4.658,2.901-7.42,2.825c-2.799-0.085-5.379-1.251-7.268-3.263l-40.449-42.924
			c-1.885-1.988-5.053-2.085-7.072-0.205l-19.522,18.417c-1.805,1.707-1.917,5.295-0.225,7.075l40.43,42.916
			c1.609,1.709,2.525,4.254,2.527,7.003c0.004,3.022-1.131,5.889-3.033,7.646l-2.766,2.569c-0.838,0.777-1.191,1.99-0.854,3.133
			c0.328,1.115,1.285,1.966,2.418,2.157l53.133,9.295c0.955,0.166,1.943-0.132,2.646-0.798c0.307-0.287,0.553-0.638,0.715-1.02
			C777.955,29.575,777.73,27.165,777.477,24.908z M730.211,14.161c0.898-2.123,1.379-4.488,1.377-6.936
			c-0.004-4.29-1.537-8.371-4.209-11.219L690.465-42.98c-1.557-1.646-1.496-4.254,0.152-5.82l11.904-11.351
			c1.645-1.568,4.238-1.493,5.795,0.159l36.91,39.159c3.014,3.215,7.121,5.068,11.568,5.213c2.045,0.063,4.063-0.259,5.959-0.925
			c2.139-0.754,3.877,0,4.127,2.259l3.986,35.449c0.256,2.258-1.354,3.77-3.59,3.38l-35.082-6.132
			C729.949,18.014,729.324,16.251,730.211,14.161z"/>
		<path fill="#603913" d="M695.041-157.531c-0.273,0.642-0.045,3.059,0.207,5.317l5.574,49.787c0.133,1.164,0.9,2.144,1.996,2.544
			c1.1,0.409,2.311,0.16,3.178-0.636l2.322-2.185c2.018-1.907,4.65-2.912,7.416-2.834c2.795,0.092,5.371,1.25,7.268,3.271
			l40.447,42.915c1.887,1.989,5.057,2.085,7.066,0.207l19.527-18.416c0.977-0.919,1.537-2.252,1.531-3.665
			c-0.002-1.309-0.465-2.531-1.311-3.422l-40.43-42.902c-1.506-1.607-2.369-4.142-2.373-6.947c0-3.166,1.076-6.037,2.871-7.71
			l2.771-2.563c0.848-0.788,1.195-2.066,0.855-3.144c-0.328-1.111-1.281-1.958-2.422-2.155l-53.135-9.286
			c-0.955-0.167-1.945,0.13-2.648,0.789C695.451-158.269,695.213-157.916,695.041-157.531z M742.514-141.471
			c-0.896,2.121-1.381,4.485-1.375,6.931c0,4.288,1.531,8.372,4.205,11.223l36.842,39.052c1.563,1.651,1.486,4.258-0.15,5.826
			l-11.828,11.271c-1.645,1.568-4.238,1.497-5.799-0.156l-36.912-39.16c-3.01-3.209-7.119-5.064-11.57-5.213
			c-2.049-0.056-4.063,0.262-5.961,0.928c-2.139,0.756-3.875,0.005-4.123-2.251l-3.984-35.465c-0.25-2.256,1.355-3.768,3.594-3.375
			l35.082,6.141C742.771-145.333,743.398-143.565,742.514-141.471z"/>
	</g>
	<g>
		<path fill="#ED1C24" d="M742.381,641.107l-0.104-132.838c0-6.784-5.557-12.307-12.338-12.302c0,0-2.041-0.002-4.561,0.003
			c-2.518-0.001-4.561-1.644-4.561-3.679l-0.002-3.678c-0.008-7.77-7.543-14.075-16.82-14.069l-21.022,0.018
			c-9.268,0.008-16.789,6.324-16.782,14.089c0,0,0,1.648,0.002,3.682c0,2.033-1.191,3.682-2.663,3.681l-2.664,0.003
			c-6.803,0.005-12.327,5.537-12.321,12.323l0.098,132.838c0.019,26.567,21.058,48.146,46.897,48.128
			C721.385,689.289,742.4,667.677,742.381,641.107z M672.922,492.328l-0.005-3.679c0-4.05,4.515-7.348,10.058-7.351l21.028-0.014
			c5.57-0.005,10.084,3.284,10.092,7.337c0,0-0.002,1.646,0.002,3.678c-0.002,2.032-2.096,3.684-4.68,3.683l-31.811,0.026
			C675.022,496.009,672.925,494.363,672.922,492.328z M655.377,641.174l-0.101-132.84c-0.001-3.082,2.504-5.598,5.597-5.601
			l8.681-0.008l47.918-0.035l12.471-0.011c3.09-0.001,5.592,2.513,5.594,5.593l0.1,132.839
			c0.018,22.848-17.959,41.447-40.098,41.467C673.4,682.594,655.394,664.02,655.377,641.174z"/>
		<path fill="#ED1C24" d="M725.844,518.368c-0.002-2.58-2.1-4.677-4.686-4.676l-51.488,0.036c-2.583,0.006-4.682,2.101-4.678,4.686
			l0.091,121.667c-0.043,17.167,13.768,30.558,30.444,30.541c16.682-0.01,30.416-13.42,30.404-30.589L725.844,518.368
			L725.844,518.368z M688.582,634.553l-0.012-17.031c-0.006-2.59-2.092-5.123-4.346-6.387c-5.169-2.905-8.667-8.435-8.672-14.786
			l-0.02-27.066c-0.002-4.688,3.795-8.492,8.487-8.495c0,0,0.291-0.005,0.662,0c0.363-0.003,0.662-2.099,0.662-4.683l-0.006-6.997
			c-0.002-1.759,1.424-3.189,3.182-3.189c1.758-0.003,3.195,1.429,3.193,3.185l0.002,6.997c0.004,2.584,1.666,4.68,3.721,4.682
			c2.051-0.003,3.709-2.099,3.709-4.686l-0.006-6.998c-0.004-1.757,1.426-3.187,3.188-3.188c1.756-0.005,3.188,1.43,3.188,3.184
			l0.006,6.997c0.004,2.584,0.301,4.684,0.67,4.68l0.662,0.004c4.695-0.003,8.498,3.794,8.5,8.483l0.021,27.066
			c0.004,6.357-3.484,11.884-8.648,14.798c-2.254,1.271-4.338,3.806-4.334,6.393l0.01,17.031c0,1.18-0.947,2.131-2.127,2.132
			l-9.553,0.006C689.537,636.682,688.582,635.735,688.582,634.553z"/>
	</g>
	<g>
		<path fill="#2E3192" d="M164.364-300.086l-10.99,0.318c-8.604,0.247-14.49,3.185-16.329,8.058
			c-1.879,4.953,0.545,10.938,6.835,16.871l35.181,33.204c1.417,1.337,0.994,2.597-0.943,2.806l-50.426,5.502
			c-1.647,0.176-2.94,1.782-2.758,3.439c0.188,1.706,1.726,2.947,3.436,2.762l52.064-5.679c1.936-0.213,3.396,1.189,3.253,3.136
			l-3.729,51.158c-0.062,0.831,0.207,1.637,0.754,2.269c0.544,0.627,1.302,1.009,2.123,1.071c1.648,0.131,3.225-1.207,3.348-2.885
			l3.618-49.68c0.144-1.945,1.407-2.437,2.826-1.098l40.319,38.057c6.318,5.96,12.321,8.033,16.902,5.832
			c0.966-0.467,1.83-1.098,2.572-1.883c2.807-2.98,3.994-8.146,3.435-14.955l-1.2-14.675c-0.563-6.93-3.399-13.25-8.069-18.148
			c-1.343-1.414-3.799-3.434-5.438-4.493c-5.688-3.659-12.435-5.247-19.347-4.494l-27.589,3.014
			c-1.938,0.208-3.395-1.194-3.252-3.14l1.938-26.55c0.607-8.173-2.035-15.776-7.436-21.421
			C180.053-297.34,172.562-300.322,164.364-300.086z M240.024-232.197c4.897,4.053,7.887,9.819,8.417,16.255l1.199,14.677
			c0.455,5.534-0.509,9.786-2.497,10.71c-1.968,0.951-5.862-0.917-9.922-4.747l-38.929-36.743c-1.416-1.336-0.996-2.596,0.944-2.804
			l23.246-2.536C228.896-238.084,235.126-236.245,240.024-232.197z M185.045-248.316c-0.147,1.946-1.407,2.434-2.827,1.099
			l-34.061-32.15c-4.206-3.972-6.183-7.749-5.281-10.124c0.155-0.395,0.4-0.779,0.748-1.147c1.626-1.727,5.155-2.755,9.931-2.897
			l10.986-0.317c6.412-0.186,12.237,2.115,16.413,6.479c4.158,4.353,6.195,10.267,5.719,16.656L185.045-248.316z"/>
	</g>
	<path fill="#EF4136" d="M-600.236-163.506c4.836,1.387,8.746,5.82,8.722,9.911l-0.042,7.401
		c-0.043,9.023,6.958,18.387,15.634,20.87l6.372,1.826c8.623,2.466,19.818-1.511,24.931-8.894c0,0,1.969-2.844,4.393-6.342
		c2.425-3.495,7.594-5.42,11.534-4.29c3.947,1.129,6.603,3.89,5.949,6.181l-1.183,4.133c-0.335,1.173,0.351,2.396,1.518,2.728
		l14.992,4.292c1.183,0.34,2.392-0.34,2.728-1.512c0,0,0.61-2.131,1.364-4.767c0.756-2.639,5.531-4.685,10.345-6.16
		c6.084-1.874,11.54-5.559,15.536-10.608c3.131-3.952,4.661-8.005,4.766-8.205c0.061-0.115,0.108-0.243,0.15-0.387
		c0.021-0.076,0.035-0.16,0.028-0.243c0.001-0.132,0.148-0.641,0.328-1.138c0.106-0.3,0.21-0.608,0.299-0.913l13.044-45.559
		c4.794-16.745-4.932-34.274-21.687-39.071l-99.29-28.427c-16.736-4.794-34.286,4.928-39.078,21.671l-13.045,45.561
		c-4.795,16.747,4.948,34.281,21.687,39.074L-600.236-163.506L-600.236-163.506z M-568.343-127.75l-6.37-1.828
		c-6.9-1.972-12.494-9.424-12.445-16.595c0,0,0.011-3.04,0.044-6.791c0.019-3.746,3.961-5.664,8.808-4.273l29.237,8.369
		c4.835,1.386,6.983,5.07,4.786,8.239l-3.971,5.729C-552.37-128.973-561.378-125.756-568.343-127.75z M-513.699-132.075
		c-2.977-0.851-4.992-2.918-4.506-4.618c0.488-1.702,2.308-2.668,4.07-2.163l3.191,0.913c0,0,0.98,0.282,2.199,0.631
		c1.216,0.349,1.807,2.002,1.32,3.705C-507.916-131.908-510.715-131.22-513.699-132.075z M-614.627-249.787
		c4.134-14.423,19.208-22.782,33.618-18.655l99.289,28.424c14.436,4.135,22.781,19.201,18.65,33.625l-13.044,45.561
		c-0.036,0.123-20.133-5.595-32.139-9.021c-4.838-1.386-5.798-5.369-2.994-9.553c2.583-3.864,4.625-8.182,5.977-12.902
		c7.03-24.547-7.24-50.258-31.784-57.285c-24.565-7.035-50.261,7.239-57.287,31.785c-1.354,4.715-1.904,9.461-1.769,14.116
		c0.164,5.032-2.754,7.894-7.588,6.511c-9.717-2.792-24.016-6.93-23.984-7.047l13.044-45.561L-614.627-249.787L-614.627-249.787z
		 M-561.34-164.762c-22.218-6.361-35.122-29.608-28.756-51.832c6.359-22.215,29.603-35.124,51.832-28.756
		c22.211,6.358,35.119,29.608,28.756,51.829C-515.871-171.295-539.126-158.403-561.34-164.762z M-589.566-181.405
		c5.815,9.809,15.215,17.505,27.011,20.884c11.802,3.376,23.857,1.813,33.988-3.437c4.47-2.319,11.556-3.825,16.399-2.436
		l25.645,7.342c4.834,1.387,7.079,6.34,3.526,9.901c-6.766,6.771-16.89,9.778-26.724,6.963l-8.486-2.433l-90.798-25.995
		c-9.824-2.813-16.815-10.711-18.966-20.031c-1.14-4.904,3.393-7.943,8.231-6.559l17.583,5.033
		C-597.34-190.77-592.132-185.737-589.566-181.405z"/>
	<g>
		<path fill="#27AAE1" d="M-985.078,662.906l0.028,39.069c0.002,4.654,3.79,8.442,8.449,8.439l69.014-0.051
			c4.65-0.004,8.434-3.798,8.428-8.45l-0.029-39.071c0-4.654-3.79-8.438-8.438-8.435l-69.016,0.051
			C-981.298,654.458-985.082,658.248-985.078,662.906z M-907.635,656.489c3.506-0.001,6.356,2.845,6.354,6.351l0.028,39.071
			c0.004,3.506-2.835,6.36-6.344,6.362l-69.007,0.05c-3.504,0.006-6.356-2.846-6.359-6.354l-0.03-39.069
			c0-3.508,2.851-6.358,6.349-6.36L-907.635,656.489z"/>
		<path fill="#27AAE1" d="M-943.9,630.299l-14.06,0.01c-0.688-0.003-1.325,0.339-1.722,0.908l-6.031,8.845
			c-0.866,1.269-2.813,2.299-4.349,2.299l-23.823,0.018c-9.124,0.008-16.533,7.432-16.527,16.55l0.035,48.793
			c0.008,9.119,7.428,16.535,16.55,16.527l94.569-0.071c9.122-0.007,16.538-7.434,16.53-16.549l-0.044-60.839
			c-0.008-9.117-7.437-16.532-16.557-16.523l-27.591,0.019c-0.868,0.002-1.646,0.543-1.949,1.347l-1.018,2.678
			c-0.548,1.436-2.236,2.604-3.772,2.604l-5.368,0.003c-1.533,0.004-2.781-1.014-2.781-2.264l-0.002-2.267
			C-941.811,631.233-942.745,630.298-943.9,630.299z M-926.469,637.058c0.547-1.436,2.234-2.604,3.77-2.604l23.373-0.02
			c6.821-0.003,12.373,5.539,12.378,12.358l0.045,60.837c0.004,6.819-5.538,12.37-12.361,12.37l-94.563,0.075
			c-6.818,0.002-12.369-5.54-12.375-12.357l-0.035-48.79c-0.006-6.819,5.536-12.369,12.357-12.377l27.708-0.019
			c0.684,0,1.326-0.342,1.721-0.911l6.032-8.847c0.867-1.265,2.813-2.296,4.348-2.298l5.31-0.008
			c1.534-0.002,2.782,1.014,2.781,2.269l0.001,2.264c0.004,1.15,0.947,2.088,2.091,2.087l14.452-0.009
			c0.864-0.002,1.646-0.543,1.948-1.348L-926.469,637.058z"/>
	</g>
	<g>
		<path fill="#32B900" d="M-501.07,203.791l-15.47-1.854c-2.529-0.308-4.833,1.505-5.139,4.039l-1.11,9.256
			c-0.162,1.375,0.82,2.628,2.193,2.791l19.662,2.358c1.377,0.16,2.625-0.82,2.791-2.19l1.107-9.262
			C-496.732,206.397-498.543,204.096-501.07,203.791z M-520.889,206.068c0.058-0.467,0.195-0.902,0.396-1.296
			c0.35-0.667,1.58-0.034,2.514,1.252l2.695,3.721c0.934,1.286,0.548,2.936-0.847,3.682l-3.085,1.647
			c-1.398,0.75-2.682,1.133-2.757,0.823c-0.041-0.181-0.054-0.373-0.03-0.569L-520.889,206.068z M-520.501,217.238
			c-0.118-0.015-0.232-0.043-0.348-0.077c-0.185-0.062,0.82-0.751,2.217-1.498l8.214-4.384c0.353-0.188,0.971-0.118,1.266,0.151
			l6.868,6.178c1.179,1.059,1.988,1.974,1.796,1.992c-0.119,0.012-0.234,0.009-0.358-0.009L-520.501,217.238z M-498.932,218.096
			c-0.024,0.195-0.079,0.382-0.162,0.546c-0.146,0.288-1.296-0.395-2.471-1.463l-2.732-2.457c-1.181-1.061-1.157-2.756,0.053-3.784
			l3.504-2.982c1.209-1.023,2.615-1.333,2.822-0.556c0.116,0.452,0.157,0.941,0.098,1.437L-498.932,218.096z M-501.281,207.375
			l-3.563,3.034c-1.209,1.029-2.543,1.539-2.979,1.144l-0.794-0.715c-0.267-0.245-0.64-0.409-1.05-0.454
			c-0.398-0.047-0.799,0.017-1.115,0.191c0,0-0.472,0.248-1.05,0.562c-0.583,0.312-1.807-0.481-2.739-1.768l-2.77-3.815
			c-0.931-1.284-1.208-2.635-0.533-2.777c0.396-0.083,0.819-0.109,1.242-0.051l15.472,1.848c0.396,0.045,0.767,0.155,1.113,0.309
			C-499.474,205.151-500.072,206.346-501.281,207.375z"/>
		<path fill="#32B900" d="M-559.757,182.152c-1.399-0.746-3.315-2.37-4.28-3.632l-2.099-2.746c-0.28-0.365-0.622-0.611-0.984-0.719
			c-0.795-0.236-1.556,0.184-1.948,1.063l-3.427,7.684l-4.219,7.917c-0.936,1.76-1.127,3.769-0.545,5.67
			c0.581,1.904,1.868,3.465,3.626,4.396l7.922,4.215c0.442,0.238,0.914,0.427,1.394,0.57c3.373,0.996,7.021-0.535,8.673-3.646
			l4.213-7.923c0.934-1.751,1.127-3.768,0.544-5.665c-0.577-1.905-1.865-3.467-3.621-4.398L-559.757,182.152z M-556.918,202.258
			c-1.333,2.509-4.276,3.742-6.999,2.939c-0.387-0.117-0.765-0.275-1.126-0.46l-7.921-4.213c-1.413-0.752-2.454-2.016-2.925-3.549
			c-0.472-1.535-0.314-3.164,0.439-4.578l4.238-7.956l3.45-7.737c0.072-0.163,0.167-0.283,0.227-0.267
			c0.052,0.016,0.148,0.081,0.251,0.214l2.191,2.87c0.968,1.26,2.882,2.896,4.277,3.649l5.626,3.046
			c1.415,0.749,2.454,2.012,2.923,3.546c0.471,1.535,0.31,3.163-0.443,4.58L-556.918,202.258z"/>
		<path fill="#32B900" d="M-558.864,192.709c0.331-0.307,0.774-0.472,0.884-0.549c0.078-0.046,0.124-0.121,0.146-0.191
			c0.013-0.06,0.042-0.274-0.212-0.414c-0.19-0.101-1.039-0.363-1.97-0.42c-1.116-0.064-2.065,0.34-2.205,0.282
			c-0.136-0.053-0.342-1.238-1.147-2.312c-0.803-1.076-1.878-2.456-2.476-3.243c-0.5-0.653-1.112-1.147-1.278-1.241
			c-0.201-0.106-0.369-0.038-0.458,0.064c-0.043,0.054-0.085,0.127-0.078,0.221c-0.004,0.13,0.093,0.523,0.032,0.897
			c-0.063,0.375-1.278,0.397-2.557,0.823c-0.826,0.274-1.485,0.791-1.859,1.505c-0.996,1.856,0.271,4.478,2.811,5.835
			c0.025,0.009,0.048,0.02,0.069,0.032c0.042,0.016,0.021,0.364,0.059,0.767c0.02,0.236,0.063,0.481,0.129,0.723
			c0.429,1.525,1.729,2.989,3.482,3.927c2.877,1.531,6.126,1.066,7.246-1.04c0.431-0.807,0.492-1.754,0.218-2.706
			C-558.449,194.193-559.188,193.019-558.864,192.709z M-568.876,193.084c-0.065,0.15-1.357-0.298-2.223-1.628
			c-0.657-1.011-0.836-2.126-0.365-3.014c0.608-1.134,2.127-1.628,3.876-1.264c0.169,0.033,0.339-0.068,0.383-0.234
			c0.063-0.238,0.121-0.458,0.162-0.659c0.077-0.365,0.515-0.31,0.868,0.241c0.241,0.378,0.395,0.769,0.358,1.106
			c-0.011,0.125,0.051,0.246,0.156,0.314c0.629,0.376,1.165,0.825,1.58,1.312c0.74,0.868-0.366,1.38-1.92,1.688
			c-1.23,0.242-2.23,0.891-2.756,1.878C-568.798,192.907-568.84,192.994-568.876,193.084z M-568.342,195.313
			c-0.218-0.79-0.141-1.54,0.23-2.166c1.004-1.688,3.595-2.092,6.033-0.944c0.116,0.053,0.259,0.032,0.352-0.049
			c0.316-0.265,0.814-0.362,1.336-0.369c0.785-0.016,1.124,0.382,0.81,0.707c-0.173,0.174-0.359,0.379-0.554,0.602
			c-0.113,0.136-0.105,0.33,0.021,0.455c1.481,1.433,1.982,3.207,1.286,4.515c-0.949,1.788-3.806,2.132-6.365,0.773
			C-566.782,197.987-567.958,196.667-568.342,195.313z"/>
		<circle fill="#32B900" cx="-560.528" cy="197.214" r="0.459"/>
		<circle fill="#32B900" cx="-563.258" cy="195.76" r="0.457"/>
		<circle fill="#32B900" cx="-565.987" cy="194.312" r="0.457"/>
		<path fill="#32B900" d="M-638.145,195.241l31.808,19.79c1.344,0.839,1.69,2.592,1.187,4.101c-0.341,1.042-0.531,2.148-0.538,3.305
			l-0.043,12.561c-0.021,4.802,3.183,9.108,7.776,10.466c0.988,0.29,2.014,0.435,3.048,0.443l12.561,0.043
			c5.984,0.02,10.876-4.833,10.902-10.818l0.025-7.646c0.003-1.589,1.23-3.286,2.734-3.799l35.998-12.216
			c1.506-0.516,2.572,0.351,2.381,1.93l-0.633,5.256c-0.838,7.002,4.049,13.517,11.298,14.386l15.223,1.822
			c3.432,0.409,6.816-0.54,9.532-2.676c2.712-2.135,4.438-5.203,4.85-8.629l1.822-15.219c0.367-3.072-0.389-6.023-1.95-8.46
			c-0.86-1.336-0.587-2.644,0.916-3.153l19.737-6.698c1.922-0.657,3.285-2.007,3.736-3.703c0.101-0.372,0.143-0.755,0.141-1.136
			c0.001-0.638-0.219-2.428-0.337-4.012l-0.283-3.875c-0.308-4.228-3.221-10.436-6.635-14.142l-33.466-36.267
			c-1.533-1.668-3.608-2.914-6.003-3.625c-3.261-0.961-6.744-0.789-9.544,0.487l-106.218,48.317
			c-4.709,2.147-9.289,6.965-10.42,10.981l-0.918,3.257c-0.43,1.529-1.004,3.125-1.165,3.611c-0.098,0.292-0.166,0.594-0.182,0.904
			C-640.914,192.52-639.937,194.129-638.145,195.241z M-582.339,243.068l-12.56-0.048c-0.761,0-1.513-0.108-2.24-0.32
			c-3.375-0.999-5.729-4.161-5.716-7.696l0.044-12.559c0.016-4.412,3.613-7.976,8.015-7.955l12.564,0.041
			c0.204,0.003,0.41-0.043,0.6-0.129l5.594-2.51c1.451-0.649,2.53,0.106,2.417,1.688l-0.652,8.962l-0.043,12.567
			C-574.336,239.518-577.933,243.084-582.339,243.068z M-528.796,197.02c-0.079,1.584-1.363,3.27-2.873,3.765l-36.344,11.918
			c-1.512,0.493-2.688,0.277-2.63-0.486l0.101-1.383c0.107-1.462-0.616-2.646-1.834-3.007c-0.669-0.197-1.418-0.121-2.16,0.215
			l-3.403,1.54c-1.445,0.654-3.696,0.474-5.021-0.395l-31.558-20.77c-0.098-0.064-0.179-0.128-0.236-0.184
			c-0.121-0.114-0.104-0.358,0.037-0.447c0.065-0.046,0.15-0.093,0.257-0.145l84.316-38.516c0.933-0.419,2.512-0.142,3.247,0.585
			l36.593,36.564c0.284,0.281,0.354,0.512,0.326,0.622c-0.025,0.108-0.188,0.275-0.563,0.398l-14.554,4.772
			c-1.511,0.497-4.005,0.744-5.585,0.556l-0.895-0.106c-1.574-0.186-3.95-1.012-5.309-1.836l-6.741-4.117
			c-0.318-0.193-0.65-0.345-0.974-0.44c-0.914-0.27-1.805-0.144-2.517,0.361c-0.771,0.547-1.229,1.466-1.287,2.606L-528.796,197.02z
			 M-571.06,217.956c0.083-1.124,1.372-2.436,2.878-2.928l36.397-11.938c1.51-0.495,2.717-0.617,2.699-0.274l-0.032,0.626
			c0,0-0.063,0.527-0.141,1.178c-0.08,0.652-1.362,1.591-2.863,2.103l-36.369,12.338
			C-569.988,219.571-571.144,219.075-571.06,217.956z M-492.89,223.218c-0.322,2.669-1.66,5.052-3.77,6.709
			c-2.114,1.667-4.749,2.406-7.419,2.083l-15.22-1.823c-5.607-0.66-9.443-5.738-8.784-11.187l1.829-15.318l0.724-14.445
			c0.005-0.074,0.012-0.135,0.023-0.183c0.012-0.106,0.118-0.172,0.218-0.129c0.045,0.025,0.104,0.05,0.169,0.096l7.276,4.441
			c1.356,0.826,3.731,1.651,5.306,1.839l12.682,1.519c5.622,0.655,9.438,5.738,8.786,11.181L-492.89,223.218z M-520.121,127.675
			c1.824-0.826,4.277-0.916,6.562-0.241c1.633,0.485,3.065,1.329,4.037,2.381l33.466,36.271c2.015,2.183,3.91,5.607,4.863,8.567
			c0.489,1.512-0.235,1.84-1.288,0.652l-37.064-41.851c-1.015-1.148-2.407-2.01-4.013-2.483c-2.136-0.634-4.416-0.498-6.252,0.369
			l-112.305,52.808c-1.442,0.676-2.53,0.966-2.44,0.648l0.163-0.576c0.782-2.788,4.546-6.627,8.054-8.223L-520.121,127.675z
			 M-636.345,191.039c0.045-0.053,0.157-0.186,0.289-0.259c0.071-0.043,0.149-0.082,0.244-0.126l117.832-55.412
			c0.835-0.394,2.073-0.424,3.232-0.081c0.834,0.248,1.537,0.655,1.978,1.152l42.354,47.817c0.081,0.091,0.152,0.183,0.21,0.268
			c0.105,0.159,0.181,0.391,0.185,0.503l0.014,0.205c-0.005,0.387-0.364,0.657-0.891,0.838l-22.998,7.804
			c-1.501,0.511-3.344,0.689-4.149,0.489c-0.476-0.12-0.966-0.218-1.468-0.278c0,0-0.726-0.091-1.622-0.198
			c-0.898-0.106-0.399-0.595,1.106-1.088l10.16-3.333c1.055-0.343,1.777-1.055,1.997-1.945c0.211-0.897-0.117-1.86-0.903-2.645
			l-36.6-36.565c-0.541-0.542-1.26-0.952-2.079-1.194c-1.231-0.364-2.533-0.308-3.581,0.172l-84.315,38.518
			c-1.027,0.463-1.656,1.249-1.725,2.144c-0.071,0.895,0.43,1.772,1.374,2.385l30.181,19.866c1.325,0.869,1.115,1.576-0.47,1.567
			l-4.117-0.019c-1.584-0.006-3.951-0.71-5.285-1.569l-13.738-8.883c-0.088-0.056-0.186-0.104-0.28-0.131
			c-0.445-0.134-0.944,0.032-1.208,0.451c-0.32,0.501-0.177,1.165,0.321,1.491l11.215,7.251c1.334,0.86,1.415,1.71,0.273,2.159
			c-1.146,0.443-3.062,0.339-4.411-0.5l-32.643-20.317c-0.127-0.077-0.233-0.153-0.315-0.222
			C-636.351,191.223-636.39,191.091-636.345,191.039z"/>
		<path fill="#32B900" d="M-591.11,223.742l-0.033,9.426c-0.003,1.586-0.231,2.678-0.507,2.444l-0.496-0.428
			c-0.347-0.305-0.748-0.466-1.156-0.465c-0.764-0.003-1.438,0.568-1.753,1.489c-0.281,0.818-0.235,1.542,0.099,2.175
			c0.319,0.637,0.881,1.1,1.588,1.307l3.076,0.91c0.238,0.071,0.483,0.1,0.71,0.105c1.183,0.006,2.013-0.874,2.024-2.135
			l0.021-7.821c0.007-1.586,0.33-2.786,0.737-2.732c0.248,0.03,0.491,0.049,0.744,0.053c2.797,0.006,5.079-1.915,5.079-4.292
			c0.006-2.365-2.254-4.312-5.045-4.323C-588.826,219.452-591.1,221.373-591.11,223.742z M-586.059,227.354
			c-0.587,0.004-1.164-0.099-1.702-0.292c-0.12-0.035-0.234-0.021-0.328,0.052c-0.087,0.056-0.146,0.167-0.147,0.28l-0.04,11.167
			c0,0.857-0.528,1.435-1.308,1.438c-0.165-0.001-0.333-0.03-0.51-0.082l-3.08-0.91c-0.515-0.146-0.931-0.483-1.159-0.947
			c-0.24-0.461-0.271-0.992-0.098-1.492c0.266-0.763,0.67-1.148,1.127-1.141c0.241-0.001,0.475,0.104,0.697,0.292l1.567,1.357
			c0.101,0.089,0.253,0.115,0.379,0.056c0.126-0.057,0.206-0.177,0.206-0.322l0.053-13.068c0.012-1.979,1.969-3.586,4.371-3.577
			c2.4,0.009,4.351,1.627,4.348,3.613C-581.7,225.766-583.658,227.363-586.059,227.354z"/>
	</g>
	<g>
		<path fill="#FFFFFF" d="M-405.31-928.246l20.488,11.673c0.583,0.337,1.3,0.36,1.896,0.059c0.605-0.303,1.018-0.886,1.102-1.554
			l3.277-25.902c0.06-0.461-0.041-0.913-0.266-1.288c-0.304-0.506-0.838-0.879-1.477-0.962c-1.102-0.142-2.113,0.639-2.253,1.748
			l-2.512,19.83c-0.212,1.697-1.594,2.393-3.083,1.546l-15.175-8.65c-0.969-0.548-2.198-0.214-2.753,0.756
			C-406.616-930.02-406.267-928.783-405.31-928.246z"/>
		<path fill="#FFFFFF" d="M-418.537-950.348c0.024,1.104,0.951,1.996,2.066,1.96c1.114-0.028,1.991-0.948,1.967-2.064l-0.454-17.463
			c-0.041-1.71,1.212-2.604,2.816-1.989l18.67,7.165c1.043,0.398,2.203-0.132,2.601-1.163c0.233-0.598,0.154-1.244-0.151-1.756
			c-0.228-0.378-0.572-0.678-1.01-0.848l-24.374-9.35c-0.633-0.244-1.337-0.15-1.892,0.235c-0.546,0.39-0.861,1.033-0.845,1.699
			L-418.537-950.348z"/>
		<path fill="#FFFFFF" d="M-423.004-938.747c0.383,1.063,1.54,1.586,2.589,1.206l47.692-17.397c1.048-0.379,1.587-1.535,1.202-2.585
			c-0.043-0.119-0.099-0.237-0.163-0.343c-0.488-0.813-1.494-1.196-2.42-0.86l-47.697,17.395
			C-422.846-940.947-423.386-939.786-423.004-938.747z"/>
		<path fill="#FFFFFF" d="M-472.77-987.218l74.329,124.197c2.416,4.039,7.663,5.355,11.699,2.941l62.095-37.164
			c4.038-2.418,5.355-7.663,2.942-11.702l-74.331-124.195c-2.417-4.034-7.659-5.355-11.702-2.938l-62.094,37.166
			C-473.867-996.501-475.187-991.251-472.77-987.218z M-405.346-1032.085c1.833-1.1,4.223-0.5,5.319,1.333l74.329,124.196
			c1.096,1.834,0.501,4.226-1.335,5.32l-62.097,37.166c-1.833,1.098-4.22,0.492-5.317-1.341l-74.326-124.196
			c-1.099-1.833-0.504-4.218,1.33-5.315L-405.346-1032.085L-405.346-1032.085z"/>
	</g>
	<g>
		<path fill="#00A6B9" d="M1072.474,158.054l-6.223-0.625c-5.517-0.555-10.456,3.491-11.012,9.001l-5.383,53.686
			c-0.146,1.475,0.93,2.79,2.404,2.937l20.907,2.093c1.472,0.151,2.792-0.923,2.939-2.401l5.381-53.684
			C1082.037,163.548,1077.996,158.607,1072.474,158.054z M1069.562,220.742l-12.9-1.29c-1.469-0.146-2.547-1.462-2.399-2.938
			l4.982-49.68c0.331-3.311,3.298-5.738,6.606-5.408l6.227,0.625c3.31,0.33,5.735,3.301,5.403,6.608l-4.981,49.684
			C1072.35,219.818,1071.036,220.895,1069.562,220.742z"/>
		<path fill="#00A6B9" d="M1087.957,158.651l-6.479,64.64c-0.146,1.472,0.928,2.784,2.401,2.931l20.907,2.096
			c1.474,0.149,2.787-0.926,2.934-2.399l6.481-64.638c0.554-5.516-3.488-10.458-9.005-11.011l-6.229-0.624
			C1093.449,149.095,1088.511,153.135,1087.957,158.651z M1104.119,221.514c-0.148,1.477-1.462,2.554-2.94,2.402l-12.895-1.29
			c-1.477-0.149-2.552-1.466-2.405-2.938l6.079-60.631c0.335-3.311,3.302-5.736,6.604-5.404l6.233,0.623
			c3.308,0.333,5.732,3.299,5.402,6.607L1104.119,221.514L1104.119,221.514z"/>
		<path fill="#00A6B9" d="M1131.858,140.14c-5.515-0.55-10.454,3.494-11.009,9.007l-7.75,77.309
			c-0.146,1.476,0.929,2.79,2.403,2.937l20.906,2.098c1.47,0.147,2.787-0.928,2.933-2.403l7.752-77.312
			c0.552-5.515-3.488-10.457-9-11.013L1131.858,140.14z M1132.807,227.084l-12.902-1.291c-1.475-0.15-2.55-1.466-2.401-2.938
			l7.347-73.308c0.331-3.309,3.297-5.733,6.607-5.402l6.228,0.624c3.308,0.333,5.734,3.3,5.4,6.606l-7.348,73.306
			C1135.592,226.157,1134.277,227.235,1132.807,227.084z"/>
		<path fill="#00A6B9" d="M1164.415,133.977c-5.519-0.554-10.46,3.489-11.013,9.001l-8.687,86.651
			c-0.146,1.476,0.928,2.787,2.399,2.938l20.911,2.098c1.47,0.146,2.785-0.931,2.933-2.407l8.689-86.649
			c0.555-5.517-3.489-10.458-9.007-11.012l-6.225-0.623L1164.415,133.977L1164.415,133.977z M1164.419,230.257l-12.898-1.292
			c-1.472-0.149-2.55-1.466-2.401-2.939l8.288-82.649c0.333-3.312,3.301-5.736,6.605-5.401l6.229,0.621
			c3.311,0.335,5.734,3.297,5.401,6.606l-8.284,82.649C1167.208,229.327,1165.899,230.404,1164.419,230.257z"/>
	</g>
	<g>
		<path fill="#FFFFFF" d="M241.358,1182.545c0.01,12.259,9.999,22.224,22.261,22.214c12.254-0.012,22.229-9.99,22.221-22.246
			c-0.009-12.259-9.996-22.226-22.256-22.216C251.333,1160.305,241.352,1170.289,241.358,1182.545z M281.089,1182.518
			c0.005,9.637-7.836,17.491-17.468,17.499c-9.642,0.006-17.487-7.836-17.494-17.473c-0.007-9.639,7.835-17.496,17.466-17.501
			C273.227,1165.034,281.079,1172.875,281.089,1182.518z"/>
		<path fill="#FFFFFF" d="M241.96,1130.367c-1.868,0.778-5.722-0.784-9.446-2.063c-6.418-2.215-13.86-0.765-18.907,4.295
			c-3.444,3.441-5.335,8.024-5.335,12.889c0.005,2.246,0.419,4.446,1.204,6.498c1.317,3.435,2.718,7.112,1.941,8.975
			c-0.777,1.871-4.615,3.493-8.151,5.222c-6.092,2.976-10.328,9.254-10.322,16.398c0.006,7.14,4.25,13.416,10.347,16.382
			c3.539,1.727,7.385,3.347,8.166,5.216c0.78,1.865-0.625,5.547-1.936,8.978c-0.785,2.044-1.194,4.247-1.192,6.5
			c0.005,4.868,1.906,9.436,5.356,12.874c5.04,5.039,12.489,6.474,18.903,4.26c3.724-1.289,7.575-2.854,9.445-2.078
			c1.872,0.777,3.494,4.614,5.222,8.153c2.974,6.09,9.261,10.325,16.403,10.319c7.144-0.004,13.418-4.25,16.381-10.339
			c1.724-3.539,3.342-7.379,5.211-8.16c1.871-0.777,5.737,0.786,9.462,2.065c6.411,2.209,13.853,0.76,18.899-4.295
			c3.447-3.44,5.338-8.027,5.333-12.88c0-2.256-0.419-4.448-1.198-6.501c-1.313-3.43-2.721-7.109-1.937-8.98
			c0.775-1.871,4.619-3.496,8.157-5.223c6.083-2.973,10.319-9.256,10.313-16.395c-0.007-7.144-4.25-13.419-10.335-16.386
			c-3.542-1.725-7.389-3.347-8.165-5.208c-0.781-1.871,0.616-5.55,1.926-8.984c0.785-2.045,1.19-4.247,1.188-6.502
			c-0.005-4.858-1.904-9.428-5.346-12.87c-5.056-5.05-12.49-6.489-18.898-4.271c-3.723,1.288-7.59,2.856-9.458,2.082
			c-1.872-0.778-3.494-4.615-5.221-8.156c-2.975-6.092-9.256-10.315-16.401-10.313c-7.137,0.007-13.422,4.251-16.385,10.346
			C245.441,1125.754,243.825,1129.594,241.96,1130.367z M277.017,1131.306c0.002,0.686,0.379,1.348,0.846,1.49l0.838,0.255
			c3.123,0.946,6.182,2.22,9.13,3.785c0,0,0.35,0.183,0.77,0.411c0.43,0.226,1.174,0.021,1.657-0.465l0.885-0.877
			c5.241-5.25,13.787-5.257,19.039-0.016c2.539,2.546,3.949,5.928,3.951,9.522c0.003,3.589-1.395,6.969-3.945,9.523
			c0,0-0.396,0.391-0.879,0.876c-0.479,0.484-0.689,1.229-0.46,1.653l0.413,0.778c1.565,2.938,2.854,6.007,3.797,9.117
			c0,0,0.114,0.378,0.257,0.84c0.14,0.466,0.805,0.843,1.493,0.842l1.234-0.004c7.432-0.004,13.467,6.033,13.475,13.456
			c0.005,7.421-6.02,13.47-13.456,13.476c0,0-0.555,0.002-1.235-0.001c-0.684,0.002-1.348,0.38-1.49,0.842l-0.256,0.841
			c-0.943,3.115-2.221,6.174-3.782,9.116c0,0-0.185,0.349-0.413,0.775c-0.227,0.431-0.018,1.176,0.461,1.662l0.881,0.885
			c2.548,2.538,3.951,5.923,3.952,9.507c0.003,3.602-1.385,6.978-3.938,9.522c-5.255,5.251-13.795,5.257-19.043,0.015
			c0,0-0.392-0.392-0.879-0.883c-0.483-0.486-1.227-0.693-1.652-0.463l-0.78,0.41c-2.926,1.559-5.992,2.841-9.116,3.799
			c0,0-0.378,0.114-0.845,0.256c-0.462,0.143-0.841,0.816-0.84,1.493l0.001,1.233c0.006,7.421-6.027,13.469-13.448,13.474
			c-7.42,0.004-13.47-6.024-13.475-13.452c0,0-0.001-0.559-0.002-1.236c0.003-0.683-0.375-1.355-0.839-1.49l-0.844-0.258
			c-3.105-0.946-6.173-2.22-9.127-3.781c0,0-0.353-0.187-0.787-0.413c-0.435-0.227-1.171-0.023-1.646,0.477l-0.863,0.883
			c-5.241,5.249-13.786,5.257-19.036,0.015c-2.549-2.545-3.95-5.919-3.954-9.518c-0.002-3.594,1.388-6.977,3.939-9.52
			c0,0,0.392-0.394,0.879-0.875c0.482-0.486,0.687-1.229,0.459-1.659l-0.411-0.769c-1.544-2.921-2.831-5.994-3.804-9.131
			c0,0-0.114-0.371-0.25-0.833c-0.135-0.465-0.806-0.836-1.484-0.836l-1.229,0.001c-7.428,0.005-13.466-6.034-13.473-13.451
			c-0.006-7.422,6.027-13.473,13.453-13.475c0,0,0.56-0.001,1.235-0.005c0.683,0,1.35-0.368,1.484-0.835l0.249-0.832
			c0.978-3.152,2.248-6.229,3.788-9.12c0,0,0.188-0.349,0.414-0.787c0.229-0.427,0.021-1.172-0.466-1.653l-0.885-0.869
			c-2.549-2.537-3.951-5.919-3.951-9.515c-0.003-3.606,1.385-6.98,3.938-9.531c5.242-5.246,13.775-5.258,19.017-0.033
			c0,0,0.391,0.396,0.867,0.898c0.485,0.491,1.229,0.712,1.657,0.479l0.785-0.415c2.951-1.568,6.026-2.845,9.125-3.797
			c0,0,0.377-0.112,0.841-0.258c0.464-0.144,0.842-0.817,0.843-1.492l-0.003-1.233c-0.004-7.429,6.033-13.471,13.454-13.472
			c7.422-0.008,13.461,6.022,13.467,13.448C277.013,1130.065,277.017,1130.622,277.017,1131.306z"/>
	</g>
	<g>
		<path fill="#00A253" d="M-993.622-341.296c2.327,2.157,5.46,2.839,8.312,2.121c1.594-0.402,3.692-0.278,4.898,0.841l9.423,8.729
			c4.455,4.119,5.62,11.749,2.591,17.008l-4.562,7.922c-0.821,1.424-2.463,1.675-3.669,0.56l-28.586-26.47
			c-1.209-1.115-1.497-3.202-1.22-4.822c0.492-2.897-0.431-5.976-2.756-8.131c-3.672-3.396-9.381-3.168-12.773,0.494
			c-3.389,3.661-3.191,9.386,0.48,12.785c2.326,2.154,5.474,2.83,8.326,2.114c1.596-0.406,3.697-0.278,4.906,0.839l41.213,38.161
			c1.206,1.117,1.015,2.667-0.425,3.457l-9.725,5.348c-5.404,2.958-13.473,1.962-17.984-2.215l-3.928-3.634
			c-1.207-1.116-1.4-3.141-1-4.742c0.78-3.091-0.103-6.492-2.607-8.812c-3.659-3.389-9.362-3.166-12.763,0.505
			c-3.377,3.651-3.176,9.369,0.482,12.758c2.127,1.968,4.943,2.699,7.598,2.249c1.619-0.272,3.784-0.05,4.986,1.063l4.2,3.885
			c5.907,5.471,16.08,6.722,23.166,2.85l11.031-6.065c1.442-0.792,3.589-0.527,4.795,0.589l17.927,16.6
			c1.208,1.118,1.385,3.098,0.664,4.578c-3.376,6.898-2.019,15.482,3.897,20.959c7.228,6.693,18.556,6.256,25.253-0.976
			c6.694-7.231,6.26-18.558-0.971-25.251c-5.919-5.479-14.576-6.172-21.195-2.277c-1.418,0.833-3.411,0.81-4.614-0.308
			l-30.646-28.372c-1.207-1.117-1.519-3.18-0.699-4.604l5.07-8.804c4.004-6.956,2.462-17.058-3.431-22.512l-9.429-8.732
			c-1.204-1.112-1.486-3.201-1.205-4.82c0.497-2.898-0.425-5.971-2.751-8.127c-3.658-3.384-9.374-3.181-12.774,0.493
			C-997.514-350.393-997.28-344.681-993.622-341.296z M-915.475-262.728c5.422,5.021,5.749,13.52,0.726,18.942
			c-5.021,5.426-13.515,5.754-18.941,0.733c-5.422-5.022-5.749-13.524-0.731-18.943C-929.396-267.422-920.9-267.749-915.475-262.728
			z"/>
	</g>
	<path fill="#ED1C24" d="M843.512-296.107l105.076-57.665c17.188-9.435,23.486-31.093,14.063-48.272l-34.531-62.923
		c-5.119-9.326-16.881-12.747-26.203-7.634L768.344-399.3c-9.322,5.119-12.75,16.879-7.633,26.205l34.529,62.926
		C804.674-292.985,826.324-286.677,843.512-296.107z M840.58-301.454c-2.68,1.472-5.502,2.478-8.348,3.055
		c-4.828,0.971-7.672-4.348-6.207-10.221l14.127-56.578c1.469-5.865,6.313-10.212,10.824-9.713l8.17,0.917
		c2.783,0.311,5.836-0.343,8.6-1.858c2.736-1.501,4.92-3.711,6.148-6.213c0,0,1.818-3.677,4.064-8.223
		c2.246-4.548,8.721-6.676,14.457-4.761l55.564,18.549c5.738,1.917,8.752,7.573,5.174,11.482c-2.104,2.308-4.619,4.308-7.508,5.893
		L840.57-301.459L840.58-301.454z M957.301-399.108c1.736,3.16,2.82,6.501,3.307,9.867c0.824,5.718-5.008,8.863-10.74,6.946
		l-54.717-18.271c-5.736-1.911-8.215-7.862-5.531-13.29l21.807-44.126c2.686-5.42,6.76-9.104,8.59-7.503
		c1.086,0.958,2.025,2.102,2.756,3.439l34.539,62.934L957.301-399.108L957.301-399.108z M904.85-467.256
		c0.805-0.438,1.641-0.789,2.486-1.05c1.436-0.436,0.477,3.878-2.207,9.296l-36.695,74.232c-1.344,2.736-5.561,5.05-8.598,4.706
		l-81.756-9.155c-6.018-0.672-10.154-2.209-9.02-3.193c0.666-0.584,1.404-1.1,2.217-1.547l133.564-73.299l0.006,0.013
		L904.85-467.256z M764.631-380.199c-0.365-2.402,4.922-3.848,10.926-3.17l50.258,5.638c6.016,0.67,9.697,5.975,8.229,11.851
		l-13.99,55.997c-1.469,5.866-7.539,9.263-12.238,5.456c-2.873-2.318-5.357-5.229-7.24-8.67l-34.535-62.924
		C765.324-377.366,764.863-378.771,764.631-380.199z"/>
	<g>
		<path fill="#009CD0" d="M445.422-620.663c2.886,0.295,4.218-1.029,4.759-1.841c0.538-0.812,1.237-2.557-0.143-5.104
			c-4.116-7.586-10.99-22.616-17.64-37.146c-11.408-24.93-18.535-40.268-21.398-43.072c-2.292-2.236-4.778-4.249-7.374-5.978
			c-23.087-15.34-54.358-9.038-69.699,14.053c-15.339,23.084-9.038,54.357,14.048,69.697c3.004,1.995,6.244,3.678,9.634,4.995
			c3.109,1.209,16.456,1.713,44.102,2.506C418.746-622.069,436.364-621.564,445.422-620.663z M350.16-633.35
			c-21.274-14.135-27.087-42.947-12.951-64.219c14.138-21.277,42.952-27.079,64.227-12.944c2.39,1.588,4.677,3.439,6.797,5.503
			c2.547,2.5,12.542,24.348,20.571,41.9l0.075,0.155c6.652,14.535,13.529,29.568,17.684,37.226c0.323,0.594,0.304,0.907,0.253,0.986
			c-0.052,0.082-0.337,0.212-1.007,0.147c-9.163-0.917-26.778-1.417-43.815-1.904l-0.277-0.014
			c-17.764-0.51-39.873-1.14-42.678-2.233C355.915-629.955,352.928-631.512,350.16-633.35z"/>
		<path fill="#009CD0" d="M400.597-655.446c9.088-13.674,5.357-32.196-8.321-41.284c-13.68-9.091-32.197-5.351-41.283,8.323
			c-9.083,13.673-5.353,32.191,8.329,41.277C372.997-638.041,391.514-641.772,400.597-655.446z M353.188-686.95
			c8.284-12.467,25.171-15.865,37.634-7.588c12.468,8.287,15.868,25.167,7.586,37.633c-8.284,12.467-25.159,15.867-37.629,7.58
			C348.313-657.604,344.905-674.487,353.188-686.95z"/>
		<path fill="#009CD0" d="M378.088-659.933c0.575-1.333-0.155-3.146-1.362-3.953l-2.519-1.673c-1.21-0.806-2.848-0.475-3.652,0.737
			l-0.23,0.343c-0.804,1.209-1.124,2.416-0.711,2.688c0.41,0.277,1.179-0.15,1.71-0.953c0.53-0.8,1.924-0.813,3.108-0.025
			c1.187,0.787,2.019,2.099,1.645,2.849c-0.192,0.389-0.445,0.825-0.765,1.304c-2.236,3.367-5.839,4.115-9.488,1.692
			c-3.598-2.396-4.258-6.125-1.933-9.62c0.417-0.625,0.818-1.127,1.207-1.54c0.75-0.78,1.254-1.556,0.916-1.963
			c-0.329-0.407-1.446-0.202-2.284,0.691c-0.451,0.476-0.926,1.062-1.374,1.736c-3.201,4.818-2.033,9.866,2.255,12.714
			c2.237,1.486,4.667,1.995,6.684,1.554c2.276-0.52,4.019-1.94,5.465-4.117C377.32-658.312,377.754-659.156,378.088-659.933z"/>
		<path fill="#009CD0" d="M377.507-671.173c0.175-0.229,0.347-0.478,0.522-0.737c1.206-1.812,1.723-3.742,1.342-5.439
			c-0.268-1.221-1.035-2.287-2.337-3.153c-1.278-0.848-2.649-1.05-3.838-0.737c-1.334,0.341-2.657,1.401-3.878,3.237
			c-0.435,0.657-0.802,1.266-1.117,1.83c-0.582,1.036,0.016,2.571,1.228,3.376l9.809,6.516c1.212,0.803,2.468,1.043,2.81,0.529
			c0.341-0.513-0.367-1.579-1.578-2.385l-1.367-0.909C377.891-669.853,377.207-670.781,377.507-671.173z M370.262-676.175
			c0.151-0.268,0.34-0.571,0.556-0.896c1.347-2.029,3.173-2.779,5.089-1.509c1.94,1.294,2.148,3.394,0.658,5.638
			c-0.185,0.276-0.367,0.531-0.543,0.754c-0.321,0.399-1.609,0.025-2.823-0.776l-1.2-0.801
			C370.79-674.571,369.973-675.67,370.262-676.175z"/>
		<path fill="#009CD0" d="M388.308-678.561c-0.87,0.749-1.474,1.46-1.137,1.884c0.343,0.419,1.564,0.321,2.497-0.544
			c0.544-0.507,1.072-1.107,1.495-1.738c2.253-3.393,1.394-6.301-0.828-7.776c-2.114-1.403-4.092-0.965-6.646,0.843
			c-2.085,1.472-3.324,1.909-4.672,1.011c-0.98-0.65-1.655-2.171-0.352-4.134c0.351-0.529,0.729-0.95,1.095-1.292
			c0.686-0.64,1.127-1.302,0.802-1.724c-0.325-0.415-1.382-0.357-2.15,0.405c-0.414,0.414-0.835,0.918-1.24,1.526
			c-1.856,2.794-1.424,5.749,0.817,7.239c2,1.331,4.204,0.705,6.611-1.072c2.013-1.46,3.313-1.707,4.636-0.824
			c1.452,0.959,1.719,2.739,0.461,4.632C389.297-679.524,388.817-679.001,388.308-678.561z"/>
	</g>
	<g>
		<circle cx="390.924" cy="184.488" r="11.23"/>
		<path d="M455.328,128.688l-111.216-4.758c-14.174-0.606-26.208,10.434-26.816,24.607l-4.353,101.821
			c-0.606,14.173,10.444,26.204,24.617,26.808l111.212,4.758c14.176,0.605,26.209-10.433,26.818-24.605l4.351-101.816
			C480.548,141.329,469.503,129.292,455.328,128.688z M471.16,257.137c-0.502,11.731-10.461,20.863-22.193,20.361l-111.217-4.754
			c-11.731-0.5-20.875-10.454-20.376-22.183l4.354-101.825c0.503-11.731,10.464-20.876,22.199-20.374l111.215,4.758
			c11.733,0.499,20.876,10.454,20.373,22.19L471.16,257.137z"/>
		<path d="M340.226,148.264c-1.221-0.051-2.259,0.903-2.312,2.122l-4.428,103.585c-0.007,0.181,0.012,0.343,0.044,0.505
			c0.055,0.265,0.274,0.684,0.452,0.92c0.18,0.235,0.62,0.566,0.967,0.722c0.23,0.104,0.438,0.153,0.657,0.161l45.268,1.935
			l6.874,0.297l65.947,2.817c0.183,0.011,0.353-0.01,0.516-0.051c0.278-0.063,0.697-0.295,0.932-0.473
			c0.178-0.137,0.288-0.251,0.384-0.371c0.346-0.537,0.473-0.862,0.488-1.222l4.429-103.583c0.053-1.225-0.899-2.262-2.119-2.315
			L340.226,148.264L340.226,148.264z M370.562,253.338l-21.19-0.905c-5.226-0.224-6.988-3.846-3.913-8.089l17.987-24.891
			c3.065-4.24,8.587-4.714,12.337-1.066l9.702,9.457c3.75,3.648,4.513,10.201,1.707,14.615l-2.084,3.279
			C382.313,250.16,375.801,253.562,370.562,253.338z M386.549,254.021c-0.778-0.033,0.866-3.641,3.673-8.056l24.591-38.713
			c2.81-4.426,7.049-4.243,9.479,0.397l21.346,40.704c2.431,4.64,0.162,8.213-5.063,7.989l-52.636-2.252
			C387.946,254.08,387.323,254.055,386.549,254.021z M447.545,242.407l-25.508-48.611c-0.725-1.39-2.981-1.496-3.834-0.165
			l-18.409,29c-2.809,4.422-8.117,5.038-11.87,1.389l-17.657-17.212c-0.2-0.188-0.42-0.34-0.67-0.446
			c-0.422-0.179-1.304-0.175-1.846,0.065c-0.346,0.157-0.613,0.39-0.826,0.676l-23.138,32.001c-3.065,4.239-5.374,3.44-5.149-1.782
			l3.211-75.058c0.221-5.229,4.644-9.288,9.871-9.065l94.74,4.049c5.228,0.225,9.29,4.648,9.067,9.877l-3.175,74.212
			C452.129,246.563,449.972,247.048,447.545,242.407z"/>
	</g>
	<g>
		<path fill="#5C000A" d="M-887.027,124.906c-1.979,20.82,7.818,41.936,26.93,53.364c26.479,15.825,60.883,7.151,76.699-19.315
			c15.83-26.478,7.154-60.882-19.319-76.699c-19.116-11.43-42.358-10.059-59.749,1.547c-4.166,2.781-10.585,3.535-14.88,0.966
			l-23.803-14.223c-7.609-4.549-17.359-2.286-21.736,5.034c-4.382,7.321-1.746,16.98,5.865,21.527l23.801,14.22
			C-888.918,113.91-886.553,119.922-887.027,124.906z M-804.862,85.847c24.482,14.631,32.494,46.475,17.863,70.951
			c-14.626,24.485-46.466,32.513-70.948,17.869c-24.49-14.628-32.502-46.471-17.87-70.947
			C-861.188,79.234-829.346,71.218-804.862,85.847z M-903.296,74.15l22.875,13.668c4.292,2.572,6.028,6.518,4.165,9.038
			c-1.113,1.505-2.169,3.075-3.148,4.714c-0.981,1.638-1.873,3.317-2.667,5.014c-1.338,2.84-5.623,3.17-9.92,0.6l-22.873-13.667
			c-5.626-3.36-7.597-10.438-4.418-15.777C-916.086,72.396-908.923,70.791-903.296,74.15z"/>
		<path fill="#5C000A" d="M-849.309,160.212c16.512,9.878,37.987,4.475,47.863-12.054c9.862-16.524,4.465-37.993-12.059-47.858
			c-16.522-9.881-37.992-4.467-47.859,12.052C-871.238,128.881-865.826,150.342-849.309,160.212z M-857.77,114.509
			c8.693-14.534,27.578-19.289,42.115-10.598c14.53,8.68,19.278,27.581,10.605,42.095c-8.691,14.535-27.571,19.289-42.098,10.607
			C-861.692,147.927-866.447,129.037-857.77,114.509z"/>
		<path fill="#5C000A" d="M-813.091,144.448c7.285-12.202,3.292-28.075-8.91-35.369c-0.674-0.391-1.528-0.184-1.927,0.48
			c-0.406,0.665-0.178,1.515,0.479,1.921c10.878,6.51,14.456,20.65,7.945,31.532c-0.391,0.673-0.178,1.521,0.478,1.915
			C-814.353,145.329-813.494,145.122-813.091,144.448z"/>
	</g>
	<g>
		<path fill="#ED1C24" d="M789.268,284.258l-0.023-25.654c-0.002-1.144-0.93-2.072-2.068-2.072l-22.344,0.019
			c-1.143,0-2.072,0.93-2.07,2.07l0.018,25.657c0.006,5.154,4.201,9.34,9.355,9.336l7.791-0.006
			C785.08,293.606,789.27,289.411,789.268,284.258z M766.922,284.275l-0.016-20.825c-0.002-1.52,1.236-2.76,2.752-2.763
			l12.684-0.009c1.521,0,2.764,1.235,2.766,2.76l0.012,20.823c0.004,2.87-2.33,5.205-5.199,5.209l-7.795,0.004
			C769.262,289.479,766.926,287.145,766.922,284.275z"/>
		<path fill="#ED1C24" d="M764.797,213.041c-1.141,0-2.07,0.927-2.066,2.074l0.023,32.93c0,1.142,0.93,2.069,2.07,2.07l22.344-0.017
			c1.141-0.003,2.07-0.933,2.068-2.076l-0.023-32.927c-0.002-1.144-0.934-2.071-2.07-2.068l-22.346,0.013V213.041z M785.076,219.927
			l0.016,23.269c0.002,1.525-1.234,2.763-2.758,2.763l-12.682,0.012c-1.523-0.002-2.76-1.236-2.76-2.763l-0.02-23.268
			c0-1.522,1.238-2.762,2.76-2.762l12.682-0.008C783.838,217.168,785.076,218.404,785.076,219.927z"/>
		<path fill="#ED1C24" d="M789.205,204.509l-0.018-25.65c-0.006-5.149-4.203-9.342-9.357-9.336l-7.791,0.006
			c-5.15,0.003-9.34,4.199-9.334,9.35l0.018,25.652c-0.002,1.142,0.93,2.069,2.07,2.07l22.348-0.017
			C788.275,206.579,789.207,205.646,789.205,204.509z M766.861,199.696l-0.016-20.822c-0.002-2.867,2.332-5.202,5.201-5.205
			l7.789-0.006c2.875-0.001,5.211,2.331,5.213,5.197l0.014,20.825c0,1.522-1.236,2.759-2.756,2.761l-12.686,0.011
			C768.1,202.456,766.857,201.219,766.861,199.696z"/>
		<path fill="#ED1C24" d="M811.68,293.589c5.148-0.005,9.342-4.204,9.336-9.353L821,258.582c-0.002-1.143-0.936-2.071-2.074-2.068
			l-22.346,0.015c-1.141,0-2.068,0.927-2.066,2.072l0.018,25.655c0.002,5.152,4.199,9.341,9.348,9.338L811.68,293.589z
			 M798.674,284.252l-0.014-20.822c-0.002-1.521,1.232-2.762,2.754-2.766l12.684-0.009c1.521-0.001,2.764,1.237,2.764,2.761
			l0.018,20.824c0.002,2.869-2.334,5.203-5.199,5.204l-7.797,0.006C801.01,289.452,798.676,287.122,798.674,284.252z"/>
		<path fill="#ED1C24" d="M796.549,213.018c-1.141,0-2.068,0.925-2.07,2.071l0.027,32.93c0.002,1.14,0.934,2.069,2.072,2.069
			l22.344-0.018c1.141-0.002,2.072-0.929,2.068-2.073l-0.023-32.931c0.002-1.144-0.932-2.07-2.074-2.069l-22.344,0.018V213.018z
			 M816.83,219.903l0.018,23.27c0,1.522-1.24,2.761-2.762,2.765l-12.682,0.003c-1.521,0.004-2.762-1.229-2.762-2.755l-0.016-23.27
			c-0.002-1.522,1.232-2.762,2.758-2.763l12.68-0.01C815.59,217.14,816.83,218.38,816.83,219.903z"/>
		<path fill="#ED1C24" d="M818.889,206.554c1.141,0.001,2.072-0.926,2.07-2.068l-0.018-25.653c-0.004-5.15-4.197-9.341-9.354-9.336
			l-7.795,0.005c-5.152,0.004-9.34,4.203-9.338,9.353l0.02,25.652c0,1.142,0.934,2.07,2.07,2.068L818.889,206.554z M798.609,199.674
			l-0.018-20.823c0-2.867,2.332-5.206,5.203-5.203l7.799-0.008c2.867-0.002,5.201,2.33,5.203,5.2l0.02,20.819
			c-0.004,1.523-1.238,2.763-2.76,2.761l-12.682,0.014C799.85,202.431,798.611,201.196,798.609,199.674z"/>
		<path fill="#ED1C24" d="M843.43,293.565c5.154-0.005,9.342-4.202,9.34-9.351l-0.021-25.657c0-1.143-0.934-2.071-2.076-2.072
			l-22.336,0.018c-1.146,0-2.076,0.929-2.074,2.076l0.02,25.651c0.004,5.153,4.201,9.342,9.354,9.336L843.43,293.565z
			 M830.426,284.23l-0.016-20.824c0-1.523,1.23-2.762,2.754-2.764l12.688-0.009c1.521,0,2.76,1.237,2.762,2.759l0.012,20.824
			c0.006,2.869-2.33,5.205-5.203,5.207l-7.791,0.009C832.764,289.43,830.428,287.097,830.426,284.23z"/>
		<path fill="#ED1C24" d="M828.303,212.994c-1.139,0.003-2.072,0.93-2.068,2.072l0.021,32.931c0.002,1.14,0.936,2.07,2.076,2.067
			l22.342-0.016c1.141,0.001,2.072-0.93,2.07-2.073l-0.023-32.93c-0.002-1.144-0.936-2.069-2.074-2.068l-22.342,0.014
			L828.303,212.994z M848.58,219.878l0.018,23.271c0.004,1.523-1.232,2.763-2.756,2.764l-12.684,0.009
			c-1.525,0-2.76-1.236-2.764-2.761l-0.018-23.269c0-1.527,1.234-2.763,2.758-2.762l12.686-0.011
			C847.344,217.119,848.58,218.357,848.58,219.878z"/>
		<path fill="#ED1C24" d="M850.639,206.534c1.143,0.002,2.074-0.93,2.072-2.071l-0.021-25.653c-0.002-5.15-4.199-9.34-9.354-9.336
			l-7.791,0.007c-5.154,0.001-9.344,4.197-9.338,9.351l0.021,25.651c-0.004,1.143,0.932,2.069,2.07,2.066L850.639,206.534z
			 M830.361,199.648l-0.012-20.821c-0.004-2.868,2.33-5.201,5.201-5.204l7.791-0.006c2.871-0.001,5.207,2.333,5.211,5.197
			l0.016,20.823c0,1.525-1.24,2.76-2.758,2.762l-12.686,0.009C831.602,202.411,830.363,201.173,830.361,199.648z"/>
		<path fill="#ED1C24" d="M875.186,293.539c5.145-0.004,9.336-4.2,9.332-9.354l-0.02-25.653c0-1.144-0.93-2.072-2.072-2.073
			l-22.34,0.021c-1.141-0.001-2.072,0.928-2.07,2.071l0.02,25.653c0.004,5.154,4.199,9.341,9.352,9.338L875.186,293.539z
			 M862.178,284.205l-0.016-20.826c0-1.518,1.236-2.761,2.756-2.761l12.68-0.009c1.525,0,2.768,1.235,2.766,2.759l0.016,20.826
			c0.002,2.868-2.332,5.203-5.201,5.204l-7.793,0.008C864.514,289.406,862.18,287.075,862.178,284.205z"/>
		<path fill="#ED1C24" d="M857.982,215.042l0.025,32.926c0,1.146,0.932,2.073,2.074,2.072l22.342-0.017
			c1.139-0.001,2.07-0.933,2.068-2.072l-0.025-32.933c0-1.146-0.93-2.068-2.072-2.071l-22.34,0.018
			C858.912,212.971,857.98,213.898,857.982,215.042z M880.33,219.854l0.02,23.271c-0.002,1.521-1.238,2.762-2.762,2.762
			l-12.678,0.009c-1.523,0.003-2.764-1.232-2.76-2.756l-0.021-23.271c0.002-1.521,1.24-2.763,2.76-2.762l12.678-0.011
			C879.092,217.099,880.33,218.331,880.33,219.854z"/>
		<path fill="#ED1C24" d="M882.391,206.509c1.139-0.001,2.07-0.928,2.07-2.071l-0.021-25.651c-0.006-5.154-4.203-9.34-9.35-9.338
			l-7.795,0.006c-5.154,0.004-9.344,4.202-9.34,9.352l0.02,25.652c0.004,1.142,0.936,2.069,2.078,2.068L882.391,206.509z
			 M862.113,199.624l-0.018-20.82c0.002-2.866,2.338-5.203,5.205-5.204l7.793-0.006c2.865-0.003,5.203,2.329,5.207,5.197
			l0.016,20.822c0,1.525-1.236,2.764-2.76,2.762l-12.678,0.013C863.355,202.385,862.115,201.148,862.113,199.624z"/>
		<path fill="#ED1C24" d="M755.41,213.864l-12.488,16.478c-0.547,0.728-0.547,1.771,0.002,2.502l12.516,16.454
			c0.539,0.708,1.469,0.997,2.307,0.708c0.848-0.286,1.416-1.075,1.412-1.967l-0.025-32.932c-0.002-0.891-0.564-1.678-1.41-1.958
			C756.881,212.87,755.949,213.154,755.41,213.864z M753.344,239.701l-4.5-5.916c-0.926-1.214-0.924-3.18-0.004-4.399l4.49-5.919
			c0.918-1.214,1.668-0.966,1.67,0.559l0.012,15.109C755.014,240.664,754.264,240.916,753.344,239.701z"/>
	</g>
	<g>
		<path fill="#FF2ED3" d="M188.819-1078.467l0.736-24.156c0.381-12.408-9.417-22.819-21.835-23.2l-53.404-1.629
			c-18.034-0.548-33.136,13.669-33.686,31.693l-0.115,3.813c-0.55,18.033,13.667,33.137,31.689,33.685l53.409,1.629
			C178.029-1056.244,188.443-1066.041,188.819-1078.467z M112.348-1062.599c-15.633-0.476-27.957-13.589-27.479-29.209l0.113-3.812
			c0.478-15.643,13.583-27.956,29.211-27.48l53.403,1.628c10.027,0.308,17.928,8.697,17.623,18.726l-0.733,24.153
			c-0.309,10.028-8.707,17.937-18.731,17.631l-53.41-1.63L112.348-1062.599z"/>
		<path fill="#FF2ED3" d="M141.279-1135.02l39.417,1.204c10.025,0.307,17.929,8.716,17.623,18.736l-0.485,15.888l-0.544,17.794
			l-0.482,15.903c-0.307,10.024-8.709,17.918-18.733,17.618l-39.416-1.208c-1.2-0.036-2.199,0.913-2.236,2.103
			c-0.036,1.191,0.912,2.207,2.103,2.245l39.415,1.202c12.418,0.379,22.82-9.411,23.201-21.825c0,0,0.091-3.076,0.206-6.864
			c0.117-3.788,3.224-6.771,6.94-6.66c3.719,0.115,6.715,0.674,6.696,1.248l-0.03,1.04c-0.266,8.657,2.397,17.509,7.999,17.682
			l6.354,0.195c1.198,0.035,2.203-0.91,2.234-2.105l1.734-56.796c0.035-1.194-0.915-2.183-2.106-2.221l-6.354-0.194
			c-5.602-0.17-8.797,8.503-9.063,17.161c0,0-0.016,0.461-0.032,1.033c-0.016,0.573-3.042,0.943-6.76,0.827
			c-3.717-0.115-6.637-3.281-6.52-7.062l0.209-6.856c0.379-12.421-9.408-22.833-21.827-23.219l-39.416-1.2
			c-1.2-0.032-2.198,0.915-2.233,2.107C139.145-1136.061,140.079-1135.054,141.279-1135.02z M201.909-1090.162
			c0.112-3.716,3.217-6.635,6.932-6.522c3.717,0.112,6.634,3.215,6.523,6.934c-0.113,3.718-3.216,6.636-6.933,6.52
			C204.715-1083.339,201.796-1086.442,201.909-1090.162z M224.697-1115.712c0,0,0.935,0.027,2.087,0.06
			c1.154,0.037,1.983,3.625,1.849,8.008l-1.113,36.565c-0.134,4.385-1.181,7.914-2.334,7.88l-2.089-0.064
			c-1.255-0.036-4.051-4.583-3.788-13.2l0.129-4.253l0.543-17.792l0.129-4.234C220.374-1111.393,223.438-1115.754,224.697-1115.712z
			"/>
	</g>
	<path fill="#00B929" d="M-173.485,826.177l-4.686-5.405l-1.123-1.299c0,0-3.41-3.938-7.615-8.796
		c-4.203-4.858-6.439-13.961-4.993-20.323l21.026-92.504c2.108-9.275-3.712-18.538-12.99-20.65l-62.584-14.223
		c-17.079-3.883-34.139,6.859-38.026,23.95l-23.745,104.479c-3.886,17.091,6.843,34.146,23.937,38.034l62.582,14.225
		c2.386,0.542,4.774,0.553,7.019,0.103c3.833-0.753,5.159-4.245,3.535-6.117c-1.625-1.873-2.637-2.684-2.288-1.818
		c0.358,0.885-0.967,2.44-3.136,2.704c-1.283,0.157-2.607,0.114-3.934-0.188l-62.581-14.227c-3.136-0.714-6.018-1.961-8.554-3.639
		c-4.315-2.835-2.16-9.061,3.491-12.321l24.091-13.907c5.651-3.26,10.029-6.157,9.761-6.457c-0.26-0.304,2.998,3.443,7.27,8.376
		c13.643,15.742,40.535,46.813,40.535,46.813l1.12,1.297l4.663,5.4c3.211,3.695,9.148,3.813,13.279,0.241l12.249-10.597
		C-171.025,835.78-170.301,829.865-173.485,826.177z M-184.279,823.809c-1.332,1.15-5.882-1.917-10.152-6.853l-31.747-36.677
		c-4.269-4.941-6.65-9.88-5.323-11.032c1.34-1.15,5.881,1.906,10.152,6.854l31.746,36.678
		C-185.333,817.714-182.951,822.654-184.279,823.809z M-243.261,769.41c0.651-0.351,1.271-0.777,1.855-1.289
		c0.606-0.528,1.122-1.093,1.562-1.633c0.777-0.977,2.589-1.629,4.211-1.308c1.623,0.32-1.063,4.036-5.997,8.309l-1.406,1.222
		c-4.935,4.271-9.007,6.236-9.098,4.4c-0.091-1.839,0.887-3.637,2.058-4.303c0.697-0.394,1.362-0.868,1.992-1.401
		c0.569-0.492,1.065-0.994,1.472-1.473C-245.859,771.037-244.366,770.007-243.261,769.41z M-252.641,768.61l-0.173-3.555
		c-0.096-1.766,1.317-2.973,3.033-2.631c0,0,1.705,0.327,3.794,0.744c2.099,0.415,3.522,1.152,3.111,1.606
		c-0.225,0.26-0.495,0.526-0.768,0.769c-0.938,0.817-1.98,1.309-3.057,1.449c-0.279,0.046-0.546,0.153-0.766,0.323
		c-0.373,0.27-0.926,1.365-1.581,2.165c-0.348,0.416-0.783,0.887-1.295,1.326c-0.319,0.294-0.67,0.542-1.021,0.762
		C-251.945,771.945-252.542,770.573-252.641,768.61z M-228.772,782.523l31.733,36.675c4.27,4.936,5.964,10.459,3.787,12.344
		c-2.186,1.875-7.403-0.596-11.674-5.54l-31.723-36.674c-4.273-4.94-5.973-10.463-3.802-12.34
		C-238.265,775.116-233.045,777.583-228.772,782.523z M-196.322,785.228c-1.446,6.363-6.092,7.527-10.36,2.592l-20.939-24.188
		c-0.192-0.216-2.645-0.785-5.106-1.319c-2.854-0.612-5.637-2.19-6.202-3.592l-1.033-2.539c-1.04-2.528-0.062-6.715,1.962-8.533
		l53.105-47.895c4.847-4.376,9.023-6.844,8.995-5.505c-0.009,0.795-0.11,1.6-0.292,2.408L-196.322,785.228L-196.322,785.228z
		 M-185.074,682.519c1.328,0.301,2.552,0.822,3.63,1.526c1.839,1.183-1.018,6.18-5.867,10.554l-30.568,27.566
		c-4.848,4.362-11.766,3.554-15.46-1.842l-26.865-39.224c-3.688-5.384-2.805-12.25,2.63-13.121c3.21-0.521,6.559-0.441,9.915,0.321
		l62.583,14.229L-185.074,682.519z M-303.407,801.157c-0.287-2.777-0.144-5.655,0.509-8.538l23.748-104.479
		c0.604-2.661,1.595-5.156,2.906-7.399c2.209-3.803,7.971-1.804,11.658,3.581l27.166,39.667c3.686,5.381,4.242,11.959,1.222,14.675
		l-5.444,4.921c-1.874,1.683-3.226,4.114-3.851,6.857c-0.619,2.718-0.447,5.487,0.509,7.799c0,0,0.163,0.397,0.353,0.879
		c0.193,0.495-0.731,0.674-2.063,0.407l-2.425-0.482c-1.95-0.381-3.772,0.053-5.132,1.245c-1.383,1.179-2.06,2.926-1.965,4.917
		c0,0,0.188,3.965,0.433,8.871c0.241,4.904-4.146,11.52-9.811,14.788l-25.305,14.599
		C-296.563,806.734-302.914,805.873-303.407,801.157z M-249.024,784.427c1.144-0.988,5.517,2.222,9.79,7.159l31.746,36.683
		c4.272,4.93,6.813,9.741,5.67,10.718c-1.144,0.985-5.519-2.215-9.804-7.148l-31.734-36.68
		C-247.623,790.212-250.168,785.413-249.024,784.427z M-199.867,845.403c-0.981-1.129,2.224-5.52,7.159-9.789l4.133-3.579
		c4.936-4.274,9.743-6.814,10.721-5.675l1.772,2.052c1.949,2.264,1.365,6.007-1.319,8.33l-12.25,10.597
		c-2.69,2.337-6.479,2.37-8.426,0.108C-198.09,847.458-198.885,846.532-199.867,845.403z"/>
	<g>
		<path fill="#9BC2C1" d="M-1095.113,444.746c0,0,20.158,34.116-30.864,65.238C-1125.977,509.984-1138.678,460.067-1095.113,444.746
			z"/>
		<path fill="#9BC2C1" d="M-1072.454,441.052c0,0-24.887-23.671-52.929,5.173c-0.272,0.28-0.546,0.564-0.82,0.856
			c0,0-14.291,18.29-42.84,0.541c0,0-5.837-5.377-8.931-9.661c0,0,41.435-56.357-13.479-82.636c0,0-5.316-3.236-2.934-17.992
			c2.382-14.755,15.416-43.905,28.324-52.852c0,0,7.336-3.249,18.202,0.452c0,0,21.17,6.05,43.047-10.821
			c0,0,22.034-13.818,40.274,7.836c0,0,44.328,36.896,48.551,83.756c0,0,9.104,47.43-22.159,67.58
			C-1038.146,433.285-1056.361,447.438-1072.454,441.052z"/>
	</g>
	<g>
		<path fill="#2EFF5D" d="M-238.356-668.521l-8.037-20.468c0.992-0.093,1.984-0.276,2.957-0.659l24.485-9.614
			c5.631-2.211,8.407-8.572,6.194-14.206c-2.211-5.635-8.574-8.408-14.205-6.197l-24.485,9.614
			c-0.975,0.382-1.826,0.922-2.616,1.528l-8.354-21.277c0.992-0.093,1.983-0.277,2.958-0.66l24.485-9.614
			c5.629-2.21,8.406-8.572,6.194-14.206c-2.213-5.635-8.576-8.407-14.205-6.196l-24.485,9.613c-0.974,0.383-1.827,0.923-2.616,1.528
			l-7.308-18.612l-92.003,36.125l39.039,99.424L-238.356-668.521z"/>
		<path fill="#2EFF5D" d="M-375.934-751.736c2.212,5.635,10.84,7.519,19.271,4.208l36.627-14.382
			c8.422-3.306,13.463-10.559,11.25-16.192c-2.212-5.634-10.839-7.519-19.261-4.211l-36.627,14.382
			C-373.104-764.621-378.146-757.371-375.934-751.736z"/>
		<path fill="#2EFF5D" d="M-322.182-614.84c2.212,5.635,10.84,7.519,19.271,4.208l36.627-14.382
			c8.421-3.306,13.462-10.558,11.25-16.192s-10.839-7.518-19.262-4.211l-36.627,14.381
			C-319.353-627.726-324.394-620.475-322.182-614.84z"/>
		<path fill="#2EFF5D" d="M-398.156-693.137l-8.585,0.396c-3.648,0.165-6.548,1.547-6.479,3.089
			c0.071,1.537,3.086,2.648,6.735,2.481l7.551-0.348c-0.651,7.661,0.34,15.461,3.281,22.952c3.094,7.88,8.003,14.542,14.105,19.85
			l-6.206,5.251c-2.788,2.359-4.24,5.224-3.247,6.401c0.998,1.176,4.063,0.216,6.851-2.146l7.075-5.99
			c10.771,7.52,24.411,11.271,38.549,10.354l-38.205-97.302C-388.057-718.92-395.589-706.422-398.156-693.137z M-360.796-661.121
			c1.085,2.764-0.277,5.889-3.042,6.975c-2.763,1.086-5.889-0.277-6.974-3.043c-1.086-2.765,0.276-5.889,3.041-6.975
			C-365.007-665.248-361.882-663.886-360.796-661.121z M-374.854-696.923c1.085,2.765-0.277,5.889-3.041,6.974
			c-2.765,1.086-5.89-0.277-6.975-3.041c-1.085-2.765,0.276-5.89,3.041-6.975C-379.063-701.051-375.94-699.688-374.854-696.923z"/>
	</g>
	<g>
		<g>
			<polygon fill="#00D09C" points="-372.331,1126.391 -324.979,1151.6 -309.84,1098.239 -346.852,1078.534 			"/>
			<polygon fill="#00D09C" points="-350.946,1076.354 -385.403,1058.01 -419.684,1101.18 -376.424,1124.211 			"/>
		</g>
		<g>
			<polygon fill="#00D09C" points="-343.834,1074.882 -307.683,1094.128 -292.544,1040.766 -318.356,1027.024 			"/>
			<polygon fill="#00D09C" points="-322.45,1024.845 -347.375,1011.575 -381.656,1054.746 -347.929,1072.701 			"/>
		</g>
	</g>
	
	
	 <animateTransform
            attributeName="transform"
            begin="0s"
            dur="250s"
            type="rotate"
            from="0 60 60"
            to="360 60 60"
            repeatCount="indefinite"
        />
</g>
</svg>
