<?xml version="1.0" encoding="utf-8"?>
<!-- Generator: Adobe Illustrator 16.0.0, SVG Export Plug-In . SVG Version: 6.00 Build 0)  -->
<!DOCTYPE svg PUBLIC "-//W3C//DTD SVG 1.1//EN" "http://www.w3.org/Graphics/SVG/1.1/DTD/svg11.dtd">
<svg version="1.1" id="Layer_1" xmlns="http://www.w3.org/2000/svg" xmlns:xlink="http://www.w3.org/1999/xlink" x="0px" y="0px"
	 width="300px" height="100px" viewBox="0 0 300 100" enable-background="new 0 0 300 100" xml:space="preserve">
<g enable-background="new    ">
	<path fill="#FFFFFF" d="M99.679,37.884c0.772-0.714,1.674-1.071,2.704-1.071c0.708,0,1.32,0.165,1.835,0.495
		c0.514,0.329,0.772,0.769,0.772,1.318c0,0.659-0.385,1.319-1.159,1.977h0.097l-8.595,8.482l-3.091,2.966h0.097
		c-1.29,1.264-2.544,2.501-3.767,3.708c-1.224,1.208-2.48,2.472-3.767,3.789v1.482c0.579-0.108,1.143-0.177,1.69-0.206
		c0.545-0.027,1.175-0.041,1.884-0.041c1.544,0,3.105,0.096,4.683,0.285c1.578,0.192,3.14,0.535,4.685,1.031
		c1.222,0.387,2.591,0.935,4.104,1.646c1.512,0.716,2.929,1.539,4.249,2.473c1.319,0.938,2.415,1.991,3.284,3.177
		c0.868,1.183,1.303,2.457,1.303,3.832c0,0.879-0.322,1.635-0.966,2.266c-0.644,0.632-1.448,0.945-2.415,0.945
		c-0.579,0-1.079-0.162-1.497-0.494c-0.419-0.328-0.628-0.879-0.628-1.646c0-0.988-0.402-1.938-1.207-2.844
		c-0.807-0.905-1.803-1.717-2.994-2.432c-1.192-0.711-2.462-1.316-3.815-1.813c-1.352-0.494-2.543-0.853-3.573-1.067
		c-1.095-0.274-2.207-0.459-3.333-0.537c-1.126-0.086-2.238-0.121-3.332-0.121c-0.259,0-0.5,0-0.725,0
		c-0.227,0-0.5,0.022-0.82,0.082h-0.676c0,1.313-0.017,2.389-0.049,3.213c-0.032,0.826-0.047,1.604-0.047,2.349
		c0,0.74,0,1.556,0,2.431c0,0.881,0,2.006,0,3.377c-0.129,0.771-0.547,1.398-1.256,1.896c-0.71,0.493-1.416,0.737-2.125,0.737
		c-0.579,0-1.078-0.178-1.497-0.529c-0.419-0.36-0.626-0.926-0.626-1.689v-10.63c-0.324,0.058-0.742,0.083-1.257,0.083
		c-1.16,0-2.013-0.219-2.56-0.656c-0.546-0.438-0.821-0.959-0.821-1.564c0-0.657,0.401-1.452,1.207-2.389
		c0.804-0.935,1.625-1.838,2.463-2.717l1.159-1.072c0-1.648,0.015-3.485,0.048-5.521c0.032-2.03,0.063-4.09,0.096-6.176
		c0.032-2.087,0.048-4.146,0.048-6.178c0-2.031,0-3.844,0-5.437c0-0.769,0.354-1.456,1.063-2.06
		c0.708-0.604,1.416-0.906,2.124-0.906c1.288,0,2.061,0.631,2.318,1.894c0,1.373-0.017,2.993-0.047,4.859
		c-0.034,1.867-0.048,3.762-0.048,5.683v8.152l6.277-6.259L99.679,37.884z"/>
	<path fill="#FFFFFF" d="M114.939,50.238c0-0.77,0.37-1.454,1.11-2.063c0.739-0.604,1.464-0.907,2.172-0.907
		c1.223,0,1.964,0.633,2.222,1.896c0,0.604,0.016,1.249,0.048,1.935c0.031,0.688,0.047,1.359,0.047,2.019
		c0.063,2.36,0.129,4.764,0.194,7.206c0.063,2.441,0.289,4.876,0.675,7.29c0.13-0.438,0.322-0.921,0.58-1.441
		c0.256-0.521,0.45-1.002,0.579-1.44c0.514-1.426,1.078-2.91,1.691-4.448c0.612-1.538,1.239-2.925,1.883-4.16
		c0.643-1.237,1.304-2.249,1.979-3.047c0.676-0.796,1.399-1.195,2.174-1.195c0.642,0,1.255,0.263,1.834,0.784
		c0.579,0.523,1.125,1.209,1.642,2.059c0.514,0.854,1.013,1.826,1.498,2.924c0.482,1.102,0.979,2.252,1.498,3.461
		c0.708,1.598,1.399,3.146,2.076,4.654c0.677,1.512,1.369,2.76,2.078,3.748v-0.086c0.385,0.387,0.58,0.825,0.58,1.316
		c0,0.66-0.307,1.264-0.919,1.814c-0.612,0.549-1.303,0.821-2.076,0.821c-0.645,0-1.338-0.438-2.078-1.315
		c-0.74-0.879-1.482-1.977-2.221-3.291c-0.742-1.317-1.464-2.746-2.174-4.282c-0.71-1.538-1.353-2.966-1.931-4.282l-0.772,2.471
		c-0.71,2.305-1.512,4.542-2.415,6.711c-0.901,2.172-2.189,4.049-3.863,5.646v-0.083c-0.322,0.276-0.661,0.532-1.015,0.782
		c-0.354,0.246-0.789,0.369-1.303,0.369c-0.386,0-0.903-0.138-1.545-0.41c-0.644-0.273-1.32-0.741-2.029-1.401
		c-0.516-0.494-0.901-1.536-1.157-3.13c-0.259-1.596-0.469-3.403-0.629-5.438c-0.16-2.031-0.257-4.133-0.289-6.302
		c-0.034-2.169-0.048-4.047-0.048-5.643c0-0.823-0.017-1.552-0.048-2.183C114.954,50.967,114.939,50.514,114.939,50.238z"/>
	<path fill="#FFFFFF" d="M153.377,53.286c1.159,0.218,2.27,0.604,3.331,1.153c1.063,0.548,2.011,1.205,2.846,1.976
		c0.839,0.771,1.515,1.633,2.03,2.594c0.512,0.96,0.771,1.966,0.771,3.007c0,0.938-0.31,1.977-0.922,3.133
		c-0.609,1.15-1.479,2.236-2.605,3.25c-1.128,1.021-2.449,1.869-3.961,2.56c-1.516,0.687-3.174,1.026-4.974,1.026
		c-2.253,0-3.927-0.575-5.021-1.729c-1.095-1.152-1.642-2.689-1.642-4.613c0-1.701,0.338-3.502,1.015-5.396
		c0.675-1.894,1.27-3.472,1.785-4.736c0.063-0.933,0.498-1.618,1.304-2.06c0.805-0.438,1.722-0.66,2.751-0.66
		c0.709,0,1.319,0.057,1.836,0.166c0.513,0.111,1.03,0.219,1.546,0.327h-0.096L153.377,53.286L153.377,53.286z M153.279,58.477
		c-0.516-0.105-0.965-0.219-1.354-0.33c-0.386-0.104-0.839-0.164-1.353-0.164c-0.256,0-0.483,0.222-0.676,0.658
		c-0.192,0.438-0.339,0.979-0.436,1.606c-0.096,0.632-0.177,1.306-0.24,2.021c-0.064,0.715-0.098,1.315-0.098,1.813
		c0,1.209,0.113,1.991,0.338,2.348c0.224,0.357,0.725,0.532,1.498,0.532c1.674,0,3.089-0.508,4.249-1.521
		c1.16-1.019,1.736-2.127,1.736-3.336c0-0.711-0.271-1.388-0.818-2.019c-0.547-0.631-1.496-1.142-2.85-1.521V58.48v-0.004H153.279
		L153.279,58.477z"/>
	<path fill="#FFFFFF" d="M184.283,54.191c0,0.771-0.338,1.455-1.016,2.062c-0.681,0.604-1.371,0.905-2.078,0.905
		c-0.709,0-1.227-0.178-1.547-0.535c-0.322-0.357-0.646-0.755-0.967-1.194c-0.322-0.438-0.609-0.836-0.865-1.194
		c-0.261-0.355-0.612-0.532-1.064-0.532c-0.902,0-1.819,0.37-2.752,1.108c-0.934,0.738-1.398,1.521-1.398,2.349
		c0,0.274,0.029,0.414,0.103,0.414c0.126,0.438,0.688,1,1.688,1.688c0.996,0.688,2.175,1.468,3.524,2.345
		c1.156,0.662,2.314,1.373,3.477,2.146s2.209,1.563,3.143,2.39c0.932,0.823,1.688,1.646,2.269,2.473
		c0.58,0.824,0.871,1.646,0.871,2.47c0,1.101-0.327,2.047-0.967,2.845c-0.646,0.795-1.466,1.454-2.464,1.975
		c-0.996,0.521-2.092,0.904-3.283,1.151c-1.189,0.249-2.305,0.371-3.333,0.371c-1.866,0-3.649-0.327-5.358-0.989
		c-1.707-0.657-3.236-1.521-4.587-2.595c-1.353-1.071-2.463-2.306-3.331-3.705c-0.867-1.401-1.429-2.813-1.688-4.241
		c0-0.771,0.308-1.481,0.919-2.143c0.61-0.659,1.303-0.988,2.079-0.988c0.384,0,0.787,0.102,1.203,0.289
		c0.422,0.196,0.791,0.481,1.109,0.866c0.192,0.989,0.61,2.007,1.26,3.051c0.645,1.044,1.414,2.007,2.314,2.882
		c0.9,0.883,1.915,1.598,3.042,2.146c1.128,0.549,2.233,0.818,3.33,0.818c0.192,0,0.517-0.023,0.964-0.082
		c0.452-0.057,0.902-0.149,1.354-0.288c0.447-0.138,0.851-0.314,1.205-0.532c0.354-0.221,0.53-0.468,0.53-0.74
		c0-0.604-0.645-1.316-1.931-2.141c-1.291-0.825-2.671-1.705-4.15-2.639c-0.584-0.386-1.162-0.756-1.742-1.11
		c-0.578-0.355-1.127-0.729-1.641-1.109l-1.16-0.821c-0.902-0.604-1.801-1.306-2.703-2.104c-0.899-0.792-1.351-1.659-1.351-2.594
		c0-1.429,0.303-2.731,0.915-3.91c0.611-1.183,1.417-2.197,2.417-3.047c0.996-0.851,2.108-1.512,3.33-1.979
		c1.221-0.466,2.444-0.7,3.668-0.7c1.544,0,2.914,0.371,4.106,1.111c1.188,0.741,2.043,1.936,2.563,3.583V54.2h-0.005
		L184.283,54.191L184.283,54.191z"/>
	<path fill="#FFFFFF" d="M188.917,56.169c0-0.771,0.31-1.442,0.918-2.019c0.61-0.577,1.335-0.864,2.174-0.864
		c0.836,0,1.608,0.385,2.316,1.149c0.256,0.658,0.627,1.565,1.108,2.72c0.482,1.151,1.028,2.348,1.644,3.583
		c0.608,1.236,1.255,2.416,1.931,3.539c0.68,1.131,1.336,1.97,1.979,2.514c0.453-0.329,0.871-0.96,1.265-1.893
		c0.382-0.938,0.726-2.006,1.011-3.213c0.29-1.211,0.549-2.42,0.772-3.629c0.226-1.207,0.438-2.229,0.627-3.05l0.192-1.237h-0.1
		c0.196-0.604,0.645-1.123,1.354-1.563c0.709-0.438,1.354-0.658,1.936-0.658c0.578,0,1.041,0.261,1.396,0.782
		c0.354,0.523,0.645,1.167,0.869,1.938c0.228,0.771,0.385,1.633,0.483,2.597c0.097,0.959,0.177,1.854,0.241,2.677
		c0,0.273,0,0.536,0,0.781c0,0.244,0.027,0.509,0.098,0.781c0.064,0.492,0.111,1.07,0.143,1.729
		c0.033,0.659,0.111,1.294,0.242,1.896c0.193,1.759,0.387,3.694,0.58,5.81c0.191,2.118,0.29,4.271,0.29,6.467
		c0,2.416-0.212,4.858-0.625,7.33c-0.421,2.474-1.192,4.695-2.319,6.67c-1.129,1.979-2.688,3.584-4.683,4.821
		c-1.997,1.236-4.571,1.855-7.728,1.855c-1.414,0-2.896-0.141-4.439-0.414c-1.547-0.273-2.963-0.738-4.252-1.4
		c-1.285-0.657-2.349-1.521-3.185-2.594c-0.837-1.069-1.257-2.401-1.257-3.996c0-0.605,0.209-1.195,0.625-1.771
		c0.42-0.573,0.92-1.084,1.498-1.522c0.58-0.438,1.146-0.777,1.688-1.026c0.548-0.251,0.98-0.372,1.301-0.372
		c0.646,0,1.176,0.177,1.598,0.535c0.418,0.355,0.625,0.837,0.625,1.441c0,0.271-0.158,0.771-0.482,1.482l-1.352,1.318
		c0.257,1.098,1.123,1.964,2.607,2.596c1.479,0.629,3.121,0.943,4.926,0.943c1.992,0,3.652-0.438,4.971-1.317
		c1.32-0.88,2.337-2.046,3.044-3.499c0.709-1.454,1.204-3.117,1.5-4.98c0.288-1.869,0.434-3.789,0.434-5.77
		c0-1.595-0.063-3.129-0.192-4.611s-0.26-2.885-0.388-4.201c-0.771,1.207-1.606,2.185-2.511,2.925c-0.9,0.739-1.869,1.11-2.898,1.11
		c-1.222,0-2.431-0.59-3.619-1.771c-1.191-1.184-2.316-2.608-3.383-4.282c-1.063-1.672-2.027-3.43-2.897-5.271
		c-0.868-1.836-1.558-3.441-2.075-4.817L188.917,56.169L188.917,56.169z"/>
	<path fill="#FFFFFF" d="M238.074,54.191c0,0.771-0.34,1.455-1.016,2.062c-0.679,0.604-1.367,0.905-2.078,0.905
		c-0.709,0-1.225-0.178-1.543-0.535c-0.323-0.357-0.646-0.755-0.971-1.194c-0.316-0.438-0.607-0.836-0.865-1.194
		c-0.254-0.355-0.61-0.532-1.063-0.532c-0.902,0-1.819,0.37-2.752,1.108c-0.935,0.738-1.399,1.521-1.399,2.349
		c0,0.274,0.032,0.414,0.096,0.414c0.134,0.438,0.691,1,1.689,1.688c0.997,0.688,2.172,1.468,3.523,2.345
		c1.16,0.662,2.32,1.373,3.479,2.146c1.159,0.771,2.204,1.563,3.141,2.39c0.931,0.823,1.688,1.646,2.269,2.473
		c0.582,0.824,0.872,1.646,0.872,2.47c0,1.101-0.326,2.047-0.969,2.845c-0.646,0.795-1.465,1.454-2.461,1.975
		c-1.002,0.521-2.096,0.904-3.289,1.151c-1.188,0.249-2.303,0.371-3.327,0.371c-1.866,0-3.654-0.327-5.358-0.989
		c-1.709-0.657-3.236-1.521-4.589-2.595c-1.354-1.071-2.465-2.306-3.33-3.705c-0.871-1.401-1.432-2.813-1.688-4.241
		c0-0.771,0.309-1.481,0.92-2.143c0.613-0.659,1.302-0.988,2.076-0.988c0.387,0,0.789,0.102,1.205,0.289
		c0.42,0.196,0.789,0.481,1.109,0.866c0.191,0.989,0.607,2.007,1.26,3.051c0.643,1.044,1.411,2.007,2.313,2.882
		c0.901,0.883,1.916,1.598,3.044,2.146c1.127,0.549,2.234,0.818,3.333,0.818c0.188,0,0.512-0.023,0.964-0.082
		c0.45-0.057,0.9-0.149,1.354-0.288c0.449-0.138,0.852-0.314,1.203-0.532c0.355-0.221,0.532-0.468,0.532-0.74
		c0-0.604-0.646-1.316-1.931-2.141c-1.29-0.825-2.68-1.705-4.153-2.639c-0.58-0.386-1.159-0.756-1.739-1.11
		c-0.58-0.355-1.13-0.729-1.64-1.109l-1.161-0.821c-0.902-0.604-1.805-1.306-2.703-2.104c-0.9-0.792-1.353-1.659-1.353-2.594
		c0-1.429,0.306-2.731,0.922-3.91c0.606-1.183,1.412-2.197,2.415-3.047c0.996-0.851,2.105-1.512,3.328-1.979
		c1.223-0.466,2.447-0.7,3.669-0.7c1.545,0,2.915,0.371,4.104,1.111c1.189,0.741,2.047,1.936,2.563,3.583v0.49l0,0V54.2h-0.004l0,0
		h0.002L238.074,54.191L238.074,54.191z"/>
	<path fill="#FFFFFF" d="M247.057,38.625c0-0.768,0.368-1.456,1.108-2.06c0.737-0.603,1.466-0.907,2.174-0.907
		c1.222,0,1.966,0.604,2.222,1.812v9.146c0,1.48,0.02,2.994,0.049,4.531c0.027,1.539,0.05,3.047,0.05,4.529
		c-0.134,0.771-0.55,1.398-1.259,1.895c-0.711,0.494-1.418,0.74-2.123,0.74c-0.517,0-0.996-0.179-1.446-0.535
		s-0.679-0.922-0.679-1.688c0-1.427-0.02-2.87-0.049-4.323c-0.033-1.455-0.047-2.925-0.047-4.409V38.625L247.057,38.625
		L247.057,38.625z"/>
</g>
<g>
	<path fill="#00C6B2" d="M259.949,41.165c0.195-0.604,0.628-1.124,1.304-1.566c0.677-0.438,1.336-0.659,1.979-0.659
		c1.158,0,1.867,0.633,2.125,1.896c0,3.294-0.021,6.604-0.049,9.925c-0.033,3.323-0.084,6.632-0.144,9.925L264.973,80.7
		c-0.134,0.771-0.55,1.403-1.262,1.896c-0.709,0.493-1.412,0.739-2.123,0.739c-1.482,0-2.221-0.739-2.221-2.228
		c0-3.072,0.029-6.14,0.094-9.188c0.064-3.047,0.13-6.105,0.196-9.184c0.063-2.91,0.11-5.793,0.146-8.649
		c0.027-2.854,0.047-5.737,0.047-8.649v-4.035L259.949,41.165z"/>
	<path fill="#00C6B2" d="M280.714,41.165c0.708-0.604,1.481-0.906,2.318-0.906c0.645,0,1.176,0.179,1.596,0.535
		c0.419,0.358,0.628,0.837,0.628,1.442c0,0.22-0.047,0.425-0.145,0.617c-0.098,0.193-0.213,0.454-0.338,0.783
		c-1.287,1.208-2.416,2.678-3.379,4.406c-0.97,1.73-1.82,3.556-2.563,5.479c-0.74,1.922-1.32,3.899-1.74,5.932
		c-0.421,2.029-0.657,3.953-0.726,5.765c1.74-1.098,3.734-2.017,5.988-2.762c2.252-0.738,4.602-1.108,7.049-1.108
		c1.029,0,2.063,0.086,3.093,0.25c1.026,0.161,1.946,0.493,2.753,0.987c0.804,0.494,1.461,1.165,1.979,2.019
		c0.515,0.85,0.771,1.936,0.771,3.252c0,1.484-0.58,3.051-1.738,4.695c-1.158,1.646-2.574,3.158-4.25,4.529
		c-1.675,1.373-3.478,2.511-5.404,3.419c-1.937,0.905-3.703,1.358-5.313,1.358c-1.353,0-2.675-0.258-3.962-0.781
		c-1.288-0.521-2.417-1.346-3.381-2.471c-0.969-1.125-1.739-2.525-2.317-4.201c-0.58-1.674-0.87-3.666-0.87-5.971
		c0-2.145,0.196-4.449,0.582-6.92c0.389-2.473,0.979-4.931,1.784-7.375c0.81-2.442,1.837-4.791,3.093-7.043
		C277.479,44.845,278.975,42.868,280.714,41.165z M290.855,66.372c-0.711-0.384-1.52-0.577-2.418-0.577
		c-0.901,0-1.897,0.164-2.992,0.494c-1.096,0.328-2.188,0.77-3.285,1.314c-1.096,0.552-2.139,1.145-3.139,1.771
		c-0.996,0.633-1.854,1.276-2.561,1.938c0.063,0.604,0.241,1.235,0.531,1.894c0.288,0.66,0.656,1.264,1.107,1.813
		c0.449,0.549,0.946,1.002,1.494,1.357c0.547,0.357,1.112,0.535,1.69,0.535c1.094,0,2.284-0.262,3.571-0.783s2.479-1.18,3.571-1.975
		c1.093-0.797,2.013-1.676,2.753-2.641c0.736-0.959,1.107-1.908,1.107-2.842C292.305,67.799,291.82,67.03,290.855,66.372z"/>
</g>
<path fill="#00C6B2" d="M27.357,89.869h37.314c0,0-1.297-1.116-2.173-5.313c0,0-0.622-3.447-0.713-4.25c0,0-0.351-3.854-0.329-4.339
	c0,0,0.307-2.931,0.351-3.48c0,0,0.499-3.298,0.669-3.826c0,0,1.278-4.478,1.833-5.31c0,0,1.279-2.802,1.608-3.229
	c0,0,2.14-3.646,2.196-3.756c0,0,1.823-3.185,2.117-3.884c0,0,1.325-3.216,1.403-3.577c0,0,0.86-3.07,0.907-3.702
	c0,0,0.031-3.786,0.001-4.459c0-0.018,0-0.031-0.001-0.045c-0.035-0.522-0.204-3.612-0.408-4.551c0,0-0.713-3.498-0.917-4.076
	c0,0-1.573-4.188-1.755-4.45c0,0-2.173-3.748-2.514-4.234c0,0-3.103-3.748-3.486-4.019c0,0-2.887-2.479-3.997-3.182
	c0,0-2.845-1.837-4.364-2.382c-0.018-0.006-0.034-0.013-0.051-0.018c-1.506-0.521-3.657-1.212-5.412-1.585
	c0,0-5.344-0.645-6.205-0.725c0,0-6.781-0.034-7.596,0c0,0-4.858,0.396-6.294,0.951c0,0-4.847,1.732-5.898,2.333
	c0,0-4.382,2.662-4.631,2.932c0,0-3.249,2.854-4.052,4.201c0,0-1.79,2.83-2.174,3.962c0,0-1.778,4.847-1.845,5.468
	c0,0-1.076,3.385-1.336,3.962c0,0-0.532,2.184-0.532,3.611c0,0-0.022,1.302,0.962,3.171c0,0,0.657,2.117-0.293,3.134
	c0,0-2.74,3.521-2.842,3.884c0,0-2.207,3.53-2.389,3.734c0,0-1.665,1.937-1.495,3.058c0,0-0.181,0.883,0.679,1.584
	c0,0,1.313,1.168,2.535,1.458c0,0,1.541,0,1.732,0.952c0,0,0.317,1.601-0.645,2.503c0,0-0.284,0.656,0.316,1.604
	c0,0,0.498,0.734,1.21,1.168c0,0,0.34,0.246,0.363,0.373c0,0-0.028,0.184-0.289,0.332c0,0-0.923,0.881-0.323,1.896
	c0,0,0.532,0.68,0.646,0.878c0,0,0.867,1.077,0.776,1.908c0,0-0.845,3.603-0.528,4.337c0,0,0.091,2.163,1.823,3.531
	c0,0,2.083,1.397,4.109,1.541c0,0,4.483,0.326,5.049,0.26c0,0,3.671-0.092,5.079,1.62c0.021,0.024,0.042,0.052,0.062,0.075
	c0,0,1.079,0.725,0.959,2.324c-0.122,1.603,0.196,2.795,0.286,3.729C26.858,87.952,27.04,89.266,27.357,89.869z"/>
<path fill="#FFFFFF" d="M21.816,24.955c0,0,6.188-4.408,6.523-4.467c0,0,6.746-2.657,7.136-2.537c0,0,2.851-0.535,3.24-0.55
	c0,0,2.551,0.022,2.899,0.09c0,0,4.027,0.361,4.063,0.415c0,0,4.063,0.574,4.383,0.664c0.322,0.09,3.875,1.049,3.966,1.148
	c0,0,3.087,1.804,3.896,2.504c0,0,2.265,1.933,2.432,2.174c0,0,1.938,1.781,2.398,2.363c0,0,2.675,4.332,3.366,5.894
	c0,0,1.442,3.986,1.4,6.431c0,0-0.104,4.212-0.438,5.526c0,0-0.795,2.966-2.802,4.595c0,0-1.924,1.584-3.554,2.355
	c0,0-3.199,1.677-3.554,2.266c0,0-0.983,0.59-2.217,2.513c0,0-2.446,2.153-3.366,2.629c0,0-2.048,1.313-4.495,0.589
	c0,0-3.387-1.334-4.641-2.104c0,0-3.074-1.676-4.976-1.585c0,0-1.379-0.343-2.802,0.157c0,0-3.931,0.156-6.126-1.674
	c0,0-2.217-1.949-2.655-3.125c0,0-1.589-2.648-3.283-3.082c0,0-3.847-0.904-4.6-3.26c0,0-1.589-2.491-1.693-4.619
	c0,0-0.376-3.307,0-5.096c0,0,0.982-5.139,2.278-6.611C18.597,28.556,20.939,25.77,21.816,24.955z"/>
<path fill="#FFFFFF" d="M79.058,10.365c0.051-2.136,0.12-4.205,0.211-6.208l1.736-0.589c2.557,4.531,5.17,9.338,7.837,14.425
	c0.071-0.987,0.122-2.136,0.152-3.444c0.008-0.192,0.019-0.605,0.028-1.239c0-0.512,0.009-0.919,0.032-1.223
	c0.039-1.078,0.042-2.673,0.015-4.788c-0.042-2.165-0.042-3.756,0-4.772h2.762c0.082,1.741,0.116,4.938,0.107,9.589
	c0,0.613-0.015,1.45-0.047,2.507c-0.028,1.018-0.089,2.261-0.181,3.73c-0.169,2.75-0.504,4.665-0.997,5.739l-1.858,0.104
	l-6.889-14.031l-0.013,0.258c-0.131,5.87-0.403,10.757-0.815,14.663l-1.934-0.043C78.978,21.127,78.928,16.235,79.058,10.365z"/>
<path fill="#00C6B2" d="M97.031,24.124c-0.211,0-0.529-0.006-0.952-0.016c-0.413-0.013-0.724-0.015-0.935-0.015
	c-0.251-3.886-0.328-8.743-0.227-14.573c0.042-2.124,0.103-4.178,0.183-6.163c0.31,0,0.759,0.005,1.345,0.016
	c0.613,0.01,1.067,0.021,1.359,0.029C97.814,5.396,97.8,7.45,97.76,9.564C97.655,15.394,97.412,20.247,97.031,24.124z"/>
<path fill="#FFFFFF" d="M108.057,24.274c-0.223-0.012-0.545-0.018-0.966-0.018c-0.434,0-0.754,0-0.967,0
	c-0.302-3.855-0.444-8.677-0.425-14.466c0.011-1.471,0.031-2.905,0.062-4.305c-0.542,0.041-1.097,0.076-1.662,0.105
	c-1.53,0.102-3.015,0.167-4.455,0.197c-0.009-0.151-0.039-0.608-0.089-1.374c-0.029-0.553-0.055-1.012-0.075-1.375
	c1.441-0.129,2.924-0.242,4.456-0.333c4.209-0.251,7.723-0.303,10.541-0.149c0.019,0.221,0.04,0.542,0.061,0.966
	c0.028,0.433,0.051,0.755,0.056,0.966c-1.78,0.313-3.785,0.569-6.009,0.77c0.019,1.49,0.023,3,0.015,4.53
	C108.577,15.59,108.398,20.417,108.057,24.274z"/>
<path fill="#FFFFFF" d="M125.74,24.139c-0.22,0-0.545-0.005-0.966-0.018c-0.435-0.01-0.758-0.016-0.965-0.016
	c-0.232-3.917-0.283-8.809-0.153-14.677c0.028-1.198,0.064-2.372,0.105-3.518c-0.574,0.14-1.161,0.297-1.765,0.468l-0.771-2.673
	c3.303-1.036,6.101-1.47,8.402-1.299c0.48,0.027,0.954,0.089,1.417,0.182c1.319,0.302,2.387,0.819,3.202,1.556
	c0.785,0.796,1.244,1.741,1.374,2.839c0.07,1.007-0.136,2.033-0.621,3.082c-0.493,0.986-1.189,1.921-2.085,2.793
	c-1.874,1.661-4.073,2.815-6.6,3.459C126.184,19.174,125.993,21.783,125.74,24.139z M126.419,14.11
	c1.801-0.733,3.356-1.767,4.667-3.096c0.643-0.684,1.122-1.379,1.435-2.084c0.251-0.614,0.352-1.163,0.302-1.645
	c-0.058-0.412-0.242-0.767-0.543-1.056c-0.413-0.362-1.018-0.631-1.811-0.802c-0.088-0.051-0.438-0.096-1.043-0.136
	c-0.845-0.059-1.782-0.025-2.808,0.107c-0.009,1.338-0.031,2.703-0.057,4.093C126.516,11.18,126.471,12.722,126.419,14.11z"/>
<path fill="#FFFFFF" d="M136.795,11.377l2.462,0.301c-0.383,3.384-0.481,5.957-0.287,7.718c0.071,0.613,0.176,1.127,0.315,1.539
	c0.082,0.241,0.169,0.425,0.271,0.559c0.07,0.088,0.14,0.155,0.21,0.195c0.151,0.082,0.399,0.115,0.741,0.104
	c0.372-0.02,0.751-0.13,1.132-0.332c0.445-0.244,0.857-0.588,1.237-1.042c0.777-0.946,1.337-2.12,1.676-3.519l-0.016-1.646
	c-0.012-1.218,0.007-2.4,0.048-3.548h2.493c0.05,1.138,0.075,2.32,0.075,3.548c0.018,3.353-0.117,6.145-0.409,8.381h-1.737
	c-0.082-0.603-0.153-1.24-0.213-1.903l-0.087,0.123c-0.53,0.713-1.152,1.287-1.857,1.72c-0.697,0.405-1.42,0.64-2.178,0.708
	c-0.784,0.072-1.48-0.04-2.096-0.332c-0.383-0.212-0.728-0.491-1.026-0.846c-0.281-0.354-0.52-0.78-0.71-1.285
	c-0.222-0.592-0.385-1.309-0.482-2.144C136.144,17.729,136.294,14.961,136.795,11.377z"/>
<path fill="#FFFFFF" d="M151.626,14.489c0.243-0.262,0.498-0.503,0.769-0.725c1.117-0.896,2.346-1.435,3.686-1.616
	c0.747-0.06,1.45-0.029,2.119,0.091l0.02-1.102c0.028-1.884,0.084-3.709,0.164-5.482l1.254,0.014l1.235,0.031
	c0.017,1.772,0,3.603-0.027,5.497c-0.097,5.187-0.335,9.504-0.697,12.959l-0.872-0.016l-0.87-0.018
	c-0.089-1.428-0.158-2.945-0.194-4.545c-0.914,1.208-1.828,2.264-2.752,3.171c-0.629,0.566-1.218,1.008-1.767,1.331
	c-0.586,0.319-1.142,0.524-1.677,0.602c-0.605,0.05-1.159-0.058-1.658-0.331c-0.446-0.283-0.801-0.687-1.057-1.208
	c-0.362-0.826-0.47-1.843-0.316-3.049c0.16-1.13,0.521-2.24,1.072-3.337C150.484,15.908,151.01,15.152,151.626,14.489z
	 M154.071,15.773c-0.071,0.028-0.249,0.201-0.528,0.513c-0.455,0.483-0.854,1.043-1.198,1.676c-0.419,0.837-0.701,1.672-0.844,2.507
	c-0.101,0.704-0.083,1.249,0.06,1.632c0,0.009,0.011,0.033,0.029,0.075c0.018,0.027,0.027,0.049,0.027,0.062
	c0,0.01,0.021,0.016,0.06,0.016h0.076c0.2-0.01,0.467-0.096,0.786-0.255c0.415-0.222,0.873-0.545,1.393-0.969
	c1.239-1.018,2.645-2.497,4.227-4.44c-0.019-0.563-0.019-1.141,0-1.736c-0.578-0.151-1.167-0.194-1.78-0.136
	C155.559,14.847,154.788,15.198,154.071,15.773z"/>
<path fill="#FFFFFF" d="M163.632,11.377l2.461,0.301c-0.382,3.384-0.477,5.957-0.285,7.718c0.068,0.613,0.173,1.127,0.314,1.539
	c0.083,0.241,0.173,0.425,0.267,0.559c0.07,0.088,0.139,0.155,0.208,0.195c0.156,0.082,0.396,0.115,0.745,0.104
	c0.366-0.02,0.752-0.13,1.133-0.332c0.443-0.244,0.857-0.588,1.235-1.042c0.775-0.946,1.337-2.12,1.677-3.519l-0.018-1.646
	c-0.011-1.218,0.007-2.4,0.047-3.548h2.488c0.052,1.138,0.078,2.32,0.078,3.548c0.022,3.353-0.115,6.145-0.41,8.381h-1.739
	c-0.085-0.603-0.147-1.24-0.207-1.903l-0.087,0.123c-0.531,0.713-1.155,1.287-1.856,1.72c-0.696,0.405-1.421,0.64-2.18,0.708
	c-0.785,0.072-1.479-0.04-2.096-0.332c-0.38-0.212-0.729-0.491-1.028-0.846c-0.283-0.354-0.521-0.78-0.708-1.285
	c-0.222-0.592-0.384-1.309-0.481-2.144C162.983,17.729,163.126,14.961,163.632,11.377z"/>
<path fill="#FFFFFF" d="M178.646,16.405c-0.243,0.826-0.328,1.667-0.258,2.522c0.085,0.805,0.288,1.479,0.605,2.022
	c0.14,0.233,0.299,0.414,0.471,0.544c0.162,0.12,0.337,0.199,0.529,0.242c0.211,0.05,0.459,0.044,0.742-0.018
	c0.353-0.089,0.733-0.266,1.147-0.529c1.047-0.673,2.183-1.791,3.401-3.352c0.147,0.111,0.392,0.282,0.726,0.513
	c0.315,0.223,0.569,0.393,0.739,0.514c-1.19,1.842-2.383,3.237-3.582,4.184c-0.589,0.42-1.194,0.731-1.783,0.921
	c-0.603,0.18-1.197,0.235-1.782,0.165c-0.562-0.089-1.087-0.304-1.574-0.635c-0.428-0.303-0.807-0.689-1.129-1.163
	c-0.581-0.875-0.945-1.922-1.104-3.141c-0.125-1.197-0.027-2.381,0.289-3.548c0.342-1.128,0.873-2.116,1.599-2.96
	c0.184-0.211,0.265-0.302,0.254-0.273c0.995-0.968,2.199-1.576,3.61-1.828c1.532-0.201,3.204,0.021,5.027,0.664
	c-0.084,0.262-0.231,0.665-0.435,1.208c-0.184,0.524-0.32,0.921-0.419,1.193c-1.42-0.463-2.662-0.613-3.729-0.453
	c-0.845,0.162-1.556,0.529-2.144,1.103c-0.013,0-0.058,0.054-0.151,0.167C179.222,15.007,178.877,15.651,178.646,16.405z"/>
<path fill="#FFFFFF" d="M191.192,14.458c0.212-0.382,0.443-0.76,0.695-1.133c0.663-0.927,1.361-1.631,2.085-2.114
	c0.438-0.263,0.873-0.439,1.312-0.53c0.528-0.081,1.029-0.036,1.518,0.14c0.462,0.191,0.871,0.499,1.235,0.919
	c0.319,0.383,0.596,0.857,0.835,1.421c0.129,0.221,0.287,0.755,0.471,1.601c0.469,2.215,0.512,5.35,0.147,9.409
	c-0.281-0.019-0.703-0.056-1.262-0.105c-0.563-0.04-0.985-0.069-1.269-0.089c0.261-3.795,0.187-6.681-0.24-8.654
	c-0.087-0.453-0.194-0.846-0.334-1.177c-0.109-0.302-0.236-0.534-0.361-0.696c-0.026-0.02-0.085-0.076-0.188-0.166
	c0.011,0.01-0.021,0.005-0.086-0.015c-0.109,0.02-0.245,0.076-0.392,0.166c-0.443,0.272-0.913,0.729-1.409,1.374
	c-0.53,0.726-1.031,1.581-1.515,2.567c-0.974,2.154-1.587,4.323-1.827,6.51l-0.028,0.316c-0.194-0.01-0.48-0.021-0.891-0.029
	c-0.394,0-0.691-0.005-0.89-0.015c-0.222-3.636-0.285-8.182-0.183-13.637c0.036-1.983,0.097-3.907,0.183-5.77
	c0.281,0.011,0.699,0.021,1.266,0.031c0.564,0.01,0.979,0.021,1.264,0.029c0.019,1.852,0,3.775-0.028,5.769
	C191.27,11.987,191.236,13.28,191.192,14.458z"/>
<path fill="#FFFFFF" d="M202.084,14.489c0.576-0.937,1.294-1.695,2.156-2.266c0.985-0.604,2.09-0.936,3.312-0.997h0.04
	c0.485,0.02,0.959,0.126,1.422,0.317c0.431,0.202,0.819,0.469,1.161,0.8c0.02,0.011,0.065,0.061,0.135,0.151
	c0.307,0.334,0.528,0.696,0.681,1.088c0.195,0.524,0.247,1.061,0.165,1.616c-0.098,0.564-0.34,1.097-0.726,1.601
	c-0.395,0.483-0.9,0.927-1.526,1.329c-1.327,0.776-3.122,1.375-5.376,1.796c0.115,0.532,0.307,0.986,0.578,1.362
	c0.279,0.373,0.636,0.625,1.058,0.752c0.539,0.132,1.196,0.066,1.947-0.194c0.975-0.341,2.045-0.975,3.215-1.902l0.573,0.664
	l0.58,0.651c-1.254,1.146-2.453,1.986-3.609,2.521c-1.143,0.454-2.199,0.593-3.188,0.421c-0.945-0.219-1.753-0.707-2.408-1.462
	c-0.542-0.705-0.923-1.548-1.145-2.525C200.779,18.208,201.099,16.299,202.084,14.489z M207.534,15.923
	c0.374-0.242,0.65-0.484,0.83-0.725c0.123-0.151,0.194-0.292,0.212-0.422c0.011-0.08,0-0.166-0.031-0.257
	c-0.011-0.06-0.065-0.151-0.161-0.272l-0.047-0.045c-0.112-0.1-0.232-0.186-0.372-0.257c-0.134-0.051-0.252-0.081-0.361-0.09h-0.021
	c-0.726,0.03-1.37,0.217-1.947,0.56c-0.53,0.34-0.977,0.806-1.365,1.389c-0.295,0.514-0.509,1.034-0.645,1.557
	C205.268,16.985,206.567,16.508,207.534,15.923z"/>
<path fill="#FFFFFF" d="M215.976,15.318c0.132-0.18,0.266-0.363,0.396-0.543c0.435-0.544,0.908-1.033,1.42-1.465
	c0.42-0.362,0.863-0.675,1.311-0.935c1.138-0.625,2.341-0.958,3.608-0.997c0.012,0.282,0.027,0.704,0.06,1.268
	c0.02,0.564,0.034,0.986,0.047,1.269c-0.835,0.082-1.623,0.336-2.371,0.77c-0.154,0.04-0.463,0.262-0.938,0.664
	c-0.371,0.322-0.733,0.686-1.075,1.086c-1.164,1.491-2.046,3.298-2.646,5.422c-0.182,0.696-0.321,1.389-0.419,2.085v0.03h-0.164
	h-0.029l-0.167-0.015h-0.027h-0.164h-0.029h-0.167h-0.027h-0.164h-0.027l-0.165-0.018h-0.028h-0.167h-0.029h-0.161h-0.027h-0.167
	h-0.016h-0.029c-0.252-2.424-0.342-5.452-0.27-9.076c0.024-1.319,0.064-2.597,0.139-3.836c0.282,0,0.701,0.005,1.263,0.016
	c0.567,0.009,0.982,0.019,1.269,0.03c0.019,1.238,0.019,2.516,0,3.835L215.976,15.318z"/>
<path fill="#FFFFFF" d="M226.43,15.318c0.137-0.18,0.263-0.363,0.392-0.543c0.438-0.544,0.915-1.033,1.421-1.465
	c0.419-0.362,0.863-0.675,1.31-0.935c1.141-0.625,2.342-0.958,3.608-0.997c0.015,0.282,0.029,0.704,0.062,1.268
	c0.022,0.564,0.032,0.986,0.043,1.269c-0.835,0.082-1.623,0.336-2.366,0.77c-0.152,0.04-0.469,0.262-0.938,0.664
	c-0.373,0.322-0.732,0.686-1.076,1.086c-1.165,1.491-2.047,3.298-2.646,5.422c-0.182,0.696-0.321,1.389-0.42,2.085v0.03h-0.164
	h-0.028l-0.165-0.015h-0.028h-0.162h-0.028h-0.165h-0.028h-0.164h-0.028l-0.164-0.018h-0.027h-0.164h-0.032h-0.161h-0.027h-0.165
	h-0.017h-0.03c-0.252-2.424-0.339-5.452-0.268-9.076c0.021-1.319,0.063-2.597,0.136-3.836c0.279,0,0.702,0.005,1.267,0.016
	c0.563,0.009,0.982,0.019,1.265,0.03c0.021,1.238,0.021,2.516,0,3.835L226.43,15.318z"/>
<path fill="#FFFFFF" d="M234.568,11.785l1.26,0.107l1.268,0.107c-0.282,3.855-0.282,6.736,0,8.638
	c0.083,0.553,0.195,1.002,0.308,1.344l0.092,0.209c0.099-0.082,0.227-0.191,0.376-0.332c0.937-0.985,1.871-2.558,2.806-4.71
	c0.846-2.054,1.347-3.901,1.515-5.543h1.328l1.264,0.016c0.044,2.225,0.055,4.521,0.05,6.887c0,0.141-0.029,2.37-0.089,6.69
	c0,0.079-0.006,0.123-0.019,0.135c-0.125,1.097-0.345,2.08-0.679,2.946c-0.362,0.894-0.838,1.662-1.419,2.311
	c-0.617,0.634-1.33,1.123-2.145,1.464c-0.824,0.312-1.73,0.479-2.701,0.499l-0.061-0.893l-0.057-0.89
	c0.751-0.109,1.409-0.31,1.979-0.603c0.501-0.271,0.935-0.629,1.3-1.073c0.339-0.452,0.621-0.997,0.833-1.633
	c0.211-0.664,0.352-1.423,0.423-2.28c-0.025-0.261-0.037-2.089-0.05-5.485c-0.697,1.6-1.501,2.92-2.412,3.956
	c-0.345,0.363-0.697,0.651-1.044,0.864c-0.468,0.272-0.935,0.405-1.407,0.397c-0.287-0.014-0.551-0.068-0.817-0.167
	c-0.252-0.122-0.48-0.279-0.696-0.471c-0.343-0.333-0.628-0.77-0.848-1.313c-0.197-0.535-0.361-1.18-0.477-1.934
	C234.149,18.934,234.185,15.853,234.568,11.785z"/>
</svg>
