<?xml version="1.0" encoding="utf-8"?>
<!-- Generator: Adobe Illustrator 16.0.0, SVG Export Plug-In . SVG Version: 6.00 Build 0)  -->
<!DOCTYPE svg PUBLIC "-//W3C//DTD SVG 1.1//EN" "http://www.w3.org/Graphics/SVG/1.1/DTD/svg11.dtd">
<svg version="1.1" id="Layer_1" xmlns="http://www.w3.org/2000/svg" xmlns:xlink="http://www.w3.org/1999/xlink" x="0px" y="0px"
	  viewBox="0 0 100 100" enable-background="new 0 0 100 100" xml:space="preserve">
<g id="_x33_3">
	<path fill="#00C6B2" d="M98.639,43.203l-10.522-1.248c-1.005-4.785-2.892-9.243-5.483-13.213l6.564-8.331
		c0.471-0.585,0.418-1.502-0.12-2.035l-7.447-7.452c-0.534-0.533-1.45-0.592-2.051-0.124l-8.323,6.568
		c-3.965-2.587-8.424-4.482-13.214-5.483L56.803,1.363C56.707,0.617,56.023,0,55.268,0H44.732c-0.756,0-1.442,0.616-1.533,1.363
		l-1.247,10.523c-4.786,1-9.25,2.896-13.206,5.482L20.413,10.8c-0.589-0.469-1.505-0.41-2.044,0.124l-7.442,7.452
		c-0.541,0.533-0.6,1.449-0.126,2.042l6.561,8.322c-2.586,3.972-4.474,8.429-5.48,13.214L1.363,43.203
		C0.614,43.287,0,43.984,0,44.734V55.27c0,0.754,0.613,1.443,1.363,1.529l10.521,1.242c1.005,4.793,2.894,9.256,5.48,13.223
		l-6.561,8.329c-0.475,0.591-0.413,1.507,0.126,2.043l7.442,7.45c0.535,0.531,1.454,0.58,2.049,0.113l8.328-6.564
		c3.956,2.59,8.42,4.479,13.207,5.483l1.246,10.519C43.29,99.389,43.977,100,44.733,100h10.533c0.76,0,1.44-0.611,1.536-1.363
		l1.238-10.518c4.789-1.004,9.248-2.895,13.212-5.479l8.324,6.563c0.599,0.467,1.517,0.411,2.052-0.116l7.446-7.448
		c0.539-0.539,0.591-1.455,0.121-2.043l-6.565-8.33c2.593-3.967,4.479-8.431,5.483-13.222l10.522-1.243
		c0.741-0.086,1.362-0.775,1.362-1.525V44.734C100,43.984,99.38,43.288,98.639,43.203z M49.997,82.507
		c-17.945,0-32.491-14.563-32.491-32.504c0-17.943,14.545-32.5,32.491-32.5c17.948,0,32.499,14.557,32.499,32.5
		C82.495,67.943,67.945,82.507,49.997,82.507z	">
<animateTransform  type="rotate" fill="remove" to="360 50 50" additive="replace" repeatCount="indefinite" calcMode="linear" attributeType="XML" from="0 50 50" dur="10s" accumulate="none" attributeName="transform" begin="0s" restart="always">
			</animateTransform>
	</path>
</g>
</svg>
