<?xml version="1.0" encoding="utf-8"?>
<!-- Generator: Adobe Illustrator 16.0.0, SVG Export Plug-In . SVG Version: 6.00 Build 0)  -->
<!DOCTYPE svg PUBLIC "-//W3C//DTD SVG 1.1//EN" "http://www.w3.org/Graphics/SVG/1.1/DTD/svg11.dtd">
<svg version="1.1" id="Layer_1" xmlns="http://www.w3.org/2000/svg" xmlns:xlink="http://www.w3.org/1999/xlink" x="0px" y="0px"
	 viewBox="0 0 170 140" enable-background="new 0 0 170 140" xml:space="preserve">
<path fill="#FFFFFF" d="M69.077,19.188c1.864-2.017,4.038-3.03,6.525-3.03c1.708,0,3.184,0.466,4.429,1.399
	c1.243,0.932,1.865,2.178,1.865,3.729c0,1.864-0.932,3.729-2.797,5.594h0.234L58.588,50.886l-7.458,8.391h0.233
	c-3.11,3.576-6.141,7.073-9.09,10.489c-2.953,3.419-5.983,6.991-9.09,10.72v4.197c1.398-0.313,2.757-0.502,4.079-0.584
	c1.319-0.078,2.833-0.117,4.545-0.117c3.729,0,7.495,0.273,11.304,0.814c3.805,0.547,7.574,1.518,11.303,2.914
	c2.951,1.088,6.253,2.645,9.906,4.662c3.649,2.021,7.069,4.354,10.256,6.99c3.184,2.646,5.826,5.635,7.924,8.975
	c2.098,3.346,3.146,6.957,3.146,10.842c0,2.484-0.779,4.625-2.33,6.406c-1.558,1.789-3.498,2.684-5.828,2.684
	c-1.398,0-2.604-0.465-3.612-1.4c-1.014-0.932-1.516-2.48-1.516-4.66c0-2.795-0.972-5.479-2.913-8.039
	c-1.945-2.566-4.353-4.855-7.226-6.877c-2.876-2.018-5.943-3.73-9.207-5.127c-3.263-1.398-6.14-2.408-8.624-3.031
	c-2.644-0.771-5.324-1.283-8.041-1.516c-2.72-0.232-5.401-0.35-8.042-0.35c-0.623,0-1.206,0-1.748,0c-0.546,0-1.206,0.08-1.981,0.23
	h-1.631c0,3.729-0.041,6.758-0.117,9.09c-0.08,2.33-0.116,4.546-0.116,6.645c0,2.1,0,4.393,0,6.877c0,2.488,0,5.674,0,9.557
	c-0.313,2.174-1.322,3.963-3.03,5.359c-1.711,1.398-3.419,2.1-5.127,2.1c-1.399,0-2.604-0.506-3.613-1.518
	c-1.012-1.012-1.515-2.604-1.515-4.777v-30.064c-0.779,0.154-1.788,0.232-3.03,0.232c-2.797,0-4.858-0.621-6.177-1.865
	c-1.318-1.244-1.981-2.717-1.981-4.43c0-1.863,0.969-4.115,2.914-6.758c1.941-2.641,3.922-5.205,5.943-7.693l2.798-3.029
	c0-4.662,0.036-9.864,0.116-15.616c0.076-5.747,0.153-11.574,0.233-17.48c0.076-5.904,0.116-11.73,0.116-17.481
	c0-5.747,0-10.875,0-15.383c0-2.174,0.852-4.115,2.564-5.828c1.708-1.708,3.416-2.563,5.128-2.563c3.106,0,4.971,1.788,5.594,5.361
	c0,3.886-0.041,8.471-0.117,13.751c-0.08,5.285-0.117,10.645-0.117,16.083v23.074l15.151-17.714L69.077,19.188z"/>
<path fill="#FFFFFF" d="M105.904,54.15c0-2.175,0.895-4.116,2.682-5.828c1.783-1.708,3.531-2.564,5.242-2.564
	c2.951,0,4.74,1.788,5.361,5.361c0,1.712,0.037,3.537,0.117,5.478c0.074,1.944,0.115,3.846,0.115,5.71
	c0.152,6.683,0.311,13.484,0.467,20.396c0.152,6.914,0.697,13.789,1.633,20.625c0.309-1.24,0.773-2.598,1.396-4.078
	c0.619-1.477,1.084-2.832,1.396-4.078c1.242-4.039,2.604-8.234,4.078-12.586c1.477-4.35,2.99-8.273,4.545-11.77
	c1.555-3.499,3.148-6.372,4.779-8.625c1.631-2.25,3.379-3.379,5.244-3.379c1.553,0,3.029,0.739,4.43,2.215
	c1.398,1.478,2.717,3.419,3.961,5.826c1.244,2.411,2.447,5.167,3.613,8.273c1.166,3.108,2.367,6.373,3.613,9.789
	c1.707,4.51,3.379,8.897,5.01,13.17c1.631,4.274,3.299,7.81,5.012,10.604v-0.231c0.936,1.09,1.398,2.334,1.398,3.729
	c0,1.864-0.738,3.576-2.213,5.127c-1.48,1.558-3.148,2.332-5.012,2.332c-1.558,0-3.229-1.241-5.012-3.729
	c-1.789-2.485-3.576-5.597-5.361-9.324c-1.787-3.729-3.537-7.766-5.244-12.12c-1.711-4.349-3.264-8.392-4.66-12.119l-1.865,6.991
	c-1.711,6.529-3.652,12.859-5.826,18.996c-2.178,6.144-5.285,11.461-9.324,15.97v-0.233c-0.777,0.778-1.594,1.516-2.445,2.215
	c-0.854,0.697-1.904,1.051-3.146,1.051c-0.933,0-2.179-0.389-3.729-1.168c-1.557-0.776-3.188-2.098-4.896-3.963
	c-1.246-1.397-2.178-4.349-2.797-8.856c-0.623-4.502-1.129-9.629-1.516-15.381c-0.391-5.746-0.623-11.69-0.699-17.832
	c-0.08-6.138-0.117-11.457-0.117-15.966c0-2.331-0.041-4.388-0.115-6.177C105.941,56.211,105.904,54.929,105.904,54.15z"/>
</svg>
