<?xml version="1.0" encoding="utf-8"?>
<!-- Generator: Adobe Illustrator 16.0.0, SVG Export Plug-In . SVG Version: 6.00 Build 0)  -->
<!DOCTYPE svg PUBLIC "-//W3C//DTD SVG 1.1//EN" "http://www.w3.org/Graphics/SVG/1.1/DTD/svg11.dtd">
<svg version="1.1" id="Layer_1" xmlns="http://www.w3.org/2000/svg" xmlns:xlink="http://www.w3.org/1999/xlink" x="0px" y="0px"
	 width="200px" height="150px" viewBox="0 0 200 150" enable-background="new 0 0 200 150" xml:space="preserve">
<g>
	<path fill="#FFFFFF" d="M98.77,130.123c-3.566,0-6.468,2.905-6.468,6.471c0,3.568,2.902,6.467,6.468,6.467
		c3.57,0,6.473-2.901,6.473-6.467C105.243,133.026,102.34,130.123,98.77,130.123z"/>
	<path fill="#FFFFFF" d="M125.971,0H71.574c-5.831,0-10.576,4.745-10.576,10.579v128.842c0,5.836,4.744,10.579,10.576,10.579h54.397
		c5.835,0,10.58-4.743,10.58-10.579V10.579C136.551,4.745,131.806,0,125.971,0z M98.77,145.064c-4.672,0-8.474-3.799-8.474-8.471
		c0-4.676,3.801-8.478,8.474-8.478c4.67,0,8.478,3.806,8.478,8.478S103.44,145.064,98.77,145.064z M132.732,124.288
		c0,0.553-0.447,1.004-1.003,1.004H65.815c-0.554,0-1.002-0.451-1.002-1.004V8.615c0-0.554,0.449-1.003,1.002-1.003h65.915
		c0.553,0,1.003,0.449,1.003,1.003V124.288z"/>
</g>
</svg>
