<?xml version="1.0" encoding="utf-8"?>
<!-- Generator: Adobe Illustrator 16.0.0, SVG Export Plug-In . SVG Version: 6.00 Build 0)  -->
<!DOCTYPE svg PUBLIC "-//W3C//DTD SVG 1.1//EN" "http://www.w3.org/Graphics/SVG/1.1/DTD/svg11.dtd">
<svg version="1.1" id="Layer_1" xmlns="http://www.w3.org/2000/svg" xmlns:xlink="http://www.w3.org/1999/xlink" x="0px" y="0px"
	 width="200px" height="150px" viewBox="0 0 200 150" enable-background="new 0 0 200 150" xml:space="preserve">
<path fill="#FFFFFF" d="M130.833,138.71H76.322v-9.558h54.511V138.71z M76.463,139.959l-2.371,5.083c0,0,0.248,1.489,1.239,1.489
	c0.991,0,56.003,0,56.985,0c1,0,1-1.489,1-1.489l-2.371-5.083H76.463z M190.906,8.055v99.255v2.33v11.609
	c0,3.059-2.23,5.566-4.954,5.566H17.456c-2.731,0-4.961-2.51-4.961-5.566v-11.609v-2.33V8.055c0-2.731,2.229-4.958,4.961-4.958
	h168.496C188.676,3.096,190.906,5.323,190.906,8.055z M180.541,15.43H22.46v89.253h158.081V15.43z"/>
<rect x="114.98" y="91.443" fill="#FFFFFF" width="20.476" height="1.899"/>
<rect x="65.788" y="91.443" fill="#FFFFFF" width="20.479" height="1.899"/>
<polygon fill="#14334E" points="98.895,83.684 102.354,83.684 102.354,89.635 113.396,89.635 113.396,95.396 87.854,95.396 
	87.854,89.635 98.895,89.635 "/>
<path fill="#FFFFFF" d="M100.625,26.286c-15.269,0-27.643,12.378-27.643,27.643c0,15.269,12.375,27.646,27.643,27.646
	c15.264,0,27.634-12.378,27.634-27.646C128.259,38.664,115.889,26.286,100.625,26.286z M97.771,35.11h1.344v-1.597h-0.924h-0.257
	v-4.118h1.681V27.29l0.1-0.22c0.295-0.008,0.599-0.028,0.91-0.028c1.34,0,2.662,0.104,3.951,0.3v1.381h1.928v2.185v3.066h-1.473
	l-1.264,1.256l-3.061,3.074l-1.593,1.597l-1.344-1.345L97.771,35.11L97.771,35.11z M92.607,28.271l0.499,0.496l-0.886,0.88h-1.509
	v1.513h2.103h1.085v6.972h-2.434V33.09H89.78v-2.437h-1.086v1.424l-1.051,1.057h-2.478l-0.68-0.685
	C86.903,30.62,89.646,29.195,92.607,28.271z M101.381,67.287h-2.266l-1.181,1.681v3.777l-3.446,2.525v4.535L90.62,76.28v-9.245
	l-4.112-3.866v-4.703l-2.856-2.101H81.13l-1.803-1.809v-2.477l-1.212-0.756l-0.349,0.924l0.592,0.336v2.105l-1.513-1.849
	l-0.756-2.945l-0.674-0.168v-5.139c1.353-3.618,3.446-6.871,6.117-9.561l8.416,0.084l-0.33,1.765l-2.523,0.165l0.254,0.836
	l0.586,0.68l-0.67,1.088l-2.019-0.248l1.18,1.597l2.012,1.425l0.674,1.593l0.836-0.249v-4.118h2.271v0.508h2.355v2.85h-1.006v1.177
	h-1.011v0.76h1.426l-0.922,0.924l-0.376-0.376l-0.887,0.876v0.756l-0.796,0.8l-1.006,1.008l-1.179,1.177l-0.792,0.8v2.518h-1.103
	v-1.345h-3.608v1.517l3.53,3.362h7.054v0.672h2.527l2.77,3.526h2.186V67.287L101.381,67.287z M122.801,51.655v2.185h-3.609
	l-1.771-1.761v-1.173h-1.037v1.641l2.393,2.394h2.729v1.973l-2.485,2.478v3.618v3.354h-1.885v3.57l-1.469,1.468h-3.462v-3.177
	l-1.864-1.861v-5.847l-2.32-2.321h-4.859l-1.908-1.909v-4.843l1.641-1.628h2.773l1.761-1.765h0.929h1.182v0.925h6.464v-1.132h-1.633
	l0.96-0.965l0.928-0.929h1.589l-1.004-0.997h-1.5l-1.589,1.585v1.241l-1.697-1.705h-1.053l1.553,1.553h-1.261l-1.008-1.009v-0.672
	l-1.511-1.509l-1.131,1.132l-0.971,0.969v1.761h-1.936v-0.833v-2.693h0.716V44.14l0.46-0.46l-0.832-0.84l-1.102,1.092l-0.881-0.884
	l0.469-0.46V41.75v-1.685h1.762v1.008l1.506,1.513h1.104v-1.18h3.354v-1.173h1.345v-1.677h-1.421v-1.601h-0.756v3.198l-0.597,0.581
	l-1.174-0.5l-2.018-0.504l0.162-1.929l2.023-1.513l1.177-2.017l2.182-0.504l-0.243,1.008l1.42,0.249l-0.076,1.004l1.59-0.168
	l0.76-0.5l0.164-0.836h3.365c5.115,4.895,8.313,11.782,8.313,19.406c0,0.412-0.016,0.816-0.031,1.229l-5.853-5.851l-0.588,0.588
	L122.801,51.655z"/>
</svg>
