<?xml version="1.0" encoding="utf-8"?>
<!-- Generator: Adobe Illustrator 16.0.0, SVG Export Plug-In . SVG Version: 6.00 Build 0)  -->
<!DOCTYPE svg PUBLIC "-//W3C//DTD SVG 1.1//EN" "http://www.w3.org/Graphics/SVG/1.1/DTD/svg11.dtd">
<svg version="1.1" id="Layer_1" xmlns="http://www.w3.org/2000/svg" xmlns:xlink="http://www.w3.org/1999/xlink" x="0px" y="0px"
	  viewBox="0 0 330 170" enable-background="new 0 0 330 170" xml:space="preserve">
<path fill="#FFFFFF" d="M52.207,63.134c0,2.178-0.816,4.118-2.447,5.826c-1.632,1.713-3.303,2.566-5.012,2.566
	c-1.711,0-2.953-0.502-3.729-1.516c-0.779-1.008-1.556-2.136-2.33-3.379c-0.779-1.244-1.479-2.369-2.099-3.38
	c-0.623-1.009-1.479-1.514-2.563-1.514c-2.178,0-4.393,1.048-6.643,3.146c-2.254,2.098-3.381,4.312-3.381,6.644
	c0,0.779,0.078,1.164,0.233,1.164c0.311,1.247,1.669,2.836,4.08,4.777c2.408,1.945,5.246,4.16,8.508,6.646
	c2.798,1.862,5.595,3.885,8.392,6.059c2.797,2.179,5.32,4.429,7.575,6.761c2.25,2.33,4.078,4.661,5.479,6.989
	c1.396,2.332,2.096,4.662,2.096,6.992c0,3.108-0.778,5.791-2.33,8.041c-1.555,2.256-3.535,4.119-5.943,5.596
	c-2.411,1.479-5.051,2.563-7.925,3.265c-2.877,0.697-5.558,1.048-8.04,1.048c-4.51,0-8.821-0.933-12.937-2.796
	c-4.119-1.861-7.808-4.313-11.071-7.344c-3.263-3.026-5.943-6.521-8.041-10.485C1.981,104.273,0.622,100.275,0,96.232
	c0-2.176,0.739-4.194,2.214-6.063c1.475-1.863,3.146-2.797,5.011-2.797c0.932,0,1.901,0.271,2.914,0.814
	c1.008,0.547,1.9,1.363,2.68,2.447c0.467,2.797,1.475,5.674,3.03,8.625c1.552,2.95,3.417,5.674,5.595,8.155
	c2.173,2.487,4.622,4.508,7.34,6.062c2.718,1.559,5.398,2.332,8.041,2.332c0.468,0,1.244-0.076,2.332-0.23
	c1.086-0.154,2.175-0.428,3.264-0.818c1.085-0.385,2.057-0.891,2.913-1.514c0.852-0.619,1.28-1.316,1.28-2.1
	c0-1.709-1.555-3.729-4.66-6.063c-3.11-2.328-6.449-4.813-10.022-7.455c-1.397-1.088-2.796-2.137-4.194-3.146
	c-1.398-1.012-2.722-2.06-3.962-3.146l-2.797-2.33c-2.178-1.707-4.352-3.689-6.526-5.943c-2.178-2.25-3.264-4.698-3.264-7.342
	c0-4.039,0.736-7.729,2.214-11.072c1.476-3.339,3.417-6.212,5.827-8.624c2.407-2.407,5.088-4.271,8.041-5.594
	c2.949-1.318,5.904-1.98,8.857-1.98c3.729,0,7.028,1.048,9.903,3.146c2.875,2.098,4.933,5.478,6.179,10.14L52.207,63.134
	L52.207,63.134z"/>
<path fill="#FFFFFF" d="M64.028,50.688c0-2.174,0.739-4.078,2.215-5.709c1.475-1.63,3.224-2.447,5.244-2.447
	c2.016,0,3.883,1.088,5.594,3.262c0.617,1.867,1.515,4.429,2.68,7.693c1.167,3.264,2.484,6.642,3.963,10.138
	c1.475,3.498,3.031,6.84,4.661,10.021c1.634,3.188,3.226,5.56,4.776,7.109c1.088-0.932,2.102-2.717,3.031-5.359
	c0.934-2.641,1.747-5.669,2.449-9.089c0.698-3.417,1.316-6.835,1.863-10.256c0.543-3.417,1.048-6.293,1.514-8.625l0.467-3.496
	h-0.232c0.466-1.708,1.553-3.183,3.264-4.429c1.708-1.242,3.264-1.864,4.661-1.864s2.524,0.739,3.381,2.214
	c0.851,1.478,1.55,3.302,2.097,5.477c0.543,2.178,0.932,4.625,1.164,7.343c0.234,2.721,0.428,5.244,0.586,7.575
	c0,0.78,0,1.515,0,2.215c0,0.698,0.073,1.438,0.231,2.212c0.151,1.4,0.271,3.03,0.351,4.896c0.073,1.865,0.269,3.654,0.582,5.361
	c0.467,4.973,0.932,10.453,1.396,16.429c0.466,5.983,0.697,12.087,0.697,18.299c0,6.836-0.504,13.752-1.512,20.744
	c-1.014,6.99-2.877,13.285-5.594,18.881c-2.72,5.592-6.488,10.139-11.306,13.635c-4.817,3.496-11.034,5.244-18.646,5.244
	c-3.42,0-6.99-0.393-10.721-1.166c-3.729-0.777-7.148-2.1-10.255-3.961c-3.108-1.867-5.671-4.313-7.692-7.346
	c-2.018-3.027-3.029-6.799-3.029-11.303c0-1.712,0.506-3.382,1.516-5.015c1.013-1.633,2.213-3.067,3.613-4.313
	c1.396-1.244,2.759-2.219,4.076-2.914c1.322-0.698,2.373-1.049,3.146-1.049c1.553,0,2.834,0.502,3.848,1.514
	c1.01,1.011,1.514,2.369,1.514,4.08c0,0.773-0.389,2.175-1.166,4.195l-3.262,3.729c0.619,3.104,2.717,5.557,6.293,7.34
	c3.572,1.787,7.535,2.687,11.887,2.687c4.813,0,8.818-1.246,12.005-3.729c3.183-2.486,5.629-5.789,7.34-9.904
	c1.708-4.114,2.915-8.819,3.612-14.102c0.699-5.285,1.05-10.724,1.05-16.316c0-4.504-0.156-8.854-0.468-13.051
	c-0.313-4.19-0.62-8.158-0.932-11.892c-1.863,3.42-3.885,6.179-6.06,8.275c-2.181,2.096-4.509,3.145-6.993,3.145
	c-2.953,0-5.865-1.668-8.741-5.012c-2.875-3.34-5.593-7.377-8.153-12.117c-2.565-4.739-4.896-9.71-6.996-14.917
	c-2.096-5.204-3.764-9.749-5.01-13.635L64.028,50.688L64.028,50.688z"/>
<path fill="#FFFFFF" d="M182.023,63.134c0,2.178-0.813,4.118-2.447,5.826c-1.631,1.713-3.305,2.566-5.012,2.566
	c-1.711,0-2.951-0.502-3.729-1.516c-0.776-1.008-1.558-2.136-2.331-3.379c-0.777-1.244-1.479-2.369-2.1-3.38
	c-0.622-1.009-1.479-1.514-2.563-1.514c-2.178,0-4.395,1.048-6.643,3.146c-2.256,2.098-3.381,4.312-3.381,6.644
	c0,0.779,0.072,1.164,0.23,1.164c0.313,1.247,1.667,2.836,4.08,4.777c2.406,1.945,5.245,4.16,8.511,6.646
	c2.795,1.862,5.594,3.885,8.389,6.059c2.799,2.179,5.32,4.429,7.574,6.761c2.252,2.33,4.08,4.661,5.479,6.989
	c1.4,2.332,2.1,4.662,2.1,6.992c0,3.108-0.777,5.791-2.332,8.041c-1.555,2.256-3.535,4.119-5.938,5.596
	c-2.408,1.479-5.056,2.563-7.929,3.265c-2.875,0.697-5.557,1.048-8.041,1.048c-4.505,0-8.814-0.933-12.934-2.796
	c-4.121-1.861-7.809-4.313-11.073-7.344c-3.264-3.026-5.94-6.521-8.042-10.485c-2.096-3.964-3.454-7.962-4.076-12.005
	c0-2.176,0.738-4.193,2.214-6.062c1.476-1.864,3.146-2.797,5.011-2.797c0.933,0,1.901,0.272,2.915,0.815
	c1.01,0.548,1.898,1.363,2.68,2.447c0.465,2.797,1.475,5.674,3.03,8.625c1.553,2.949,3.416,5.674,5.594,8.154
	c2.174,2.488,4.622,4.508,7.343,6.063c2.717,1.558,5.397,2.332,8.042,2.332c0.467,0,1.236-0.076,2.33-0.231
	c1.086-0.154,2.174-0.427,3.264-0.817c1.085-0.386,2.061-0.892,2.91-1.515c0.854-0.619,1.283-1.317,1.283-2.099
	c0-1.709-1.557-3.729-4.66-6.063c-3.108-2.328-6.448-4.813-10.021-7.455c-1.4-1.088-2.799-2.137-4.197-3.146
	c-1.398-1.012-2.719-2.061-3.961-3.147l-2.799-2.33c-2.177-1.707-4.352-3.689-6.525-5.943c-2.18-2.25-3.263-4.698-3.263-7.342
	c0-4.039,0.734-7.729,2.212-11.072c1.477-3.339,3.417-6.212,5.829-8.624c2.407-2.407,5.086-4.271,8.042-5.594
	c2.948-1.318,5.899-1.98,8.854-1.98c3.729,0,7.027,1.048,9.904,3.146c2.873,2.098,4.934,5.478,6.178,10.14V63.134L182.023,63.134z"
	/>
<path fill="#FFFFFF" d="M198.107,28.871c-2.799-0.932-4.193-2.716-4.193-5.36c0-1.708,0.771-3.379,2.328-5.012
	c1.555-1.631,3.416-2.447,5.594-2.447c2.951,0,5.633,1.282,8.043,3.846c2.406,2.563,3.611,6.566,3.611,12.003
	c0,3.886-0.508,8.355-1.514,13.403c-1.017,5.051-2.063,9.439-3.146,13.168l-2.102,8.392c-0.777,1.557-1.941,2.913-3.494,4.079
	c-1.555,1.166-2.951,1.748-4.193,1.748c-1.4,0-2.604-0.502-3.613-1.514c-1.012-1.01-1.514-2.682-1.514-5.012
	c0.15-1.242,0.385-2.525,0.697-3.846c0.309-1.319,0.617-2.756,0.934-4.313v0.233c0.932-3.572,1.898-7.495,2.914-11.771
	c1.006-4.271,1.514-8.041,1.514-11.304c0-3.573-0.699-5.67-2.096-6.293H198.107z"/>
<path fill="#00C6B2" d="M231.902,9.293c0.465-1.708,1.514-3.183,3.146-4.429C236.68,3.623,238.27,3,239.826,3
	c2.795,0,4.502,1.788,5.127,5.361c0,9.324-0.043,18.686-0.115,28.085c-0.082,9.404-0.197,18.763-0.352,28.086l-0.467,56.637
	c-0.313,2.179-1.32,3.963-3.029,5.36c-1.711,1.396-3.42,2.097-5.127,2.097c-3.578,0-5.361-2.097-5.361-6.291
	c0-8.701,0.076-17.365,0.234-25.989c0.148-8.623,0.309-17.279,0.465-25.985c0.15-8.236,0.27-16.393,0.35-24.475
	c0.078-8.077,0.117-16.235,0.117-24.472V9.992L231.902,9.293z"/>
<path fill="#00C6B2" d="M282.014,9.293c1.709-1.708,3.572-2.564,5.594-2.564c1.558,0,2.836,0.506,3.853,1.515
	c1.009,1.013,1.517,2.372,1.517,4.08c0,0.623-0.117,1.206-0.353,1.748c-0.231,0.546-0.506,1.282-0.813,2.214
	c-3.107,3.42-5.826,7.575-8.158,12.47c-2.328,4.895-4.391,10.063-6.174,15.5c-1.789,5.441-3.188,11.035-4.195,16.782
	c-1.014,5.749-1.596,11.188-1.748,16.315c4.195-3.107,9.01-5.709,14.449-7.81c5.438-2.097,11.104-3.146,17.018-3.146
	c2.48,0,4.969,0.233,7.457,0.698c2.482,0.467,4.695,1.399,6.645,2.798c1.941,1.4,3.531,3.305,4.777,5.711
	c1.242,2.41,1.863,5.477,1.863,9.207c0,4.194-1.396,8.625-4.195,13.285c-2.795,4.661-6.219,8.938-10.254,12.817
	c-4.043,3.887-8.395,7.108-13.055,9.674c-4.66,2.563-8.938,3.847-12.818,3.847c-3.264,0-6.451-0.734-9.559-2.216
	c-3.105-1.477-5.824-3.807-8.156-6.991c-2.33-3.185-4.195-7.146-5.594-11.888c-1.396-4.739-2.098-10.373-2.098-16.897
	c0-6.06,0.467-12.583,1.396-19.576c0.935-6.992,2.369-13.945,4.313-20.861c1.939-6.912,4.428-13.554,7.459-19.928
	C274.205,19.705,277.818,14.111,282.014,9.293z M306.486,80.614c-1.713-1.085-3.652-1.634-5.826-1.634
	c-2.178,0-4.584,0.47-7.229,1.4c-2.646,0.932-5.281,2.178-7.924,3.729c-2.646,1.556-5.17,3.228-7.574,5.013
	c-2.41,1.787-4.471,3.61-6.178,5.478c0.148,1.711,0.582,3.496,1.28,5.358c0.696,1.865,1.593,3.578,2.684,5.127
	c1.084,1.558,2.29,2.838,3.609,3.849c1.313,1.016,2.681,1.52,4.078,1.52c2.642,0,5.517-0.736,8.622-2.217
	c3.104-1.478,5.979-3.34,8.625-5.596c2.643-2.252,4.854-4.736,6.645-7.459c1.784-2.718,2.684-5.396,2.684-8.041
	C309.982,84.657,308.818,82.479,306.486,80.614z"/>
</svg>
